<svg xmlns="http://www.w3.org/2000/svg" width="40" height="40" viewBox="0 0 40 40">
  <g fill="#63666A" fill-rule="evenodd">
    <path d="M37.65625,36.484375 C37.65625,37.1305469 37.1305469,37.65625 36.484375,37.65625 L3.515625,37.65625 C2.86945312,37.65625 2.34375,37.1305469 2.34375,36.484375 L2.34375,16.5625 L37.65625,16.5625 L37.65625,36.484375 Z M3.515625,7.03125 L4.6875,7.03125 L4.6875,8.203125 C4.6875,10.1416406 6.26460938,11.71875 8.203125,11.71875 C10.1416406,11.71875 11.71875,10.1416406 11.71875,8.203125 L11.71875,7.03125 L16.5625,7.03125 L16.5625,8.203125 C16.5625,10.1416406 18.1396094,11.71875 20.078125,11.71875 C22.0166406,11.71875 23.59375,10.1416406 23.59375,8.203125 L23.59375,7.03125 L28.28125,7.03125 L28.28125,8.203125 C28.28125,10.1416406 29.8583594,11.71875 31.796875,11.71875 C33.7353125,11.71875 35.3125,10.1416406 35.3125,8.203125 L35.3125,7.03125 L36.484375,7.03125 C37.1305469,7.03125 37.65625,7.55695312 37.65625,8.203125 L37.65625,14.21875 L2.34375,14.21875 L2.34375,8.203125 C2.34375,7.55695312 2.86945312,7.03125 3.515625,7.03125 Z M7.03125,3.515625 C7.03125,2.86945312 7.55695312,2.34375 8.203125,2.34375 C8.84929688,2.34375 9.375,2.86945312 9.375,3.515625 L9.375,8.203125 C9.375,8.84929688 8.84929688,9.375 8.203125,9.375 C7.55695312,9.375 7.03125,8.84929688 7.03125,8.203125 L7.03125,3.515625 Z M18.90625,3.515625 C18.90625,2.86945312 19.4319531,2.34375 20.078125,2.34375 C20.7242969,2.34375 21.25,2.86945312 21.25,3.515625 L21.25,8.203125 C21.25,8.84929688 20.7242969,9.375 20.078125,9.375 C19.4319531,9.375 18.90625,8.84929688 18.90625,8.203125 L18.90625,3.515625 Z M30.625,3.515625 C30.625,2.86945312 31.1507031,2.34375 31.796875,2.34375 C32.4430469,2.34375 32.96875,2.86945312 32.96875,3.515625 L32.96875,8.203125 C32.96875,8.84929688 32.4430469,9.375 31.796875,9.375 C31.1507031,9.375 30.625,8.84929688 30.625,8.203125 L30.625,3.515625 Z M36.484375,4.6875 L35.3125,4.6875 L35.3125,3.515625 C35.3125,1.57710938 33.7353125,0 31.796875,0 C29.8583594,0 28.28125,1.57710938 28.28125,3.515625 L28.28125,4.6875 L23.59375,4.6875 L23.59375,3.515625 C23.59375,1.57710938 22.0166406,0 20.078125,0 C18.1396094,0 16.5625,1.57710938 16.5625,3.515625 L16.5625,4.6875 L11.71875,4.6875 L11.71875,3.515625 C11.71875,1.57710938 10.1416406,0 8.203125,0 C6.26460938,0 4.6875,1.57710938 4.6875,3.515625 L4.6875,4.6875 L3.515625,4.6875 C1.57710938,4.6875 0,6.26460938 0,8.203125 L0,36.484375 C0,38.4228125 1.57710938,40 3.515625,40 L36.484375,40 C38.4228906,40 40,38.4228125 40,36.484375 L40,8.203125 C40,6.26460938 38.4228906,4.6875 36.484375,4.6875 Z"/>
    <g transform="translate(5 19)">
      <path d="M2.3 15C2.3 16 1.15 16 1.15 16 1.15 16 0 16 0 15L0 1C0 0 1.15 0 1.15 0 1.15 0 2.3 0 2.3 1L2.3 15zM30.3 15C30.3 16 29.15 16 29.15 16 29.15 16 28 16 28 15L28 1C28 0 29.15 0 29.15 0 29.15 0 30.3 0 30.3 1L30.3 15zM23.3 15C23.3 16 22.15 16 22.15 16 22.15 16 21 16 21 15L21 1C21 0 22.15 0 22.15 0 22.15 0 23.3 0 23.3 1L23.3 15zM16.3 15C16.3 16 15.15 16 15.15 16 15.15 16 14 16 14 15L14 1C14 0 15.15 0 15.15 0 15.15 0 16.3 0 16.3 1L16.3 15zM9.3 15C9.3 16 8.15 16 8.15 16 8.15 16 7 16 7 15L7 1C7 0 8.15 0 8.15 0 8.15 0 9.3 0 9.3 1L9.3 15z"/>
      <path d="M29 0C29.6666667 0 30 .383333333 30 1.15 30 1.91666667 29.6666667 2.3 29 2.3L1 2.3C0 2.3 0 1.15 0 1.15 0 1.15 0 0 1 0 19 6.2551107e-18 28.3333333 6.2551107e-18 29 0zM29 7C29.6666667 7 30 7.36666667 30 8.1 30 8.83333333 29.6666667 9.2 29 9.2L1 9.2C0 9.2 0 8.1 0 8.1 0 8.1 0 7 1 7 19 7 28.3333333 7 29 7zM29 14C29.6666667 14 30 14.3833333 30 15.15 30 15.9166667 29.6666667 16.3 29 16.3L1 16.3C0 16.3 0 15.15 0 15.15 0 15.15 0 14 1 14 19 14 28.3333333 14 29 14z"/>
    </g>
  </g>
</svg>
