<svg xmlns="http://www.w3.org/2000/svg" width="40" height="40" viewBox="0 0 40 40">
  <g fill="none" fill-rule="evenodd">
    <path fill="#63666A" d="M1.20031231,2.395 C0.537421788,2.395 0,1.85890625 0,1.1975 C0,0.536171875 0.537421788,-1.77635684e-14 1.20031231,-1.77635684e-14 L5.2445304,-1.77635684e-14 C5.90734279,-1.77635684e-14 6.44476458,0.536171875 6.44476458,1.1975 L6.44476458,6.79460937 L6.44476458,25.7542969 L6.44476458,30.7917187 L31.3498387,30.7917187 C33.8944476,30.7917187 35.9646817,32.8571875 35.9646817,35.3959375 C35.9646817,37.9345312 33.8944476,40 31.3498387,40 C28.8052297,40 26.7350738,37.9345312 26.7350738,35.3959375 C26.7350738,34.5959375 26.9410113,33.8430469 27.3022612,33.1867969 L9.292186,33.1867969 C9.65335781,33.8430469 9.8593734,34.5957812 9.8593734,35.3959375 C9.8593734,37.9345312 7.78913936,40 5.24460853,40 C2.69999956,40 0.629765523,37.9345312 0.629765523,35.3959375 C0.629765523,33.2714844 2.07992154,31.4792187 4.04429622,30.9507812 C4.04429622,22.5282118 4.04429622,16.2112847 4.04429622,12 C4.04429622,9.86555556 4.04429622,6.66388889 4.04429622,2.395 L1.20031231,2.395 Z M3,35.4650783 C3,36.6863991 3.99364924,37.68 5.21503908,37.68 C6.43635076,37.68 7.43,36.6863991 7.43,35.4650783 C7.43,34.2436009 6.43635076,33.25 5.21503908,33.25 C3.99364924,33.25 3,34.2436009 3,35.4650783 Z M29,35.4650783 C29,36.6863991 29.9936492,37.68 31.2150391,37.68 C32.4363508,37.68 33.43,36.6863991 33.43,35.4650783 C33.43,34.2436009 32.4363508,33.25 31.2150391,33.25 C29.9936492,33.25 29,34.2436009 29,35.4650783 Z"/>
    <path fill="#63666A" d="M15.3,24.8794286 C15.3,26.0047238 14.15,26.0047238 14.15,26.0047238 C14.15,26.0047238 13,26.0047238 13,24.8794286 L13,9.12529524 C13,8 14.15,8 14.15,8 C14.15,8 15.3,8 15.3,9.12529524 L15.3,24.8794286 Z"/>
    <path fill="#63666A" d="M39 7.24764975C40 7.24764975 40 8.39764975 40 8.39764975 40 8.39764975 40 9.54764975 39 9.54764975L5.19882272 9.54764975C4 9.54764975 4 8.39764975 4 8.39764975 4 8.39764975 4 7.24764975 5.19882272 7.24764975 27.0662742 7.24764975 38.3333333 7.24764975 39 7.24764975zM34 24C34.6666667 24 35 24.3833333 35 25.15 35 25.9166667 34.6666667 26.3 34 26.3L6 26.3C5 26.3 5 25.15 5 25.15 5 25.15 5 24 6 24 24 24 33.3333333 24 34 24z"/>
    <path fill="#63666A" d="M23.38854,24.9524761 C23.38854,26.0777713 22.23854,26.0777713 22.23854,26.0777713 C22.23854,26.0777713 21.08854,26.0777713 21.08854,24.9524761 L21.08854,9.19834274 C21.08854,8.0730475 22.23854,8.0730475 22.23854,8.0730475 C22.23854,8.0730475 23.38854,8.0730475 23.38854,9.19834274 L23.38854,24.9524761 Z" transform="rotate(7 22.239 17.075)"/>
    <path fill="#63666A" d="M37.838776,25.0907074 C37.838776,26.2997176 36.688776,26.2997176 36.688776,26.2997176 C36.688776,26.2997176 35.538776,26.2997176 35.538776,25.0907074 L35.538776,8.16456508 C35.538776,6.95555492 36.688776,6.95555492 36.688776,6.95555492 C36.688776,6.95555492 37.838776,6.95555492 37.838776,8.16456508 L37.838776,25.0907074 Z" transform="rotate(15.5 36.689 16.628)"/>
    <path fill="#63666A" d="M30.3,24.8794286 C30.3,26.0047238 29.15,26.0047238 29.15,26.0047238 C29.15,26.0047238 28,26.0047238 28,24.8794286 L28,9.12529524 C28,8 29.15,8 29.15,8 C29.15,8 30.3,8 30.3,9.12529524 L30.3,24.8794286 Z" transform="rotate(7 29.15 17.002)"/>
    <path fill="#63666A" d="M7,24.8794286 C7,26.0047238 6,26.0047238 6,26.0047238 C6,26.0047238 5,26.0047238 5,24.8794286 L5,9.12529524 C5,8 6,8 6,8 C6,8 7,8 7,9.12529524 L7,24.8794286 Z"/>
    <path fill="#63666A" d="M35.8101058,15 C36.5183841,15 36.8725233,15.3666667 36.8725233,16.1 C36.8725233,16.8333333 36.5183841,17.2 35.8101058,17.2 L6.06241744,17.2 C5,17.2 5,16.1 5,16.1 C5,16.1 5,15 6.06241744,15 C25.1859314,15 35.1018275,15 35.8101058,15 Z"/>
  </g>
</svg>
