<svg xmlns="http://www.w3.org/2000/svg" width="40" height="40" viewBox="0 0 40 40">
  <g fill="#63666A" fill-rule="evenodd">
    <path d="M5.859375 16.40625L10.546875 16.40625C11.1940625 16.40625 11.71875 15.8815625 11.71875 15.234375 11.71875 14.5871875 11.1940625 14.0625 10.546875 14.0625L5.859375 14.0625C5.2121875 14.0625 4.6875 14.5871875 4.6875 15.234375 4.6875 15.8815625 5.2121875 16.40625 5.859375 16.40625M11.71875 19.921875C11.71875 19.2746875 11.1940625 18.75 10.546875 18.75L5.859375 18.75C5.2121875 18.75 4.6875 19.2746875 4.6875 19.921875 4.6875 20.5690625 5.2121875 21.09375 5.859375 21.09375L10.546875 21.09375C11.1940625 21.09375 11.71875 20.5690625 11.71875 19.921875"/>
    <path d="M35.3125,20.8929453 L35.3125,14.2632578 C36.6766406,14.7470078 37.65625,16.0502891 37.65625,17.5781016 C37.65625,19.1059141 36.6766406,20.4093516 35.3125,20.8929453 Z M32.96875,31.6406016 C32.96875,32.2868516 32.4430469,32.8124766 31.796875,32.8124766 C31.1507031,32.8124766 30.625,32.2868516 30.625,31.6406016 L30.625,3.51560156 C30.625,2.86942969 31.1507031,2.34372656 31.796875,2.34372656 C32.4430469,2.34372656 32.96875,2.86942969 32.96875,3.51560156 L32.96875,31.6406016 Z M16.40625,23.4747422 L16.40625,11.6814609 C20.8625781,11.3982578 25.1158594,9.51013281 28.2223438,6.40364844 L28.28125,6.34474219 L28.28125,28.8113828 L28.2223438,28.7526328 C25.1158594,25.6460703 20.8625781,23.7580234 16.40625,23.4747422 Z M16.40625,26.9531016 C16.40625,27.5993516 15.8805469,28.1249766 15.234375,28.1249766 L14.0625,28.1249766 L14.0625,25.7812266 L15.234375,25.7812266 C15.6264063,25.7812266 16.0172656,25.7957578 16.40625,25.8240391 L16.40625,26.9531016 Z M11.71875,36.4843516 C11.71875,37.1306016 11.1930469,37.6562266 10.546875,37.6562266 C9.90070312,37.6562266 9.375,37.1306016 9.375,36.4843516 L9.375,25.7812266 L11.71875,25.7812266 L11.71875,36.4843516 Z M2.34375,19.9218516 L2.34375,15.2343516 C2.34375,13.2958359 3.92085938,11.7187266 5.859375,11.7187266 L14.0625,11.7187266 L14.0625,23.4374766 L5.859375,23.4374766 C3.92085938,23.4374766 2.34375,21.8603672 2.34375,19.9218516 Z M35.3125,11.8366172 L35.3125,3.51560156 C35.3125,1.57708594 33.7353906,-2.34375e-05 31.796875,-2.34375e-05 C30.0366406,-2.34375e-05 28.5746094,1.30044531 28.3205469,2.99091406 L26.5650781,4.74638281 C23.6235156,7.68794531 19.4936719,9.37497656 15.234375,9.37497656 L5.859375,9.37497656 C2.62851562,9.37497656 0,12.0034922 0,15.2343516 L0,19.9218516 C0,23.1527891 2.62851562,25.7812266 5.859375,25.7812266 L7.03125,25.7812266 L7.03125,36.4843516 C7.03125,38.4228672 8.60835938,39.9999766 10.546875,39.9999766 C12.4853906,39.9999766 14.0625,38.4228672 14.0625,36.4843516 L14.0625,30.4687266 L15.234375,30.4687266 C17.1728906,30.4687266 18.75,28.8916172 18.75,26.9531016 L18.75,26.1670078 C21.7079687,26.8218516 24.4451563,28.2899766 26.5650781,30.4098203 L28.3205469,32.1652891 C28.5746094,33.8557578 30.0366406,35.1562266 31.796875,35.1562266 C33.7353906,35.1562266 35.3125,33.5791172 35.3125,31.6406016 L35.3125,23.3196641 C37.98375,22.7752891 40,20.4077891 40,17.5781016 C40,14.7484141 37.98375,12.3810703 35.3125,11.8366172 Z"/>
  </g>
</svg>
