<svg xmlns="http://www.w3.org/2000/svg" width="40" height="40" viewBox="0 0 40 40">
  <g fill="#63666A" fill-rule="evenodd">
    <path d="M16.4062188 20.0115547C16.4062188 20.7018672 16.9309844 21.2615547 17.5780938 21.2615547L34.1405938 21.2615547C34.7877813 21.2615547 35.3124688 20.7018672 35.3124688 20.0115547 35.3124688 19.3212422 34.7877813 18.7615547 34.1405938 18.7615547L17.5780938 18.7615547C16.9309844 18.7615547 16.4062188 19.3212422 16.4062188 20.0115547M27.1093438 24.5236953L17.5780938 24.5236953C16.9309844 24.5236953 16.4062188 25.0833828 16.4062188 25.7736953 16.4062188 26.4640078 16.9309844 27.0236953 17.5780938 27.0236953L27.1093438 27.0236953C27.7565313 27.0236953 28.2812188 26.4640078 28.2812188 25.7736953 28.2812188 25.0833828 27.7565313 24.5236953 27.1093438 24.5236953"/>
    <path d="M2.34371875,3.74996094 C2.34371875,3.06074219 2.86942188,2.49996094 3.51559375,2.49996094 L25.781375,2.49996094 C26.4274687,2.49996094 26.95325,3.06074219 26.95325,3.74996094 L26.95325,9.99996094 L15.2343438,9.99996094 C13.2958281,9.99996094 11.7187188,11.6821484 11.7187188,13.7499609 L11.7187188,23.0811328 L7.03121875,26.4144141 L7.03121875,23.7500391 C7.03121875,23.0598047 6.50653125,22.5000391 5.85934375,22.5000391 L3.51559375,22.5000391 C2.86942188,22.5000391 2.34371875,21.9393359 2.34371875,21.2500391 L2.34371875,3.74996094 Z M37.6562188,13.7499609 L37.6562188,31.2500391 C37.6562188,31.9393359 37.1305156,32.4999609 36.4843438,32.4999609 L34.1405938,32.4999609 C33.4934844,32.4999609 32.9687188,33.0597266 32.9687188,33.7499609 L32.9687188,36.4143359 L27.7593437,32.7099609 C27.5668438,32.5730078 27.3406719,32.4999609 27.1093438,32.4999609 L15.2343438,32.4999609 C14.5881719,32.4999609 14.0624688,31.9393359 14.0624688,31.2500391 L14.0624688,23.7588672 L14.0624688,23.7538672 L14.0624688,13.7499609 C14.0624688,13.0606641 14.5881719,12.4999609 15.2343438,12.4999609 L36.4843438,12.4999609 C37.1305156,12.4999609 37.6562188,13.0606641 37.6562188,13.7499609 Z M3.51559375,25.0000391 L4.68746875,25.0000391 L4.68746875,28.7500391 C4.68746875,29.2110547 4.92535938,29.6346484 5.30645313,29.8521484 C5.68715625,30.0695703 6.14973438,30.0458984 6.50934375,29.7901172 L11.7187188,26.0857422 L11.7187188,31.2500391 C11.7187188,33.3177734 13.2958281,34.9999609 15.2343438,34.9999609 L26.7545,34.9999609 L33.4906719,39.7900391 C33.8499688,40.0455859 34.3123125,40.0697266 34.6935625,39.8520703 C35.0745781,39.6345703 35.3124688,39.2109766 35.3124688,38.7499609 L35.3124688,34.9999609 L36.4843438,34.9999609 C38.4228594,34.9999609 39.9999688,33.3177734 39.9999688,31.2500391 L39.9999688,13.7499609 C39.9999688,11.6821484 38.4228594,9.99996094 36.4843438,9.99996094 L29.297,9.99996094 L29.297,3.74996094 C29.297,1.68222656 27.7198125,-3.90625e-05 25.781375,-3.90625e-05 L3.51559375,-3.90625e-05 C1.57707813,-3.90625e-05 -3.125e-05,1.68222656 -3.125e-05,3.74996094 L-3.125e-05,21.2500391 C-3.125e-05,23.3178516 1.57707813,25.0000391 3.51559375,25.0000391 Z"/>
  </g>
</svg>
