<svg xmlns="http://www.w3.org/2000/svg" width="40" height="40" viewBox="0 0 40 40">
  <g fill="#63666A" fill-rule="evenodd">
    <path d="M33.543875 14.1413906C33.1816875 14.1413906 32.8395781 13.9858438 32.5806719 13.7033438 32.0289531 13.1014688 32.0289531 12.1221719 32.5806719 11.5202969L36.6593438 7.0706875 32.5806719 2.62115625C32.0289531 2.01920312 32.0289531 1.03998437 32.5806719.438109375 32.8395781.15553125 33.1816875-.000015625 33.543875-.000015625 33.9060625-.000015625 34.2481719.15553125 34.5070781.438109375L39.5862969 5.979125C40.1378594 6.58115625 40.1378594 7.560375 39.5862969 8.16225L34.5070781 13.7033438C34.2481719 13.9858438 33.9060625 14.1413906 33.543875 14.1413906M33.543875 40.0000078C33.1816875 40.0000078 32.8395781 39.8444609 32.5806719 39.5619609 32.0289531 38.9600078 32.0289531 37.9807109 32.5806719 37.3788359L36.6593438 32.9293047 32.5806719 28.4796953C32.0289531 27.8778203 32.0289531 26.8986016 32.5806719 26.2966484 32.8395781 26.0141484 33.1816875 25.8586016 33.543875 25.8586016 33.9060625 25.8586016 34.2481719 26.0141484 34.5070781 26.2966484L39.5862969 31.8377422C40.1378594 32.4396953 40.1378594 33.4189141 39.5862969 34.0207891L34.5070781 39.5619609C34.2481719 39.8444609 33.9060625 40.0000078 33.543875 40.0000078"/>
    <path d="M28.4646875,34.4588516 C21.17125,34.4588516 15.2375781,27.9726797 15.2375781,20.0000234 C15.2375781,12.0273672 21.17125,5.54119531 28.4646875,5.54119531 L38.6230469,5.54119531 C39.3815625,5.54119531 39.9986719,6.22728906 39.9986719,7.07072656 C39.9986719,7.91416406 39.3815625,8.60025781 38.6230469,8.60025781 L28.4646875,8.60025781 C22.6882813,8.60025781 17.9888281,13.7142422 17.9888281,20.0000234 C17.9888281,26.2858047 22.6882813,31.3997891 28.4646875,31.3997891 L38.6230469,31.3997891 C39.3815625,31.3997891 39.9986719,32.0858828 39.9986719,32.9293203 C39.9986719,33.7727578 39.3815625,34.4588516 38.6230469,34.4588516 L28.4646875,34.4588516 Z"/>
    <path d="M1.37567969,34.4588516 C0.617164062,34.4588516 5.46874999e-05,33.7727578 5.46874999e-05,32.9293203 C5.46874999e-05,32.0858828 0.617164062,31.3997891 1.37567969,31.3997891 L4.76177344,31.3997891 C10.5381016,31.3997891 15.2376328,26.2858047 15.2376328,20.0000234 C15.2376328,13.7142422 10.5381016,8.60025781 4.76177344,8.60025781 L1.37567969,8.60025781 C0.617164062,8.60025781 5.46874999e-05,7.91416406 5.46874999e-05,7.07072656 C5.46874999e-05,6.22728906 0.617164062,5.54119531 1.37567969,5.54119531 L4.76177344,5.54119531 C12.0551328,5.54119531 17.9888047,12.0273672 17.9888047,20.0000234 C17.9888047,27.9726797 12.0551328,34.4588516 4.76177344,34.4588516 L1.37567969,34.4588516 Z"/>
  </g>
</svg>
