<svg xmlns="http://www.w3.org/2000/svg" width="40" height="40" viewBox="0 0 40 40">
  <g fill="none" fill-rule="evenodd">
    <path fill="#63666A" d="M38.5913672,16.0413228 C37.8126172,16.0413228 37.1827734,16.6811644 37.1827734,17.4695208 L37.1827734,37.1437386 L2.81722656,37.1437386 L2.81722656,17.4695208 C2.81722656,16.6811644 2.18621094,16.0413228 1.40863281,16.0413228 C0.631054688,16.0413228 -3.90625e-05,16.6811644 -3.90625e-05,17.4695208 L-3.90625e-05,38.5718574 C-3.90625e-05,39.361402 0.631054688,40.0000554 1.40863281,40.0000554 L38.5913672,40.0000554 C39.3689453,40.0000554 39.9999609,39.361402 39.9999609,38.5718574 L39.9999609,17.4695208 C39.9999609,16.6811644 39.3689453,16.0413228 38.5913672,16.0413228"/>
    <path fill="#63666A" d="M19.5019062,26.5814462 C19.7657344,26.8414462 20.1244844,26.9877538 20.4977656,26.9877538 C20.8710469,26.9877538 21.2295625,26.8414462 21.493625,26.5814462 L27.5737031,20.5949077 C28.1240156,20.0530615 28.1240156,19.1743692 27.5737031,18.6325231 C27.023625,18.0909846 26.1322187,18.0916769 25.5819844,18.6325231 L21.9063594,22.2518308 L21.9072969,1.38698462 C21.9072969,0.621138462 21.2772187,-1.53846154e-05 20.4987031,-1.53846154e-05 C19.7209687,-1.53846154e-05 19.0901094,0.621138462 19.0901094,1.38698462 L19.0891719,22.2518308 L15.4180781,18.6372154 C14.8677656,18.0953692 13.9762812,18.0953692 13.4262031,18.6372154 C12.8758906,19.1790615 12.8758906,20.0565231 13.4262031,20.5983692 L19.5019062,26.5814462 Z"/>
  </g>
</svg>
