<svg xmlns="http://www.w3.org/2000/svg" width="40" height="40" viewBox="0 0 40 40">
  <path fill="#63666A" fill-rule="evenodd" d="M8.1861875,14.5454375 C11.1954844,14.5454375 13.6436094,16.9923125 13.6436094,19.9999687 C13.6436094,23.007625 11.1954844,25.4545781 8.1861875,25.4545781 C5.17689063,25.4545781 2.72876563,23.007625 2.72876563,19.9999687 C2.72876563,16.9923125 5.17689063,14.5454375 8.1861875,14.5454375 M31.8138438,2.7273125 C34.8230625,2.7273125 37.2712656,5.1741875 37.2712656,8.18184375 C37.2712656,11.1894219 34.8230625,13.636375 31.8138438,13.636375 C28.8045469,13.636375 26.3563438,11.1894219 26.3563438,8.18184375 C26.3563438,5.1741875 28.8045469,2.7273125 31.8138438,2.7273125 M31.8138438,26.3635625 C34.8230625,26.3635625 37.2712656,28.8105937 37.2712656,31.8181719 C37.2712656,34.8258281 34.8230625,37.2727031 31.8138438,37.2727031 C28.8045469,37.2727031 26.3563438,34.8258281 26.3563438,31.8181719 C26.3563438,28.8105937 28.8045469,26.3635625 31.8138438,26.3635625 M8.1861875,28.1818437 C11.0141563,28.1818437 13.5116563,26.7410625 14.9829063,24.5554375 L23.8931406,29.748875 C23.7200938,30.4099688 23.6275937,31.1034062 23.6275937,31.8181719 C23.6275937,36.3296563 27.2999375,39.9999688 31.8138438,39.9999688 C36.3276719,39.9999688 40.0000156,36.3296563 40.0000156,31.8181719 C40.0000156,27.3067656 36.3276719,23.636375 31.8138438,23.636375 C28.9857969,23.636375 26.488375,25.0772344 25.017125,27.2627031 L16.1068906,22.0694219 C16.2799375,21.4081719 16.3723594,20.7147344 16.3723594,19.9999687 C16.3723594,19.2852813 16.2799375,18.5918437 16.1068906,17.9305937 L25.017125,12.7372344 C26.488375,14.9227812 28.9857969,16.3635625 31.8138438,16.3635625 C36.3276719,16.3635625 40.0000156,12.69325 40.0000156,8.18184375 C40.0000156,3.67035937 36.3276719,-3.125e-05 31.8138438,-3.125e-05 C27.2999375,-3.125e-05 23.6275937,3.67035937 23.6275937,8.18184375 C23.6275937,8.89653125 23.7200938,9.58996875 23.8931406,10.2511406 L14.9829063,15.4445781 C13.5116563,13.2589531 11.0141563,11.8181719 8.1861875,11.8181719 C3.67235938,11.8181719 1.5625e-05,15.4884844 1.5625e-05,19.9999687 C1.5625e-05,24.5114531 3.67235938,28.1818437 8.1861875,28.1818437"/>
</svg>
