<svg xmlns="http://www.w3.org/2000/svg" width="40" height="40" viewBox="0 0 40 40">
  <g fill="#63666A" fill-rule="evenodd">
    <path d="M37.1300351,12.2813047 L20.1660585,32.3186484 L8.97198441,20.6296641 L28.1608343,2.91552344 C28.9344795,2.20130469 30.1124912,2.23911719 30.8427057,3.00153906 L37.0476179,9.48075781 C37.7778324,10.2433359 37.8140117,11.4734922 37.1300351,12.2813047 Z M9.62079532,34.8047422 L6.59100975,31.6409922 L8.04138012,23.0592734 L17.8391969,33.2903672 L9.62079532,34.8047422 Z M6.37393372,37.3802109 L3.18757895,36.0102109 L5.35264717,33.7494297 L7.60184795,36.0978672 L6.37393372,37.3802109 Z M38.6763119,7.78021094 L32.4714776,1.30091406 C30.8823938,-0.358382812 28.318729,-0.440726562 26.6351423,1.11349219 L6.52878752,19.6746641 C6.52582456,19.6773984 6.52340741,19.6805234 6.52052242,19.6832578 C6.49775439,19.7046641 6.476,19.7270078 6.45502534,19.7502891 C6.44925536,19.7566953 6.44332943,19.7630234 6.4377154,19.7695859 C6.41479142,19.7959922 6.39295906,19.8233359 6.37237427,19.8517734 C6.36870955,19.8568516 6.36535673,19.8621641 6.36176998,19.8671641 C6.34430409,19.8921641 6.32785185,19.9180234 6.31217934,19.9444297 C6.30796881,19.9516172 6.30360234,19.9586484 6.29962573,19.9658359 C6.28223782,19.9965391 6.26601949,20.0281016 6.25120468,20.0604453 C6.24878752,20.0659141 6.24668226,20.0714609 6.24434308,20.0769297 C6.23194542,20.1050547 6.22087329,20.1336484 6.21065887,20.1629453 C6.20777388,20.1713047 6.20473294,20.1794297 6.20208187,20.1877891 C6.19108772,20.2214609 6.18126316,20.2556016 6.17307602,20.2904453 C6.17167251,20.2963828 6.17065887,20.3023984 6.16941131,20.3084922 C6.16512281,20.3277891 6.16083431,20.3470078 6.15748148,20.3667734 L4.28169201,31.4663047 L0.337364522,35.5850547 C0.0650838207,35.8693516 -0.053122807,36.2769297 0.0223547758,36.6712266 C0.0979103314,37.0655234 0.357169591,37.3943516 0.713192982,37.5473984 L6.20683821,39.9094297 C6.34867057,39.9703672 6.4974425,39.9999766 6.64504483,39.9999766 C6.94469396,39.9999766 7.23927485,39.8777109 7.45962573,39.6477891 L9.78804678,37.2162266 L20.4176764,35.2574766 C20.4370136,35.2538828 20.456117,35.2492734 20.4751423,35.2446641 C20.4801326,35.2435703 20.4852788,35.2426328 20.490269,35.2413047 C20.5240312,35.2327891 20.5570916,35.2223203 20.5896842,35.2107578 C20.5972476,35.2080234 20.6047329,35.2050547 20.6120624,35.2022422 C20.6406004,35.1913828 20.6688265,35.1793516 20.6962729,35.1663047 C20.7010292,35.1639609 20.7059415,35.1620078 20.7106979,35.1596641 C20.7418869,35.1441953 20.7723743,35.1270859 20.8020039,35.1088047 C20.8086316,35.1047422 20.8151033,35.1003672 20.821653,35.0962266 C20.847384,35.0796641 20.8724133,35.0621641 20.8967407,35.0436484 C20.9013411,35.0401328 20.9060975,35.0369297 20.9106979,35.0332578 C20.9382222,35.0116953 20.964577,34.9886484 20.9899961,34.9645859 C20.995922,34.9589609 21.001692,34.9532578 21.00754,34.9473984 C21.030308,34.9249766 21.0522963,34.9017734 21.073193,34.8774766 C21.0756101,34.8748203 21.0781832,34.8723984 21.0804444,34.8697422 L38.8558051,13.8743516 C40.3441481,12.1163828 40.2653177,9.43942969 38.6763119,7.78021094 Z"/>
    <path d="M19.961037,25.3558359 L15.6399454,20.8436484 L29.3477817,8.18942969 L32.0794776,11.0419297 L19.961037,25.3558359 Z M30.2106277,5.68903906 C29.7803743,5.23974219 29.089614,5.21747656 28.6334737,5.63833594 L13.1967485,19.8887266 C12.9586979,20.1084922 12.818191,20.4211484 12.8084444,20.7527891 C12.7986979,21.0843516 12.9204912,21.4056016 13.1452086,21.6399766 L19.198308,27.9606797 C19.4146043,28.1865391 19.7077817,28.3130234 20.012577,28.3130234 C20.0243509,28.3130234 20.0362027,28.3128672 20.0479766,28.3124766 C20.3656374,28.3022422 20.6649747,28.1554453 20.875501,27.9068516 L34.5224405,11.7876328 C34.9254815,11.3115391 34.9042729,10.5900547 34.4738635,10.1406797 L30.2106277,5.68903906 Z"/>
  </g>
</svg>
