<svg xmlns="http://www.w3.org/2000/svg" width="40" height="40" viewBox="0 0 40 40">
  <g fill="#63666A" fill-rule="evenodd">
    <path d="M19.9999844,20.1696641 C20.6471719,20.1696641 21.1718594,20.6944297 21.1718594,21.3416953 C21.1718594,21.9889609 20.6471719,22.5137266 19.9999844,22.5137266 C19.3527969,22.5137266 18.8281094,21.9889609 18.8281094,21.3416953 C18.8281094,20.6944297 19.3527969,20.1696641 19.9999844,20.1696641"/>
    <path d="M11.2383125 21.9107812C8.73534375 19.0966406 7.75721875 15.3247656 8.55495312 11.5623438 9.49659375 7.12117187 13.0747188 3.52179687 17.4587813 2.60570312 24.9731563 1.03539063 31.7187031 6.76109375 31.7187031 14.1376562 31.7187031 16.9749219 30.6889375 19.7125 28.8188594 21.8461719 27.1894844 23.7053906 26.1849531 25.9260937 25.9262031 28.2017969L14.0768281 28.2017969C13.8255 25.9103125 12.8397187 23.7114063 11.2383125 21.9107812zM25.8593281 31.7959375C25.8593281 32.4421875 25.3337031 32.9679687 24.6874531 32.9679687L15.3124531 32.9679687C14.6663594 32.9679687 14.1405781 32.4421875 14.1405781 31.7959375L14.1405781 30.5457812 25.8593281 30.5457812 25.8593281 31.7959375zM19.9999531 37.6560156C18.4721406 37.6560156 17.1687813 36.6684375 16.6851875 35.3042188L23.3147969 35.3042188C22.8312031 36.6684375 21.5279219 37.6560156 19.9999531 37.6560156zM14.2277656 35.1399219C14.7037813 37.8961719 17.1100313 40 19.9999531 40 22.8899531 40 25.2962031 37.8961719 25.7722188 35.1399219 27.1813594 34.6815625 28.2030781 33.3560937 28.2030781 31.7959375L28.2030781 29.37375C28.2030781 27.2657812 29.0478438 25.1410937 30.5814375 23.3911719 32.8262031 20.8298437 34.0624531 17.5435937 34.0624531 14.1376562 34.0624531 5.26421875 25.9415938-1.56117188 16.97925.31109375 11.7003438 1.41429687 7.39339063 5.74046875 6.26221875 11.0760937 5.30839063 15.5752344 6.48378125 20.0921094 9.48698438 23.4686719 10.9765156 25.1434375 11.7968281 27.2382812 11.7968281 29.37375L11.7968281 31.7959375C11.7968281 33.3560937 12.818625 34.6814844 14.2277656 35.1399219zM1.17185937 16.4817031L3.51560937 16.4817031C4.16279687 16.4817031 4.68748437 15.9569375 4.68748437 15.30975 4.68748437 14.6624063 4.16279687 14.1377187 3.51560937 14.1377187L1.17185937 14.1377187C.524671875 14.1377187-.000015625 14.6624063-.000015625 15.30975-.000015625 15.9569375.524671875 16.4817031 1.17185937 16.4817031M2.34373437 9.93510937C2.8013125 10.3928437 3.54334375 10.3929219 4.001 9.93510937 4.45865625 9.47745312 4.45865625 8.73534375 4.001 8.2776875L2.34373437 6.6201875C1.88623437 6.16245312 1.14420312 6.16245312.68646875 6.6201875.2288125 7.07792187.2288125 7.81995312.68646875 8.2776875L2.34373437 9.93510937zM2.34373437 20.6842812L.68646875 22.3417812C.2288125 22.7994375.2288125 23.5414687.68646875 23.9992031 1.144125 24.4569375 1.88615625 24.4570156 2.34373437 23.9992031L4.001 22.3417812C4.45865625 21.8840469 4.45865625 21.1420156 4.001 20.6842812 3.54334375 20.2265469 2.8013125 20.2265469 2.34373437 20.6842812M38.8281094 14.1376875L36.4843594 14.1376875C35.8371719 14.1376875 35.3124844 14.6624531 35.3124844 15.3097188 35.3124844 15.9569844 35.8371719 16.4816719 36.4843594 16.4816719L38.8281094 16.4816719C39.4752969 16.4816719 39.9999844 15.9569844 39.9999844 15.3097188 39.9999844 14.6624531 39.4752969 14.1376875 38.8281094 14.1376875M37.6562344 9.93510937L39.3135 8.2776875C39.7711563 7.81995312 39.7711563 7.07792187 39.3135 6.6201875 38.8559219 6.16245312 38.1138906 6.16245312 37.6562344 6.6201875L35.9989688 8.2776875C35.5413125 8.73534375 35.5413125 9.47745312 35.9989688 9.93510937 36.456625 10.3927656 37.1986563 10.3928437 37.6562344 9.93510937M39.3134922 23.9991797C39.7711484 23.5415234 39.7711484 22.7994922 39.3134922 22.3417578L37.6562266 20.6842578C37.1987266 20.2266016 36.4566953 20.2266016 35.9989609 20.6842578 35.5413047 21.1420703 35.5413047 21.8841016 35.9989609 22.3417578L37.6562266 23.9991797C38.1138828 24.4568359 38.8559141 24.4569141 39.3134922 23.9991797"/>
    <path d="M19.9999844,17.8257188 C20.6471719,17.8257188 21.1718594,17.3009531 21.1718594,16.6537656 L21.1718594,9.62165625 C21.1718594,8.97439062 20.6471719,8.449625 19.9999844,8.449625 C19.3527969,8.449625 18.8281094,8.97439062 18.8281094,9.62165625 L18.8281094,16.6537656 C18.8281094,17.3009531 19.3527969,17.8257188 19.9999844,17.8257188"/>
  </g>
</svg>
