<svg xmlns="http://www.w3.org/2000/svg" width="40" height="40" viewBox="0 0 40 40">
  <g fill="none" fill-rule="evenodd">
    <path fill="#63666A" d="M12.7922866,28.3808994 C12.4230793,28.3808994 12.0760518,28.236997 11.8149238,27.9758689 C11.2758994,27.4363872 11.2758994,26.5589482 11.8149238,26.0195427 L27.1710213,10.6525457 C27.4322256,10.3913415 27.7794055,10.247439 28.1486128,10.247439 C28.5175915,10.247439 28.8647713,10.3913415 29.1260518,10.652622 C29.6649238,11.191875 29.6649238,12.0694665 29.1260518,12.608872 L13.7696494,27.9758689 C13.5091311,28.2370732 13.1621799,28.3808994 12.7922866,28.3808994"/>
    <path fill="#63666A" d="M30.635725 23.9957001C30.2703844 23.9957001 29.9267697 23.8536526 29.6678705 23.5955832 29.4097257 23.3374384 29.2673764 22.993899 29.2673764 22.6282567 29.2673764 22.2626899 29.4097257 21.9190751 29.6681723 21.6605531L34.9166895 16.4129412C36.4301031 14.8997539 37.2635291 12.8879292 37.2635291 10.7481636 37.2635291 8.608398 36.4301785 6.59627153 34.9167649 5.08225443 33.4025215 3.56899169 31.3902441 2.73571651 29.2504031 2.73571651 27.1106375 2.73571651 25.0984356 3.56899169 23.5841922 5.08210356L18.3355996 10.3301681C18.0770776 10.5884638 17.7335383 10.7308131 17.3681223 10.7308131 17.0027817 10.7308131 16.6593179 10.5885393 16.4008713 10.3301681 16.1423493 10.0716461 16 9.72818226 16 9.36299258 16 8.9978029 16.1423493 8.65433903 16.4008713 8.39589246L21.6491622 3.14820508C23.6793935 1.1180492 26.3788249 0 29.2504031 0 32.1219813 0 34.8215636 1.1180492 36.8517195 3.14820508 38.8819508 5.17821007 40 7.87726428 40 10.7481636 40 13.6189874 38.8819508 16.3180417 36.8517195 18.3480467L31.6031269 23.5958849C31.3445294 23.8536526 31.0009147 23.9957001 30.635725 23.9957001M10.7426143 40C7.87306298 39.9999245 5.1744881 38.8818189 3.14389821 36.8514373 1.11655281 34.8243002 0 32.1248963 0 29.2504464 0 26.3759211 1.11655281 23.6765926 3.14389821 21.6496064L8.3933111 16.4007193C8.65188837 16.1423002 8.99580293 16 9.36144794 16 9.36144794 16 9.36137249 16 9.36144794 16 9.72709295 16 10.0706303 16.1422248 10.3286794 16.4006438 10.5873321 16.6592138 10.7297118 17.0027414 10.7297118 17.3680742 10.7297118 17.7333317 10.5873321 18.0768592 10.3288303 18.3353537L5.08009645 23.5842408C3.56847198 25.0951435 2.73584864 27.1075677 2.73584864 29.2505219 2.73584864 31.3935515 3.56847198 33.4059003 5.08017191 34.9169538 6.59315453 36.4308745 8.60556025 37.2648324 10.7466887 37.2648324 12.8875154 37.2648324 14.8999965 36.4308745 16.4132055 34.9168029L21.6626184 29.6679912C21.9208939 29.4097985 22.2646575 29.2675738 22.630378 29.2675738 22.9963248 29.2675738 23.3405412 29.409874 23.5994203 29.6680667 23.8576957 29.9264103 24 30.2700133 24 30.6352707 24 31.0005282 23.8576957 31.3439803 23.5992694 31.6025502L18.3494038 36.8514373C16.3188139 38.8818943 13.6186545 40 10.7466887 40L10.7426143 40z"/>
  </g>
</svg>
