<svg xmlns="http://www.w3.org/2000/svg" width="40" height="40" viewBox="0 0 40 40">
  <g fill="#63666A" fill-rule="evenodd">
    <path d="M33.268125,27.1481328 C27.6540625,32.7733672 18.519375,32.7736797 12.9050781,27.1481328 C7.2909375,21.5228984 7.2909375,12.3700859 12.9050781,6.74492969 C15.6246875,4.01977344 19.2405469,2.51899219 23.0866406,2.51899219 C26.9325781,2.51899219 30.5486719,4.01977344 33.268125,6.74492969 C38.8821875,12.3700859 38.8821875,21.5228984 33.268125,27.1481328 Z M3.81789062,37.2581328 C3.52023437,37.5564922 3.03570312,37.5564922 2.73804687,37.2581328 C2.59382812,37.1137578 2.51445313,36.9217266 2.51445313,36.7172734 C2.51445313,36.5128984 2.59382812,36.3208672 2.7359375,36.1786016 L10.719375,28.2200859 C10.8959375,28.4145391 11.0775781,28.6055547 11.2640625,28.7924297 C11.4386719,28.9675078 11.6167187,29.1373516 11.7974219,29.3032891 L3.81789062,37.2581328 Z M34.9091406,5.10055469 C31.75125,1.93633594 27.5528125,0.193601562 23.0866406,0.193601562 C18.6207031,0.193601562 14.421875,1.93633594 11.264375,5.10055469 C8.10617188,8.26477344 6.36710937,12.4715703 6.36710937,16.9466484 C6.36710937,20.3646172 7.38289062,23.6253984 9.26929688,26.3855547 L1.09703125,34.5321172 C0.514609375,35.1157109 0.19359375,35.8918047 0.19359375,36.7172734 C0.19359375,37.5428203 0.514609375,38.3189141 1.09703125,38.9024297 C1.69867187,39.5053984 2.48867187,39.8063359 3.27875,39.8063359 C4.06773438,39.8063359 4.85664062,39.5056328 5.45648437,38.9046172 L13.624375,30.7625859 C16.3878125,32.6712578 19.6582031,33.6993047 23.086875,33.6993047 C27.5528125,33.6993047 31.75125,31.9569609 34.9094531,28.7924297 C38.0673437,25.6282891 39.8063281,21.4214141 39.8063281,16.9466484 C39.8063281,12.4718828 38.0671094,8.26477344 34.9091406,5.10055469 Z"/>
    <path d="M23.0865469,2.71263281 C19.2924062,2.71263281 15.7251406,4.19325781 13.0421719,6.88161719 C7.50326563,12.4314609 7.50326563,21.4616172 13.0421719,27.0113047 C15.7207656,29.6954453 19.2879531,31.1735703 23.0865469,31.1735703 C26.8851406,31.1735703 30.4524063,29.6954453 33.131,27.0113047 C38.6698281,21.4616172 38.6698281,12.4314609 33.131,6.88161719 C30.4482656,4.19325781 26.8810781,2.71263281 23.0865469,2.71263281 M23.0865469,31.5607578 C19.1844375,31.5607578 15.5198281,30.0422422 12.7680313,27.2848203 C7.07873438,21.5843516 7.07873438,12.3088047 12.7680313,6.60810156 C15.5242813,3.84638281 19.1888125,2.32536719 23.0865469,2.32536719 C26.9846719,2.32536719 30.6492031,3.84638281 33.4051406,6.60810156 C39.0944375,12.3088047 39.0944375,21.5843516 33.4051406,27.2848203 C30.6532656,30.0422422 26.9886562,31.5607578 23.0865469,31.5607578 M10.7132656,28.4995859 L2.87264063,36.3157578 C2.76654688,36.4219297 2.70803125,36.5646641 2.70803125,36.7173984 C2.70803125,36.8699766 2.76732813,37.0134141 2.8750625,37.1213047 C2.98248438,37.2289609 3.12553125,37.2881797 3.27795313,37.2881797 C3.43029687,37.2881797 3.57342188,37.2289609 3.68076563,37.1213828 L3.68115625,37.1209922 L11.5181875,29.3083359 C11.3818594,29.1804453 11.2527969,29.0553672 11.1269375,28.9291953 C10.9881094,28.7900547 10.8495156,28.6460703 10.7132656,28.4995859 M3.27795313,37.6754453 C3.02201563,37.6754453 2.781625,37.5758359 2.601,37.3948984 C2.420375,37.2138828 2.32076563,36.9732578 2.32076563,36.7173984 C2.32076563,36.4612266 2.41959375,36.2213828 2.59896875,36.0417734 L10.7263125,27.9398203 L10.8627188,28.0898984 C11.0383438,28.2834141 11.2195156,28.4737266 11.4010781,28.6556797 C11.5677188,28.8226328 11.7401406,28.9877891 11.9283438,29.1607578 L12.0774063,29.2976328 L3.95451563,37.3952109 C3.77404688,37.5759141 3.5338125,37.6754453 3.27795313,37.6754453 M23.0865469,0.387242188 C18.67225,0.387242188 14.5224063,2.10974219 11.4013906,5.23732031 C8.27982813,8.36482031 6.56076563,12.5231797 6.56076563,16.9466172 C6.56076563,20.3045078 7.55264063,23.5307578 9.42928125,26.2763828 L9.51998438,26.4091953 L1.23365625,34.6692734 C0.68803125,35.2160703 0.38725,35.9435703 0.38725,36.7173984 C0.38725,37.4912266 0.68803125,38.2186484 1.23404688,38.7656797 C1.779125,39.3119297 2.50529688,39.6127109 3.27873438,39.6127109 C4.05092188,39.6127109 4.7756875,39.3126328 5.3194375,38.7678672 L13.6017813,30.5116953 L13.7343594,30.6032578 C16.4835,32.5021641 19.7175625,33.5056797 23.0868594,33.5056797 C27.501,33.5056797 31.651,31.7832578 34.7724063,28.6556797 C37.8937344,25.5281797 39.6127188,21.3698203 39.6127188,16.9466172 C39.6127188,12.5234922 37.8936562,8.36513281 34.7720938,5.23732031 C31.6507656,2.10974219 27.5007656,0.387242188 23.0865469,0.387242188 M3.27873438,39.9999766 C2.401625,39.9999766 1.5781875,39.6587266 0.95990625,39.0391172 C0.34084375,38.4191172 -1.5625e-05,37.5944297 -1.5625e-05,36.7173984 C-1.5625e-05,35.8402891 0.34084375,35.0156797 0.95990625,34.3953672 L9.01920313,26.3615391 C7.1569375,23.5802109 6.1735,20.3287266 6.1735,16.9466172 C6.1735,12.4198984 7.93271875,8.16435156 11.12725,4.96380469 C14.3215469,1.76286719 18.5686563,-2.34375e-05 23.0865469,-2.34375e-05 C27.6043594,-2.34375e-05 31.851625,1.76286719 35.0462344,4.96380469 C38.2406875,8.16466406 39.9999844,12.4202109 39.9999844,16.9466172 C39.9999844,21.4731016 38.2407656,25.7285703 35.0465469,28.9291953 C31.8518594,32.1302109 27.6045156,33.8930234 23.0868594,33.8930234 C19.692875,33.8930234 16.4325625,32.8975547 13.6474844,31.0129453 L5.5931875,39.0417734 C4.97654688,39.6595859 4.15451563,39.9999766 3.27873438,39.9999766"/>
    <path d="M30.2475,24.1213984 C26.2989063,28.0775703 19.8747656,28.0775703 15.9264063,24.1213984 C11.9778906,20.1649141 11.9778906,13.7280391 15.9264063,9.77194531 C17.9004688,7.79374219 20.4935156,6.80460156 23.0867188,6.80460156 C25.6800781,6.80460156 28.2732031,7.79374219 30.2471875,9.77194531 C32.16,11.6883516 33.2132813,14.2363203 33.2132813,16.9466328 C33.2132813,19.6567891 32.16,22.2049922 30.2475,24.1213984 M31.8419531,8.17397656 C29.5035156,5.83053906 26.3940625,4.54007031 23.0867187,4.54007031 C19.7796094,4.54007031 16.6701562,5.83053906 14.3313281,8.17397656 C9.50375,13.0111641 9.50375,20.8821797 14.3313281,25.7193672 C16.6701562,28.0624141 19.7796094,29.3529609 23.0867187,29.3529609 C26.3940625,29.3529609 29.5035156,28.0624141 31.8419531,25.7193672 C34.1807031,23.3759297 35.4685937,20.2603047 35.4685937,16.9466328 C35.4685937,13.6326484 34.1807031,10.5171016 31.8419531,8.17397656"/>
    <path d="M23.0867031,6.99271875 C20.4292031,6.99271875 17.9335781,8.02685938 16.0596719,9.90482812 C12.1844375,13.7875625 12.1844375,20.1054531 16.0596719,23.9885 C17.9335781,25.8661563 20.429125,26.9002969 23.086625,26.9002969 C25.7443594,26.900375 28.2401406,25.8662344 30.1142813,23.9885 C31.9913125,22.1075625 33.0251406,19.6067031 33.0251406,16.946625 C33.0251406,14.2864688 31.9912344,11.7856875 30.1139688,9.90482812 C28.2400625,8.02685938 25.7444375,6.99271875 23.0867031,6.99271875 M23.0867813,27.276625 L23.086625,27.276625 C20.3285,27.276625 17.7383438,26.2032656 15.7932656,24.2542813 C11.7717031,20.2246719 11.7717031,13.6682656 15.7932656,9.63904688 C17.7383438,7.68990625 20.3285,6.61646875 23.0867031,6.61646875 C25.8450625,6.61646875 28.4352969,7.68990625 30.380375,9.63904688 C32.3285,11.5908438 33.4013906,14.1860781 33.4013906,16.946625 C33.4013906,19.7070938 32.3286563,22.3023281 30.3806875,24.2542813 C28.4354531,26.2032656 25.8449844,27.276625 23.0867813,27.276625 M23.0867031,4.72826562 C19.8298281,4.72826562 16.7677188,5.999125 14.4645938,8.30678125 C9.70998438,13.0708438 9.70998438,20.8224844 14.4645938,25.5864688 C16.7677969,27.8938906 19.8299063,29.1648281 23.0867031,29.1648281 C26.3437344,29.1648281 29.4058437,27.8938906 31.7088125,25.5864688 C34.0120156,23.2786563 35.2804531,20.210375 35.2804531,16.946625 C35.2804531,13.6827187 34.0120156,10.6143594 31.7088125,8.30678125 C29.4059219,5.999125 26.3438125,4.72826562 23.0867031,4.72826562 M23.0867031,29.541 C19.7292813,29.541 16.5725625,28.2310781 14.1982656,25.85225 C9.29740625,20.9417031 9.29740625,12.9515469 14.1982656,8.04107812 C16.5724063,5.66209375 19.729125,4.3519375 23.0867031,4.3519375 C26.4444375,4.3519375 29.6012344,5.66209375 31.9751406,8.04107812 C34.3492813,10.4195938 35.6567031,13.5823281 35.6567031,16.946625 C35.6567031,20.3106875 34.3492813,23.4734219 31.9751406,25.85225 C29.6010781,28.2310781 26.4444375,29.541 23.0867031,29.541"/>
  </g>
</svg>
