<svg xmlns="http://www.w3.org/2000/svg" width="40" height="40" viewBox="0 0 40 40">
  <g fill="#63666A" fill-rule="evenodd">
    <path d="M36.0407266,37.5862109 C35.1890859,37.5862109 34.4951016,36.8923828 34.4951016,36.0405078 L34.4951016,7.69449219 L37.5861953,7.69449219 L37.5861953,36.0405078 C37.5861953,36.8923828 36.8932266,37.5862109 36.0407266,37.5862109 Z M2.41377344,2.41378906 L32.0812734,2.41378906 L32.0812734,36.0405078 C32.0812734,36.5883203 32.1936953,37.1108203 32.3956484,37.5862109 L3.95939844,37.5862109 C3.10674219,37.5862109 2.41377344,36.8923828 2.41377344,36.0405078 L2.41377344,2.41378906 Z M38.7930703,5.23394531 L34.4951016,5.23394531 L34.4951016,1.20691406 C34.4951016,0.540507813 33.9546328,-3.90625e-05 33.2882266,-3.90625e-05 L1.20689844,-3.90625e-05 C0.540726563,-3.90625e-05 2.34375002e-05,0.540507813 2.34375002e-05,1.20691406 L2.34375002e-05,36.0405078 C2.34375002e-05,38.2233984 1.77658594,39.9999609 3.95939844,39.9999609 L36.0407266,39.9999609 C38.2233828,39.9999609 40.0000234,38.2233984 40.0000234,36.0405078 L40.0000234,6.44089844 C40.0000234,5.77363281 39.4595547,5.23394531 38.7930703,5.23394531 Z"/>
    <path d="M30.3 15.9445728C30.3 16.5271484 29.7850013 17 29.15 17 28.5151476 17 28 16.5271484 28 15.9445728L28 7.05549552C28 6.47285161 28.5151476 6 29.15 6 29.7850013 6 30.3 6.47285161 30.3 7.05549552L30.3 15.9445728zM6.3 15.9445728C6.3 16.5271484 5.78500129 17 5.15 17 4.51514759 17 4 16.5271484 4 15.9445728L4 7.05549552C4 6.47285161 4.51514759 6 5.15 6 5.78500129 6 6.3 6.47285161 6.3 7.05549552L6.3 15.9445728z"/>
    <path d="M18.3,28 C18.3,29 17.15,29 17.15,29 C17.15,29 16,29 16,28 L16,3.9822998 C16,3 17.15,3 17.15,3 C17.15,3 18.3,3 18.3,3.9822998 L18.3,28 Z" transform="rotate(-90 17.15 16)"/>
    <path d="M18.3,19 C18.3,20 17.15,20 17.15,20 C17.15,20 16,20 16,19 L16,-5.0177002 C16,-6 17.15,-6 17.15,-6 C17.15,-6 18.3,-6 18.3,-5.0177002 L18.3,19 Z" transform="rotate(-90 17.15 7)"/>
    <path d="M29.3715625 20L19.2069531 20C18.5407031 20 18 20.5149987 18 21.15 18 21.7848524 18.5407031 22.3 19.2069531 22.3L29.3715625 22.3C30.0377344 22.3 30.5784375 21.7848524 30.5784375 21.15 30.5784375 20.5149987 30.0377344 20 29.3715625 20M14.8486249 20L5.15144965 20C4.51583812 20 4 20.5149987 4 21.15 4 21.7848524 4.51583812 22.3 5.15144965 22.3L14.8486249 22.3C15.4841619 22.3 16 21.7848524 16 21.15 16 20.5149987 15.4841619 20 14.8486249 20M14.8486249 30L5.15144965 30C4.51583812 30 4 30.5149987 4 31.15 4 31.7848524 4.51583812 32.3 5.15144965 32.3L14.8486249 32.3C15.4841619 32.3 16 31.7848524 16 31.15 16 30.5149987 15.4841619 30 14.8486249 30"/>
    <path d="M0.206953125,25 C-0.459296875,25 -1,25.5149987 -1,26.15 C-1,26.7848524 -0.459296875,27.3 0.206953125,27.3 L10,27.3 C10.6661719,27.3 11,26.7848524 11,26.15 C11,25.5149987 10.6661719,25 10,25 L0.206953125,25 Z" transform="rotate(90 5 26.15)"/>
    <path d="M10.2069531,25 C9.54070312,25 9,25.5149987 9,26.15 C9,26.7848524 9.54070312,27.3 10.2069531,27.3 L20,27.3 C20.6661719,27.3 21,26.7848524 21,26.15 C21,25.5149987 20.6661719,25 20,25 L10.2069531,25 Z" transform="rotate(90 15 26.15)"/>
    <path d="M29.3715625 30L19.2069531 30C18.5407031 30 18 30.5149987 18 31.15 18 31.7855968 18.5407031 32.3 19.2069531 32.3L29.3715625 32.3C30.0377344 32.3 30.5784375 31.7855968 30.5784375 31.15 30.5784375 30.5149987 30.0377344 30 29.3715625 30M29.3715625 25L19.2069531 25C18.5407031 25 18 25.5149987 18 26.15 18 26.7855968 18.5407031 27.3 19.2069531 27.3L29.3715625 27.3C30.0377344 27.3 30.5784375 26.7855968 30.5784375 26.15 30.5784375 25.5149987 30.0377344 25 29.3715625 25"/>
  </g>
</svg>
