<svg xmlns="http://www.w3.org/2000/svg" width="40" height="40" viewBox="0 0 40 40">
  <g fill="#63666A" fill-rule="evenodd">
    <path d="M36.4132943,37.6562656 L3.50881092,37.6562656 C2.86389864,37.6562656 2.33922027,37.1305625 2.33922027,36.4843906 L2.33922027,17.7285312 L19.2611696,30.3920469 C19.4687329,30.5473594 19.7148928,30.6250156 19.9610526,30.6250156 C20.2072904,30.6250156 20.4533723,30.5473594 20.6610136,30.3920469 L37.582885,17.7285312 L37.582885,36.4843906 C37.582885,37.1305625 37.0582066,37.6562656 36.4132943,37.6562656 Z M7.09555556,12.4455625 L7.09555556,18.3626719 L3.12846004,15.3939219 L7.09555556,12.4455625 Z M30.4873684,2.34376562 L30.4873684,20.1131406 L19.9610526,27.9904062 L9.43473684,20.1131406 L9.43473684,2.34376562 L30.4873684,2.34376562 Z M36.7937232,15.3939219 L32.8265497,18.3626719 L32.8265497,12.4455625 L36.7937232,15.3939219 Z M39.9214425,15.3789219 C39.9179337,15.024 39.7518519,14.6855625 39.4672515,14.4645469 C39.4610916,14.4597031 39.4557115,14.4541562 39.4493957,14.4494687 L32.8265497,9.52735937 L32.8265497,1.17189062 C32.8265497,0.524703125 32.302885,1.5625e-05 31.6569591,1.5625e-05 L8.2651462,1.5625e-05 C7.61929825,1.5625e-05 7.09555556,0.524703125 7.09555556,1.17189062 L7.09555556,9.52735937 L0.472787524,14.4493906 C0.187329435,14.6615781 0.00432748538,15.005875 0.000662768031,15.3788437 C0.000662768031,15.382125 -3.89863548e-05,15.3853281 -3.89863548e-05,15.3886094 C-3.89863548e-05,15.3889219 3.89863548e-05,15.3891562 3.89863548e-05,15.3894687 C0.000194931774,15.3899375 3.89863548e-05,15.3903281 3.89863548e-05,15.3906406 L3.89863548e-05,36.4843906 C3.89863548e-05,38.4229062 1.57415205,40.0000156 3.50881092,40.0000156 L36.4132943,40.0000156 C38.3480312,40.0000156 39.9220663,38.4229062 39.9220663,36.4843906 L39.9220663,15.3906406 C39.9220663,15.3903281 39.9219883,15.3899375 39.9219883,15.3895469 C39.9219883,15.3892344 39.9220663,15.389 39.9220663,15.3886875 C39.9220663,15.3854062 39.9215205,15.3822031 39.9214425,15.3789219 Z"/>
    <path d="M12.9435088 9.53126562L26.9785965 9.53126562C27.6245224 9.53126562 28.1481871 9.00657812 28.1481871 8.35939062 28.1481871 7.71220313 27.6245224 7.18751563 26.9785965 7.18751563L12.9435088 7.18751563C12.2976608 7.18751563 11.7739181 7.71220313 11.7739181 8.35939062 11.7739181 9.00657812 12.2976608 9.53126562 12.9435088 9.53126562M12.9435088 14.2187656L26.9785965 14.2187656C27.6245224 14.2187656 28.1481871 13.6940781 28.1481871 13.0468906 28.1481871 12.3997031 27.6245224 11.8750156 26.9785965 11.8750156L12.9435088 11.8750156C12.2976608 11.8750156 11.7739181 12.3997031 11.7739181 13.0468906 11.7739181 13.6940781 12.2976608 14.2187656 12.9435088 14.2187656M12.9435088 18.9062656L19.9610526 18.9062656C20.6069786 18.9062656 21.1306433 18.3815781 21.1306433 17.7343906 21.1306433 17.0872031 20.6069786 16.5625156 19.9610526 16.5625156L12.9435088 16.5625156C12.2976608 16.5625156 11.7739181 17.0872031 11.7739181 17.7343906 11.7739181 18.3815781 12.2976608 18.9062656 12.9435088 18.9062656"/>
  </g>
</svg>
