<svg xmlns="http://www.w3.org/2000/svg" width="40" height="40" viewBox="0 0 40 40">
  <g fill="#63666A" fill-rule="evenodd" transform="translate(0 7)">
    <path d="M32.6184844,20.7700156 C31.971375,20.7700156 31.4466094,21.2947031 31.4466094,21.9418906 C31.4466094,22.5890781 31.971375,23.1137656 32.6184844,23.1137656 L34.9622344,23.1137656 C35.6094219,23.1137656 36.1341094,22.5890781 36.1341094,21.9418906 C36.1341094,21.2947031 35.6094219,20.7700156 34.9622344,20.7700156 L32.6184844,20.7700156 Z"/>
    <path d="M37.64875,30.5643642 L23.5122656,30.5643642 L23.5122656,23.9792314 C23.5122656,21.3867938 22.7476562,18.9788037 21.4428125,16.9904149 C21.9570312,16.4501186 22.5228906,15.9775952 23.1304687,15.5811318 L27.2557812,19.9136762 C27.7094531,20.390138 28.4433594,20.3967019 28.9047656,19.9277067 L33.1545312,15.6069774 C35.8516406,17.3552892 37.64875,20.4543007 37.64875,23.9792314 L37.64875,30.5643642 Z M21.1610156,30.5549285 L2.35117187,30.5549285 L2.35117187,23.9698778 C2.35117187,20.302509 4.42804687,16.7724913 7.57625,15.169243 C8.9265625,14.4815858 10.3528125,14.1851407 11.7533594,14.2191093 L11.7589063,14.2191093 C13.159375,14.1851407 14.585625,14.4815858 15.9359375,15.169243 C19.0841406,16.7724913 21.1610156,20.302509 21.1610156,23.9698778 L21.1610156,30.5549285 Z M7.05367187,7.07390625 C7.05367187,4.48101563 9.16320312,2.37148438 11.7560937,2.37148438 C14.3490625,2.37148438 16.4585937,4.48101563 16.4585937,7.07390625 C16.4585937,9.666875 14.3490625,11.7763281 11.7560937,11.7763281 C9.16320312,11.7763281 7.05367187,9.666875 7.05367187,7.07390625 Z M30.8425781,14.5060937 L28.1004688,17.1607031 L25.4282813,14.4885937 C26.280625,14.2384375 27.1742969,14.1073438 28.0870313,14.1073438 C29.0447656,14.1073438 29.9696094,14.2471875 30.8425781,14.5060937 Z M23.3846094,7.05367188 C23.3846094,4.46078125 25.4941406,2.35125 28.0870313,2.35125 C30.7210156,2.35125 32.9463281,4.50476563 32.9463281,7.05367188 C32.9463281,9.60265625 30.7210156,11.7561719 28.0870313,11.7561719 C25.4941406,11.7561719 23.3846094,9.64664063 23.3846094,7.05367188 Z M32.5036719,12.9404198 C32.7232031,12.76704 32.9357031,12.581786 33.138125,12.3812881 C34.530625,11.0019523 35.2975,9.17749343 35.2975,7.24383982 C35.2975,3.24776143 31.9973437,0 28.0870313,0 C24.1976563,0 21.0333594,3.24960675 21.0333594,7.24383982 C21.0333594,9.5477607 22.08625,11.6036867 23.7235938,12.9314339 C22.31625,13.5082164 21.02375,14.364284 19.9175,15.4647359 C18.8302344,14.3865883 17.5417188,13.5210534 16.1160938,12.9343222 C17.755625,11.6062541 18.8097656,9.5490444 18.8097656,7.24383982 C18.8097656,3.24928582 15.6457812,0 11.7560938,0 C7.86640625,0 4.70242187,3.24928582 4.70242187,7.24383982 C4.70242187,9.5490444 5.7565625,11.6062541 7.39617187,12.9343222 C3.06601563,14.7163387 0,19.0699276 0,24.1461595 L0,31.79268 C0,32.4590808 0.526640625,33 1.175625,33 L23.3846094,33 L38.824375,33 C39.4735937,33 40,32.4594018 40,31.79268 L40,24.1461595 C40,18.9601713 36.7572656,14.6812777 32.5036719,12.9404198 Z"/>
    <path d="M10.8538047,16.2670703 L12.6584141,16.2670703 L12.9699766,15.2140234 L10.5422422,15.2140234 L10.8538047,16.2670703 Z M13.1843516,18.2263672 L10.3278672,18.2263672 C9.77599219,18.2263672 9.28114844,17.8569141 9.12427344,17.3276953 L8.39591406,14.8659766 C8.28403906,14.4883984 8.35810156,14.0744141 8.59380469,13.7587891 C8.82958594,13.4431641 9.20552344,13.2546484 9.59950781,13.2546484 L13.9126328,13.2546484 C14.3066172,13.2546484 14.6826328,13.4431641 14.9183359,13.7587891 C15.1541172,14.0744141 15.2281016,14.4883984 15.1162266,14.8661328 L14.3879453,17.3273828 C14.2314609,17.8566016 13.7365391,18.2263672 13.1843516,18.2263672 Z"/>
    <path d="M10.2573359,24.6853437 L11.7561641,26.2038594 L13.2549141,24.6853437 L12.5162422,18.2263594 L10.9960078,18.2263594 L10.2573359,24.6853437 Z M11.7561641,28.4614375 L11.7559297,28.4614375 C11.4175703,28.4613594 11.1003047,28.3287812 10.8627266,28.0878437 L8.62608594,25.8218281 C8.35772656,25.5496406 8.22897656,25.1762812 8.27241406,24.7972187 L9.12077344,17.3795625 C9.19335156,16.7453437 9.72952344,16.2670625 10.3678828,16.2670625 L13.1443672,16.2670625 C13.7827266,16.2670625 14.3188984,16.7453437 14.3914766,17.3795625 L15.2398359,24.797375 C15.2832734,25.1762812 15.1546016,25.5496406 14.8865547,25.8213594 L12.6494453,28.088 C12.4115547,28.3289375 12.0944453,28.4614375 11.7561641,28.4614375 Z"/>
  </g>
</svg>
