<svg xmlns="http://www.w3.org/2000/svg" width="40" height="40" viewBox="0 0 40 40">
  <path fill="#63666A" fill-rule="evenodd" d="M2.34373437,18.5713984 C2.34373437,17.7837422 2.8694375,17.1428828 3.51560937,17.1428828 L4.60029687,17.1428828 C4.64842188,17.1428828 4.68748438,17.1819453 4.68748438,17.2300703 L4.68748438,25.6271016 C4.68748438,25.6752266 4.64842188,25.7142891 4.60029687,25.7142891 L3.51560937,25.7142891 C2.8694375,25.7142891 2.34373437,25.0734297 2.34373437,24.2857734 L2.34373437,18.5713984 Z M6.060375,12.6120234 C5.1750625,11.5327266 4.68748438,10.0978047 4.68748438,8.57139844 C4.68748438,7.04507031 5.1750625,5.61014844 6.060375,4.53077344 C6.94576563,3.45155469 8.12295313,2.85710156 9.37498438,2.85710156 L33.9919375,2.85710156 C34.055375,2.85710156 34.0969375,2.92249219 34.0706875,2.98030469 C32.4961562,6.44561719 32.4961562,10.6972578 34.0706875,14.1625703 C34.0969375,14.2203828 34.055375,14.2857734 33.9919375,14.2857734 L26.0246719,14.2857734 C25.9765469,14.2857734 25.9374844,14.2467109 25.9374844,14.1984297 L25.9374844,8.65866406 C25.9374844,8.61046094 25.9765469,8.57139844 26.0246719,8.57139844 L29.6883437,8.57139844 C30.2056875,8.57139844 30.6249844,8.15210156 30.6249844,7.63475781 L30.6249844,6.65092969 C30.6249844,6.13366406 30.2056875,5.71428906 29.6883437,5.71428906 L25.9374844,5.71428906 L14.0624844,5.71428906 L10.311625,5.71428906 C9.79435938,5.71428906 9.37498438,6.13366406 9.37498438,6.65092969 L9.37498438,7.63475781 C9.37498438,8.15210156 9.79435938,8.57139844 10.311625,8.57139844 L13.9752969,8.57139844 C14.0234219,8.57139844 14.0624844,8.61046094 14.0624844,8.65866406 L14.0624844,14.1984297 C14.0624844,14.2467109 14.0234219,14.2857734 13.9752969,14.2857734 L9.37498438,14.2857734 C8.12295313,14.2857734 6.94576563,13.6913203 6.060375,12.6120234 Z M37.6562344,35.7142891 C37.6562344,36.5020234 37.1305312,37.1428828 36.4843594,37.1428828 L35.3996719,37.1428828 C35.3515469,37.1428828 35.3124844,37.1038203 35.3124844,37.0556953 L35.3124844,28.6586641 C35.3124844,28.6104609 35.3515469,28.5713984 35.3996719,28.5713984 L36.4843594,28.5713984 C37.1305312,28.5713984 37.6562344,29.2122578 37.6562344,29.9999922 L37.6562344,35.7142891 Z M32.8815469,25.7142891 L30.7121719,25.7142891 C30.6640469,25.7142891 30.6249844,25.6752266 30.6249844,25.6271016 L30.6249844,17.2300703 C30.6249844,17.1819453 30.6640469,17.1428828 30.7121719,17.1428828 L32.8815469,17.1428828 C32.9296719,17.1428828 32.9687344,17.1819453 32.9687344,17.2300703 L32.9687344,25.6271016 C32.9687344,25.6752266 32.9296719,25.7142891 32.8815469,25.7142891 Z M9.28779688,37.1428828 L7.11842188,37.1428828 C7.07029688,37.1428828 7.03123438,37.1038203 7.03123438,37.0556953 L7.03123438,28.6586641 C7.03123438,28.6104609 7.07029688,28.5713984 7.11842188,28.5713984 L9.28779688,28.5713984 C9.33592188,28.5713984 9.37498438,28.6104609 9.37498438,28.6586641 L9.37498438,37.0556953 C9.37498438,37.1038203 9.33592188,37.1428828 9.28779688,37.1428828 Z M11.8059219,28.5713984 L32.8815469,28.5713984 C32.9296719,28.5713984 32.9687344,28.6104609 32.9687344,28.6586641 L32.9687344,37.0556953 C32.9687344,37.1038203 32.9296719,37.1428828 32.8815469,37.1428828 L11.8059219,37.1428828 C11.7577969,37.1428828 11.7187344,37.1038203 11.7187344,37.0556953 L11.7187344,28.6586641 C11.7187344,28.6104609 11.7577969,28.5713984 11.8059219,28.5713984 Z M37.6562344,18.5713984 L37.6562344,24.2857734 C37.6562344,25.0734297 37.1305312,25.7142891 36.4843594,25.7142891 L35.3996719,25.7142891 C35.3515469,25.7142891 35.3124844,25.6752266 35.3124844,25.6271016 L35.3124844,17.2300703 C35.3124844,17.1819453 35.3515469,17.1428828 35.3996719,17.1428828 L36.4843594,17.1428828 C37.1305312,17.1428828 37.6562344,17.7837422 37.6562344,18.5713984 Z M16.4934219,8.57139844 L23.5065469,8.57139844 C23.5546719,8.57139844 23.5937344,8.61046094 23.5937344,8.65866406 L23.5937344,17.7788203 C23.5937344,17.8603828 23.4917812,17.8973359 23.4395156,17.8346797 L20.0669375,13.7908516 C20.0320938,13.7489766 19.967875,13.7489766 19.9330312,13.7908516 L16.5604531,17.8346797 C16.5082656,17.8973359 16.4062344,17.8603828 16.4062344,17.7788203 L16.4062344,8.65866406 C16.4062344,8.61046094 16.4452969,8.57139844 16.4934219,8.57139844 Z M9.37498438,17.1428828 L13.9752969,17.1428828 C14.0234219,17.1428828 14.0624844,17.1819453 14.0624844,17.2300703 L14.0624844,23.5436641 C14.0624844,23.9819453 14.6105313,24.1804609 14.8912344,23.8438203 L19.9330313,17.7983516 C19.967875,17.7565547 20.0320937,17.7565547 20.0669375,17.7983516 L25.1088125,23.8438203 C25.3895156,24.1804609 25.9374844,23.9819453 25.9374844,23.5436641 L25.9374844,17.2300703 C25.9374844,17.1819453 25.9765469,17.1428828 26.0246719,17.1428828 L28.1940469,17.1428828 C28.2421719,17.1428828 28.2812344,17.1819453 28.2812344,17.2300703 L28.2812344,25.6271016 C28.2812344,25.6752266 28.2421719,25.7142891 28.1940469,25.7142891 L7.11842188,25.7142891 C7.07029688,25.7142891 7.03123438,25.6752266 7.03123438,25.6271016 L7.03123438,17.2300703 C7.03123438,17.1819453 7.07029688,17.1428828 7.11842188,17.1428828 L9.37498438,17.1428828 Z M2.34373437,35.7142891 L2.34373437,29.9999922 C2.34373437,29.2122578 2.8694375,28.5713984 3.51560937,28.5713984 L4.60029687,28.5713984 C4.64842188,28.5713984 4.68748438,28.6104609 4.68748438,28.6586641 L4.68748438,37.0556953 C4.68748438,37.1038203 4.64842188,37.1428828 4.60029687,37.1428828 L3.51560937,37.1428828 C2.8694375,37.1428828 2.34373437,36.5020234 2.34373437,35.7142891 Z M3.51560937,39.9999922 L36.4843594,39.9999922 C38.422875,39.9999922 39.9999844,38.0774141 39.9999844,35.7142891 L39.9999844,29.9999922 C39.9999844,28.9268672 39.6743594,27.9449922 39.1377969,27.1924141 C39.1164687,27.1624922 39.1164687,27.1231953 39.1377969,27.0933516 C39.6744375,26.3406953 39.9999844,25.3588984 39.9999844,24.2857734 L39.9999844,18.5713984 C39.9999844,18.1114766 39.93975,17.6685078 39.8290469,17.2528828 C39.8142812,17.1972578 39.8552187,17.1428828 39.9127969,17.1428828 C39.9609219,17.1428828 39.9999844,17.1038203 39.9999844,17.0556953 L39.9999844,14.9724922 C39.9999844,14.5931953 39.6924844,14.2857734 39.3132656,14.2857734 L37.0393594,14.2857734 C37.0109219,14.2857734 36.9840469,14.2720234 36.9676406,14.2488203 C34.6564687,11.0006953 34.6564687,6.14210156 36.9676406,2.89405469 C36.9840469,2.87085156 37.0109219,2.85710156 37.0393594,2.85710156 L39.3135,2.85710156 C39.6926406,2.85710156 39.9999844,2.54983594 39.9999844,2.17061719 L39.9999844,0.686476562 C39.9999844,0.307335937 39.6926406,-7.8125e-06 39.3135,-7.8125e-06 L36.4843594,-7.8125e-06 L9.37498438,-7.8125e-06 C7.49685938,-7.8125e-06 5.73107813,0.891632812 4.40310938,2.51046094 C3.0750625,4.12944531 2.34373437,6.28186719 2.34373437,8.57139844 C2.34373437,10.6397578 2.9413125,12.5956953 4.03576563,14.1479609 C4.07670313,14.2059297 4.03615625,14.2857734 3.96521875,14.2857734 L3.51560937,14.2857734 C1.57709375,14.2857734 -1.5625e-05,16.2082734 -1.5625e-05,18.5713984 L-1.5625e-05,24.2857734 C-1.5625e-05,25.3588984 0.325609375,26.3406953 0.862171875,27.0933516 C0.8835,27.1231953 0.8835,27.1624922 0.862171875,27.1924141 C0.325609375,27.9449922 -1.5625e-05,28.9268672 -1.5625e-05,29.9999922 L-1.5625e-05,35.7142891 C-1.5625e-05,38.0774141 1.57709375,39.9999922 3.51560937,39.9999922 Z"/>
</svg>
