<svg xmlns="http://www.w3.org/2000/svg" width="40" height="40" viewBox="0 0 40 40">
  <g fill="#63666A" fill-rule="evenodd">
    <path d="M3.53575.10925C2.90660937-.16996875 2.166375.1045625 1.88192187.72221875.633171875 3.4351875-.00003125 6.32753125-.00003125 9.3189375-.00003125 12.1484688.5691875 14.8976094 1.69184375 17.4901094 1.962 18.1137813 2.69582813 18.4044844 3.331375 18.13925 3.9666875 17.8740938 4.26278125 17.1534688 3.992625 16.5297188 3.00223438 14.2426875 2.50004688 11.8165938 2.50004688 9.3189375 2.50004688 6.67854688 3.05864063 4.12620313 4.160125 1.73292188 4.44442187 1.11534375 4.16496875.3883125 3.53575.10925M36.6686875 18.1392656C37.3035313 18.4043438 38.0378281 18.1141875 38.3080625 17.4900469 39.4307188 14.8975469 40.0000156 12.1484063 40.0000156 9.31895313 40.0000156 6.32754688 39.3668125 3.43520313 38.1181406.722234375 37.8337656.104578125 37.0932969-.169796875 36.4642344.109265625 35.8350938.388328125 35.5555625 1.11535938 35.8399375 1.7329375 36.9415 4.12621875 37.5000156 6.67848438 37.5000156 9.31895313 37.5000156 11.8165313 36.9978281 14.2427031 36.0075156 16.5296563 35.7373594 17.1534844 36.0332969 17.8740313 36.6686875 18.1392656M32.2578281 15.8425156C32.9007187 16.0892344 33.625875 15.7775938 33.8772031 15.1462656 34.6178281 13.2859531 34.993375 11.3254063 34.993375 9.31892188 34.993375 7.00165625 34.4706406 4.67228125 33.4816562 2.58259375 33.1907187 1.96798438 32.4475156 1.70095313 31.8213437 1.9868125 31.1951719 2.27251563 30.9236094 3.00228125 31.2144687 3.61696875 32.0511094 5.38478125 32.493375 7.35642188 32.493375 9.31892188 32.493375 11.018375 32.1755625 12.678375 31.5487656 14.2525938 31.2973594 14.8839219 31.6148594 15.5957969 32.2578281 15.8425156M8.17877344 1.98677344C7.55291406 1.70107031 6.80947656 1.96794531 6.51838281 2.58255469 5.52947656 4.67216406 5.00674219 7.00146094 5.00674219 9.31888281 5.00674219 11.3252891 5.38221094 13.2859141 6.12291406 15.1461484 6.37447656 15.7778672 7.09978906 16.0891172 7.74221094 15.8424766 8.38525781 15.5956797 8.70267969 14.8838828 8.45142969 14.2525547 7.82471094 12.6783359 7.50682031 11.0183359 7.50682031 9.31888281 7.50682031 7.35622656 7.94908594 5.38458594 8.78580469 3.61677344 9.07650781 3.00216406 8.80486719 2.27239844 8.17877344 1.98677344M12.3866094 3.68660156C11.7485625 3.42777344 11.017625 3.72558594 10.7539531 4.35199219 10.2536406 5.54035156 9.99996875 6.79847656 9.99996875 8.09167969 9.99996875 9.69082031 10.4025469 11.2796484 11.1642656 12.6865234 11.4885625 13.2853516 12.2455938 13.5121484 12.8548125 13.1941797 13.4643438 12.8760547 13.6959063 12.1329297 13.3717656 11.5344922 12.8014531 10.4811328 12.4999688 9.29058594 12.4999688 8.09167969 12.4999688 7.12183594 12.6898125 6.17902344 13.0642656 5.28957031 13.3280938 4.66316406 13.0245781 3.94542969 12.3866094 3.68660156M27.1451406 13.1941953C27.7551406 13.5123984 28.511625 13.2848203 28.8356875 12.6865391 29.5974062 11.2796641 29.9999844 9.69083594 29.9999844 8.09161719 29.9999844 6.79849219 29.7463125 5.54028906 29.2460781 4.35192969 28.9823281 3.72560156 28.2513906 3.42763281 27.6134219 3.68661719 26.975375 3.94552344 26.6718594 4.66317969 26.9356094 5.28950781 27.3100625 6.17903906 27.4999062 7.12177344 27.4999062 8.09161719 27.4999062 9.29060156 27.1985 10.4810703 26.6281094 11.5345078 26.3040469 12.1329453 26.5356094 12.8760703 27.1451406 13.1941953"/>
    <path d="M9.177,35.7695 C9.39020313,35.3510625 9.8185625,35.0910625 10.295125,35.0910625 L29.7048906,35.0910625 C30.181375,35.0910625 30.6098125,35.3510625 30.8229375,35.7695 L31.7274687,37.5454375 L8.272625,37.5454375 L9.177,35.7695 Z M19.9999687,13.0006719 C20.4281719,13.0006719 20.8437969,12.9473906 21.24075,12.8474688 L22.7359844,17.9096563 L17.2641094,17.9096563 L18.7593437,12.8474688 C19.1561406,12.9473906 19.5718437,13.0006719 19.9999687,13.0006719 Z M19.9999687,5.63715625 C21.3784844,5.63715625 22.4999687,6.73825 22.4999687,8.0916875 C22.4999687,9.44504687 21.3784844,10.5461406 19.9999687,10.5461406 C18.6215312,10.5461406 17.4999687,9.44504687 17.4999687,8.0916875 C17.4999687,6.73817188 18.6215312,5.63715625 19.9999687,5.63715625 Z M20.0067656,29.6072344 L24.6272344,32.6365313 L15.3784844,32.6365313 L20.0067656,29.6072344 Z M14.8143437,26.2029375 L17.7552031,28.1310625 L13.4035625,30.9792656 L14.8143437,26.2029375 Z M24.4590313,23.7431719 L20.0079375,26.6565312 L15.5446562,23.7302812 L16.5389531,20.3641094 L23.4609063,20.3641094 L24.4590313,23.7431719 Z M26.5954375,30.9754375 L22.2595,28.1327031 L25.1892656,26.215125 L26.5954375,30.9754375 Z M5.1866875,39.4179375 C5.41442187,39.7797344 5.81684375,39.9999688 6.24996875,39.9999688 L33.7499687,39.9999688 C34.1831719,39.9999688 34.5855156,39.7797344 34.8134062,39.4179375 C35.0411406,39.0561406 35.0617656,38.6042656 34.8680156,38.2239531 L33.0589531,34.6716875 C32.4196562,33.4162969 31.1344219,32.6365312 29.7049687,32.6365312 L29.6890312,32.6365312 C29.4305156,31.761375 24.0606719,13.5819219 23.478875,11.612625 C24.4160625,10.7198125 24.9999687,9.47184375 24.9999687,8.0916875 C24.9999687,5.3848125 22.757,3.18270313 19.9999687,3.18270313 C17.2430156,3.18270313 14.9999687,5.3848125 14.9999687,8.0916875 C14.9999687,9.47184375 15.5840312,10.7198906 16.5210625,11.612625 C16.3959844,12.0362188 10.5635625,31.7815313 10.3110625,32.6365312 L10.295125,32.6365312 C8.86559375,32.6365312 7.58035937,33.4164531 6.94098437,34.6717656 L5.132,38.2239531 C4.93825,38.6042656 4.95895312,39.0561406 5.1866875,39.4179375 Z"/>
  </g>
</svg>
