<svg xmlns="http://www.w3.org/2000/svg" width="40" height="40" viewBox="0 0 40 40">
  <path fill="#63666A" fill-rule="evenodd" d="M28.4294766,24.1631328 C28.1202578,24.4788359 27.9791641,24.9338359 28.0521328,25.3796953 L29.8071328,36.1125078 L20.6103359,31.0468828 C20.2283047,30.8363359 19.7717422,30.8362578 19.3896328,31.0468828 L10.1928359,36.1125078 L11.9477578,25.3796953 C12.0207266,24.9338359 11.8796328,24.4788359 11.5704141,24.1631328 L4.13111719,16.5639922 L14.4129141,14.9976641 C14.8401797,14.9325859 15.2093984,14.6514141 15.4005703,14.2457109 L20.0001016,4.48086719 L24.5994766,14.2457109 C24.7906484,14.6514141 25.1598672,14.9325859 25.5871328,14.9976641 L35.8690078,16.5639922 L28.4294766,24.1631328 Z M39.9357266,15.1794609 C39.7814297,14.6818047 39.3708828,14.3190703 38.8768203,14.2437578 L26.6472109,12.3806328 L21.1765078,0.766257812 C20.9554922,0.297039062 20.4993984,7.8125e-06 20.0001016,7.8125e-06 C19.5007266,7.8125e-06 19.0446328,0.297039062 18.8236172,0.766257812 L13.3529141,12.3806328 L1.12314844,14.2437578 C0.629085937,14.3190703 0.218460937,14.6818047 0.0643203125,15.1794609 C-0.0901328125,15.6771172 0.0386953125,16.2235234 0.396273437,16.5887578 L9.24510156,25.6276641 L7.15783594,38.3929766 C7.07338281,38.9086797 7.27572656,39.4298516 7.67971094,39.7374297 C8.08361719,40.0449297 8.61916406,40.0855547 9.06127344,39.8420391 L20.0000234,33.8171172 L30.9386172,39.8420391 C31.3829922,40.0868828 31.9182266,40.0432891 32.3201016,39.7374297 C32.7240859,39.4299297 32.9265078,38.9086797 32.8419766,38.3929766 L30.7547891,25.6277422 L39.6036953,16.5887578 C39.9613516,16.2234453 40.0901016,15.6770391 39.9357266,15.1794609 Z"/>
</svg>
