<svg xmlns="http://www.w3.org/2000/svg" width="40" height="40" viewBox="0 0 40 40">
  <path fill="#63666A" fill-rule="evenodd" d="M12.6014975,37.65625 C13.2653247,36.4421875 17.6738336,28.3802344 18.3355513,27.17 L20.2806265,30.0334375 C20.4932824,30.3466406 20.8441413,30.5376562 21.2225782,30.5465625 C21.6002339,30.5550781 21.9603896,30.3809375 22.1874205,30.078125 L24.7655415,26.640625 L27.3436626,30.078125 C27.5653029,30.3735937 27.9128024,30.546875 28.2810831,30.546875 C28.2902237,30.546875 28.2995205,30.5467969 28.3086612,30.5465625 C28.6870981,30.5376562 29.0379569,30.3466406 29.2505347,30.0334375 L31.1727193,27.2036719 L36.8569294,37.65625 L12.6014975,37.65625 Z M10.6317349,24.6875781 L13.9240737,30.3524219 L9.93017348,37.65625 L3.19479309,37.65625 L10.6317349,24.6875781 Z M29.7963933,5.51609375 L31.311391,7.03125 L25.9374148,7.03125 L25.9374148,2.34375 L31.311391,2.34375 L29.7963933,3.85890625 C29.3386596,4.31648437 29.3386596,5.05851562 29.7963933,5.51609375 Z M24.7626509,15.4164844 L29.9129556,24.8871094 L28.2340519,27.3589062 L25.7030401,23.984375 C25.4817123,23.6892969 25.1344472,23.515625 24.7655415,23.515625 C24.3967921,23.515625 24.0493708,23.6892969 23.828043,23.984375 L21.2971874,27.3589062 L19.5991432,24.8591406 L24.7626509,15.4164844 Z M25.9374148,12.6707031 L25.9374148,9.375 L34.1405273,9.375 C34.6145891,9.375 35.041854,9.08945312 35.22326,8.6515625 C35.4045879,8.21367187 35.3043536,7.70960937 34.9691979,7.37445312 L32.2821707,4.6875 L34.9691979,2.00046875 C35.3043536,1.6653125 35.4045879,1.16125 35.22326,0.723359375 C35.041854,0.285546875 34.6145891,0 34.1405273,0 L24.7655415,0 C24.1184332,0 23.5936683,0.5246875 23.5936683,1.171875 L23.5936683,12.6692969 L15.2382123,27.9492969 L11.6382178,21.7549219 C11.4282962,21.3939062 11.0424374,21.171875 10.624938,21.171875 L10.6215787,21.171875 C10.2029856,21.173125 9.81673615,21.3975781 9.60837709,21.7607812 L0.155266463,38.2451562 C-0.052701971,38.6078125 -0.0516863476,39.0538281 0.157922709,39.4155469 C0.367375515,39.7772656 0.753859303,40 1.17182742,40 L38.8280202,40 C39.2413789,40 39.6241908,39.7822656 39.8354405,39.4269531 C40.0466902,39.0716406 40.0550495,38.6314062 39.857628,38.2682812 C39.5638003,37.728125 25.940071,12.6755469 25.9374148,12.6707031 Z"/>
</svg>
