<svg xmlns="http://www.w3.org/2000/svg" width="40" height="40" viewBox="0 0 40 40">
  <path fill="#63666A" fill-rule="evenodd" d="M6.59453844,35.8277696 C8.94766962,36.6194904 12.1943969,37.3137891 15.824172,37.4019925 C20.0780895,37.5054303 26.0020894,36.7750377 30.0693657,32.7079177 C37.0664153,25.7109462 35.9893031,18.2878017 35.6353959,15.8484203 C35.52438,15.0831839 35.4685986,14.6989641 35.7373493,14.2659942 L36.5378202,12.9757565 L34.8002375,13.127085 C34.370002,13.1647414 33.9542196,12.9670065 33.7112502,12.6108337 C33.4682809,12.2546608 33.4364839,11.7949721 33.628125,11.408643 L34.917894,8.80855805 L32.4537469,10.0154362 C32.0798397,10.1985617 31.6373386,10.1734835 31.2867126,9.94926417 C28.9901441,8.48144781 25.9487299,8.76582356 23.890912,10.6404379 C21.9069224,12.4477864 21.0245763,15.4123254 21.6432498,18.1931139 C21.7227813,18.5511617 21.6333279,18.9259284 21.4004367,19.2092885 C21.1675454,19.4927267 20.816607,19.6524146 20.4507467,19.6446802 C16.8553466,19.5600706 13.3819781,18.5296773 10.4061891,16.6652193 C8.07993296,15.2076373 6.04945888,13.2364603 4.44687655,10.8941885 C3.95757839,12.8424749 4.52789239,15.1191215 6.05320889,16.6989694 C6.35281906,17.0092046 6.46149122,17.4570183 6.33766277,17.8701443 C6.21383432,18.2832704 5.87672406,18.5972556 5.4559417,18.6915527 C4.54812682,18.8950689 3.69695271,18.8618657 2.91413815,18.7246778 C4.14000075,21.6092948 6.79844523,22.9014857 9.00118538,23.4789872 C9.4559522,23.5982062 9.79821872,23.9735197 9.8753283,24.4372709 C9.95243788,24.9011003 9.74985922,25.3669609 9.35806132,25.6268834 C8.64376257,26.1006347 7.89579186,26.4975889 7.12024294,26.8147772 C9.81157813,28.6711883 13.2292434,29.2465804 14.3666682,29.392284 C14.80831,29.4488466 15.1818266,29.7468161 15.3350301,30.1649422 C15.4882337,30.5830683 15.3958115,31.0516633 15.095342,31.380336 C13.2922904,33.3522162 11.4206449,34.5913601 9.20509217,35.2800338 C8.40126193,35.5298782 7.54993157,35.7105818 6.59453844,35.8277696 M16.5671427,39.7967644 C16.294642,39.7967644 16.0277663,39.793405 15.766125,39.7869987 C9.15110765,39.6261389 2.85835676,37.4794146 1.13124285,35.5755033 C0.809132628,35.2205024 0.730929298,34.7071417 0.932492327,34.2722968 C1.13405536,33.8374519 1.57600964,33.5672949 2.05562028,33.5819043 C6.1989124,33.7241703 9.05024801,33.3779975 11.6916612,31.3093984 C9.3685301,30.7379906 6.09797464,29.5468156 3.83374994,27.126653 C3.53921792,26.8118866 3.4374989,26.3627448 3.56757737,25.951728 C3.69765584,25.5407113 4.03937548,25.2319605 4.46140784,25.1439916 C4.88617458,25.0554757 5.30383193,24.9397723 5.71328613,24.7971938 C2.5692935,23.2445334 0.578897649,20.6214016 0.0159274212,17.2082676 C-0.0521196324,16.7956884 0.100771394,16.3776404 0.419053479,16.1063897 C0.73725744,15.835139 1.17436796,15.7502169 1.57085338,15.8827954 C2.03366709,16.037327 2.45101194,16.1713899 2.84320047,16.2705308 C1.42046236,13.5049766 1.54772832,10.1433272 3.36265496,7.69160199 C3.60523372,7.36378863 3.99796912,7.18308503 4.40547019,7.21144448 C4.81234626,7.24027268 5.17633159,7.4749608 5.37047273,7.83355549 C8.29657416,13.2403666 13.2449465,16.5865472 19.0910556,17.1724863 C18.8718363,14.0477906 20.0475425,10.914423 22.2843453,8.87683948 C24.9642742,6.43550494 28.85905,5.94698804 31.9764801,7.59277361 L37.0223527,5.12159525 C37.481182,4.89690716 38.0321991,4.98932927 38.3925907,5.35151772 C38.7529041,5.7137843 38.84267,6.26527012 38.6156381,6.72292757 L36.7091487,10.5661408 L38.7036852,10.3923903 C39.1541552,10.3533277 39.5868125,10.5713752 39.8233757,10.9560637 C40.0598607,11.3406741 40.0587669,11.8259097 39.8207194,12.2096607 L37.9551676,15.2166999 C37.9673552,15.3065439 37.9822771,15.4092785 37.9964177,15.5060756 C38.1873557,16.822876 38.5849349,19.5629613 37.9558708,22.9845328 C37.1770406,27.2210283 35.0910976,31.060179 31.7562451,34.3950315 C27.3501398,38.8011368 21.2117643,39.7966863 16.5671427,39.7967644"/>
</svg>
