<svg xmlns="http://www.w3.org/2000/svg" width="40" height="40" viewBox="0 0 40 40">
  <g fill="none" fill-rule="evenodd">
    <path fill="#63666A" d="M16.40625,23.5156172 C16.40625,20.9309297 18.5440625,18.8281172 21.171875,18.8281172 C23.7565625,18.8281172 25.859375,20.9309297 25.859375,23.5156172 L16.40625,23.5156172 Z M18.75,14.1406172 C18.75,12.8701484 19.8590625,11.7968672 21.171875,11.7968672 C22.4642188,11.7968672 23.515625,12.8482734 23.515625,14.1406172 C23.515625,15.4329609 22.4642188,16.4843672 21.171875,16.4843672 C19.8590625,16.4843672 18.75,15.4110859 18.75,14.1406172 Z M24.5715625,17.3627266 C25.36875,16.5220234 25.859375,15.3878828 25.859375,14.1406172 C25.859375,11.5559297 23.7565625,9.45311719 21.171875,9.45311719 C18.5914062,9.45311719 16.40625,11.5379609 16.40625,14.1406172 C16.40625,15.3496016 16.8775781,16.4903047 17.7344531,17.3693672 C17.1692187,17.6816328 16.6419531,18.0713984 16.1685156,18.5362422 C14.8103906,19.8697578 14.0625,21.6381953 14.0625,23.5156172 L14.0625,24.6874922 C14.0625,25.3346797 14.5871875,25.8593672 15.234375,25.8593672 L27.03125,25.8593672 C27.6784375,25.8593672 28.203125,25.3346797 28.203125,24.6874922 L28.203125,23.5156172 C28.203125,20.8709297 26.7351563,18.5629609 24.5715625,17.3627266 Z"/>
    <path fill="#63666A" d="M35,4.68749219 L35,35.3124922 L35,36.4843672 C35,38.4228828 33.4367699,39.9999922 31.5154867,39.9999922 L3.48451327,39.9999922 C1.56315265,39.9999922 0,38.4228828 0,36.4843672 L0,3.51561719 C0,1.57717969 1.56315265,-7.81249992e-06 3.48451327,-7.81249992e-06 L31.5154867,-7.81249992e-06 C33.4367699,-7.81249992e-06 35,1.57717969 35,3.51561719 L35,4.68749219 Z M32.96875,36.4843672 L32.96875,3.51561719 C32.96875,2.86944531 32.4430469,2.34374219 31.796875,2.34374219 L9.375,2.34374219 L9.375,4.68749219 L10.546875,4.68749219 C11.1940625,4.68749219 11.71875,5.21217969 11.71875,5.85936719 C11.71875,6.50655469 11.1940625,7.03124219 10.546875,7.03124219 L9.375,7.03124219 L9.375,14.1406172 L10.546875,14.1406172 C11.1940625,14.1406172 11.71875,14.6653047 11.71875,15.3124922 C11.71875,15.9596797 11.1940625,16.4843672 10.546875,16.4843672 L9.375,16.4843672 L9.375,23.5156172 L10.546875,23.5156172 C11.1940625,23.5156172 11.71875,24.0403047 11.71875,24.6874922 C11.71875,25.3346797 11.1940625,25.8593672 10.546875,25.8593672 L9.375,25.8593672 L9.375,32.9687422 L10.546875,32.9687422 C11.1940625,32.9687422 11.71875,33.4934297 11.71875,34.1406172 C11.71875,34.7878047 11.1940625,35.3124922 10.546875,35.3124922 L9.375,35.3124922 L9.375,37.6562422 L31.796875,37.6562422 C32.4430469,37.6562422 32.96875,37.1305391 32.96875,36.4843672 Z M2.34375,36.4843672 C2.34375,37.1305391 2.86945312,37.6562422 3.515625,37.6562422 L7.03125,37.6562422 L7.03125,35.3124922 L5.859375,35.3124922 C5.2121875,35.3124922 4.6875,34.7878047 4.6875,34.1406172 C4.6875,33.4934297 5.2121875,32.9687422 5.859375,32.9687422 L7.03125,32.9687422 L7.03125,25.8593672 L5.859375,25.8593672 C5.2121875,25.8593672 4.6875,25.3346797 4.6875,24.6874922 C4.6875,24.0403047 5.2121875,23.5156172 5.859375,23.5156172 L7.03125,23.5156172 L7.03125,16.4843672 L5.859375,16.4843672 C5.2121875,16.4843672 4.6875,15.9596797 4.6875,15.3124922 C4.6875,14.6653047 5.2121875,14.1406172 5.859375,14.1406172 L7.03125,14.1406172 L7.03125,7.03124219 L5.859375,7.03124219 C5.2121875,7.03124219 4.6875,6.50655469 4.6875,5.85936719 C4.6875,5.21217969 5.2121875,4.68749219 5.859375,4.68749219 L7.03125,4.68749219 L7.03125,2.34374219 L3.515625,2.34374219 C2.86945312,2.34374219 2.34375,2.86944531 2.34375,3.51561719 L2.34375,36.4843672 Z"/>
    <path fill="#63666A" d="M26.96875 28L15.171875 28C14.5246875 28 14 28.5246875 14 29.171875 14 29.8190625 14.5246875 30.34375 15.171875 30.34375L26.96875 30.34375C27.6159375 30.34375 28.140625 29.8190625 28.140625 29.171875 28.140625 28.5246875 27.6159375 28 26.96875 28M33.5494956 5C33.2460275 5 33 5.44773333 33 6 33 6.55226667 33.2460275 7 33.5494956 7L38.5714286 7C39.5 7 39.5 5.88001333 39.5 6 39.5 6.11998667 39.5 5 38.5714286 5 37.952381 5 36.2784033 5 33.5494956 5zM33.5917645 15C33.2649527 15 33 15.4477333 33 16 33 16.5522667 33.2649527 17 33.5917645 17L39 17C40 17 40 15.8800133 40 16 40 16.1199867 40 15 39 15 38.3333333 15 36.5305882 15 33.5917645 15zM33.5917645 24C33.2649527 24 33 24.4477333 33 25 33 25.5522667 33.2649527 26 33.5917645 26L39 26C40 26 40 24.8800133 40 25 40 25.1199867 40 24 39 24 38.3333333 24 36.5305882 24 33.5917645 24zM33.5494956 34C33.2460275 34 33 34.4477333 33 35 33 35.5522667 33.2460275 36 33.5494956 36L38.5714286 36C39.5 36 39.5 34.8800133 39.5 35 39.5 35.1199867 39.5 34 38.5714286 34 37.952381 34 36.2784033 34 33.5494956 34z"/>
    <path fill="#63666A" fill-rule="nonzero" d="M38,6.06896552 C38,5 39,5 39,5 C39,5 40,5 40,6.40909091 C40,7.81818182 40,34 40,35 C40,35.6666667 39.6666667,36 39,36 C38.3333333,36 38,35.6666667 38,35 C38,34 38,7.13793103 38,6.06896552 Z"/>
  </g>
</svg>
