<svg xmlns="http://www.w3.org/2000/svg" width="40" height="40" viewBox="0 0 40 40">
  <g fill="none" fill-rule="evenodd">
    <path fill="#63666A" d="M38,35.6040625 L32.0353906,32.2146799 L32.0353906,23.9934451 L38,20.6040625 L38,35.6040625 Z M37.9957813,17.9519886 L32.0498438,21.4231795 C32.0435156,21.4268737 32.0353906,21.4223329 32.0353906,21.4150214 L32.0353906,20.3941055 C32.0353906,18.2222061 30.248125,16.4615977 28.0434375,16.4615977 L22.7433594,16.4615977 L21.2485156,16.4615977 C21.2432031,16.4615977 21.2389844,16.4573647 21.2389844,16.4521312 L21.2389844,12.635068 C21.2389844,11.9076895 21.8375781,11.3179981 22.5759375,11.3179981 L26.9473437,11.3179981 C26.9513281,11.3179981 26.9548438,11.3204609 26.9561719,11.3241551 C27.5059375,12.8427145 28.9797656,13.8461598 30.7079688,13.8461598 L35.9342187,13.8461598 C38.254375,13.8461598 40.1275,11.9753401 39.9932031,9.69353736 C39.8722656,7.63685176 38.1353125,6 36.0176563,6 L30.7079688,6 C28.9797656,6 27.5059375,7.09041356 26.9561719,8.60928085 C26.9548438,8.61297508 26.9513281,8.6154379 26.9473437,8.6154379 L22.5759375,8.6154379 C20.37125,8.6154379 18.5840625,10.3761233 18.5840625,12.5479458 L18.5840625,16.4521312 C18.5840625,16.4573647 18.5797656,16.4615977 18.5744531,16.4615977 L15.9388281,16.4615977 C15.9335156,16.4615977 15.9292187,16.4573647 15.9292187,16.4521312 L15.9292187,15.1633067 C15.9292187,12.9914843 14.1419531,11.2307988 11.9373438,11.2307988 L6.64679688,11.2307988 C4.44210937,11.2307988 2.65492187,12.9914843 2.65492187,15.1633067 L2.65492187,16.680019 C2.65492187,16.6834054 2.65242187,16.6858682 2.64945313,16.6874075 C1.10578125,17.2276117 0,18.6786744 0,20.3846391 L0,30.8461598 C0,30.9275868 0.003359375,31.0081671 0.00828125,31.0883627 L0,31.3877493 L0,36.0674921 C0,38.2393915 1.78726563,40 3.99195312,40 L28.0434375,40 C30.248125,40 32.0353906,38.2393915 32.0353906,36.0674921 L32.0353906,35.0464993 C32.0353906,35.0392648 32.0435156,35.034724 32.0498438,35.0384182 L37.9957813,38.5096091 C38.8779687,39.0245693 39.9999219,38.3988591 39.9999219,37.3845621 L39.9999219,19.0769586 C39.9999219,18.0655092 38.8798437,17.4359508 37.9957813,17.9519886 Z M29.6549219,36.6428628 C29.6549219,37.3912013 29.0533398,38 28.3137933,38 L3.99597155,38 C3.25650392,38 2.65492187,37.3912013 2.65492187,36.6428628 L2.65492187,20.357217 C2.65492187,19.6087987 3.25650392,19 3.99597155,19 L28.3137933,19 C29.0533398,19 29.6549219,19.6087987 29.6549219,20.357217 L29.6549219,36.6428628 Z M6.49998529,13.053125 L12.4999264,13.053125 C13.3270327,13.053125 14,13.8328881 14,14.9585585 L14,17 L5,17 L5,14.9585585 C5,13.8328881 5.67287904,13.053125 6.49998529,13.053125 Z M30.5,8 L36.5,8 C37.3271144,8 38,8.77976313 38,9.9054335 C38,11.0311039 37.3271144,11.946875 36.5,11.946875 L30.5,11.946875 C29.6728856,11.946875 29,11.0311039 29,9.9054335 C29,8.77976313 29.6728856,8 30.5,8 Z"/>
    <path fill="#63666A" d="M25.8486249 23L16.1514497 23C15.5158381 23 15 23.5149987 15 24.15 15 24.7848524 15.5158381 25.3 16.1514497 25.3L25.8486249 25.3C26.4841619 25.3 27 24.7848524 27 24.15 27 23.5149987 26.4841619 23 25.8486249 23M25.8486249 33L16.1514497 33C15.5158381 33 15 33.5149987 15 34.15 15 34.7848524 15.5158381 35.3 16.1514497 35.3L25.8486249 35.3C26.4841619 35.3 27 34.7848524 27 34.15 27 33.5149987 26.4841619 33 25.8486249 33"/>
    <path fill="#63666A" d="M11.2069531,28 C10.5407031,28 10,28.5149987 10,29.15 C10,29.7848524 10.5407031,30.3 11.2069531,30.3 L21,30.3 C21.6661719,30.3 22,29.7848524 22,29.15 C22,28.5149987 21.6661719,28 21,28 L11.2069531,28 Z" transform="rotate(90 16 29.15)"/>
    <path fill="#63666A" d="M21.2069531,28 C20.5407031,28 20,28.5149987 20,29.15 C20,29.7848524 20.5407031,30.3 21.2069531,30.3 L31,30.3 C31.6661719,30.3 32,29.7848524 32,29.15 C32,28.5149987 31.6661719,28 31,28 L21.2069531,28 Z" transform="rotate(90 26 29.15)"/>
    <path fill="#63666A" d="M6 28C5 28 5 29.15 5 29.15 5 29.15 5 30.3 6 30.3 6.66666667 30.3 7.66078125 30.3 8.98234375 30.3 10 30.3 10 29.15 10 29.15 10 29.15 10 28 8.98234375 28L6 28zM6 33C5 33 5 34.15 5 34.15 5 34.15 5 35.3 6 35.3 6.66666667 35.3 7.66078125 35.3 8.98234375 35.3 10 35.3 10 34.15 10 34.15 10 34.15 10 33 8.98234375 33L6 33z"/>
  </g>
</svg>
