<svg xmlns="http://www.w3.org/2000/svg" width="22" height="22" viewBox="0 0 22 22">
  <g fill="#919396" fill-rule="evenodd">
    <path d="M9.7109375,13.2798574 L14.8671875,13.2798574 C15.2234414,13.2798574 15.5117188,13.5880293 15.5117188,13.9688184 C15.5117188,14.3496074 15.2234414,14.6577793 14.8671875,14.6577793 L9.7109375,14.6577793 C9.35468359,14.6577793 9.06640625,14.3496074 9.06640625,13.9688184 C9.06640625,13.5880293 9.35468359,13.2798574 9.7109375,13.2798574 M9.7109375,9.46363086 L18.734375,9.46363086 C19.0906289,9.46363086 19.3789062,9.77175977 19.3789062,10.1525918 C19.3789062,10.5333809 19.0906289,10.8415527 18.734375,10.8415527 L9.7109375,10.8415527 C9.35468359,10.8415527 9.06640625,10.5333809 9.06640625,10.1525918 C9.06640625,9.77175977 9.35468359,9.46363086 9.7109375,9.46363086 M6.48828125,7.58344727 L6.48828125,17.1772949 C6.48828125,18.317041 7.35564844,19.2442207 8.421875,19.2442207 L14.6720664,19.2442207 L18.376875,21.8842637 C18.5764648,22.0264902 18.8314844,22.0372754 19.0384219,21.9185957 C19.2479805,21.7988418 19.3789062,21.5653926 19.3789062,21.3110605 L19.3789062,19.2442207 L20.0234375,19.2442207 C21.0896641,19.2442207 22,18.317041 22,17.1772949 L22,7.58344727 C22,6.44370117 21.0896641,5.51656445 20.0234375,5.51656445 L8.421875,5.51656445 C7.35564844,5.51656445 6.48828125,6.44370117 6.48828125,7.58344727"/>
    <path d="M1.93359375,13.7325418 L2.578125,13.7325418 L2.578125,15.7994246 C2.578125,16.0537566 2.70905078,16.2871629 2.91865234,16.4069598 C3.12558984,16.5256824 3.38056641,16.5148543 3.58019922,16.3726277 L5.19921875,15.2495105 L5.19921875,7.57851445 C5.19921875,5.6791668 6.64498828,4.13375273 8.421875,4.13375273 L15.5117188,4.13375273 L15.5117188,2.06686992 C15.5117188,0.927123828 14.6443516,-1.2890625e-05 13.578125,-1.2890625e-05 L1.93359375,-1.2890625e-05 C0.867367188,-1.2890625e-05 0,0.927123828 0,2.06686992 L0,11.665616 C0,12.805448 0.867367188,13.7325418 1.93359375,13.7325418"/>
  </g>
</svg>
