<svg xmlns="http://www.w3.org/2000/svg" width="22" height="22" viewBox="0 0 22 22">
    <g fill="#919396" fill-rule="evenodd">
        <path d="M1 3.797l9.412 6.842v11.158L1 14.955V3.797zm1.176 2.28v2.029l7.06 5.139v-2.029l-7.06-5.139zm0 3.584v2.029l7.06 5.139V14.8l-7.06-5.139zM21 3.797v11.158l-9.412 6.842V10.639L21 3.797zM19.914 6.24l-7.059 5.14v2.028l7.059-5.14V6.24zM11 9.854l5.385-4.249L10.474 2 5.615 5.605z"/>
        <path d="M16.363 5.605H5.637a1.184 1.184 0 0 1-.022-.226C5.615 2.409 8.026 0 11 0a5.382 5.382 0 0 1 5.385 5.379c0 .077-.008.153-.022.226z"/>
    </g>
</svg>
