<svg xmlns="http://www.w3.org/2000/svg" width="22" height="22" viewBox="0 0 22 22">
    <path fill="#919396" fill-rule="evenodd" d="M1.778 14.874a10.025 10.025 0 0 0 6.373 5.711c-.985-1.363-1.663-3.416-2.017-5.711H1.778zm12.08 5.711a10.031 10.031 0 0 0 6.37-5.711h-4.354c-.355 2.295-1.033 4.348-2.016 5.711zm-6.425-5.711c.584 3.602 1.964 6.13 3.57 6.13 1.603 0 2.983-2.528 3.568-6.13H7.433zm-1.594-3.872c0-.866.048-1.734.134-2.58H1.346A10.092 10.092 0 0 0 1 11.001c0 .896.128 1.755.346 2.581h4.622a27.162 27.162 0 0 1-.13-2.58zm14.818-2.58H16.03c.085.846.133 1.714.133 2.58 0 .867-.048 1.735-.133 2.581h4.622a9.898 9.898 0 0 0 .347-2.58c0-.896-.125-1.755-.343-2.582zM8.147 1.42a10.013 10.013 0 0 0-6.37 5.71h4.357c.35-2.294 1.028-4.347 2.012-5.71zm12.078 5.71a10.021 10.021 0 0 0-6.371-5.71c.983 1.363 1.66 3.416 2.015 5.71h4.356zM7.13 11.003c0 .896.049 1.755.134 2.581h7.474a25.405 25.405 0 0 0 0-5.162H7.263a25.13 25.13 0 0 0-.134 2.581zm7.442-3.871C13.986 3.529 12.606 1 11.002 1c-1.605 0-2.985 2.53-3.57 6.13h7.139z"/>
</svg>
