<svg xmlns="http://www.w3.org/2000/svg" width="22" height="22" viewBox="0 0 22 22">
    <path fill="#FFF" fill-rule="evenodd" d="M9.126 14.126c-2.762 0-5-2.235-5-5 0-2.762 2.234-5 5-5 2.762 0 5 2.234 5 5 0 2.762-2.235 5-5 5m11.602 4.168L16.833 14.4a.937.937 0 0 0-.664-.273h-.637a8.086 8.086 0 0 0 1.72-5A8.124 8.124 0 0 0 9.125 1 8.124 8.124 0 0 0 1 9.126a8.124 8.124 0 0 0 8.126 8.125c1.886 0 3.621-.64 5-1.719v.637c0 .25.098.488.273.664l3.895 3.895a.934.934 0 0 0 1.325 0l1.105-1.106a.942.942 0 0 0 .004-1.328"/>
</svg>
