<svg xmlns="http://www.w3.org/2000/svg" width="22" height="22" viewBox="0 0 22 22">
    <path fill="#919396" fill-rule="evenodd" d="M21 11.008l-.224-6.55c-.023-.678-.613-1.21-1.317-1.188-.704.023-1.256.59-1.233 1.268l.056 1.65L13.66.473a1.31 1.31 0 0 0-1.77-.228A1.216 1.216 0 0 0 11.662 2l3.432 4.243-.2.15-4.233-5.23a1.31 1.31 0 0 0-1.77-.229 1.216 1.216 0 0 0-.227 1.757l4.216 5.211-.2.151L9.21 3.768a1.31 1.31 0 0 0-1.77-.229 1.216 1.216 0 0 0-.227 1.757l2.324 2.872a1.682 1.682 0 0 1 1.861.039l5.507 3.855c.487.34.778.89.778 1.47v.73l2.726-2.043c.386-.29.605-.74.59-1.211zm-12.648.09h1.626l-.5-.35a1.535 1.535 0 0 1-.141-2.429l-.58-.717c-.44-.543-1.27-.652-1.826-.219a1.196 1.196 0 0 0-.203 1.708l1.624 2.007zm-3.27 9.698c-.014-.688.585-1.251 1.3-1.251h2.781v-.246H3.544c-.715 0-1.314-.563-1.3-1.252.013-.667.579-1.203 1.275-1.203h5.644v-.246H2.301c-.716 0-1.314-.563-1.3-1.251.013-.667.578-1.204 1.274-1.204h6.888v-.246H3.576c-.715 0-1.314-.563-1.3-1.251.013-.667.579-1.204 1.275-1.204h7.525l-1.387-.971a1.198 1.198 0 0 1-.282-1.715 1.308 1.308 0 0 1 1.782-.271l5.507 3.855c.396.277.63.72.63 1.191v6.065c0 .683-.488 1.277-1.18 1.434l-3.592.813a6.35 6.35 0 0 1-1.402.157H6.357c-.696 0-1.262-.537-1.275-1.204z"/>
</svg>
