<svg xmlns="http://www.w3.org/2000/svg" xmlns:xlink="http://www.w3.org/1999/xlink" width="195" height="43" viewBox="0 0 195 43">
  <defs>
    <polygon id="bibb_logo-a" points="0 41.892 194.939 41.892 194.939 0 0 0"/>
  </defs>
  <g fill="none" fill-rule="evenodd">
    <path fill="#00306B" d="M93.8395554 18.787759L94.9349223 18.787759C95.9733324 18.787759 97.3532029 18.5175647 97.3532029 16.9384856 97.3532029 15.5019388 96.0302892 15.3027302 95.1908072 15.3027302L93.8395554 15.3027302 93.8395554 18.787759zM93.8109367 23.5247158L94.835318 23.5247158C96.1582317 23.5247158 97.6520158 23.168946 97.6520158 21.5901475 97.6520158 19.8261691 96.1298935 19.6412698 94.6790374 19.6412698L93.8109367 19.6412698 93.8109367 23.5247158zM92.8294835 14.4492194L95.1908072 14.4492194C96.8128144 14.4492194 98.3346561 14.9896079 98.3346561 16.8958381 98.3346561 18.161795 97.7513396 18.9157014 96.5283108 19.1575576L96.5283108 19.1861763C97.7799583 19.413723 98.6334691 20.2386151 98.6334691 21.5475 98.6334691 23.7096151 96.8694906 24.3782266 94.8069799 24.3782266L92.8294835 24.3782266 92.8294835 14.4492194zM106.048688 22.6712331C106.048688 23.2259309 106.048688 23.7949381 106.105645 24.3782547L105.237824 24.3782547 105.237824 23.0836791 105.209486 23.0836791C104.910673 23.7379813 104.370004 24.5488446 102.862191 24.5488446 101.069875 24.5488446 100.386954 23.354154 100.386954 21.7607655L100.386954 17.1234129 101.283393 17.1234129 101.283393 21.5332187C101.283393 22.8987799 101.766824 23.7809094 103.004443 23.7809094 104.640199 23.7809094 105.152529 22.344082 105.152529 21.1348014L105.152529 17.1234129 106.048688 17.1234129 106.048688 22.6712331zM107.96875 18.8304345C107.96875 18.2757367 107.96875 17.7067295 107.911794 17.1234129L108.779614 17.1234129 108.779614 18.4179885 108.807952 18.4179885C109.106765 17.7636863 109.647153 16.952823 111.154966 16.952823 112.947563 16.952823 113.630204 18.1477942 113.630204 19.7409022L113.630204 24.3782547 112.734045 24.3782547 112.734045 19.9684489C112.734045 18.6028878 112.250333 17.7207583 111.012995 17.7207583 109.376959 17.7207583 108.864909 19.1575856 108.864909 20.3668662L108.864909 24.3782547 107.96875 24.3782547 107.96875 18.8304345zM118.298672 23.7807971C119.89178 23.7807971 120.446478 22.0737755 120.446478 20.7508619 120.446478 19.4279482 119.89178 17.7209266 118.298672 17.7209266 116.59165 17.7209266 116.150586 19.3426532 116.150586 20.7508619 116.150586 22.1590705 116.59165 23.7807971 118.298672 23.7807971zM121.342917 24.3781424L120.446478 24.3781424 120.446478 23.2260993 120.41814 23.2260993C119.934427 24.1505957 119.19483 24.5490129 118.15642 24.5490129 116.164895 24.5490129 115.169132 22.8989482 115.169132 20.7508619 115.169132 18.5460993 116.022643 16.9527108 118.15642 16.9527108 119.578658 16.9527108 120.290197 17.9911209 120.41814 18.3468906L120.446478 18.3468906 120.446478 13.7092576 121.342917 13.7092576 121.342917 24.3781424zM127.779319 20.2387273C127.779319 18.9727705 127.267269 17.7208424 125.930046 17.7208424 124.607132 17.7208424 123.796269 19.0437561 123.796269 20.2387273L127.779319 20.2387273zM128.220384 24.1505115C127.59442 24.406677 126.783557 24.5489288 126.114945 24.5489288 123.710974 24.5489288 122.814816 22.9272022 122.814816 20.7507777 122.814816 18.5317058 124.038125 16.9526266 125.873089 16.9526266 127.921571 16.9526266 128.761053 18.6029719 128.761053 20.5515691L128.761053 21.0069432 123.796269 21.0069432C123.796269 22.5430942 124.621442 23.7807129 126.186212 23.7807129 126.840514 23.7807129 127.793629 23.5105187 128.220384 23.2403245L128.220384 24.1505115zM129.726373 23.3256194C130.267042 23.5958137 130.921345 23.7807129 131.618294 23.7807129 132.471805 23.7807129 133.225712 23.3113101 133.225712 22.486418 133.225712 20.7650871 129.740683 21.0352813 129.740683 18.930123 129.740683 17.4932957 130.907035 16.9526266 132.102006 16.9526266 132.486114 16.9526266 133.25433 17.0382022 133.894323 17.2800583L133.809028 18.0623029C133.339625 17.8487849 132.699352 17.7208424 132.201611 17.7208424 131.276834 17.7208424 130.636841 18.005346 130.636841 18.930123 130.636841 20.2813748 134.207445 20.1107849 134.207445 22.486418 134.207445 24.0225691 132.770618 24.5489288 131.675251 24.5489288 130.978021 24.5489288 130.281352 24.4636338 129.641078 24.2074683L129.726373 23.3256194z"/>
    <mask id="bibb_logo-b" fill="#fff">
      <use xlink:href="#bibb_logo-a"/>
    </mask>
    <path fill="#00306B" d="M135.498626 24.3783669L136.394784 24.3783669 136.394784 17.1235252 135.498626 17.1235252 135.498626 24.3783669zM135.498626 15.1889568L136.394784 15.1889568 136.394784 13.9939856 135.498626 13.9939856 135.498626 15.1889568zM138.296525 18.8304345C138.296525 18.2757367 138.296525 17.7067295 138.239568 17.1234129L139.107388 17.1234129 139.107388 18.4179885 139.135727 18.4179885C139.43454 17.7636863 139.974928 16.952823 141.482741 16.952823 143.275338 16.952823 143.957978 18.1477942 143.957978 19.7409022L143.957978 24.3782547 143.06182 24.3782547 143.06182 19.9684489C143.06182 18.6028878 142.578388 17.7207583 141.340489 17.7207583 139.704734 17.7207583 139.192683 19.1575856 139.192683 20.3668662L139.192683 24.3782547 138.296525 24.3782547 138.296525 18.8304345zM145.285017 23.3256194C145.825405 23.5958137 146.479988 23.7807129 147.176937 23.7807129 148.030448 23.7807129 148.784355 23.3113101 148.784355 22.486418 148.784355 20.7650871 145.299326 21.0352813 145.299326 18.930123 145.299326 17.4932957 146.465678 16.9526266 147.66065 16.9526266 148.044477 16.9526266 148.812693 17.0382022 149.452686 17.2800583L149.367671 18.0623029C148.897988 17.8487849 148.257995 17.7208424 147.760254 17.7208424 146.835477 17.7208424 146.195484 18.005346 146.195484 18.930123 146.195484 20.2813748 149.765808 20.1107849 149.765808 22.486418 149.765808 24.0225691 148.328981 24.5489288 147.233894 24.5489288 146.536664 24.5489288 145.839714 24.4636338 145.199722 24.2074683L145.285017 23.3256194zM154.418368 17.8916568L152.768303 17.8916568 152.768303 22.5859662C152.768303 23.2402683 153.010159 23.7809374 153.735447 23.7809374 154.076907 23.7809374 154.304735 23.7096712 154.560619 23.6100669L154.617576 24.3499446C154.404058 24.4352396 153.963274 24.5488727 153.522209 24.5488727 151.929101 24.5488727 151.872145 23.4535058 151.872145 22.1305921L151.872145 17.8916568 150.449627 17.8916568 150.449627 17.123441 151.872145 17.123441 151.872145 15.3737719 152.768303 15.0609302 152.768303 17.123441 154.418368 17.123441 154.418368 17.8916568zM155.76095 24.3783669L156.657108 24.3783669 156.657108 17.1235252 155.76095 17.1235252 155.76095 24.3783669zM155.76095 15.1889568L156.657108 15.1889568 156.657108 13.9939856 155.76095 13.9939856 155.76095 15.1889568zM161.767876 17.8916568L160.117811 17.8916568 160.117811 22.5859662C160.117811 23.2402683 160.359386 23.7809374 161.084955 23.7809374 161.426415 23.7809374 161.654242 23.7096712 161.910127 23.6100669L161.967084 24.3499446C161.753566 24.4352396 161.312782 24.5488727 160.871998 24.5488727 159.278609 24.5488727 159.221653 23.4535058 159.221653 22.1305921L159.221653 17.8916568 157.799135 17.8916568 157.799135 17.123441 159.221653 17.123441 159.221653 15.3737719 160.117811 15.0609302 160.117811 17.123441 161.767876 17.123441 161.767876 17.8916568zM168.662514 22.6712331C168.662514 23.2259309 168.662514 23.7949381 168.719191 24.3782547L167.851651 24.3782547 167.851651 23.0836791 167.823313 23.0836791C167.524219 23.7379813 166.984112 24.5488446 165.476299 24.5488446 163.683701 24.5488446 163.000781 23.354154 163.000781 21.7607655L163.000781 17.1234129 163.897219 17.1234129 163.897219 21.5332187C163.897219 22.8987799 164.380651 23.7809094 165.61827 23.7809094 167.254025 23.7809094 167.766356 22.344082 167.766356 21.1348014L167.766356 17.1234129 168.662514 17.1234129 168.662514 22.6712331zM173.783299 17.8916568L172.133234 17.8916568 172.133234 22.5859662C172.133234 23.2402683 172.374809 23.7809374 173.100378 23.7809374 173.441838 23.7809374 173.669385 23.7096712 173.92555 23.6100669L173.982227 24.3499446C173.768989 24.4352396 173.328205 24.5488727 172.88714 24.5488727 171.293752 24.5488727 171.237076 23.4535058 171.237076 22.1305921L171.237076 17.8916568 169.814277 17.8916568 169.814277 17.123441 171.237076 17.123441 171.237076 15.3737719 172.133234 15.0609302 172.133234 17.123441 173.783299 17.123441 173.783299 17.8916568zM180.240913 17.8916568L178.775747 17.8916568 178.775747 17.123441 180.240913 17.123441 180.240913 16.5970813C180.240913 15.074959 180.297589 13.5388079 182.161453 13.5388079 182.445676 13.5388079 182.830064 13.5814554 183.000654 13.6810597L182.943697 14.4633043C182.758798 14.3637 182.488604 14.3070237 182.232438 14.3070237 181.008848 14.3070237 181.137071 15.6299374 181.137071 16.497477L181.137071 17.123441 182.772827 17.123441 182.772827 17.8916568 181.137071 17.8916568 181.137071 24.3782827 180.240913 24.3782827 180.240913 17.8916568zM187.542302 15.8715971L188.609331 15.8715971 188.609331 14.6766259 187.542302 14.6766259 187.542302 15.8715971zM185.109993 15.8715971L186.177022 15.8715971 186.177022 14.6766259 185.109993 14.6766259 185.109993 15.8715971zM189.66177 22.6713453C189.66177 23.2260432 189.66177 23.7950504 189.718727 24.3783669L188.851187 24.3783669 188.851187 23.0837914 188.822568 23.0837914C188.524036 23.7380935 187.983367 24.5489568 186.475554 24.5489568 184.682957 24.5489568 184.000317 23.3539856 184.000317 21.7608777L184.000317 17.1235252 184.896475 17.1235252 184.896475 21.5333309C184.896475 22.8988921 185.380187 23.780741 186.617806 23.780741 188.253561 23.780741 188.765612 22.3441942 188.765612 21.1349137L188.765612 17.1235252 189.66177 17.1235252 189.66177 22.6713453zM191.582029 18.7451676C191.582029 17.9486137 191.582029 17.6498007 191.525072 17.123441L192.42123 17.123441 192.42123 18.5176209 192.449849 18.5176209C192.777 17.7067576 193.388374 16.9528511 194.313151 16.9528511 194.526388 16.9528511 194.782554 16.9954986 194.939115 17.038146L194.939115 17.9769518C194.754216 17.919995 194.512079 17.8916568 194.284813 17.8916568 192.862014 17.8916568 192.477906 19.4847647 192.477906 20.7936496L192.477906 24.3782827 191.582029 24.3782827 191.582029 18.7451676zM93.8395554 33.2288417L94.9349223 33.2288417C95.9733324 33.2288417 97.3532029 32.9586475 97.3532029 31.3795683 97.3532029 29.942741 96.0302892 29.7438129 95.1908072 29.7438129L93.8395554 29.7438129 93.8395554 33.2288417zM93.8109367 37.9657986L94.835318 37.9657986C96.1582317 37.9657986 97.6520158 37.6100288 97.6520158 36.0312302 97.6520158 34.2672518 96.1298935 34.0823525 94.6790374 34.0823525L93.8109367 34.0823525 93.8109367 37.9657986zM92.8294835 28.8903022L95.1908072 28.8903022C96.8128144 28.8903022 98.3346561 29.4306906 98.3346561 31.3369209 98.3346561 32.6028777 97.7513396 33.3567842 96.5283108 33.5986403L96.5283108 33.627259C97.7799583 33.8548058 98.6334691 34.6796978 98.6334691 35.9885827 98.6334691 38.1506978 96.8694906 38.8193094 94.8069799 38.8193094L92.8294835 38.8193094 92.8294835 28.8903022zM104.947625 34.6798101C104.947625 33.4138532 104.435575 32.1619252 103.098352 32.1619252 101.775438 32.1619252 100.964575 33.4848388 100.964575 34.6798101L104.947625 34.6798101zM105.38869 38.5915942C104.762726 38.8477597 103.951863 38.9900115 103.283251 38.9900115 100.87928 38.9900115 99.9831216 37.3682849 99.9831216 35.1918604 99.9831216 32.9727885 101.206431 31.3937094 103.041395 31.3937094 105.089877 31.3937094 105.929359 33.0437741 105.929359 34.9926518L105.929359 35.4480259 100.964575 35.4480259C100.964575 36.984177 101.789747 38.2217957 103.354517 38.2217957 104.008819 38.2217957 104.961935 37.9516014 105.38869 37.6814072L105.38869 38.5915942zM107.371293 33.1861662C107.371293 32.3896122 107.371293 32.0907993 107.314336 31.5644396L108.210494 31.5644396 108.210494 32.9586194 108.239113 32.9586194C108.566264 32.1477561 109.177919 31.3938496 110.102415 31.3938496 110.315933 31.3938496 110.571818 31.4364971 110.728379 31.4791446L110.728379 32.4179504C110.54348 32.3609935 110.301624 32.3326554 110.074077 32.3326554 108.651559 32.3326554 108.267451 33.9257633 108.267451 35.2346482L108.267451 38.8192813 107.371293 38.8192813 107.371293 33.1861662zM117.520496 37.1123158C117.520496 37.6670137 117.520496 38.2360209 117.577453 38.8193374L116.709632 38.8193374 116.709632 37.5247619 116.681294 37.5247619C116.382481 38.179064 115.842093 38.9899273 114.33428 38.9899273 112.541683 38.9899273 111.859042 37.7949561 111.859042 36.2018482L111.859042 31.5644957 112.755201 31.5644957 112.755201 35.9743014C112.755201 37.3398626 113.238913 38.2219921 114.476251 38.2219921 116.112287 38.2219921 116.624337 36.7851647 116.624337 35.5758842L116.624337 31.5644957 117.520496 31.5644957 117.520496 37.1123158zM120.130494 32.3326554L118.665328 32.3326554 118.665328 31.5644396 120.130494 31.5644396 120.130494 31.0380799C120.130494 29.5159576 120.18745 27.9798065 122.051033 27.9798065 122.335256 27.9798065 122.719645 28.022454 122.890235 28.1220583L122.833278 28.9043029C122.648378 28.8049791 122.378184 28.7480223 122.122019 28.7480223 120.898709 28.7480223 121.026652 30.070936 121.026652 30.9384755L121.026652 31.5644396 122.662407 31.5644396 122.662407 32.3326554 121.026652 32.3326554 121.026652 38.8192813 120.130494 38.8192813 120.130494 32.3326554zM123.561371 37.766618C124.10176 38.0368122 124.756342 38.2219921 125.453292 38.2219921 126.306803 38.2219921 127.060709 37.7523086 127.060709 36.9274165 127.060709 35.2060856 123.5754 35.4762799 123.5754 33.3711216 123.5754 31.9342942 124.742033 31.3939058 125.937004 31.3939058 126.320832 31.3939058 127.089047 31.4792007 127.729321 31.7210568L127.643745 32.5033014C127.174342 32.290064 126.53435 32.161841 126.036328 32.161841 125.111832 32.161841 124.471839 32.4463446 124.471839 33.3711216 124.471839 34.7223734 128.042163 34.5517835 128.042163 36.9274165 128.042163 38.4635676 126.605616 38.9899273 125.510249 38.9899273 124.813019 38.9899273 124.116069 38.9046324 123.475796 38.6487475L123.561371 37.766618zM132.34636 32.1619532C130.710604 32.1619532 130.198554 33.8689748 130.198554 35.1918885 130.198554 36.5148022 130.753252 38.2218237 132.34636 38.2218237 134.053381 38.2218237 134.494446 36.6000971 134.494446 35.1918885 134.494446 33.7836799 134.053381 32.1619532 132.34636 32.1619532zM129.302115 28.1505647L130.198554 28.1505647 130.198554 32.7879173 130.226892 32.7879173C130.354835 32.4321475 131.066374 31.3937374 132.488612 31.3937374 134.622388 31.3937374 135.475899 32.9871259 135.475899 35.1918885 135.475899 37.3399748 134.480137 38.9900396 132.488612 38.9900396 131.450201 38.9900396 130.710604 38.5916223 130.226892 37.6671259L130.198554 37.6671259 130.198554 38.8194496 129.302115 38.8194496 129.302115 28.1505647zM137.051612 38.8193094L137.94777 38.8193094 137.94777 31.5644676 137.051612 31.5644676 137.051612 38.8193094zM137.051612 29.6298993L137.94777 29.6298993 137.94777 28.4349281 137.051612 28.4349281 137.051612 29.6298993z" mask="url(#bibb_logo-b)"/>
    <polygon fill="#00306B" points="139.844 38.819 140.74 38.819 140.74 28.15 139.844 28.15" mask="url(#bibb_logo-b)"/>
    <path fill="#00306B" d="M145.435293 38.2218518C147.028681 38.2218518 147.583379 36.5148302 147.583379 35.1919165 147.583379 33.8690029 147.028681 32.1619813 145.435293 32.1619813 143.728552 32.1619813 143.287487 33.7837079 143.287487 35.1919165 143.287487 36.6001252 143.728552 38.2218518 145.435293 38.2218518zM148.479537 38.8191971L147.583379 38.8191971 147.583379 37.667154 147.55476 37.667154C147.071329 38.5916504 146.331451 38.9900676 145.293041 38.9900676 143.301796 38.9900676 142.305753 37.3397223 142.305753 35.1919165 142.305753 32.987154 143.159264 31.3937655 145.293041 31.3937655 146.715559 31.3937655 147.426818 32.4321755 147.55476 32.7879453L147.583379 32.7879453 147.583379 28.1503122 148.479537 28.1503122 148.479537 38.8191971zM155.997166 37.1123158C155.997166 37.6670137 155.997166 38.2360209 156.054123 38.8193374L155.186303 38.8193374 155.186303 37.5247619 155.157965 37.5247619C154.859152 38.179064 154.318763 38.9899273 152.81095 38.9899273 151.018353 38.9899273 150.335432 37.7949561 150.335432 36.2018482L150.335432 31.5644957 151.231871 31.5644957 151.231871 35.9743014C151.231871 37.3398626 151.715303 38.2219921 152.952922 38.2219921 154.588677 38.2219921 155.101008 36.7851647 155.101008 35.5758842L155.101008 31.5644957 155.997166 31.5644957 155.997166 37.1123158zM157.917341 33.2715173C157.917341 32.7168194 157.917341 32.1478122 157.860384 31.5644957L158.728204 31.5644957 158.728204 32.8590712 158.756542 32.8590712C159.055355 32.2047691 159.595744 31.3939058 161.103557 31.3939058 162.895873 31.3939058 163.578794 32.5885964 163.578794 34.1819849L163.578794 38.8193374 162.682636 38.8193374 162.682636 34.4095317C162.682636 33.0439705 162.199204 32.161841 160.961305 32.161841 159.32555 32.161841 158.813219 33.5986683 158.813219 34.8079489L158.813219 38.8193374 157.917341 38.8193374 157.917341 33.2715173zM168.166036 38.0511496C169.787763 38.0511496 170.370799 36.514718 170.370799 35.1918043 170.370799 33.4421353 169.858748 32.1618691 168.222993 32.1618691 166.515971 32.1618691 166.075187 33.7835957 166.075187 35.1918043 166.075187 36.6143223 166.643914 38.0511496 168.166036 38.0511496zM171.267237 38.2217396C171.267237 40.2418835 170.35677 41.8919482 167.867504 41.8919482 166.914388 41.8919482 166.046288 41.621754 165.67677 41.5078403L165.748036 40.611682C166.302453 40.8961856 167.099007 41.1237324 167.881532 41.1237324 170.185899 41.1237324 170.385108 39.4453295 170.385108 37.3968475L170.35677 37.3968475C169.873058 38.4492863 169.076504 38.8193655 168.151727 38.8193655 165.833331 38.8193655 165.093453 36.7992216 165.093453 35.1918043 165.093453 32.9870417 165.946964 31.3936532 168.080741 31.3936532 169.048165 31.3936532 169.674129 31.5218763 170.34246 32.3896964L170.370799 32.3896964 170.370799 31.5645237 171.267237 31.5645237 171.267237 38.2217396z" mask="url(#bibb_logo-b)"/>
    <polygon fill="#7FC200" points="27.122 38.818 33.199 38.818 33.199 10.825 27.122 14.449" mask="url(#bibb_logo-b)"/>
    <polygon fill="#7FC200" points="27.122 0 27.122 7.201 33.199 10.825 33.199 0" mask="url(#bibb_logo-b)"/>
    <path fill="#7FC200" d="M12.1856201,14.457805 L12.1856201,14.4535964 L6.09348345,14.4535964 L6.09348345,2.80575539e-05 L0.000224460432,2.80575539e-05 L-5.61151079e-05,20.5468554 L0.000224460432,20.5468554 L12.1856201,20.5468554 C15.5480374,20.5468554 18.2738288,23.2726468 18.2738288,26.635064 C18.2738288,29.9974813 15.5480374,32.7229921 12.1856201,32.7229921 L12.1856201,32.7232727 L-5.61151079e-05,32.7232727 L-5.61151079e-05,38.8165317 L12.1856201,38.8165317 L12.1856201,38.8291576 C18.915505,38.8291576 24.3712964,33.3733662 24.3712964,26.6434813 C24.3712964,19.9135964 18.915505,14.457805 12.1856201,14.457805" mask="url(#bibb_logo-b)"/>
    <path fill="#00306B" d="M49.4785986 14.457805L49.4785986 14.4535964 43.3864619 14.4535964 43.3864619.0000280575539 37.2932029.0000280575539 37.2929223 20.5468554 37.2932029 20.5468554 49.4785986 20.5468554C52.8410158 20.5468554 55.5668072 23.2726468 55.5668072 26.635064 55.5668072 29.9974813 52.8410158 32.7229921 49.4785986 32.7229921L49.4785986 32.7232727 37.2929223 32.7232727 37.2929223 38.8165317 49.4785986 38.8165317 49.4785986 38.8291576C56.2084835 38.8291576 61.6642748 33.3733662 61.6642748 26.6434813 61.6642748 19.9135964 56.2084835 14.457805 49.4785986 14.457805M74.5503799 14.457805L74.5503799 14.4535964 68.4582432 14.4535964 68.4582432.0000280575539 62.3647036.0000280575539 62.3647036 20.5468554 74.5503799 20.5468554C77.9127971 20.5468554 80.6385885 23.2726468 80.6385885 26.635064 80.6385885 29.9974813 77.9127971 32.7229921 74.5503799 32.7229921L74.5503799 32.7232727 62.3647036 32.7232727 62.3647036 38.8165317 74.5503799 38.8165317 74.5503799 38.8291576C81.2802647 38.8291576 86.7360561 33.3733662 86.7360561 26.6434813 86.7360561 19.9135964 81.2802647 14.457805 74.5503799 14.457805" mask="url(#bibb_logo-b)"/>
  </g>
</svg>
