<svg xmlns="http://www.w3.org/2000/svg" width="87" height="39" viewBox="0 0 87 39">
  <g fill="none" fill-rule="evenodd">
    <polygon fill="#7FC200" points="27.122 38.818 33.199 38.818 33.199 10.825 27.122 14.449"/>
    <polygon fill="#7FC200" points="27.122 0 27.122 7.201 33.199 10.825 33.199 0"/>
    <path fill="#7FC200" d="M12.1856201,14.457805 L12.1856201,14.4535964 L6.09348345,14.4535964 L6.09348345,2.80575539e-05 L0.000224460432,2.80575539e-05 L-5.61151079e-05,20.5468554 L0.000224460432,20.5468554 L12.1856201,20.5468554 C15.5480374,20.5468554 18.2738288,23.2726468 18.2738288,26.635064 C18.2738288,29.9974813 15.5480374,32.7229921 12.1856201,32.7229921 L12.1856201,32.7232727 L-5.61151079e-05,32.7232727 L-5.61151079e-05,38.8165317 L12.1856201,38.8165317 L12.1856201,38.8291576 C18.915505,38.8291576 24.3712964,33.3733662 24.3712964,26.6434813 C24.3712964,19.9135964 18.915505,14.457805 12.1856201,14.457805"/>
    <path fill="#00306B" d="M49.4785986 14.457805L49.4785986 14.4535964 43.3864619 14.4535964 43.3864619.0000280575539 37.2932029.0000280575539 37.2929223 20.5468554 37.2932029 20.5468554 49.4785986 20.5468554C52.8410158 20.5468554 55.5668072 23.2726468 55.5668072 26.635064 55.5668072 29.9974813 52.8410158 32.7229921 49.4785986 32.7229921L49.4785986 32.7232727 37.2929223 32.7232727 37.2929223 38.8165317 49.4785986 38.8165317 49.4785986 38.8291576C56.2084835 38.8291576 61.6642748 33.3733662 61.6642748 26.6434813 61.6642748 19.9135964 56.2084835 14.457805 49.4785986 14.457805M74.5503799 14.457805L74.5503799 14.4535964 68.4582432 14.4535964 68.4582432.0000280575539 62.3647036.0000280575539 62.3647036 20.5468554 74.5503799 20.5468554C77.9127971 20.5468554 80.6385885 23.2726468 80.6385885 26.635064 80.6385885 29.9974813 77.9127971 32.7229921 74.5503799 32.7229921L74.5503799 32.7232727 62.3647036 32.7232727 62.3647036 38.8165317 74.5503799 38.8165317 74.5503799 38.8291576C81.2802647 38.8291576 86.7360561 33.3733662 86.7360561 26.6434813 86.7360561 19.9135964 81.2802647 14.457805 74.5503799 14.457805"/>
  </g>
</svg>
