<svg xmlns="http://www.w3.org/2000/svg" xmlns:xlink="http://www.w3.org/1999/xlink" width="150" height="25" viewBox="0 0 150 25">
  <defs>
    <polygon id="anerkennung_deutschland-a" points=".023 .343 116.081 .343 116.081 10.714 .023 10.714"/>
    <polygon id="anerkennung_deutschland-c" points="0 .246 4.268 .246 4.268 4.395 0 4.395"/>
    <polygon id="anerkennung_deutschland-e" points="0 .21 4.268 .21 4.268 4.356 0 4.356"/>
    <polygon id="anerkennung_deutschland-g" points="0 .172 4.268 .172 4.268 4.319 0 4.319"/>
    <polygon id="anerkennung_deutschland-i" points="0 .136 4.268 .136 4.268 4.281 0 4.281"/>
    <polygon id="anerkennung_deutschland-k" points="0 .099 4.268 .099 4.268 4.244 0 4.244"/>
  </defs>
  <g fill="none" fill-rule="evenodd">
    <path fill="#000" d="M149.873235,4.26625 L145.899338,4.26625 L145.899338,6.27339286 L147.722132,6.27339286 L147.722132,7.87660714 C147.514044,8.13125 147.213309,8.45982143 145.611838,8.36446429 C143.708162,8.25053571 142.455956,7.02517857 142.455956,5.18696429 C142.455956,3.34660714 143.704853,2.00910714 145.611838,2.00910714 C146.746397,2.00910714 147.477647,2.32875 148.080221,2.94196429 L149.661103,1.26946429 C148.641618,0.348392857 147.219191,0.000178571429 145.611838,0.000178571429 C142.441985,0.000178571429 140.132059,2.02196429 140.132059,5.18696429 C140.132059,8.35089286 142.441985,10.3719643 145.611838,10.3719643 C147.10375,10.3719643 148.554485,10.0923214 149.873235,9.42339286 L149.873235,4.26625 Z M128.981691,10.1216071 L131.220662,10.1216071 L131.220662,3.09446429 L131.249338,3.09446429 L135.682426,10.1216071 L138.611471,10.1216071 L138.611471,0.251607143 L136.370294,0.251607143 L136.370294,7.10982143 L136.342353,7.10982143 L132.023603,0.251607143 L128.981691,0.251607143 L128.981691,10.1216071 Z M126.915882,0.251607143 L124.677279,0.251607143 L124.677279,6.23125 C124.677279,7.44375 123.815515,8.36446429 122.639412,8.36446429 C121.447868,8.36446429 120.588676,7.44375 120.588676,6.23125 L120.588676,0.251607143 L118.348603,0.251607143 L118.348603,6.31482143 C118.348603,8.64339286 119.812574,10.3719643 122.639412,10.3719643 C125.452279,10.3719643 126.915882,8.64339286 126.915882,6.31482143 L126.915882,0.251607143 Z M106.654118,10.1216071 L108.890882,10.1216071 L108.890882,3.09446429 L108.920294,3.09446429 L113.356691,10.1216071 L116.281691,10.1216071 L116.281691,0.251607143 L114.044559,0.251607143 L114.044559,7.10982143 L114.013676,7.10982143 L109.696397,0.251607143 L106.654118,0.251607143 L106.654118,10.1216071 Z M94.96,10.1216071 L97.1993382,10.1216071 L97.1993382,3.09446429 L97.2265441,3.09446429 L101.661103,10.1216071 L104.587206,10.1216071 L104.587206,0.251607143 L102.348603,0.251607143 L102.348603,7.10982143 L102.320662,7.10982143 L98.0004412,0.251607143 L94.96,0.251607143 L94.96,10.1216071 Z M86.0044853,10.1216071 L93.1669853,10.1216071 L93.1669853,8.11410714 L88.2438235,8.11410714 L88.2438235,6.10625 L92.6493382,6.10625 L92.6493382,4.09875 L88.2438235,4.09875 L88.2438235,2.25910714 L92.9088971,2.25910714 L92.9088971,0.251607143 L86.0044853,0.251607143 L86.0044853,10.1216071 Z M75.6467647,10.1216071 L77.8846324,10.1216071 L77.8846324,5.43625 L82.0155147,10.1216071 L85.1445588,10.1216071 L80.2364706,4.83767857 L84.7570588,0.251607143 L81.8298529,0.251607143 L77.8846324,4.35017857 L77.8846324,0.251607143 L75.6467647,0.251607143 L75.6467647,10.1216071 Z M68.4997059,2.09196429 L69.9636765,2.09196429 C70.7816912,2.09196429 71.7008088,2.24625 71.7008088,3.23446429 C71.7008088,4.30875 70.6383088,4.33625 69.8195588,4.33625 L68.4997059,4.33625 L68.4997059,2.09196429 Z M66.2611029,10.1216071 L68.4997059,10.1216071 L68.4997059,6.17660714 L69.6059559,6.17660714 L71.7291176,10.1216071 L74.4122059,10.1216071 L71.8291176,5.95303571 C73.2640441,5.70267857 74.0243382,4.62839286 74.0243382,3.24839286 C74.0243382,0.947678571 72.2736029,0.251607143 70.1927206,0.251607143 L66.2611029,0.251607143 L66.2611029,10.1216071 Z M57.3077941,10.1216071 L64.4677206,10.1216071 L64.4677206,8.11410714 L59.5456618,8.11410714 L59.5456618,6.10625 L63.9508088,6.10625 L63.9508088,4.09875 L59.5456618,4.09875 L59.5456618,2.25910714 L64.21,2.25910714 L64.21,0.251607143 L57.3077941,0.251607143 L57.3077941,10.1216071 Z M45.5269118,10.1216071 L47.7655147,10.1216071 L47.7655147,3.09446429 L47.7938235,3.09446429 L52.2276471,10.1216071 L55.1552206,10.1216071 L55.1552206,0.251607143 L52.9166176,0.251607143 L52.9166176,7.10982143 L52.8879412,7.10982143 L48.5684559,0.251607143 L45.5269118,0.251607143 L45.5269118,10.1216071 Z M40.3463971,6.18946429 L37.8651471,6.18946429 L39.0982353,3.12375 L40.3463971,6.18946429 Z M33.8463971,10.1216071 L36.3133088,10.1216071 L37.1603676,8.02910714 L41.1063235,8.02910714 L41.9831618,10.1216071 L44.5070588,10.1216071 L40.0890441,0.251607143 L38.2364706,0.251607143 L33.8463971,10.1216071 Z"/>
    <g transform="translate(33.824 14.085)">
      <mask id="anerkennung_deutschland-b" fill="#fff">
        <use xlink:href="#anerkennung_deutschland-a"/>
      </mask>
      <path fill="#000" d="M108.388713,1.43075 L110.340919,1.43075 C113.038346,1.43075 115.133566,2.70110714 115.133566,5.52932143 C115.133566,8.35932143 113.038346,9.62825 110.340919,9.62825 L108.388713,9.62825 L108.388713,1.43075 Z M107.443125,10.4639643 L110.584301,10.4639643 C115.865551,10.4639643 116.08136,6.25360714 116.08136,5.52932143 C116.08136,4.80539286 115.865551,0.595035714 110.584301,0.595035714 L107.443125,0.595035714 L107.443125,10.4639643 Z M97.2677574,10.4639643 L98.2155515,10.4639643 L98.2155515,1.82182143 L98.2445956,1.82182143 L104.428787,10.4639643 L105.648272,10.4639643 L105.648272,0.595035714 L104.701213,0.595035714 L104.701213,9.23610714 L104.673272,9.23610714 L98.4879779,0.595035714 L97.2677574,0.595035714 L97.2677574,10.4639643 Z M93.5817279,7.00717857 L88.918125,7.00717857 L91.2843015,1.59753571 L93.5817279,7.00717857 Z M86.4067279,10.4639643 L87.3960662,10.4639643 L88.5445956,7.84289286 L93.9236397,7.84289286 L95.030625,10.4639643 L96.0916544,10.4639643 L91.8159191,0.595035714 L90.8409191,0.595035714 L86.4067279,10.4639643 Z M79.6905515,10.4639643 L85.3729044,10.4639643 L85.3729044,9.62825 L80.6379779,9.62825 L80.6379779,0.595035714 L79.6905515,0.595035714 L79.6905515,10.4639643 Z M70.1916544,10.4639643 L71.1387132,10.4639643 L71.1387132,5.78110714 L76.8203309,5.78110714 L76.8203309,10.4639643 L77.7677574,10.4639643 L77.7677574,0.595035714 L76.8203309,0.595035714 L76.8203309,4.94539286 L71.1387132,4.94539286 L71.1387132,0.595035714 L70.1916544,0.595035714 L70.1916544,10.4639643 Z M68.2537868,8.34396429 C67.5383456,9.40575 66.2732721,9.87825 65.2548897,9.87825 C62.6004779,9.87825 60.9501103,7.98396429 60.9501103,5.52932143 C60.9501103,3.07575 62.6004779,1.18003571 65.2548897,1.18003571 C66.2732721,1.18003571 67.3512132,1.59753571 67.9824632,2.51860714 L68.7567279,1.89075 C67.8677574,0.79075 66.6339338,0.34325 65.2548897,0.34325 C62.155625,0.34325 60.0045221,2.51860714 60.0045221,5.52932143 C60.0045221,8.54075 62.155625,10.7143214 65.2548897,10.7143214 C66.7475368,10.7143214 68.0684926,10.1993214 69.0287868,8.91753571 L68.2537868,8.34396429 Z M52.3398162,9.22360714 C53.1291544,10.2968214 54.3059926,10.7143214 55.6405515,10.7143214 C57.2916544,10.7143214 58.7975368,9.72467857 58.7975368,7.94182143 C58.7975368,4.23289286 53.5600368,6.01682143 53.5600368,3.04932143 C53.5600368,1.79325 54.6221691,1.18003571 55.8423897,1.18003571 C56.7170221,1.18003571 57.349375,1.51539286 57.8221691,2.15575 L58.6416544,1.58325 C57.9523162,0.70575 56.9769485,0.34325 55.8703309,0.34325 C54.1633456,0.34325 52.6151838,1.29182143 52.6151838,3.04932143 C52.6151838,6.79789286 57.8501103,5.18146429 57.8501103,7.94182143 C57.8501103,9.12575 56.8464338,9.87825 55.5699632,9.87825 C54.5640809,9.87825 53.7482721,9.45967857 53.2453309,8.63717857 L52.3398162,9.22360714 Z M47.5626103,10.4639643 L48.5093015,10.4639643 L48.5093015,1.43075 L51.9828309,1.43075 L51.9828309,0.595035714 L44.0909191,0.595035714 L44.0909191,1.43075 L47.5626103,1.43075 L47.5626103,10.4639643 Z M43.2857721,0.595035714 L42.3387132,0.595035714 L42.3387132,6.44932143 C42.3387132,7.85825 41.9519485,9.87825 39.5854044,9.87825 C37.2162868,9.87825 36.8298897,7.85825 36.8298897,6.44932143 L36.8298897,0.595035714 L35.8824632,0.595035714 L35.8824632,6.68610714 C35.8824632,8.79110714 36.8170221,10.7143214 39.5854044,10.7143214 C42.3548897,10.7143214 43.2857721,8.79110714 43.2857721,6.68610714 L43.2857721,0.595035714 Z M27.5600368,10.4639643 L34.0030515,10.4639643 L34.0030515,9.62825 L28.5070956,9.62825 L28.5070956,5.78110714 L33.4434926,5.78110714 L33.4434926,4.94539286 L28.5070956,4.94539286 L28.5070956,1.43075 L33.7732721,1.43075 L33.7732721,0.595035714 L27.5600368,0.595035714 L27.5600368,10.4639643 Z M18.0317279,1.43075 L19.9835662,1.43075 C22.6817279,1.43075 24.7765809,2.70110714 24.7765809,5.52932143 C24.7765809,8.35932143 22.6817279,9.62825 19.9835662,9.62825 L18.0317279,9.62825 L18.0317279,1.43075 Z M17.0861397,10.4639643 L20.2280515,10.4639643 C25.5081985,10.4639643 25.7240074,6.25360714 25.7240074,5.52932143 C25.7240074,4.80539286 25.5081985,0.595035714 20.2280515,0.595035714 L17.0861397,0.595035714 L17.0861397,10.4639643 Z M3.18172794,10.4639643 L4.12731618,10.4639643 L4.12731618,1.82182143 L4.15746324,1.82182143 L10.3405515,10.4639643 L11.5611397,10.4639643 L11.5611397,0.595035714 L10.6137132,0.595035714 L10.6137132,9.23610714 L10.5843015,9.23610714 L4.40047794,0.595035714 L3.18172794,0.595035714 L3.18172794,10.4639643 Z M0.0229044118,10.4639643 L0.970330882,10.4639643 L0.970330882,0.59325 L0.0229044118,0.59325 L0.0229044118,10.4639643 Z" mask="url(#anerkennung_deutschland-b)"/>
    </g>
    <path fill="#FC0" d="M22.8755882 20.4036071C21.6958088 20.4036071 20.7413971 21.3325357 20.7413971 22.4764643 20.7413971 23.6203929 21.6958088 24.5493214 22.8755882 24.5493214 24.0520588 24.5493214 25.0094118 23.6203929 25.0094118 22.4764643 25.0094118 21.3325357 24.0520588 20.4036071 22.8755882 20.4036071M22.8755882 10.3275714C21.6958088 10.3275714 20.7413971 11.2575714 20.7413971 12.4015 20.7413971 13.5468571 21.6958088 14.4761429 22.8755882 14.4761429 24.0524265 14.4761429 25.0094118 13.5468571 25.0094118 12.4015 25.0094118 11.2575714 24.0524265 10.3275714 22.8755882 10.3275714M22.8755882 15.3662857C21.6958088 15.3662857 20.7413971 16.2959286 20.7413971 17.4387857 20.7413971 18.5837857 21.6958088 19.5116429 22.8755882 19.5116429 24.0524265 19.5116429 25.0094118 18.5837857 25.0094118 17.4387857 25.0094118 16.2959286 24.0524265 15.3662857 22.8755882 15.3662857M22.8755882 9.43853571C21.6983824 9.43853571 20.7413971 8.50782143 20.7413971 7.36353571 20.7413971 6.22067857 21.6983824 5.29103571 22.8755882 5.29103571 24.0516912 5.29103571 25.0094118 6.22067857 25.0094118 7.36353571 25.0094118 8.50782143 24.0516912 9.43853571 22.8755882 9.43853571"/>
    <path fill="#CD141E" d="M22.8755882,4.3995 C21.6983824,4.3995 20.7413971,3.47021429 20.7413971,2.32807143 C20.7413971,1.18557143 21.6983824,0.255214286 22.8755882,0.255214286 C24.0520588,0.255214286 25.0094118,1.18557143 25.0094118,2.32807143 C25.0094118,3.47021429 24.0520588,4.3995 22.8755882,4.3995"/>
    <path fill="#FC0" d="M17.6899632 20.4022143C16.5116544 20.4022143 15.5565074 21.3318571 15.5565074 22.4765 15.5565074 23.6211429 16.5116544 24.5507857 17.6899632 24.5507857 18.8686397 24.5507857 19.8241544 23.6211429 19.8241544 22.4765 19.8241544 21.3318571 18.8686397 20.4022143 17.6899632 20.4022143M17.6902941 15.3662857C16.5116176 15.3662857 15.5564706 16.2945 15.5564706 17.4387857 15.5564706 18.5852143 16.5116176 19.5123571 17.6902941 19.5123571 18.8686029 19.5123571 19.8241176 18.5852143 19.8241176 17.4387857 19.8241176 16.2945 18.8686029 15.3662857 17.6902941 15.3662857M17.6902941 10.3289643C16.5116176 10.3289643 15.5564706 11.2575357 15.5564706 12.4018214 15.5564706 13.5468214 16.5116176 14.4746786 17.6902941 14.4746786 18.8686029 14.4746786 19.8241176 13.5468214 19.8241176 12.4018214 19.8241176 11.2575357 18.8686029 10.3289643 17.6902941 10.3289643"/>
    <path fill="#CD141E" d="M17.6902941 9.43821429C16.5130882 9.43821429 15.5564706 8.50785714 15.5564706 7.36357143 15.5564706 6.22107143 16.5130882 5.29142857 17.6902941 5.29142857 18.8663971 5.29142857 19.8241176 6.22107143 19.8241176 7.36357143 19.8241176 8.50785714 18.8663971 9.43821429 17.6902941 9.43821429M17.6904779 4.39914286C16.5132721 4.39914286 15.5562868 3.47021429 15.5562868 2.32807143 15.5562868 1.18557143 16.5132721.255214286 17.6904779.255214286 18.8669485.255214286 19.8243015 1.18557143 19.8243015 2.32807143 19.8243015 3.47021429 18.8669485 4.39914286 17.6904779 4.39914286"/>
    <path fill="#FC0" d="M12.5046324 24.5508571C11.3277941 24.5508571 10.3704412 23.6197857 10.3704412 22.4751429 10.3704412 21.3322857 11.3277941 20.4022857 12.5046324 20.4022857 13.6811029 20.4022857 14.6384559 21.3322857 14.6384559 22.4751429 14.6384559 23.6197857 13.6811029 24.5508571 12.5046324 24.5508571M12.5046324 19.5131786C11.3277941 19.5131786 10.3704412 18.5831786 10.3704412 17.4385357 10.3704412 16.2956786 11.3277941 15.3656786 12.5046324 15.3656786 13.6811029 15.3656786 14.6384559 16.2956786 14.6384559 17.4385357 14.6384559 18.5831786 13.6811029 19.5131786 12.5046324 19.5131786"/>
    <path fill="#CD141E" d="M12.5046324,14.4748214 C11.3277941,14.4748214 10.3704412,13.5451786 10.3704412,12.4016071 C10.3704412,11.25875 11.3277941,10.32875 12.5046324,10.32875 C13.6811029,10.32875 14.6384559,11.25875 14.6384559,12.4016071 C14.6384559,13.5451786 13.6811029,14.4748214 12.5046324,14.4748214"/>
    <path fill="#000" d="M12.5048162 9.43714286C11.3279779 9.43714286 10.370625 8.50714286 10.370625 7.36428571 10.370625 6.22178571 11.3279779 5.29214286 12.5048162 5.29214286 13.6812868 5.29214286 14.6386397 6.22178571 14.6386397 7.36428571 14.6386397 8.50714286 13.6812868 9.43714286 12.5048162 9.43714286M12.5048162 4.40053571C11.3279779 4.40053571 10.370625 3.47053571 10.370625 2.32732143 10.370625 1.18410714 11.3279779.254464286 12.5048162.254464286 13.6812868.254464286 14.6386397 1.18410714 14.6386397 2.32732143 14.6386397 3.47053571 13.6812868 4.40053571 12.5048162 4.40053571"/>
    <path fill="#FC0" d="M7.31933824,24.5508571 C6.14286765,24.5508571 5.18514706,23.6197857 5.18514706,22.4751429 C5.18514706,21.3322857 6.14286765,20.4022857 7.31933824,20.4022857 C8.49617647,20.4022857 9.45316176,21.3322857 9.45316176,22.4751429 C9.45316176,23.6197857 8.49617647,24.5508571 7.31933824,24.5508571"/>
    <path fill="#CD141E" d="M7.31933824 19.5131786C6.14286765 19.5131786 5.18514706 18.5831786 5.18514706 17.4385357 5.18514706 16.2963929 6.14286765 15.3656786 7.31933824 15.3656786 8.49617647 15.3656786 9.45316176 16.2963929 9.45316176 17.4385357 9.45316176 18.5831786 8.49617647 19.5131786 7.31933824 19.5131786M7.31933824 14.4748214C6.1425 14.4748214 5.18514706 13.5451786 5.18514706 12.40125 5.18514706 11.2583929 6.1425 10.3291071 7.31933824 10.3291071 8.49617647 10.3291071 9.45316176 11.2583929 9.45316176 12.40125 9.45316176 13.5451786 8.49617647 14.4748214 7.31933824 14.4748214"/>
    <path fill="#000" d="M7.31933824 9.4375C6.1425 9.4375 5.18514706 8.5075 5.18514706 7.36392857 5.18514706 6.22142857 6.1425 5.29214286 7.31933824 5.29214286 8.49617647 5.29214286 9.45316176 6.22142857 9.45316176 7.36392857 9.45316176 8.5075 8.49617647 9.4375 7.31933824 9.4375M7.31952206 4.40017857C6.14305147 4.40017857 5.18533088 3.47053571 5.18533088 2.32803571 5.18533088 1.18482143 6.14305147.254821429 7.31952206.254821429 8.49636029.254821429 9.45334559 1.18482143 9.45334559 2.32803571 9.45334559 3.47053571 8.49636029 4.40017857 7.31952206 4.40017857"/>
    <g transform="translate(0 20.156)">
      <mask id="anerkennung_deutschland-d" fill="#fff">
        <use xlink:href="#anerkennung_deutschland-c"/>
      </mask>
      <path fill="#CD141E" d="M2.13404412,4.39460714 C0.957205882,4.39460714 -0.000147058824,3.46353571 -0.000147058824,2.31889286 C-0.000147058824,1.17603571 0.957205882,0.246035714 2.13404412,0.246035714 C3.31051471,0.246035714 4.26786765,1.17603571 4.26786765,2.31889286 C4.26786765,3.46353571 3.31051471,4.39460714 2.13404412,4.39460714" mask="url(#anerkennung_deutschland-d)"/>
    </g>
    <g transform="translate(0 15.156)">
      <mask id="anerkennung_deutschland-f" fill="#fff">
        <use xlink:href="#anerkennung_deutschland-e"/>
      </mask>
      <path fill="#CD141E" d="M2.13404412,4.35553571 C0.957205882,4.35553571 -0.000147058824,3.42553571 -0.000147058824,2.28160714 C-0.000147058824,1.13946429 0.957205882,0.210178571 2.13404412,0.210178571 C3.31088235,0.210178571 4.26786765,1.13946429 4.26786765,2.28160714 C4.26786765,3.42553571 3.31088235,4.35553571 2.13404412,4.35553571" mask="url(#anerkennung_deutschland-f)"/>
    </g>
    <g transform="translate(0 10.156)">
      <mask id="anerkennung_deutschland-h" fill="#fff">
        <use xlink:href="#anerkennung_deutschland-g"/>
      </mask>
      <path fill="#000" d="M2.13404412,4.31857143 C0.957205882,4.31857143 -0.000147058824,3.38892857 -0.000147058824,2.24464286 C-0.000147058824,1.10178571 0.957205882,0.1725 2.13404412,0.1725 C3.31088235,0.1725 4.26786765,1.10178571 4.26786765,2.24464286 C4.26786765,3.38892857 3.31088235,4.31857143 2.13404412,4.31857143" mask="url(#anerkennung_deutschland-h)"/>
    </g>
    <g transform="translate(0 5.156)">
      <mask id="anerkennung_deutschland-j" fill="#fff">
        <use xlink:href="#anerkennung_deutschland-i"/>
      </mask>
      <path fill="#000" d="M2.13441176,4.28125 C0.957573529,4.28125 -0.000147058824,3.35125 -0.000147058824,2.20767857 C-0.000147058824,1.06517857 0.957573529,0.135535714 2.13441176,0.135535714 C3.31088235,0.135535714 4.26786765,1.06517857 4.26786765,2.20767857 C4.26786765,3.35125 3.31088235,4.28125 2.13441176,4.28125" mask="url(#anerkennung_deutschland-j)"/>
    </g>
    <g transform="translate(0 .156)">
      <mask id="anerkennung_deutschland-l" fill="#fff">
        <use xlink:href="#anerkennung_deutschland-k"/>
      </mask>
      <path fill="#000" d="M2.13441176,4.24392857 C0.957573529,4.24392857 -0.000147058824,3.31428571 -0.000147058824,2.17178571 C-0.000147058824,1.02857143 0.957573529,0.0985714286 2.13441176,0.0985714286 C3.31088235,0.0985714286 4.26786765,1.02857143 4.26786765,2.17178571 C4.26786765,3.31428571 3.31088235,4.24392857 2.13441176,4.24392857" mask="url(#anerkennung_deutschland-l)"/>
    </g>
  </g>
</svg>
