<svg xmlns="http://www.w3.org/2000/svg" xmlns:xlink="http://www.w3.org/1999/xlink" width="100" height="81" viewBox="0 0 100 81">
  <defs>
    <polygon id="ausbildung_plus-a" points=".091 .121 10.711 .121 10.711 12.771 .091 12.771"/>
  </defs>
  <g fill="none" fill-rule="evenodd">
    <path fill="#7F8285" d="M24.1527846,5.72722484 L25.5181086,7.04421836 L27.7927145,5.85528531 L31.1280911,9.07254233 L30.0167075,11.3841039 L31.3818564,12.7012724 L36.7097023,0.997034773 L35.6759019,1.74946004e-05 L24.1527846,5.72722484 Z M29.261366,5.09444514 L34.3182837,2.49737171 L31.859965,7.6029959 L29.261366,5.09444514 Z"/>
    <g transform="translate(0 8.358)">
      <path fill="#7F8285" d="M35.4997548 10.4997693L42.574711 5.55037192 41.6100876 4.17319698 37.2974781 7.18996587C36.209387 7.9506311 35.2656042 7.6441257 34.7270753 6.87488812 34.1874956 6.10425097 34.2354816 5.16514082 35.3382837 4.393454L39.6508932 1.37790972 38.6848687.000559827214 34.164028 3.16375853C33.368056 3.71903715 32.8111384 4.35041728 32.6498424 5.24771533 32.5290018 5.93577797 32.7002802 6.68297235 33.1918739 7.38450583 33.6748862 8.07379309 34.4030823 8.54999611 35.2656042 8.6511149L34.5535201 9.14953607 35.4997548 10.4997693M41.2477933 17.2189555C42.6696848 16.6454825 43.0330823 15.5020354 42.5723117 13.9990743L42.1891243 12.7312406C41.933958 11.8733054 42.1989317 11.4831758 42.6721366 11.29126 43.2721366 11.0498346 43.8907005 11.3514415 44.2677583 12.2832039 44.564606 13.0167525 44.6842207 13.7688454 44.4561996 14.4299663L45.8782662 14.9936423C46.2355342 14.0139447 46.0864974 12.9182579 45.6169702 11.7576661 44.9602277 10.1366164 43.5518214 9.19505702 41.9870228 9.82521253 40.5810683 10.3925624 40.2423643 11.5078432 40.7031349 13.0106294L41.0938529 14.2945581C41.333958 15.0686942 41.1036602 15.4994112 40.5663573 15.7161693 39.807338 16.0212752 39.157951 15.4121132 38.7735377 14.4654803 38.4654816 13.7013162 38.299282 12.7891477 38.7094396 11.8955235L37.2371103 11.2986078C36.675289 12.5921585 36.8871979 13.750476 37.3996322 15.0193594 38.1476182 16.8694134 39.5731874 17.8947719 41.2477933 17.2189555M45.0379159 25.761079C46.3218039 25.489038 47.7338879 25.0878868 48.4077933 24.0847464 48.7799475 23.5333166 48.9118214 22.7651287 48.7368651 21.9418328 48.5507005 21.0714765 48.1909807 20.4400963 47.3296848 19.9994073L51.5967601 19.0935369 51.2468476 17.4478199 39.3822242 19.9687918 39.7247811 21.5810942 40.6242557 21.3891784C39.9883538 22.1645391 39.8960595 22.8760445 40.0845009 23.762146 40.2594571 24.5843922 40.6969352 25.2504117 41.2601576 25.6036276 42.2852014 26.2448048 43.7552539 26.0331201 45.0379159 25.761079M44.6878284 24.1167616C43.1883538 24.4342886 41.8268827 24.5044419 41.512697 23.0212497 41.1960595 21.5380575 42.4652364 21.0322886 43.964711 20.713362 45.4641856 20.3946104 46.8109457 20.3452756 47.1275832 21.8284678 47.4429947 23.3128847 46.1874781 23.7980099 44.6878284 24.1167616M51.2874956 30.1491622L53.1246235 30.085132 53.0629772 28.3066309 51.2246235 28.3692616 51.2874956 30.1491622zM40.9508932 30.4605661L49.5832925 30.1589592 49.5242732 28.4789527 40.8916988 28.77916 40.9508932 30.4605661zM40.7536953 36.6172134L42.2321541 36.7207814 42.283993 35.9809348C42.3307531 35.3052933 42.6869702 35.0983322 43.3498424 35.1464423L52.9691068 35.8185849 53.0852189 34.1396281 43.3659545 33.4613624C42.0904729 33.3716151 40.9372329 33.9856756 40.8263748 35.5808333L40.7536953 36.6172134M39.2615762 44.7692773L51.1260245 47.2888497 51.475937 45.6445322 47.2102627 44.7384868C48.0701576 44.2967482 48.4312785 43.6664177 48.616042 42.7950117 48.7909982 41.9727654 48.6592995 41.2035279 48.2883713 40.6533227 47.6130648 39.6500073 46.2009807 39.2488562 44.9183187 38.9769901 43.6344308 38.7035495 42.1645534 38.4930894 41.1393345 39.1344415 40.5775131 39.4878324 40.1388091 40.1522773 39.9638529 40.9746985 39.7754116 41.8620246 39.8689317 42.5721305 40.5048336 43.3488907L39.605359 43.1568 39.2615762 44.7692773zM43.844063 44.0233076C42.3444133 43.7045559 41.0727846 43.2159317 41.3881961 41.7329145 41.7036077 40.2483227 43.0677058 40.3013313 44.5671804 40.6213076 46.0678809 40.9386596 47.3184939 41.4411045 47.0044834 42.9255214 46.6876708 44.407489 45.3435377 44.3422341 43.844063 44.0233076zM35.6895096 52.881716L43.5185814 56.5275907 44.2296147 55.003811 39.4586865 52.7821717C38.2548336 52.2219946 38.0490543 51.2522689 38.4459019 50.4002819 38.8438004 49.5486447 39.6816287 49.1203769 40.9015937 49.6889514L45.6737478 51.9118153 46.384606 50.3880356 41.3821541 48.0581048C40.5022942 47.6482063 39.676725 47.4820076 38.8178809 47.7909622 38.1611384 48.0297635 37.599317 48.5504028 37.2359194 49.3282127 36.8809282 50.0902775 36.8317163 50.9592343 37.1754991 51.7555886L36.3868827 51.3875022 35.6895096 52.881716M30.4811559 60.3815112L34.9477058 63.6234356C35.7326445 64.1921851 36.5100525 64.5121613 37.41338 64.3730793 38.1032224 64.2623384 38.7538354 63.8599626 39.2590893 63.1656019 39.7531349 62.4861117 39.9674956 61.6418222 39.782732 60.7949086L40.4862347 61.3045263 41.4561121 59.9702132 34.4683713 54.8992283 33.4790543 56.2604832 37.7385989 59.3500296C38.8118039 60.1315134 38.8301926 61.1224076 38.2757268 61.8818482 37.7237128 62.6425134 36.8181086 62.9021333 35.7301926 62.1120771L31.4718739 59.021481 30.4811559 60.3815112"/>
      <g transform="translate(23.117 59.832)">
        <mask id="ausbildung_plus-b" fill="#fff">
          <use xlink:href="#ausbildung_plus-a"/>
        </mask>
        <path fill="#7F8285" d="M1.08970228,6.2978987 L6.72192644,12.7710758 L7.95537653,11.7014559 L7.35152364,11.0072702 C8.33961471,11.1881644 9.00633975,10.9234711 9.67901926,10.3400261 C10.3149212,9.78877127 10.6709632,9.11785335 10.70669,8.4544581 C10.769387,7.29491598 10.0758669,6.2978987 9.11474606,5.19276479 C8.15362522,4.08850562 7.26028021,3.26258553 6.1021366,3.16426587 C5.44031524,3.10775832 4.72700525,3.3427108 4.09250438,3.8941406 C3.44434326,4.45676695 3.07831874,5.091646 3.10914186,6.05542354 L2.38217163,5.22110605 C1.62192644,4.34707581 1.35082312,3.20730259 2.4228021,2.27798942 C3.0462697,1.73653153 3.56255692,1.62684039 4.29583187,1.66515356 L4.37954466,0.127728078 C3.17078809,0.0722701944 2.35887916,0.37020324 1.40021016,1.20347106 C-0.281751313,2.66339546 -0.296462347,4.7064149 1.08970228,6.2978987 M5.26553415,8.53440842 C4.37218914,7.50782527 3.62542907,6.37435011 4.77131349,5.37855745 C5.9171979,4.38276479 6.94977233,5.26904125 7.84434326,6.29544946 C8.73891419,7.32448186 9.47201401,8.46792894 8.3261296,9.46249698 C7.18024518,10.4582896 6.16010508,9.5622162 5.26553415,8.53440842" mask="url(#ausbildung_plus-b)"/>
      </g>
      <path fill="#7F8285" d="M90.1276532,23.3560788 C90.1276532,23.3560788 93.3434151,28.4506814 93.2584764,32.0545691 C93.1808932,35.440649 90.1276532,40.1547441 90.1276532,40.1547441 L99.8640806,31.7111501 L90.1276532,23.3560788"/>
      <path fill="#B51F42" d="M67.0775306 29.3798371C67.0775306 27.5742194 65.7640455 26.0675844 63.5670228 26.0675844L59.4430298 26.0675844 59.4456567 36.6911806 61.520613 36.6911806 61.520613 32.6933145 63.5684238 32.6933145C65.7640455 32.6933145 67.0775306 31.1854549 67.0775306 29.3798371M65.0025744 29.3798371C65.0025744 30.2451201 64.4036252 30.8273404 63.4622942 30.8273404L61.520613 30.8273404 61.520613 27.9164138 63.4622942 27.9176384C64.4036252 27.9176384 65.0013485 28.5145542 65.0025744 29.3798371M71.2312609 36.6911806L71.2298599 35.050362 70.483275 35.050362C69.9904553 35.050362 69.7971103 34.8117356 69.7971103 34.3476039L69.7957093 26.0675844 67.8550788 26.0675844 67.8550788 34.4681417C67.8550788 35.5722259 68.5277583 36.6911806 70.1247811 36.6911806L71.2312609 36.6911806M79.1614186 36.6911806L79.1600175 28.917105 77.219387 28.917105 77.219387 33.6177292C77.219387 34.6773771 76.5318214 35.0356665 75.919387 35.0356665 75.3071278 35.0356665 74.6342732 34.6773771 74.6342732 33.6177292L74.6342732 28.917105 72.6924168 28.917105 72.6924168 33.8860963C72.6936427 34.7365089 72.8575657 35.4677832 73.484711 36.0954894 73.9185114 36.5262065 74.5444308 36.7811028 75.3218389 36.7811028 76.0390018 36.7811028 76.7561646 36.5125607 77.2638704 35.9760013L77.2638704 36.6911806 79.1614186 36.6911806M87.1962522 34.2454354C87.1962522 32.9333404 86.4198949 32.1110942 84.8810158 31.9622151L83.6549212 31.8429019C82.9685814 31.7837702 82.849317 31.4550467 82.849317 31.171984 82.849317 30.7843037 83.1769877 30.4249646 83.9543958 30.4249646 84.6272504 30.4249646 85.3135902 30.5455024 85.7621016 30.9478782L86.9571979 29.7379516C86.2104378 29.0376428 85.1939755 28.8284073 83.9852189 28.8284073 82.4006305 28.8284073 80.981366 29.6936903 80.981366 31.304943 80.981366 32.7375758 81.8487916 33.3505866 83.2521191 33.4847702L84.4780385 33.6040834C85.090648 33.6644397 85.298704 33.9315823 85.298704 34.3204873 85.298704 34.9027076 84.5976532 35.1268134 83.9247986 35.1268134 83.3272504 35.1268134 82.490648 35.0368911 81.8487916 34.3943145L80.5796147 35.6633728C81.5654291 36.6481438 82.669282 36.7821525 83.8952014 36.7821525 85.7325044 36.7821525 87.1962522 35.9625305 87.1962522 34.2454354M0 31.7763C0 29.6025959 1.76444834 27.8389652 3.94168126 27.8389652 6.11891419 27.8389652 7.88336252 29.6025959 7.88336252 31.7763 7.88336252 33.9500041 6.11891419 35.7139847 3.94168126 35.7139847 1.76444834 35.7139847 0 33.9500041 0 31.7763"/>
      <path fill="#FDCA08" d="M13.1225394,31.7763 C13.1225394,29.6025959 14.8869877,27.8389652 17.0642207,27.8389652 C19.2412785,27.8389652 21.0059019,29.6025959 21.0059019,31.7763 C21.0059019,33.9500041 19.2412785,35.7139847 17.0642207,35.7139847 C14.8869877,35.7139847 13.1225394,33.9500041 13.1225394,31.7763"/>
      <path fill="#4394D0" d="M26.2449912,31.7763 C26.2449912,29.6025959 28.0094396,27.8389652 30.1866725,27.8389652 C32.3639054,27.8389652 34.1283538,29.6025959 34.1283538,31.7763 C34.1283538,33.9500041 32.3639054,35.7139847 30.1866725,35.7139847 C28.0094396,35.7139847 26.2449912,33.9500041 26.2449912,31.7763"/>
    </g>
  </g>
</svg>
