<svg xmlns="http://www.w3.org/2000/svg" xmlns:xlink="http://www.w3.org/1999/xlink" width="180" height="32" viewBox="0 0 180 32">
  <defs>
    <polygon id="bibb_kongress-a" points="0 .154 179.703 .154 179.703 30.952 0 30.952"/>
  </defs>
  <g fill="none" fill-rule="evenodd">
    <polygon fill="#0069B3" points="47.397 25.156 47.397 31.225 48.287 31.225 48.287 28.631 50.733 28.631 50.733 27.815 48.287 27.815 48.287 26.021 51.152 26.021 51.152 25.156"/>
    <g transform="translate(0 .322)">
      <mask id="bibb_kongress-b" fill="#fff">
        <use xlink:href="#bibb_kongress-a"/>
      </mask>
      <path fill="#0069B3" d="M53.7157143 25.9066667L54.6057143 25.9066667 54.6057143 24.9919048 53.7157143 24.9919048 53.7157143 25.9066667zM52.2119048 25.9066667L53.1028571 25.9066667 53.1028571 24.9919048 52.2119048 24.9919048 52.2119048 25.9066667zM51.7504762 26.5814286L52.5909524 26.5814286 52.5909524 29.1571429C52.5909524 29.4495238 52.6704762 29.6771429 52.8290476 29.8409524 52.9847619 30.0052381 53.1838095 30.0871429 53.4257143 30.0871429 53.6680952 30.0871429 53.8657143 30.0052381 54.0185714 29.8409524 54.1747619 29.6771429 54.252381 29.4495238 54.252381 29.1571429L54.252381 26.5814286 55.0928571 26.5814286 55.0928571 30.9028571 54.252381 30.9028571 54.252381 30.4404762 54.2366667 30.4404762C53.96 30.7819048 53.5985714 30.952381 53.152381 30.952381 52.8061905 30.9466667 52.4933333 30.8171429 52.2142857 30.562381 51.9104762 30.3128571 51.7561905 29.9442857 51.7504762 29.4566667L51.7504762 26.5814286zM56.2520476 26.5815714L57.0925238 26.5815714 57.0925238 27.0396667 57.1101429 27.0396667C57.3868095 26.6982381 57.7501429 26.5277619 58.1991905 26.5277619 58.535381 26.533 58.8282381 26.6439524 59.0787143 26.8591905L58.4644286 27.6101429C58.2868095 27.465381 58.103 27.393 57.9115714 27.393 57.6963333 27.393 57.5120476 27.4649048 57.3587143 27.6096667 57.1868095 27.7515714 57.0977619 27.980619 57.0925238 28.2977619L57.0925238 30.9025238 56.2520476 30.9025238 56.2520476 26.5815714zM63.2888571 27.3930476C63.0898095 27.3930476 62.938381 27.4278095 62.8331429 27.4973333 62.7179048 27.5725714 62.6326667 27.6759048 62.5793333 27.806381 62.5279048 27.9378095 62.4945714 28.0792381 62.478381 28.2325714 62.4621905 28.3968571 62.4540952 28.5654286 62.4540952 28.7378095 62.4540952 28.9020952 62.4621905 29.0625714 62.478381 29.2182857 62.4945714 29.3825714 62.5279048 29.5301905 62.5793333 29.6611429 62.6326667 29.786381 62.7179048 29.8892381 62.8331429 29.9701905 62.938381 30.0482857 63.0898095 30.0868571 63.2888571 30.0868571 63.4879048 30.0868571 63.6450476 30.0454286 63.7607619 29.9620952 63.8764762 29.8811429 63.9555238 29.7754286 63.9988571 29.6444762 64.0526667 29.5135238 64.0888571 29.3673333 64.1079048 29.2059048 64.1131429 29.0473333 64.1155238 28.8911429 64.1155238 28.7378095 64.1155238 28.5711429 64.1131429 28.4111429 64.1079048 28.2573333 64.0888571 28.1044762 64.0526667 27.9625714 63.9988571 27.831619 63.9555238 27.7006667 63.8764762 27.5949524 63.7607619 27.514 63.6450476 27.4335238 63.4879048 27.3930476 63.2888571 27.3930476zM64.1155238 30.451619C63.8388571 30.7749524 63.4779048 30.941619 63.0321905 30.9525714 62.7798095 30.9468571 62.563619 30.8930476 62.383619 30.7901905 62.1955238 30.6901905 62.038381 30.5568571 61.9121905 30.3901905 61.7964762 30.254 61.7202857 30.0692381 61.6826667 29.836381 61.6369524 29.614 61.613619 29.2473333 61.613619 28.736381 61.613619 28.2168571 61.6369524 27.8473333 61.6826667 27.6278095 61.7202857 27.4059048 61.7964762 27.226381 61.9121905 27.0906667 62.148381 26.7287619 62.5221905 26.541619 63.0321905 26.5278095 63.2469524 26.5278095 63.4455238 26.5730476 63.628381 26.6644762 63.7974286 26.7611429 63.9598095 26.8854286 64.1155238 27.0368571L64.1155238 24.8335238 64.956 24.8335238 64.956 30.9025714 64.1155238 30.9025714 64.1155238 30.451619zM66.0561905 30.902381L66.8966667 30.902381 66.8966667 26.5814286 66.0561905 26.5814286 66.0561905 30.902381zM66.0561905 25.6985714L66.8966667 25.6985714 66.8966667 24.8333333 66.0561905 24.8333333 66.0561905 25.6985714zM70.4587143 28.3551905C70.4477619 28.0180476 70.3601429 27.7628095 70.1958571 27.5899524 70.0339524 27.4251905 69.8268095 27.3432857 69.5739524 27.3432857 69.3201429 27.3432857 69.113 27.4251905 68.9510952 27.5899524 68.7920476 27.7628095 68.7044286 28.0180476 68.6882381 28.3551905L70.4587143 28.3551905zM68.6882381 29.0704286C68.6882381 29.4175714 68.785381 29.681381 68.9791905 29.8623333 69.1591905 30.0456667 69.3963333 30.1370952 69.6891905 30.1370952 70.0310952 30.1370952 70.3358571 29.996619 70.605381 29.7161429L71.2144286 30.2532857C70.7868095 30.7251905 70.2844286 30.9580476 69.7068095 30.9523333 69.4863333 30.9523333 69.2715714 30.9194762 69.0615714 30.8528095 68.9568095 30.816619 68.8549048 30.7680476 68.755381 30.706619 68.650619 30.6542381 68.5525238 30.589 68.4610952 30.511381 68.2839524 30.3504286 68.1401429 30.1256667 68.0296667 29.836619 67.9091905 29.5594762 67.8487143 29.1985238 67.8487143 28.7547143 67.8487143 28.3270952 67.9010952 27.9718571 68.0058571 27.689 68.1101429 27.4004286 68.2449048 27.1728095 68.4087143 27.0061429 68.575381 26.8370952 68.7620476 26.7151905 68.9687143 26.6399524 69.173 26.5647143 69.3749048 26.5275714 69.5739524 26.5275714 70.0520476 26.5332857 70.4563333 26.6956667 70.7863333 27.0151905 71.123 27.3394762 71.293 27.786619 71.2987143 28.3551905L71.2987143 29.0704286 68.6882381 29.0704286z" mask="url(#bibb_kongress-b)"/>
      <polygon fill="#0069B3" points="74.08 30.141 76.745 25.649 74.102 25.649 74.102 24.833 77.834 24.833 77.834 25.525 75.074 30.037 77.834 30.037 77.834 30.903 74.08 30.903" mask="url(#bibb_kongress-b)"/>
      <path fill="#0069B3" d="M78.724619,26.5815714 L79.5650952,26.5815714 L79.5650952,29.1572857 C79.5650952,29.4491905 79.644619,29.6772857 79.8031905,29.8410952 C79.9589048,30.0049048 80.1579524,30.0868095 80.3998571,30.0868095 C80.6417619,30.0868095 80.839381,30.0049048 80.9927143,29.8410952 C81.1489048,29.6772857 81.2265238,29.4491905 81.2265238,29.1572857 L81.2265238,26.5815714 L82.067,26.5815714 L82.067,30.9025238 L81.2265238,30.9025238 L81.2265238,30.440619 L81.2108095,30.440619 C80.9341429,30.7815714 80.5727143,30.9525238 80.1265238,30.9525238 C79.7803333,30.9468095 79.4674762,30.8172857 79.1884286,30.5620476 C78.884619,30.313 78.7303333,29.9444286 78.724619,29.4568095 L78.724619,26.5815714 Z" mask="url(#bibb_kongress-b)"/>
      <polygon fill="#0069B3" points="83.226 24.834 84.067 24.834 84.067 28.609 84.084 28.609 85.694 26.582 86.702 26.582 85.258 28.268 86.899 30.903 85.842 30.903 84.728 28.884 84.067 29.658 84.067 30.903 83.226 30.903" mask="url(#bibb_kongress-b)"/>
      <path fill="#0069B3" d="M87.5615714 26.5815714L88.4020476 26.5815714 88.4020476 29.1572857C88.4020476 29.4491905 88.4815714 29.6772857 88.6401429 29.8410952 88.7958571 30.0049048 88.9949048 30.0868095 89.2368095 30.0868095 89.4787143 30.0868095 89.6763333 30.0049048 89.8296667 29.8410952 89.9858571 29.6772857 90.0634762 29.4491905 90.0634762 29.1572857L90.0634762 26.5815714 90.9039524 26.5815714 90.9039524 30.9025238 90.0634762 30.9025238 90.0634762 30.440619 90.0477619 30.440619C89.7710952 30.7815714 89.4096667 30.9525238 88.9634762 30.9525238 88.6172857 30.9468095 88.3044286 30.8172857 88.025381 30.5620476 87.7215714 30.313 87.5672857 29.9444286 87.5615714 29.4568095L87.5615714 26.5815714zM92.0630476 26.5815714L92.9035238 26.5815714 92.9035238 27.0396667 92.9197143 27.0396667C93.196381 26.6982381 93.5587619 26.5277619 94.0073333 26.5277619 94.354 26.5277619 94.6706667 26.6539524 94.9578095 26.9063333 95.2425714 27.1620476 95.391619 27.5363333 95.4054286 28.0301429L95.4054286 30.9025238 94.5649524 30.9025238 94.5649524 28.3268095C94.5649524 28.0239524 94.4873333 27.7934762 94.3311429 27.6349048 94.1778095 27.4734762 93.9801905 27.393 93.7382857 27.393 93.496381 27.393 93.2973333 27.4734762 93.141619 27.6349048 92.9830476 27.7934762 92.9035238 28.0239524 92.9035238 28.3268095L92.9035238 30.9025238 92.0630476 30.9025238 92.0630476 26.5815714zM96.6398571 27.2475238L96.2150952 27.2475238 96.2150952 26.5818095 96.6398571 26.5818095 96.6398571 26.0113333C96.6398571 25.6008571 96.7498571 25.298 96.9698571 25.1037143 97.1855714 24.9237143 97.4550952 24.8337143 97.7803333 24.8337143L98.3241429 24.8337143 98.3241429 25.6489524 97.8431905 25.6489524C97.5898571 25.640381 97.4689048 25.760381 97.4798571 26.0084762L97.4798571 26.5818095 98.3241429 26.5818095 98.3241429 27.2475238 97.4798571 27.2475238 97.4798571 30.9027619 96.6398571 30.9027619 96.6398571 27.2475238zM99.2277619 25.2664762L100.067762 25.2664762 100.067762 26.5817143 100.681095 26.5817143 100.681095 27.2474286 100.067762 27.2474286 100.067762 29.7664762C100.062048 29.986 100.161571 30.0926667 100.366333 30.0869524L100.681095 30.0869524 100.681095 30.9026667 100.242048 30.9026667C99.9468095 30.9026667 99.705381 30.808381 99.5172857 30.6198095 99.3244286 30.4393333 99.2277619 30.1788571 99.2277619 29.838381L99.2277619 27.2474286 98.8058571 27.2474286 98.8058571 26.5817143 99.2277619 26.5817143 99.2277619 25.2664762zM103.59019 24.8335238L104.430667 24.8335238 104.430667 29.7911429C104.430667 29.9882857 104.535429 30.0868571 104.745905 30.0868571L105.036857 30.0868571 105.036857 30.9025714 104.662095 30.9025714C104.355905 30.9025714 104.103524 30.824 103.904476 30.666381 103.695429 30.5059048 103.59019 30.236381 103.59019 29.8578095L103.59019 24.8335238zM108.187952 28.3551905C108.177 28.0180476 108.089381 27.7628095 107.925095 27.5899524 107.76319 27.4251905 107.556048 27.3432857 107.30319 27.3432857 107.049381 27.3432857 106.842238 27.4251905 106.680333 27.5899524 106.521286 27.7628095 106.433667 28.0180476 106.417476 28.3551905L108.187952 28.3551905zM106.417476 29.0704286C106.417476 29.4175714 106.514619 29.681381 106.708429 29.8623333 106.888429 30.0456667 107.125571 30.1370952 107.418429 30.1370952 107.760333 30.1370952 108.065095 29.996619 108.334619 29.7161429L108.943667 30.2532857C108.516048 30.7251905 108.013667 30.9580476 107.436048 30.9523333 107.215571 30.9523333 107.00081 30.9194762 106.79081 30.8528095 106.686048 30.816619 106.584143 30.7680476 106.484619 30.706619 106.379857 30.6542381 106.281762 30.589 106.190333 30.511381 106.01319 30.3504286 105.869381 30.1256667 105.758905 29.836619 105.638429 29.5594762 105.577952 29.1985238 105.577952 28.7547143 105.577952 28.3270952 105.630333 27.9718571 105.735095 27.689 105.839381 27.4004286 105.974143 27.1728095 106.137952 27.0061429 106.304619 26.8370952 106.491286 26.7151905 106.697952 26.6399524 106.902238 26.5647143 107.104143 26.5275714 107.30319 26.5275714 107.781286 26.5332857 108.185571 26.6956667 108.515571 27.0151905 108.852238 27.3394762 109.022238 27.786619 109.027952 28.3551905L109.027952 29.0704286 106.417476 29.0704286zM109.994619 26.5815714L110.835095 26.5815714 110.835095 27.0396667 110.852714 27.0396667C111.129381 26.6982381 111.492714 26.5277619 111.941762 26.5277619 112.277952 26.533 112.57081 26.6439524 112.821286 26.8591905L112.207 27.6101429C112.029381 27.465381 111.845571 27.393 111.654143 27.393 111.438905 27.393 111.254619 27.4649048 111.101286 27.6096667 110.929381 27.7515714 110.840333 27.980619 110.835095 28.2977619L110.835095 30.9025238 109.994619 30.9025238 109.994619 26.5815714zM113.454429 26.5815714L114.294905 26.5815714 114.294905 27.0396667 114.311095 27.0396667C114.587762 26.6982381 114.950143 26.5277619 115.398714 26.5277619 115.745381 26.5277619 116.062048 26.6539524 116.34919 26.9063333 116.633952 27.1620476 116.783 27.5363333 116.79681 28.0301429L116.79681 30.9025238 115.956333 30.9025238 115.956333 28.3268095C115.956333 28.0239524 115.878714 27.7934762 115.722524 27.6349048 115.56919 27.4734762 115.371571 27.393 115.129667 27.393 114.887762 27.393 114.688714 27.4734762 114.533 27.6349048 114.374429 27.7934762 114.294905 28.0239524 114.294905 28.3268095L114.294905 30.9025238 113.454429 30.9025238 113.454429 26.5815714zM120.356857 28.3551905C120.345905 28.0180476 120.258286 27.7628095 120.094 27.5899524 119.932095 27.4251905 119.724952 27.3432857 119.472095 27.3432857 119.218286 27.3432857 119.011143 27.4251905 118.849238 27.5899524 118.69019 27.7628095 118.602571 28.0180476 118.586381 28.3551905L120.356857 28.3551905zM118.586381 29.0704286C118.586381 29.4175714 118.683524 29.681381 118.877333 29.8623333 119.057333 30.0456667 119.294476 30.1370952 119.587333 30.1370952 119.929238 30.1370952 120.234 29.996619 120.503524 29.7161429L121.112571 30.2532857C120.684952 30.7251905 120.182571 30.9580476 119.604952 30.9523333 119.384476 30.9523333 119.169714 30.9194762 118.959714 30.8528095 118.854952 30.816619 118.753048 30.7680476 118.653524 30.706619 118.548762 30.6542381 118.450667 30.589 118.359238 30.511381 118.182095 30.3504286 118.038286 30.1256667 117.92781 29.836619 117.807333 29.5594762 117.746857 29.1985238 117.746857 28.7547143 117.746857 28.3270952 117.799238 27.9718571 117.904 27.689 118.008286 27.4004286 118.143048 27.1728095 118.306857 27.0061429 118.473524 26.8370952 118.66019 26.7151905 118.866857 26.6399524 119.071143 26.5647143 119.273048 26.5275714 119.472095 26.5275714 119.95019 26.5332857 120.354476 26.6956667 120.684476 27.0151905 121.021143 27.3394762 121.191143 27.786619 121.196857 28.3551905L121.196857 29.0704286 118.586381 29.0704286zM122.163476 26.5815714L123.003952 26.5815714 123.003952 27.0396667 123.020143 27.0396667C123.29681 26.6982381 123.65919 26.5277619 124.107762 26.5277619 124.454429 26.5277619 124.771095 26.6539524 125.058238 26.9063333 125.343 27.1620476 125.492048 27.5363333 125.505857 28.0301429L125.505857 30.9025238 124.665381 30.9025238 124.665381 28.3268095C124.665381 28.0239524 124.587762 27.7934762 124.431571 27.6349048 124.278238 27.4734762 124.080619 27.393 123.838714 27.393 123.59681 27.393 123.397762 27.4734762 123.242048 27.6349048 123.083476 27.7934762 123.003952 28.0239524 123.003952 28.3268095L123.003952 30.9025238 122.163476 30.9025238 122.163476 26.5815714z" mask="url(#bibb_kongress-b)"/>
      <polygon fill="#0069B3" points="89.734 11.283 92.917 7.239 90.838 7.239 87.088 12.083 87.088 7.239 85.359 7.239 85.359 17.385 87.088 17.385 87.088 14.295 88.594 12.662 91.143 17.385 93.189 17.385" mask="url(#bibb_kongress-b)"/>
      <path fill="#0069B3" d="M96.403619,9.12271429 C96.6269524,9.00319048 96.9017143,8.93795238 97.2121905,8.92938095 C97.5350476,8.93795238 97.8169524,9.00366667 98.0450476,9.12128571 C98.2669524,9.24604762 98.4455238,9.40319048 98.586,9.59985714 C98.7569524,9.79319048 98.876,10.047 98.9398095,10.3522381 C99.003619,10.6927143 99.036,11.3522381 99.036,12.3117619 C99.036,13.2712857 99.003619,13.9260476 98.9402857,14.2560476 C98.876,14.5727143 98.7564762,14.8312857 98.5764762,15.0355714 C98.4464762,15.2198571 98.2688571,15.3717619 98.0426667,15.4903333 C97.8126667,15.6255714 97.5345714,15.694619 97.216,15.694619 C96.9021905,15.694619 96.6312381,15.6260476 96.4007619,15.4860476 C96.1717143,15.3698571 95.9850476,15.217 95.8388571,15.0236667 C95.6693333,14.8327143 95.5550476,14.5755714 95.4979048,14.2555714 C95.4302857,13.9236667 95.396,13.269381 95.396,12.3117619 C95.396,11.354619 95.4302857,10.6955714 95.498381,10.3517619 C95.5545714,10.044619 95.6693333,9.7917619 95.8464762,9.59128571 C95.986,9.40557143 96.1740952,9.24795238 96.403619,9.12271429 M100.679333,9.99033333 C100.615524,9.58461905 100.496,9.24890476 100.332667,9.01033333 C100.100762,8.53557143 99.7198095,8.10795238 99.2007619,7.73938095 C98.6721905,7.36319048 98.006,7.16747619 97.2174286,7.15842857 C96.4402857,7.16747619 95.7807619,7.3622381 95.2593333,7.73604762 C94.7312381,8.10271429 94.3412381,8.52795238 94.1055238,8.9922381 C93.9531429,9.24557143 93.838381,9.57890476 93.766,9.98414286 C93.698381,10.3831905 93.666,11.1450952 93.666,12.3117619 C93.666,13.4584286 93.698381,14.2136667 93.766,14.6208095 C93.8017143,14.8398571 93.848381,15.0265238 93.906,15.1808095 C93.9631429,15.3179524 94.0274286,15.4617619 94.1002857,15.6160476 C94.3412381,16.0908095 94.7312381,16.5136667 95.2574286,16.8708095 C95.7798095,17.247 96.4388571,17.447 97.2226667,17.4660476 C98.0074286,17.4474762 98.6731429,17.247 99.1988571,16.8727143 C99.7193333,16.5122381 100.100762,16.0889048 100.32219,15.6312857 C100.495048,15.3765238 100.615048,15.0360476 100.679333,14.6179524 C100.737429,14.2131905 100.766,13.4374762 100.766,12.3117619 C100.766,11.1684286 100.737429,10.3879524 100.679333,9.99033333" mask="url(#bibb_kongress-b)"/>
      <polygon fill="#0069B3" points="108.304 7.239 108.304 13.934 104.215 7.307 104.173 7.239 102.589 7.239 102.589 17.385 104.319 17.385 104.319 10.691 108.401 17.317 108.443 17.385 110.034 17.385 110.034 7.239" mask="url(#bibb_kongress-b)"/>
      <path fill="#0069B3" d="M115.290381 11.6771429L115.290381 13.3661905 117.239429 13.3661905 117.239429 13.7380952C117.230857 14.3171429 117.054667 14.7890476 116.712286 15.1428571 116.369905 15.5142857 115.947048 15.6947619 115.419429 15.6947619 115.105143 15.6947619 114.83419 15.6261905 114.60419 15.4861905 114.374667 15.37 114.188476 15.2171429 114.042286 15.0238095 113.872286 14.832381 113.758 14.5752381 113.700857 14.2557143 113.633714 13.9233333 113.598952 13.2695238 113.598952 12.3119048 113.598952 11.3542857 113.633714 10.6952381 113.701333 10.3514286 113.757048 10.0447619 113.87181 9.79190476 114.049429 9.59142857 114.188952 9.4052381 114.376571 9.24761905 114.606095 9.12285714 114.828952 9.00285714 115.103238 8.93809524 115.415143 8.92904762 115.843238 8.93809524 116.211333 9.06666667 116.502762 9.30714286 116.79181 9.56952381 116.994667 9.89047619 117.104667 10.2619048L117.134667 10.3633333 118.945619 10.3633333 118.91419 10.1957143C118.756571 9.3447619 118.372762 8.62095238 117.773238 8.04333333 117.168 7.4652381 116.377524 7.16761905 115.420381 7.15857143 114.643714 7.16761905 113.98419 7.36285714 113.462286 7.73857143 112.933714 8.10666667 112.543714 8.53380952 112.308476 8.99904762 112.156095 9.25238095 112.04181 9.58428571 111.968952 9.98857143 111.90181 10.3871429 111.868952 11.1471429 111.868952 12.3119048 111.868952 13.4585714 111.90181 14.2138095 111.968952 14.6209524 112.005143 14.84 112.051333 15.0266667 112.108952 15.1804762 112.166095 15.3180952 112.230381 15.4614286 112.303714 15.6157143 112.54419 16.0909524 112.934667 16.5138095 113.460381 16.8709524 113.983238 17.2471429 114.642286 17.4471429 115.425143 17.4661905 116.432762 17.4471429 117.28181 17.0895238 117.948 16.4019048 118.607524 15.7119048 118.950857 14.8457143 118.969429 13.8252381L118.969429 11.6771429 115.290381 11.6771429zM122.48481 8.84838095L124.615286 8.84838095C125.042905 8.84838095 125.371 8.93980952 125.594333 9.12552381 125.870048 9.33028571 126.008619 9.65980952 126.01719 10.1302857 126.01719 10.5269524 125.898143 10.8507619 125.650048 11.1231429 125.407667 11.406 125.032429 11.553619 124.536714 11.5621905L122.48481 11.5621905 122.48481 8.84838095zM125.874333 12.938381C127.045762 12.4202857 127.648143 11.4779048 127.665762 10.1302857 127.638619 9.1812381 127.302429 8.43790476 126.669571 7.92314286 126.142429 7.46933333 125.455286 7.23933333 124.628619 7.23933333L120.75481 7.23933333 120.75481 17.3845714 122.48481 17.3845714 122.48481 13.1702857 124.104333 13.1702857 126.081952 17.3845714 128.121 17.3845714 125.874333 12.938381z" mask="url(#bibb_kongress-b)"/>
      <polygon fill="#0069B3" points="135.865 8.929 135.865 7.239 129.479 7.239 129.479 17.385 135.865 17.385 135.865 15.695 131.209 15.695 131.209 13.075 135.183 13.075 135.183 11.467 131.209 11.467 131.209 8.929" mask="url(#bibb_kongress-b)"/>
      <path fill="#0069B3" d="M143.600429 12.5239524C143.151381 11.9601429 142.45281 11.6077619 141.522333 11.4763333 141.070429 11.4182381 140.713762 11.3663333 140.455667 11.3220476 140.017571 11.2382381 139.697571 11.0887143 139.504238 10.8772857 139.313762 10.6725238 139.221381 10.4515714 139.221381 10.2049048 139.229 9.77252381 139.367571 9.45871429 139.644714 9.24490476 139.915667 9.03538095 140.260905 8.92919048 140.669476 8.92919048 141.498524 8.94680952 142.269 9.19395238 142.958524 9.66395238L143.078048 9.74538095 144.037095 8.28490476 143.929476 8.20490476C143.032333 7.5377619 141.963286 7.18585714 140.747571 7.1582381 139.728048 7.16728571 138.927095 7.44966667 138.367095 7.99633333 137.785667 8.54966667 137.491381 9.28538095 137.491381 10.1839524 137.491381 10.9334762 137.726143 11.5801429 138.189 12.1058571 138.636143 12.615381 139.294714 12.9477619 140.148524 13.093 140.607571 13.1610952 141.029476 13.2220476 141.409 13.275381 142.176619 13.4110952 142.54519 13.7991905 142.537095 14.4591905 142.520905 15.2739524 141.949476 15.6782381 140.792333 15.6944286 139.781857 15.6858571 138.899476 15.3668095 138.168524 14.7458571L138.059476 14.6534762 136.929 15.9920476 137.033286 16.0844286C138.071857 17.0010952 139.329952 17.4658571 140.77519 17.4658571 143.041857 17.4377619 144.217095 16.425381 144.266619 14.4534762 144.266619 13.7244286 144.04281 13.0749048 143.600429 12.5239524M151.961667 12.5239524C151.512619 11.9601429 150.814048 11.6077619 149.883571 11.4763333 149.431667 11.4182381 149.075 11.3663333 148.816905 11.3220476 148.37881 11.2382381 148.05881 11.0887143 147.865476 10.8772857 147.675 10.6725238 147.582619 10.4515714 147.582619 10.2049048 147.590238 9.77252381 147.72881 9.45871429 148.005952 9.24490476 148.276905 9.03538095 148.622143 8.92919048 149.030714 8.92919048 149.859762 8.94680952 150.630238 9.19395238 151.319762 9.66395238L151.439286 9.74538095 152.398333 8.28490476 152.290714 8.20490476C151.393571 7.5377619 150.324524 7.18585714 149.10881 7.1582381 148.089286 7.16728571 147.288333 7.44966667 146.728333 7.99633333 146.146905 8.54966667 145.852619 9.28538095 145.852619 10.1839524 145.852619 10.9334762 146.087381 11.5801429 146.550238 12.1058571 146.997381 12.615381 147.655952 12.9477619 148.509762 13.093 148.96881 13.1610952 149.390714 13.2220476 149.770238 13.275381 150.537857 13.4110952 150.906429 13.7991905 150.898333 14.4591905 150.882143 15.2739524 150.310714 15.6782381 149.153571 15.6944286 148.143095 15.6858571 147.260714 15.3668095 146.529762 14.7458571L146.420714 14.6534762 145.290238 15.9920476 145.394524 16.0844286C146.433095 17.0010952 147.69119 17.4658571 149.136429 17.4658571 151.403095 17.4377619 152.578333 16.425381 152.627857 14.4534762 152.627857 13.7244286 152.404048 13.0749048 151.961667 12.5239524" mask="url(#bibb_kongress-b)"/>
      <path fill="#003369" d="M159.563524 10.121381C159.554 9.27471429 159.273524 8.56519048 158.73019 8.0142381 158.193524 7.45566667 157.486381 7.16757143 156.625429 7.15852381 155.855429 7.16757143 155.197333 7.45042857 154.66781 7.99995238 154.14781 8.559 153.865905 9.2737619 153.829714 10.1232857L153.823524 10.271381 155.464 10.271381 155.477333 10.1442381C155.521619 9.72947619 155.662095 9.40519048 155.896381 9.17947619 156.120667 8.95661905 156.394952 8.84852381 156.733048 8.84852381 157.118286 8.85661905 157.406381 8.97947619 157.611143 9.22280952 157.815429 9.47471429 157.914476 9.76280952 157.914476 10.1023333 157.914476 10.2328095 157.89781 10.3732857 157.868286 10.5075714 157.821143 10.6580476 157.728762 10.826619 157.596381 11.0051905L153.829714 15.8685238 153.829714 17.3847143 159.563524 17.3847143 159.563524 15.6947143 156.058762 15.6947143 158.95781 11.9423333C159.359714 11.4132857 159.563524 10.801381 159.563524 10.121381M162.579238 10.2204286C162.595429 9.30090476 162.978286 8.86519048 163.778286 8.84852381 164.578762 8.86519048 164.964 9.30090476 164.989238 10.2199524L164.989238 14.4028095C164.964476 15.3309048 164.579714 15.7670952 163.782095 15.7761429 162.97781 15.7670952 162.595429 15.331381 162.579238 14.406619L162.579238 10.2204286zM163.780667 7.15852381C163.025905 7.15852381 162.366857 7.41661905 161.824476 7.92328571 161.24019 8.43947619 160.94019 9.18138095 160.930667 10.1280476L160.930667 14.4885238C160.94019 15.431381 161.24019 16.171381 161.821619 16.6847143 162.365905 17.1937619 163.024476 17.4561429 163.782571 17.4661429 164.559238 17.4561429 165.228762 17.1932857 165.772571 16.6837619 166.328286 16.1675714 166.619238 15.4285238 166.637333 14.4832857L166.637333 10.131381C166.619238 9.18471429 166.328286 8.44328571 165.773048 7.92757143 165.22781 7.41709524 164.55781 7.15852381 163.780667 7.15852381z" mask="url(#bibb_kongress-b)"/>
      <polygon fill="#003369" points="168.332 8.325 168.332 10.186 169.691 9.158 169.691 17.385 171.339 17.385 171.339 7.239 169.786 7.239" mask="url(#bibb_kongress-b)"/>
      <path fill="#003369" d="M175.657238,13.3277619 C175.927238,13.0663333 176.248667,12.935381 176.632476,12.9268095 C177.036286,12.935381 177.363429,13.0663333 177.633905,13.3277619 C177.90819,13.5925238 178.045333,13.9282381 178.053429,14.3482381 C178.045333,14.765381 177.90819,15.0968095 177.631524,15.3644286 C177.361048,15.6410952 177.03581,15.7758571 176.63581,15.7758571 C176.248667,15.7758571 175.929619,15.6410952 175.65581,15.3601429 C175.373905,15.0958571 175.232952,14.7663333 175.224857,14.3510952 C175.232952,13.9272857 175.373905,13.593 175.657238,13.3277619 M177.501524,11.0634762 C177.254381,11.2896667 176.971048,11.4001429 176.63581,11.4001429 C176.313429,11.4001429 176.036762,11.2896667 175.786286,11.060619 C175.540095,10.8463333 175.41581,10.5387143 175.407238,10.120619 C175.41581,9.68871429 175.540095,9.37442857 175.78581,9.16109524 C176.032952,8.95061905 176.311048,8.8482381 176.63581,8.8482381 C176.973429,8.8482381 177.257714,8.95061905 177.502476,9.15871429 C177.742,9.37347619 177.862476,9.68919048 177.870571,10.1177619 C177.862476,10.5382381 177.742,10.8472857 177.501524,11.0634762 M178.620095,12.1301429 C178.866286,11.8910952 179.073905,11.6215714 179.237714,11.3263333 C179.424381,10.995381 179.519143,10.5987143 179.519143,10.1458571 C179.510095,9.29204762 179.234381,8.57490476 178.700095,8.01395238 C178.167238,7.45538095 177.472952,7.16728571 176.634381,7.1582381 C175.810095,7.16728571 175.127238,7.45585714 174.606286,8.01252381 C174.052952,8.57442857 173.767714,9.29252381 173.758667,10.1491905 C173.758667,10.603 173.863429,11.0015714 174.063905,11.3220476 C174.213429,11.6201429 174.412476,11.8920476 174.657714,12.1320476 C173.947714,12.6782381 173.583905,13.4277619 173.574857,14.363 L173.574857,14.3658571 C173.583905,15.2896667 173.892952,16.0401429 174.491048,16.5934762 C175.062952,17.163 175.783905,17.4563333 176.637238,17.4658571 C177.491048,17.4563333 178.222476,17.163 178.811524,16.5944286 C179.394381,16.0377619 179.694381,15.2868095 179.703429,14.3596667 C179.694381,13.4249048 179.330095,12.675381 178.620095,12.1301429" mask="url(#bibb_kongress-b)"/>
      <path fill="#94C01F" d="M18.7164762,8.19871429 C18.7164762,8.19871429 15.7021905,9.25442857 13.4312381,10.9944286 C10.8912381,12.940619 10.5174286,16.5249048 14.5740952,19.3144286 C20.4288571,23.3401429 27.2198095,23.7849048 35.1398095,23.7887143 C41.3774286,23.7772857 52.3221905,22.0772857 57.0479048,20.6468095 C46.6612381,21.723 38.1350476,21.183 33.5250476,20.483 C28.9131429,19.785381 24.5645714,18.9925238 19.8255238,16.000619 C14.7940952,12.9339524 18.7164762,8.19871429 18.7164762,8.19871429" mask="url(#bibb_kongress-b)"/>
      <path fill="#F49C00" d="M20.3115238,7.51047619 C20.3115238,7.51047619 41.9086667,9.20190476 30.3448571,15.7647619 C35.1853333,16.297619 40.2491429,12.7347619 38.8391429,10.7895238 C36.0053333,6.88380952 25.6781905,6.12666667 20.3115238,7.51047619" mask="url(#bibb_kongress-b)"/>
      <path fill="#003369" d="M7.53157143,5.17 C14.7582381,1.32952381 20.3039524,0.727142857 26.3110952,0.294761905 C37.980619,-0.544761905 50.8425238,2.64619048 50.8425238,2.64619048 C50.8425238,2.64619048 36.4101429,0.775238095 27.0901429,1.9652381 C17.8515714,3.1447619 13.8739524,5.2452381 10.2001429,7.88095238 C6.343,10.7290476 4.20919048,16.2671429 9.02585714,20.7114286 C19.3968095,29.5209524 34.1277619,27.2471429 34.1277619,27.2471429 C34.1277619,27.2471429 30.2658571,29.1871429 21.3515714,28.7780952 C14.2796667,28.4542857 5.553,26.2495238 1.67633333,20.8395238 C-2.20842857,15.2809524 1.03585714,8.69571429 7.53157143,5.17" mask="url(#bibb_kongress-b)"/>
      <polygon fill="#003369" points="59.704 8.977 59.704 7.243 56.707 7.243" mask="url(#bibb_kongress-b)"/>
      <polygon fill="#003369" points="59.704 17.317 59.704 9.312 56.913 11.036 56.913 17.317" mask="url(#bibb_kongress-b)"/>
      <polygon fill="#94C01F" points="80.812 12.87 80.812 16.658 83.987 14.764" mask="url(#bibb_kongress-b)"/>
      <path fill="#003369" d="M64.2033333 9.19642857L65.7238095 9.19642857C66.3795238 9.19642857 66.8680952 9.60119048 66.8680952 10.1730952 66.8680952 10.9407143 66.3795238 11.2407143 65.6261905 11.2407143L64.2033333 11.247381 64.2033333 9.19642857zM64.2033333 15.3569048L64.2033333 13.1797619 66.0309524 13.1797619C66.6585714 13.2216667 67.05 13.7516667 67.05 14.3102381 67.05 14.9378571 66.5333333 15.3569048 65.8357143 15.3569048L64.2033333 15.3569048zM66.1428571 17.317381C66.2485714 17.3016667 69.9804762 17.5130952 69.9804762 14.582619 69.9804762 13.145 68.8914286 12.2945238 67.5514286 12.112619L67.5514286 12.0845238C68.6819048 11.875 69.7290476 11.1216667 69.7290476 9.8802381 69.7290476 8.10785714 68.1380952 7.25642857 66.24 7.24261905L61.412381 7.24261905 61.412381 17.317381 66.1428571 17.317381zM73.8448095 9.19642857L75.3657619 9.19642857C76.0214762 9.19642857 76.5100476 9.60119048 76.5100476 10.1730952 76.5100476 10.9407143 76.0214762 11.2407143 75.2676667 11.2407143L73.8448095 11.247381 73.8448095 9.19642857zM73.8448095 15.3569048L73.8448095 13.1797619 75.673381 13.1797619C76.3005238 13.2216667 76.6919524 13.7516667 76.6919524 14.3102381 76.6919524 14.9378571 76.1752857 15.3569048 75.4776667 15.3569048L73.8448095 15.3569048zM75.7843333 17.317381C75.8843333 17.2883333 79.6219524 17.5130952 79.6219524 14.582619 79.6219524 13.145 78.533381 12.2945238 77.193381 12.112619L77.193381 12.0845238C78.3238571 11.875 79.3705238 11.1216667 79.3705238 9.8802381 79.3705238 8.10785714 77.7800476 7.25642857 75.8824286 7.24261905L71.0543333 7.24261905 71.0543333 17.317381 75.7843333 17.317381zM50.0322857 9.19642857L51.5532381 9.19642857C52.2089524 9.19642857 52.6975238 9.60119048 52.6975238 10.1730952 52.6975238 10.9407143 52.2089524 11.2407143 51.455619 11.2407143L50.0322857 11.247381 50.0322857 9.19642857zM50.0322857 15.3569048L50.0322857 13.1797619 51.860381 13.1797619C52.4884762 13.2216667 52.8789524 13.7516667 52.8789524 14.3102381 52.8789524 14.9378571 52.3627619 15.3569048 51.6646667 15.3569048L50.0322857 15.3569048zM51.9718095 17.317381C52.0770476 17.2883333 55.8089524 17.5130952 55.8089524 14.582619 55.8089524 13.145 54.7208571 12.2945238 53.3813333 12.112619L53.3813333 12.0845238C54.5113333 11.875 55.558 11.1216667 55.558 9.8802381 55.558 8.10785714 53.9675238 7.25642857 52.0694286 7.24261905L47.2413333 7.24261905 47.2413333 17.317381 51.9718095 17.317381z" mask="url(#bibb_kongress-b)"/>
    </g>
  </g>
</svg>
