<svg xmlns="http://www.w3.org/2000/svg" xmlns:xlink="http://www.w3.org/1999/xlink" width="121" height="46" viewBox="0 0 121 46">
  <defs>
    <polygon id="deqa_vet-a" points=".229 .088 9.159 .088 9.159 11.956 .229 11.956"/>
  </defs>
  <g fill="none" fill-rule="evenodd" transform="translate(2 2)">
    <path stroke="#E20714" stroke-width="3" d="M0.160426621,16.946621 C3.11593174,9.50794574 10.4090478,4.24608895 18.9356212,4.24608895 C30.0818191,4.24608895 39.1185085,13.2349596 39.1185085,24.3230785"/>
    <path stroke="#1D1D1B" stroke-width="3" d="M4.03682116 5.2917941C8.14861638 2.10252065 13.3192273.202046574 18.9357836.202046574 28.8956369.202046574 37.4514526 6.1753691 41.1839099 14.7149781M41.1840724 14.7150993C42.4707345 17.6587332 43.1843283 20.9086085 43.1843283 24.3229169"/>
    <path stroke="#FCC200" stroke-width="3" d="M18.9362304,39.6853247 C10.4076263,39.6853247 3.49425427,32.8070145 3.49425427,24.3231593 C3.49425427,15.839304 10.4076263,8.96058981 18.9362304,8.96058981 C27.4656468,8.96058981 34.3794249,15.839304 34.3794249,24.3231593"/>
    <path fill="#1D1D1B" d="M51.0671645 34.4848778C51.0671645 33.4360617 50.8831816 32.5581429 50.516028 31.8511213 50.1484683 31.1440997 49.5859597 30.6342361 48.8276901 30.3215306 48.6002498 30.2286077 48.3772771 30.1534614 48.158772 30.0956877 47.9398608 30.0375099 47.7079529 29.9942806 47.4630485 29.9647877 47.218144 29.9361028 46.9529324 29.9159022 46.6674137 29.9041858 46.3814887 29.8928735 46.0606355 29.8868133 45.7052601 29.8868133L44.7780348 29.8868133C44.7431065 29.8868133 44.7037106 29.9013577 44.6598471 29.9304466 44.6159836 29.9595355 44.5940519 30.0169052 44.5940519 30.1037679L44.5940519 38.9875954C44.5940519 39.0683978 44.6159836 39.1245556 44.6598471 39.1564725 44.7037106 39.1887935 44.7431065 39.20455 44.7780348 39.20455L46.2125331 39.20455C46.5447584 39.20455 46.8960724 39.1843494 47.2664751 39.1435441 47.6368778 39.1031429 48.0011884 39.0231485 48.359813 38.9043688 48.7184375 38.7859932 49.0612225 38.6191361 49.3877618 38.4050096 49.7138949 38.190479 50.0026628 37.9080744 50.2536594 37.5573917 50.5042498 37.206709 50.7028539 36.781284 50.8482532 36.2795006 50.9940587 35.7785253 51.0671645 35.180183 51.0671645 34.4848778M52.8822191 34.4848778C52.8822191 35.0759478 52.8221099 35.6346969 52.7027038 36.161529 52.5832976 36.6887651 52.4082498 37.1723679 52.1779666 37.6127414 51.9476833 38.0531148 51.6650075 38.4470269 51.3295331 38.7940735 50.9944648 39.1419281 50.6139085 39.4312009 50.1882703 39.6627 49.7159256 39.9176318 49.1651952 40.1172139 48.535673 40.2626583 47.9057447 40.4068907 47.1564102 40.479613 46.2876696 40.479613L43.1916389 40.479613C43.1156901 40.479613 43.0429904 40.4622404 42.9731338 40.4274954 42.902871 40.3927503 42.8683488 40.3026556 42.8683488 40.1580191L42.8683488 28.9333441C42.8683488 28.7883037 42.902871 28.698613 42.9731338 28.6638679 43.0429904 28.6291228 43.1156901 28.6117503 43.1916389 28.6117503L46.5236389 28.6117503C47.229516 28.6117503 47.8765024 28.6622519 48.4654102 28.764063 49.0543181 28.865066 49.5587481 29.0173787 49.9782942 29.2201929 50.4331747 29.4403796 50.8413488 29.7252083 51.2028164 30.075487 51.564284 30.4257657 51.8688915 30.827354 52.1166389 31.2786358 52.3643863 31.7311296 52.5540553 32.2272568 52.6852396 32.7690373 52.8164239 33.3108179 52.8822191 33.8824954 52.8822191 34.4848778M62.1371294 40.1583827C62.1371294 40.3030192 62.1005765 40.3927099 62.0278768 40.427455 61.9551771 40.4622 61.8836959 40.4795726 61.8138392 40.4795726L55.4995287 40.4795726C55.423986 40.4795726 55.3512863 40.4622 55.2814297 40.427455 55.211573 40.3927099 55.1770509 40.3026152 55.1770509 40.1579787L55.1770509 28.9333037C55.1770509 28.7882633 55.211573 28.6985726 55.2814297 28.6638275 55.3512863 28.6290824 55.423986 28.6117099 55.4995287 28.6117099L61.4556208 28.6117099C61.5254775 28.6117099 61.5965526 28.6290824 61.6696584 28.6638275 61.742358 28.6985726 61.7789109 28.7882633 61.7789109 28.9328997L61.7789109 29.5744713C61.7789109 29.7130476 61.742358 29.7999102 61.6696584 29.8346553 61.5965526 29.8694003 61.5254775 29.8867729 61.4556208 29.8867729L57.0863307 29.8867729C57.0518085 29.8867729 57.0120065 29.9013173 56.9685491 29.9304062 56.9250918 29.9594951 56.9031601 30.0168648 56.9031601 30.1037275L56.9031601 33.327342C56.9031601 33.4085485 56.9250918 33.4634942 56.9685491 33.492179 57.0120065 33.5212679 57.0518085 33.5354084 57.0863307 33.5354084L60.538143 33.5354084C60.6136857 33.5354084 60.6863853 33.5527809 60.7566481 33.587526 60.8260986 33.622271 60.8614331 33.7123658 60.8614331 33.8574062L60.8614331 34.5014019C60.8614331 34.6464423 60.8260986 34.7365371 60.7566481 34.7712821 60.6863853 34.8060272 60.6136857 34.8233997 60.538143 34.8233997L57.0863307 34.8233997C57.0518085 34.8233997 57.0120065 34.8367321 56.9685491 34.8629929 56.9250918 34.8888497 56.9031601 34.9454115 56.9031601 35.0322741L56.9031601 38.987151C56.9031601 39.0683574 56.9250918 39.1245152 56.9685491 39.1568361 57.0120065 39.1887531 57.0518085 39.2045096 57.0863307 39.2045096L61.8138392 39.2045096C61.8836959 39.2045096 61.9551771 39.2218821 62.0278768 39.2566272 62.1005765 39.2913723 62.1371294 39.3778309 62.1371294 39.5168111L62.1371294 40.1583827zM72.5090556 34.5542871C72.5090556 33.9349362 72.4461034 33.3357859 72.3206051 32.7568362 72.195513 32.1782905 71.9835061 31.6647908 71.6862092 31.2155291 71.3885061 30.7674794 70.9949532 30.4083124 70.5047382 30.1392402 70.0145232 29.870168 69.4077451 29.7352278 68.6844038 29.7352278 68.2116529 29.7352278 67.7900761 29.7978498 67.4196734 29.9222856 67.0492706 30.0467214 66.7223253 30.2192346 66.4396495 30.4386133 66.1561614 30.658396 65.9157246 30.918984 65.7171205 31.2203772 65.5189225 31.5209624 65.3568713 31.8498285 65.231373 32.2057633 65.1058747 32.5616982 65.0140863 32.9378337 64.9560078 33.3341698 64.8975232 33.7309099 64.868687 34.1316902 64.868687 34.5369146 64.868687 35.1562655 64.9312331 35.7554158 65.0567314 36.3343655 65.1822297 36.9129112 65.3934242 37.4268149 65.6911273 37.8756726 65.9884242 38.3241263 66.3807587 38.6832933 66.8681307 38.9523655 67.3555027 39.2214377 67.9610625 39.3559738 68.6844038 39.3559738 69.1571546 39.3559738 69.5799498 39.2933519 69.9536017 39.1693201 70.3268474 39.0448843 70.6550113 38.872371 70.9380932 38.6529923 71.2211751 38.4328056 71.4616119 38.1722177 71.6598099 37.8712285 71.8580078 37.5702393 72.0204652 37.2417772 72.1455573 36.8858423 72.2710556 36.5299075 72.3632502 36.153368 72.4213287 35.7570319 72.4798133 35.3602917 72.5090556 34.9595115 72.5090556 34.5542871M74.3367007 34.518734C74.3367007 35.370392 74.235571 36.1420556 74.0341239 36.8341288 73.8326768 37.5257979 73.538629 38.1281803 73.1527928 38.640872 72.7673628 39.1531596 72.2937997 39.5672723 71.7329157 39.8828059 71.1712195 40.1987436 70.5343867 40.4027698 69.821199 40.4952886L69.5580181 40.5300337C69.4824754 40.541346 69.4325198 40.5680109 69.4093696 40.6084121 69.3858133 40.6492173 69.3740352 40.7073951 69.3740352 40.7833494 69.3740352 40.9166735 69.4032775 41.064946 69.4617621 41.228571 69.5198406 41.390984 69.6319362 41.5449127 69.7980488 41.6907612 69.9637553 41.8358016 70.1956631 41.9566013 70.4925539 42.0527562 70.7898509 42.1485072 71.1801546 42.1965846 71.6638713 42.1965846 71.8909055 42.1965846 72.0988509 42.1808281 72.2881137 42.1489112 72.4777826 42.1169942 72.6418645 42.0806331 72.781984 42.0402319 72.9221034 41.9994266 73.039885 41.9590254 73.136141 41.9190281 73.2319908 41.8778189 73.303472 41.8463059 73.3501785 41.8228732 73.402571 41.7937843 73.4476529 41.7703516 73.4850181 41.7529791 73.5231956 41.7356065 73.5739635 41.7271223 73.6381341 41.7271223 73.7197689 41.7271223 73.7782536 41.7545951 73.8131819 41.8099448 73.8481102 41.8648905 73.8659805 41.9331686 73.8659805 42.0143751L73.8659805 42.6393822C73.8659805 42.7718982 73.8525778 42.8716893 73.8261785 42.9383513 73.8001853 43.0046093 73.7372331 43.0635951 73.6381341 43.1157127 73.6032058 43.1330852 73.5333491 43.1625781 73.4289703 43.2025754 73.3237792 43.2433806 73.1808167 43.2825698 73.0004891 43.320143 72.8197553 43.3573121 72.5967826 43.3920572 72.331571 43.4239741 72.0667655 43.4558911 71.756472 43.4716476 71.4010966 43.4716476 71.2033048 43.4716476 70.9734276 43.4615473 70.711059 43.4413467 70.4490966 43.420742 70.1798235 43.3787248 69.9028338 43.3152948 69.625844 43.2510569 69.3525096 43.156922 69.0820181 43.0320822 68.8115266 42.9076464 68.5706836 42.7436173 68.3582706 42.5408031 68.1462638 42.3371809 67.9748713 42.0862893 67.8444993 41.7877241 67.713315 41.488755 67.6479259 41.130396 67.6479259 40.7126473 67.6479259 40.6488133 67.6333048 40.605584 67.6040625 40.5821513 67.5752263 40.5587186 67.5285198 40.541346 67.4643491 40.5300337 66.7885266 40.408426 66.2097724 40.212884 65.7293048 39.9438118 65.2480249 39.6747396 64.8447246 39.362842 64.5181853 39.0097352 64.1916461 38.6566285 63.930902 38.2760488 63.7355471 37.8675923 63.5405983 37.4591359 63.3919498 37.0555275 63.2900078 36.6555553 63.1880659 36.2563911 63.1210522 35.8741954 63.0889669 35.5089683 63.0568816 35.1445491 63.041042 34.8318436 63.041042 34.5708516 63.041042 33.6905087 63.1547621 32.8784439 63.3817962 32.1342531 63.6092365 31.3900624 63.9564891 30.7460667 64.4231478 30.2018621 64.8898065 29.6572535 65.4774959 29.2330405 66.1866222 28.9288192 66.8949362 28.6250019 67.7279362 28.4726893 68.6844038 28.4726893 69.6063491 28.4726893 70.4194481 28.6165177 71.1253253 28.9029624 71.8312024 29.1894072 72.4217348 29.5978636 72.8973287 30.1275238 73.3725164 30.657588 73.7315471 31.2947155 73.9736085 32.0385022 74.21567 32.782693 74.3367007 33.6097062 74.3367007 34.518734M81.8916167 34.8533774C81.8916167 34.8186324 81.8855246 34.7822713 81.8741526 34.7442941 81.8627805 34.707125 81.8505962 34.6707639 81.8392242 34.6360188L80.4063505 30.1680463C80.3888863 30.1219889 80.3726406 30.0807796 80.3580195 30.0464385 80.3433983 30.0116935 80.3125314 29.994321 80.2662311 29.994321 80.2199307 29.994321 80.1862208 30.0177537 80.1659137 30.0642151 80.1452003 30.1102725 80.1293608 30.1506737 80.1175826 30.1854188L78.6327225 34.6360188C78.6205382 34.6707639 78.6087601 34.707125 78.5973881 34.7442941 78.5856099 34.7822713 78.5799239 34.8186324 78.5799239 34.8533774 78.5799239 34.905495 78.6014495 34.938624 78.645313 34.9531685 78.6887703 34.9677129 78.7517225 34.9749852 78.8333573 34.9749852L81.6381833 34.9749852C81.7198181 34.9749852 81.7823642 34.9677129 81.8262276 34.9531685 81.869685 34.938624 81.8916167 34.905495 81.8916167 34.8533774M85.4591799 40.2453262C85.4591799 40.401275 85.3572379 40.4796534 85.1537601 40.4796534L83.9609171 40.4796534C83.8329819 40.4796534 83.7485041 40.4578367 83.7078898 40.4146074 83.6672754 40.370974 83.6384392 40.3200685 83.6209751 40.2622947L82.3810195 36.4011487C82.3635553 36.3550913 82.3473096 36.3142861 82.3330945 36.279541 82.3184734 36.244796 82.2936986 36.212879 82.2587703 36.1837901 82.2299341 36.1664176 82.1917567 36.1563173 82.1450502 36.1534892 82.0987498 36.1506611 82.0349853 36.149045 81.9529444 36.149045L78.4523949 36.149045C78.3764461 36.149045 78.316743 36.1506611 78.2732857 36.1534892 78.2294222 36.1563173 78.1932754 36.1664176 78.1640331 36.1837901 78.1291048 36.212879 78.10433 36.247624 78.090115 36.2884293 78.0754939 36.3288305 78.0592481 36.3724639 78.041784 36.4185213L76.7673061 40.2622947C76.749842 40.3200685 76.7210058 40.370974 76.6795792 40.4146074 76.6389648 40.4578367 76.554487 40.4796534 76.4265519 40.4796534L75.5358795 40.4796534C75.3319956 40.4796534 75.2296474 40.401275 75.2296474 40.2453262 75.2296474 40.1814923 75.234115 40.140687 75.2430502 40.1233145 75.2515792 40.1059419 75.2649819 40.0651367 75.2824461 40.0017068L79.0526747 29.3066919C79.0989751 29.1794281 79.1416201 29.0638805 79.1789853 28.9596453 79.2171628 28.8554102 79.2634631 28.7673355 79.3186986 28.6946132 79.3743403 28.621891 79.4458215 28.5669453 79.5327362 28.5297762 79.620057 28.491799 79.7358078 28.4728105 79.8820195 28.4728105L80.9550502 28.4728105C81.1008556 28.4728105 81.2170126 28.4885669 81.3043334 28.5204839 81.3916543 28.5524009 81.4611048 28.6012864 81.5134973 28.6683524 81.5658898 28.7346105 81.6113778 28.818645 81.6491491 28.9200521 81.6869205 29.0214592 81.7295655 29.1386228 81.7758659 29.2723509L85.3978522 40.0017068C85.4210024 40.0651367 85.436842 40.1059419 85.4457771 40.1233145 85.4543061 40.140687 85.4591799 40.1814923 85.4591799 40.2453262M90.3123491 36.2295243C90.3123491 36.2990144 90.292042 36.3596163 90.2514276 36.4117339 90.2104072 36.4638515 90.1494857 36.4901123 90.0678509 36.4901123L86.4328679 36.4901123C86.3626051 36.4901123 86.300059 36.4638515 86.2448235 36.4117339 86.1899942 36.3596163 86.1619703 36.2990144 86.1619703 36.2295243L86.1619703 35.2138373C86.1619703 35.139095 86.1899942 35.0780891 86.2448235 35.0316277 86.300059 34.9855703 86.3626051 34.9621376 86.4328679 34.9621376L90.0678509 34.9621376C90.1377075 34.9621376 90.195786 34.9855703 90.2424925 35.0316277 90.289199 35.0780891 90.3123491 35.139095 90.3123491 35.2138373L90.3123491 36.2295243zM100.705111 28.8460371C100.705111 28.909871 100.700643 28.9506763 100.692114 28.9680488 100.683179 28.9854213 100.670182 29.0258226 100.652718 29.0896565L96.8577147 39.7842673C96.8114143 39.9175914 96.7703939 40.034755 96.7354655 40.1361621 96.7005372 40.2375692 96.6550491 40.3244318 96.6002198 40.39675 96.5449843 40.4694723 96.4735031 40.5240139 96.3861823 40.5619911 96.2988614 40.5995642 96.1822983 40.6185528 96.036899 40.6185528L94.9626498 40.6185528C94.8111584 40.6185528 94.6933768 40.6027963 94.608899 40.5708794 94.5244212 40.5385584 94.4561891 40.4896729 94.4037966 40.4230108 94.3514041 40.3563488 94.3063222 40.2723142 94.2681447 40.1709071 94.2303734 40.0695 94.1881345 39.9523365 94.1418341 39.8190124L90.5117249 29.0896565C90.4942608 29.0258226 90.4812642 28.9854213 90.4727352 28.9680488 90.4638 28.9506763 90.4593324 28.909871 90.4593324 28.8460371 90.4593324 28.6896843 90.5612744 28.6117099 90.7651584 28.6117099L91.9608444 28.6117099C92.0891857 28.6117099 92.1732573 28.6339306 92.2142778 28.6771599 92.2548922 28.7203892 92.2841345 28.7708908 92.3015986 28.8286645L95.5288137 38.7726204C95.5462778 38.8194858 95.5625235 38.8610991 95.5771447 38.8990763 95.5913597 38.9370534 95.6222266 38.955234 95.6693392 38.955234 95.7156396 38.955234 95.7493495 38.9322053 95.7696567 38.8861479 95.7895577 38.8396865 95.8058034 38.7964571 95.8175816 38.7552479L99.167858 28.8286645C99.1853222 28.7708908 99.2141584 28.7203892 99.2551788 28.6771599 99.2957932 28.6339306 99.377428 28.6117099 99.4996771 28.6117099L100.399285 28.6117099C100.603169 28.6117099 100.705111 28.6896843 100.705111 28.8460371M108.931097 40.1583827C108.931097 40.3030192 108.894544 40.3927099 108.821845 40.427455 108.749551 40.4622 108.67807 40.4795726 108.608213 40.4795726L102.293903 40.4795726C102.217954 40.4795726 102.14566 40.4622 102.075804 40.427455 102.005947 40.3927099 101.971019 40.3026152 101.971019 40.1579787L101.971019 28.9333037C101.971019 28.7882633 102.005947 28.6985726 102.075804 28.6638275 102.14566 28.6290824 102.217954 28.6117099 102.293903 28.6117099L108.249589 28.6117099C108.319445 28.6117099 108.390927 28.6290824 108.464032 28.6638275 108.536732 28.6985726 108.573285 28.7882633 108.573285 28.9328997L108.573285 29.5744713C108.573285 29.7130476 108.536732 29.7999102 108.464032 29.8346553 108.390927 29.8694003 108.319445 29.8867729 108.249589 29.8867729L103.880299 29.8867729C103.845776 29.8867729 103.806381 29.9013173 103.762517 29.9304062 103.71906 29.9594951 103.697128 30.0168648 103.697128 30.1037275L103.697128 33.327342C103.697128 33.4085485 103.71906 33.4634942 103.762517 33.492179 103.806381 33.5212679 103.845776 33.5354084 103.880299 33.5354084L107.332111 33.5354084C107.40806 33.5354084 107.480759 33.5527809 107.551022 33.587526 107.620473 33.622271 107.655401 33.7123658 107.655401 33.8574062L107.655401 34.5014019C107.655401 34.6464423 107.620473 34.7365371 107.551022 34.7712821 107.480759 34.8060272 107.40806 34.8233997 107.332111 34.8233997L103.880299 34.8233997C103.845776 34.8233997 103.806381 34.8367321 103.762517 34.8629929 103.71906 34.8888497 103.697128 34.9454115 103.697128 35.0322741L103.697128 38.987151C103.697128 39.0683574 103.71906 39.1245152 103.762517 39.1568361 103.806381 39.1887531 103.845776 39.2045096 103.880299 39.2045096L108.608213 39.2045096C108.67807 39.2045096 108.749551 39.2218821 108.821845 39.2566272 108.894544 39.2913723 108.931097 39.3778309 108.931097 39.5168111L108.931097 40.1583827z"/>
    <g transform="translate(109.659 28.523)">
      <mask id="deqa_vet-b" fill="#fff">
        <use xlink:href="#deqa_vet-a"/>
      </mask>
      <path fill="#1D1D1B" d="M9.15942594,1.05111892 C9.15942594,1.19009917 9.12449761,1.27696182 9.05464096,1.31170688 C8.9847843,1.34604793 8.9145215,1.36342046 8.84507099,1.36342046 L5.74294812,1.36342046 C5.7080198,1.36342046 5.66984232,1.37836892 5.62922799,1.4070538 C5.58820751,1.43614269 5.56790034,1.49391645 5.56790034,1.5807791 L5.56790034,11.6346263 C5.56790034,11.7796668 5.53134744,11.8693575 5.45905392,11.9041026 C5.38594812,11.9388476 5.31446689,11.9562202 5.24461024,11.9562202 L4.15249078,11.9562202 C4.08263413,11.9562202 4.0111529,11.9388476 3.93845324,11.9041026 C3.86534744,11.8693575 3.82920068,11.7796668 3.82920068,11.6346263 L3.82920068,1.5807791 C3.82920068,1.49391645 3.80889352,1.43614269 3.76787304,1.4070538 C3.7272587,1.37836892 3.68908123,1.36342046 3.6541529,1.36342046 L0.552842321,1.36342046 C0.482579522,1.36342046 0.411098294,1.34604793 0.338398635,1.31170688 C0.265698976,1.27696182 0.229146075,1.19009917 0.229146075,1.05111892 L0.229146075,0.409547315 C0.229146075,0.265314907 0.265698976,0.175220154 0.338398635,0.140475093 C0.411098294,0.105730031 0.482579522,0.0883575 0.552842321,0.0883575 L8.84507099,0.0883575 C8.9145215,0.0883575 8.9847843,0.105730031 9.05464096,0.140475093 C9.12449761,0.175220154 9.15942594,0.265314907 9.15942594,0.409547315 L9.15942594,1.05111892 Z" mask="url(#deqa_vet-b)"/>
    </g>
    <polygon fill="#FCC200" points="29.815 26.368 32.21 31.197 37.568 31.972 33.691 35.73 34.606 41.038 29.815 38.532 25.025 41.038 25.938 35.73 22.063 31.972 27.42 31.197"/>
  </g>
</svg>
