<svg xmlns="http://www.w3.org/2000/svg" xmlns:xlink="http://www.w3.org/1999/xlink" width="120" height="31" viewBox="0 0 120 31">
  <defs>
    <polygon id="foraus-a" points=".361 .019 5.268 .019 5.268 4.907 .361 4.907"/>
    <polygon id="foraus-c" points=".254 .169 4.141 .169 4.141 7.138 .254 7.138"/>
    <polygon id="foraus-e" points=".187 .019 3.357 .019 3.357 4.907 .187 4.907"/>
    <polygon id="foraus-g" points="0 30.785 119.803 30.785 119.803 0 0 0"/>
  </defs>
  <g fill="none" fill-rule="evenodd">
    <path fill="#003369" d="M5.268 17.9880446L1.37045353 17.9880446 1.37045353 10.2143643.0000446096654 10.2143643.0000446096654 7.0024684 1.37045353 7.0024684 1.37045353 5.61064684C1.37045353 4.09034944 1.41327881 2.9764461 2.48435688 1.75592565 3.44792565.620609665 4.83974721.0000892193309 6.31766543.0000892193309 6.91677323.0000892193309 7.45208922.107152416 7.9878513.385516729L7.9878513 3.74730112C7.53773978 3.55503346 7.13089963 3.38328625 6.61699628 3.38328625 5.61060223 3.38328625 5.268 3.98284015 5.268 5.22521933L5.268 7.0024684 7.9878513 7.0024684 7.9878513 10.2143643 5.268 10.2143643 5.268 17.9880446zM14.3040892 12.5059628C14.3040892 13.8977844 15.2248327 14.9688625 16.809368 14.9688625 18.3943494 14.9688625 19.3150929 13.8977844 19.3150929 12.5059628 19.3150929 11.1569665 18.3943494 10.0220967 16.809368 10.0220967 15.2248327 10.0220967 14.3040892 11.1569665 14.3040892 12.5059628M23.4267658 12.5059628C23.4267658 16.2322082 20.3428996 18.3520595 16.809368 18.3520595 13.2976952 18.3520595 10.1924164 16.2531747 10.1924164 12.5059628 10.1924164 8.75875093 13.2762825 6.63845353 16.809368 6.63845353 20.3428996 6.63845353 23.4267658 8.75875093 23.4267658 12.5059628M30.791777 8.80126394L30.8346022 8.80126394C31.5835985 7.45226766 32.868803 6.85271375 34.3891004 6.85271375L35.1385428 6.85271375 35.1385428 10.5999257C34.6032268 10.3001487 34.0897695 10.2359108 33.4897695 10.2359108 31.3266468 10.2359108 30.791777 11.6710037 30.791777 13.555316L30.791777 17.9881784 26.8942305 17.9881784 26.8942305 7.00260223 30.791777 7.00260223 30.791777 8.80126394z"/>
    <path fill="#94C01F" d="M41.5399405 12.5059628C41.5399405 13.8977844 42.460684 14.9688625 44.0456654 14.9688625 45.6306468 14.9688625 46.5509442 13.8977844 46.5509442 12.5059628 46.5509442 11.1569665 45.6306468 10.0220967 44.0456654 10.0220967 42.460684 10.0220967 41.5399405 11.1569665 41.5399405 12.5059628zM50.3200149 17.9880446L46.4224684 17.9880446 46.4224684 16.7675242 46.3800892 16.7675242C45.6944387 17.8595688 44.3454424 18.3520595 43.0602379 18.3520595 39.8055167 18.3520595 37.5143643 15.6326543 37.5143643 12.4845502 37.5143643 9.33689219 39.7626914 6.63845353 43.0178587 6.63845353 44.2812045 6.63845353 45.6087881 7.1095316 46.4224684 8.07310037L46.4224684 7.0024684 50.3200149 7.0024684 50.3200149 17.9880446zM58.455881 7.00251301L58.455881 12.8700223C58.455881 14.2618439 58.7984833 15.2468253 60.4048773 15.2468253 62.0108253 15.2468253 62.3529814 14.2618439 62.3529814 12.8700223L62.3529814 7.00251301 66.2505279 7.00251301 66.2505279 13.6194647C66.2505279 17.2386468 63.7028699 18.3521041 60.4048773 18.3521041 57.1064387 18.3521041 54.5587807 17.2386468 54.5587807 13.6194647L54.5587807 7.00251301 58.455881 7.00251301zM77.7059777 9.8289368C77.1064238 9.50774721 76.2708848 9.29406691 75.6070929 9.29406691 75.1574275 9.29406691 74.3865725 9.48633457 74.3865725 10.0430632 74.3865725 10.7929517 75.6070929 10.8995688 76.142855 11.0070781 77.9629294 11.3710929 79.3333383 12.2275985 79.3333383 14.2622454 79.3333383 17.1529517 76.6995836 18.3520595 74.1510335 18.3520595 72.5879108 18.3520595 71.0457546 17.9023941 69.718171 17.0882677L71.1314052 14.3693086C71.924119 14.9260372 73.2521487 15.4827658 74.2157175 15.4827658 74.7077621 15.4827658 75.4362379 15.2472268 75.4362379 14.6476729 75.4362379 13.7907212 74.2157175 13.7478959 72.9947509 13.4267063 71.7742305 13.1055167 70.55371 12.5059628 70.55371 10.536 70.55371 7.83756134 72.9947509 6.63845353 75.3925204 6.63845353 76.6353457 6.63845353 77.8777249 6.83116729 79.0121487 7.34507063L77.7059777 9.8289368zM88.0481041 15.9109294C88.0481041 17.2813383 86.9346468 18.4162082 85.5423792 18.4162082 84.1510037 18.4162082 83.0375465 17.2813383 83.0375465 15.9109294 83.0375465 14.5191078 84.1510037 13.4056506 85.5423792 13.4056506 86.9346468 13.4056506 88.0481041 14.5191078 88.0481041 15.9109294M95.5847286 12.5059628C95.5847286 13.8977844 96.5054721 14.9688625 98.0904535 14.9688625 99.6754349 14.9688625 100.596178 13.8977844 100.596178 12.5059628 100.596178 11.1569665 99.6754349 10.0220967 98.0904535 10.0220967 96.5054721 10.0220967 95.5847286 11.1569665 95.5847286 12.5059628zM100.467257 16.7675242L100.424877 16.7675242C99.7392268 17.8595688 98.3902305 18.3520595 97.105026 18.3520595 93.8498587 18.3520595 91.5595985 15.6326543 91.5595985 12.4845502 91.5595985 9.33689219 93.8074796 6.63845353 97.0626468 6.63845353 98.3259926 6.63845353 99.6535762 7.1095316 100.467257 8.07310037L100.467257.213769517 104.364803.213769517 104.364803 17.9880446 100.467257 17.9880446 100.467257 16.7675242zM116.183599 10.8997472C115.990885 9.85052788 115.027316 9.16532342 113.978543 9.16532342 112.843227 9.16532342 111.901071 9.76487732 111.665086 10.8997472L116.183599 10.8997472zM119.802781 13.1485204L111.60174 13.1485204C111.60174 14.7330558 112.436387 15.5895613 114.042781 15.5895613 114.877428 15.5895613 115.476981 15.311197 115.90568 14.5831673L119.652892 14.5831673C119.031926 17.1740967 116.569472 18.3522379 114.063747 18.3522379 110.423599 18.3522379 107.703301 16.2966245 107.703301 12.5061413 107.703301 8.84413383 110.209026 6.63818587 113.785829 6.63818587 117.597725 6.63818587 119.802781 8.9940223 119.802781 12.7416803L119.802781 13.1485204z"/>
    <polygon fill="#94C01F" points="2.283 24.071 2.283 26.152 4.855 26.152 4.855 26.996 2.283 26.996 2.283 30.628 1.361 30.628 1.361 23.226 4.943 23.226 4.943 24.071"/>
    <g transform="translate(5.8 25.878)">
      <mask id="foraus-b" fill="#fff">
        <use xlink:href="#foraus-a"/>
      </mask>
      <path fill="#94C01F" d="M1.24398513,2.46312268 C1.24398513,3.3272119 1.9407881,4.06327138 2.81469145,4.06327138 C3.6881487,4.06327138 4.38495167,3.3272119 4.38495167,2.46312268 C4.38495167,1.58966543 3.6881487,0.863420074 2.81469145,0.863420074 C1.9407881,0.863420074 1.24398513,1.58966543 1.24398513,2.46312268 M5.26822305,2.46312268 C5.26822305,3.84736059 4.18866914,4.90728625 2.81469145,4.90728625 C1.44026766,4.90728625 0.360713755,3.84736059 0.360713755,2.46312268 C0.360713755,1.07888476 1.44026766,0.0189591078 2.81469145,0.0189591078 C4.18866914,0.0189591078 5.26822305,1.07888476 5.26822305,2.46312268" mask="url(#foraus-b)"/>
    </g>
    <path fill="#94C01F" d="M13.4615465 26.7801636L13.4909888 26.7801636C13.7068996 26.2403866 14.1583494 25.8968922 14.747197 25.8968922 15.0028104 25.8968922 15.2575316 25.9852193 15.4738885 26.122171L15.0710632 26.9273755C14.9140372 26.7895316 14.7373829 26.7409071 14.5312862 26.7409071 13.579316 26.7409071 13.4615465 27.6241784 13.4615465 28.370052L13.4615465 30.6277472 12.5782751 30.6277472 12.5782751 26.0338439 13.4615465 26.0338439 13.4615465 26.7801636zM17.4559405 26.0339331L17.4559405 28.5762379C17.4559405 29.3127435 17.6424089 29.9604758 18.5158662 29.9604758 19.3897695 29.9604758 19.5762379 29.3127435 19.5762379 28.5762379L19.5762379 26.0339331 20.4595093 26.0339331 20.4595093 28.6743792C20.4595093 29.9305874 19.8706617 30.7844164 18.5158662 30.7844164 17.1615167 30.7844164 16.5726691 29.9305874 16.5726691 28.6743792L16.5726691 26.0339331 17.4559405 26.0339331zM23.1382305 26.6133234L23.1578587 26.6133234C23.413026 26.2109442 23.87429 25.8968922 24.3748104 25.8968922 24.9739182 25.8968922 25.4057398 26.200684 25.7001636 26.7114647 25.9847732 26.2203123 26.5343643 25.8968922 27.1138439 25.8968922 28.3209814 25.8968922 28.6350335 26.8390483 28.6350335 27.8793457L28.6350335 30.6277472 27.7517621 30.6277472 27.7517621 28.0265576C27.7517621 27.43771 27.6732491 26.6815762 26.897487 26.6815762 25.9553309 26.6815762 25.886632 27.6634349 25.886632 28.370052L25.886632 30.6277472 25.0033606 30.6277472 25.0033606 28.1933978C25.0033606 27.5947361 24.9739182 26.6815762 24.1593457 26.6815762 23.2167435 26.6815762 23.1382305 27.6536208 23.1382305 28.370052L23.1382305 30.6277472 22.2549591 30.6277472 22.2549591 26.0338439 23.1382305 26.0338439 23.1382305 26.6133234z"/>
    <path fill="#003369" d="M36.249948,23.0009665 C36.0732937,22.9224535 35.8480149,22.8144981 35.6615465,22.8144981 C35.0329963,22.8144981 35.0329963,23.6094424 35.0329963,24.0613383 L35.0329963,26.0339777 L36.249948,26.0339777 L36.249948,26.8583643 L35.0329963,26.8583643 L35.0329963,30.627881 L34.1497249,30.627881 L34.1497249,26.8583643 L33.7473457,26.8583643 L33.7473457,26.0339777 L34.1497249,26.0339777 L34.1497249,23.7959108 C34.1497249,22.7948699 34.4932193,21.9896654 35.631658,21.9896654 C35.8480149,21.9896654 36.0536654,22.029368 36.249948,22.107881 L36.249948,23.0009665 Z"/>
    <g transform="translate(37.026 23.647)">
      <mask id="foraus-d" fill="#fff">
        <use xlink:href="#foraus-c"/>
      </mask>
      <path fill="#003369" d="M3.82688476,0.757561338 C3.82688476,1.09124164 3.56190335,1.35666914 3.23848327,1.35666914 C2.90480297,1.35666914 2.63937546,1.09124164 2.63937546,0.757561338 C2.63937546,0.433695167 2.90480297,0.168713755 3.23848327,0.168713755 C3.56190335,0.168713755 3.82688476,0.433695167 3.82688476,0.757561338 Z M1.75565799,0.757561338 C1.75565799,1.09124164 1.49067658,1.35666914 1.16681041,1.35666914 C0.833130112,1.35666914 0.568148699,1.09124164 0.568148699,0.757561338 C0.568148699,0.433695167 0.833130112,0.168713755 1.16681041,0.168713755 C1.49067658,0.168713755 1.75565799,0.433695167 1.75565799,0.757561338 Z M1.13781413,2.38670632 L1.13781413,4.92945725 C1.13781413,5.66551673 1.32428253,6.31324907 2.19773978,6.31324907 C3.07119703,6.31324907 3.25766543,5.66551673 3.25766543,4.92945725 L3.25766543,2.38670632 L4.1409368,2.38670632 L4.1409368,5.02715242 C4.1409368,6.28380669 3.55208922,7.13763569 2.19773978,7.13763569 C0.843390335,7.13763569 0.254096654,6.28380669 0.254096654,5.02715242 L0.254096654,2.38670632 L1.13781413,2.38670632 Z" mask="url(#foraus-d)"/>
    </g>
    <path fill="#003369" d="M43.9342305,26.7801636 L43.9636729,26.7801636 C44.1795836,26.2403866 44.6310335,25.8968922 45.2203271,25.8968922 C45.4754944,25.8968922 45.7302156,25.9852193 45.9465725,26.122171 L45.5437472,26.9273755 C45.3867212,26.7895316 45.2100669,26.7409071 45.0039703,26.7409071 C44.052,26.7409071 43.9342305,27.6241784 43.9342305,28.370052 L43.9342305,30.6277472 L43.0509591,30.6277472 L43.0509591,26.0338439 L43.9342305,26.0338439 L43.9342305,26.7801636 Z"/>
    <path fill="#94C01F" d="M53.4246691 24.9347955L52.1095762 27.9285502 54.7397621 27.9285502 53.4246691 24.9347955zM51.7263792 28.7730112L50.8828104 30.627881 49.8911375 30.627881 53.4246691 22.9126394 56.9582007 30.627881 55.9665279 30.627881 55.1229591 28.7730112 51.7263792 28.7730112zM58.9690706 26.0339331L58.9690706 28.5762379C58.9690706 29.3127435 59.155539 29.9604758 60.0294424 29.9604758 60.9033457 29.9604758 61.0898141 29.3127435 61.0898141 28.5762379L61.0898141 26.0339331 61.9726394 26.0339331 61.9726394 28.6743792C61.9726394 29.9305874 61.3842379 30.7844164 60.0294424 30.7844164 58.6746468 30.7844164 58.0862454 29.9305874 58.0862454 28.6743792L58.0862454 26.0339331 58.9690706 26.0339331z"/>
    <g transform="translate(63.346 25.878)">
      <mask id="foraus-f" fill="#fff">
        <use xlink:href="#foraus-e"/>
      </mask>
      <path fill="#94C01F" d="M2.29735316,1.20673606 C2.18939777,0.981011152 1.96367286,0.804356877 1.70850558,0.804356877 C1.46270632,0.804356877 1.22761338,1.00063941 1.22761338,1.25580669 C1.22761338,1.65863197 1.75713011,1.83484015 2.29735316,2.08063941 C2.83713011,2.32599257 3.35727881,2.65967286 3.35727881,3.38591822 C3.35727881,4.25937546 2.63103346,4.90710781 1.77720446,4.90710781 C1.10984387,4.90710781 0.432223048,4.52435688 0.187315985,3.87662454 L0.942557621,3.53313011 C1.12902602,3.87662454 1.35519703,4.1219777 1.77720446,4.1219777 C2.15014126,4.1219777 2.47400743,3.86681041 2.47400743,3.47424535 C2.47400743,3.22889219 2.35623792,3.11112268 2.15014126,2.97372491 L1.28605204,2.51246097 C0.776163569,2.23766543 0.403226766,1.98205204 0.403226766,1.35394796 C0.403226766,0.608074349 1.01125651,0.0192267658 1.75713011,0.0192267658 C2.31698141,0.0192267658 2.76887732,0.323464684 3.01333829,0.824431227 L2.29735316,1.20673606 Z" mask="url(#foraus-f)"/>
    </g>
    <path fill="#94C01F" d="M71.9241636,28.3310632 C71.9241636,27.4375316 71.3839405,26.6818439 70.4319703,26.6818439 C69.5192565,26.6818439 68.9790335,27.4767881 68.9790335,28.3310632 C68.9790335,29.1947063 69.4991822,29.9994647 70.4319703,29.9994647 C71.3942007,29.9994647 71.9241636,29.2339628 71.9241636,28.3310632 Z M68.1448327,22.1080149 L69.0285502,22.1080149 L69.0285502,26.7996134 L69.0481784,26.7996134 C69.4113011,26.2500223 69.9613383,25.8967138 70.647881,25.8967138 C71.9727881,25.8967138 72.8074349,27.0449665 72.8074349,28.3016208 C72.8074349,29.6167138 72.0223048,30.7845948 70.6086245,30.7845948 C69.9613383,30.7845948 69.401487,30.4312862 69.0481784,29.9111375 L69.0285502,29.9111375 L69.0285502,30.6275688 L68.1448327,30.6275688 L68.1448327,22.1080149 Z"/>
    <mask id="foraus-h" fill="#fff">
      <use xlink:href="#foraus-g"/>
    </mask>
    <path fill="#94C01F" d="M74.5146468,30.6275688 L75.3979182,30.6275688 L75.3979182,26.0336654 L74.5146468,26.0336654 L74.5146468,30.6275688 Z M75.5647584,23.9338885 C75.5647584,24.2675688 75.2899628,24.5321041 74.9562825,24.5321041 C74.6226022,24.5321041 74.3478067,24.2675688 74.3478067,23.9338885 C74.3478067,23.589948 74.6226022,23.3151524 74.9562825,23.3151524 C75.2899628,23.3151524 75.5647584,23.589948 75.5647584,23.9338885 Z" mask="url(#foraus-h)"/>
    <polygon fill="#94C01F" points="77.498 30.628 78.381 30.628 78.381 22.108 77.498 22.108" mask="url(#foraus-h)"/>
    <path fill="#94C01F" d="M83.7596877 28.3310632C83.7596877 27.4375316 83.2199108 26.6818439 82.2679405 26.6818439 81.3547807 26.6818439 80.8145576 27.4767881 80.8145576 28.3310632 80.8145576 29.1947063 81.3351524 29.9994647 82.2679405 29.9994647 83.230171 29.9994647 83.7596877 29.2339628 83.7596877 28.3310632zM83.7110632 29.9111375L83.6909888 29.9111375C83.3376803 30.4312862 82.7782751 30.7845948 82.1305428 30.7845948 80.7173086 30.7845948 79.9317323 29.6167138 79.9317323 28.3016208 79.9317323 27.0449665 80.7659331 25.8967138 82.0912862 25.8967138 82.7782751 25.8967138 83.3274201 26.2500223 83.6909888 26.7996134L83.7110632 26.7996134 83.7110632 22.1080149 84.5938885 22.1080149 84.5938885 30.6275688 83.7110632 30.6275688 83.7110632 29.9111375zM89.5402082 27.8109145C89.4322528 27.1234796 88.9803569 26.6622156 88.2737398 26.6622156 87.587197 26.6622156 87.0768625 27.1529219 86.968461 27.8109145L89.5402082 27.8109145zM86.9193903 28.4782751C86.9292045 29.2634052 87.4591673 29.9994647 88.3036283 29.9994647 88.9803569 29.9994647 89.3439257 29.6559703 89.6776059 29.1063792L90.4234796 29.5283866C89.9921041 30.323777 89.1868996 30.7845948 88.2938141 30.7845948 86.8903941 30.7845948 86.0365651 29.7246691 86.0365651 28.3703197 86.0365651 26.9566394 86.7918067 25.8967138 88.2737398 25.8967138 89.7364907 25.8967138 90.4234796 26.9762677 90.4234796 28.3404312L90.4234796 28.4782751 86.9193903 28.4782751zM92.7687435 26.7801636L92.7981859 26.7801636C93.0140967 26.2403866 93.4655465 25.8968922 94.0548401 25.8968922 94.3100074 25.8968922 94.5647286 25.9852193 94.7810855 26.122171L94.3782602 26.9273755C94.2212342 26.7895316 94.0445799 26.7409071 93.8384833 26.7409071 92.886513 26.7409071 92.7687435 27.6241784 92.7687435 28.370052L92.7687435 30.6277472 91.8854721 30.6277472 91.8854721 26.0338439 92.7687435 26.0338439 92.7687435 26.7801636z" mask="url(#foraus-h)"/>
    <polygon fill="#003369" points="95.988 30.628 96.91 30.628 96.91 23.226 95.988 23.226" mask="url(#foraus-h)"/>
    <path fill="#003369" d="M99.7267807 26.6525353L99.746855 26.6525353C100.021204 26.1613829 100.571242 25.8968476 101.130201 25.8968476 102.426112 25.8968476 102.759792 26.7703048 102.759792 27.8891152L102.759792 30.6277026 101.876074 30.6277026 101.876074 27.9975167C101.876074 27.2119405 101.768119 26.6815316 100.865665 26.6815316 99.7267807 26.6815316 99.7267807 27.6834647 99.7267807 28.5176654L99.7267807 30.6277026 98.8435093 30.6277026 98.8435093 26.0337993 99.7267807 26.0337993 99.7267807 26.6525353zM105.507747 26.6525353L105.526929 26.6525353C105.801725 26.1613829 106.351762 25.8968476 106.911167 25.8968476 108.207078 25.8968476 108.540758 26.7703048 108.540758 27.8891152L108.540758 30.6277026 107.657041 30.6277026 107.657041 27.9975167C107.657041 27.2119405 107.549086 26.6815316 106.646186 26.6815316 105.507747 26.6815316 105.507747 27.6834647 105.507747 28.5176654L105.507747 30.6277026 104.624476 30.6277026 104.624476 26.0337993 105.507747 26.0337993 105.507747 26.6525353zM113.554929 27.8109145C113.447866 27.1234796 112.995524 26.6622156 112.288907 26.6622156 111.602364 26.6622156 111.09203 27.1529219 110.983628 27.8109145L113.554929 27.8109145zM110.935004 28.4782751C110.944372 29.2634052 111.474335 29.9994647 112.318796 29.9994647 112.995524 29.9994647 113.359093 29.6559703 113.692773 29.1063792L114.438201 29.5283866C114.007271 30.323777 113.202067 30.7845948 112.308981 30.7845948 110.905561 30.7845948 110.051286 29.7246691 110.051286 28.3703197 110.051286 26.9566394 110.806974 25.8967138 112.288907 25.8967138 113.751658 25.8967138 114.438201 26.9762677 114.438201 28.3404312L114.438201 28.4782751 110.935004 28.4782751zM116.724625 26.6525353L116.744699 26.6525353C117.019048 26.1613829 117.569086 25.8968476 118.128045 25.8968476 119.423955 25.8968476 119.757636 26.7703048 119.757636 27.8891152L119.757636 30.6277026 118.873918 30.6277026 118.873918 27.9975167C118.873918 27.2119405 118.765963 26.6815316 117.863509 26.6815316 116.724625 26.6815316 116.724625 27.6834647 116.724625 28.5176654L116.724625 30.6277026 115.841353 30.6277026 115.841353 26.0337993 116.724625 26.0337993 116.724625 26.6525353z" mask="url(#foraus-h)"/>
  </g>
</svg>
