<svg xmlns="http://www.w3.org/2000/svg" xmlns:xlink="http://www.w3.org/1999/xlink" width="150" height="32" viewBox="0 0 150 32">
  <defs>
    <polygon id="go_vet-a" points="0 .014 20.131 .014 20.131 16.832 0 16.832"/>
    <polygon id="go_vet-c" points=".178 .014 20.307 .014 20.307 16.833 .178 16.833"/>
    <polygon id="go_vet-e" points="0 31.924 149.982 31.924 149.982 .359 0 .359"/>
  </defs>
  <g fill="none" fill-rule="evenodd">
    <g transform="translate(0 .345)">
      <mask id="go_vet-b" fill="#fff">
        <use xlink:href="#go_vet-a"/>
      </mask>
      <path fill="#535353" d="M0,3.45466507 C0,0.0139952153 3.05777512,0.0139952153 6.11590909,0.0139952153 L18.8558612,0.0139952153 L18.8558612,2.81698565 L5.86076555,2.81698565 C5.09533493,2.81698565 4.33133971,2.81698565 4.33133971,3.70980861 L4.33133971,13.137201 C4.33133971,14.0296651 5.09533493,14.0296651 5.86076555,14.0296651 L14.269378,14.0296651 C15.0340909,14.0296651 15.798445,14.0296651 15.798445,13.137201 L15.798445,9.06100478 L11.9766746,9.06100478 L11.9766746,6.25801435 L20.1308612,6.25801435 L20.1308612,13.3923445 C20.1308612,16.8322967 17.0720096,16.8322967 14.0156699,16.8322967 L6.11590909,16.8322967 C3.05777512,16.8322967 0,16.8322967 0,13.3923445 L0,3.45466507 Z" mask="url(#go_vet-b)"/>
    </g>
    <g transform="translate(25.837 .345)">
      <mask id="go_vet-d" fill="#fff">
        <use xlink:href="#go_vet-c"/>
      </mask>
      <path fill="#535353" d="M6.03879187,14.0295574 L14.4474043,14.0295574 C15.2124761,14.0295574 15.9764713,14.0295574 15.9764713,13.1374522 L15.9764713,3.70970096 C15.9764713,2.81687799 15.2124761,2.81687799 14.4474043,2.81687799 L6.03879187,2.81687799 C5.27479665,2.81687799 4.51008373,2.81687799 4.51008373,3.70970096 L4.51008373,13.1374522 C4.51008373,14.0295574 5.27479665,14.0295574 6.03879187,14.0295574 Z M0.178026316,3.45455742 C0.178026316,0.0138875598 3.23580144,0.0138875598 6.29393541,0.0138875598 L14.1929785,0.0138875598 C17.2514713,0.0138875598 20.3074522,0.0138875598 20.3074522,3.45455742 L20.3074522,13.3925957 C20.3074522,16.8325478 17.2514713,16.8325478 14.1929785,16.8325478 L6.29393541,16.8325478 C3.23580144,16.8325478 0.178026316,16.8325478 0.178026316,13.3925957 L0.178026316,3.45455742 Z" mask="url(#go_vet-d)"/>
    </g>
    <path fill="#000" d="M52.5955981,8.84163876 L56.9592344,8.84163876 C57.3554067,8.84163876 57.7519378,8.84163876 57.7519378,8.37836124 L57.7519378,3.48757177 C57.7519378,3.02501196 57.3554067,3.02501196 56.9592344,3.02501196 L52.5955981,3.02501196 C52.199067,3.02501196 51.8028947,3.02501196 51.8028947,3.48757177 L51.8028947,8.37836124 C51.8028947,8.84163876 52.199067,8.84163876 52.5955981,8.84163876"/>
    <path fill="red" d="M52.5955981,17.1512799 L56.9592344,17.1512799 C57.3554067,17.1512799 57.7519378,17.1512799 57.7519378,16.6887201 L57.7519378,11.7979306 C57.7519378,11.3353708 57.3554067,11.3353708 56.9592344,11.3353708 L52.5955981,11.3353708 C52.199067,11.3353708 51.8028947,11.3353708 51.8028947,11.7979306 L51.8028947,16.6887201 C51.8028947,17.1512799 52.199067,17.1512799 52.5955981,17.1512799"/>
    <polygon fill="#535353" points="65.815 .359 72.569 13.866 79.321 .359 83.908 .359 75.499 17.177 69.639 17.177 61.229 .359"/>
    <polygon fill="#535353" points="88.181 .359 107.036 .359 107.036 3.162 92.512 3.162 92.512 6.603 105.763 6.603 105.763 9.406 92.512 9.406 92.512 14.375 107.036 14.375 107.036 17.177 88.181 17.177"/>
    <polygon fill="#535353" points="111.787 .359 133.446 .359 133.446 3.162 124.784 3.162 124.784 17.177 120.452 17.177 120.452 3.162 111.787 3.162"/>
    <path fill="#FC0" d="M52.5955981,25.4616388 L56.9592344,25.4616388 C57.3554067,25.4616388 57.7519378,25.4616388 57.7519378,24.9990789 L57.7519378,20.1075718 C57.7519378,19.645012 57.3554067,19.645012 56.9592344,19.645012 L52.5955981,19.645012 C52.199067,19.645012 51.8028947,19.645012 51.8028947,20.1075718 L51.8028947,24.9990789 C51.8028947,25.4616388 52.199067,25.4616388 52.5955981,25.4616388"/>
    <path fill="#000" d="M66.8334689 24.0928349L66.1017703 24.0928349 66.1017703 23.8215431 67.145311 23.8215431 67.145311 25.389366C66.8248565 25.5293182 66.5126555 25.5835048 66.1649282 25.5835048 65.1712679 25.5835048 64.5748565 24.9282416 64.5748565 23.9525239 64.5748565 22.9951077 65.1892105 22.3215431 66.1649282 22.3215431 66.4046411 22.3215431 66.7972249 22.3624522 67.0096651 22.4708254L66.9737799 22.7600598C66.7297608 22.6244139 66.4405263 22.5928349 66.1649282 22.5928349 65.3471053 22.5928349 64.8863397 23.1713038 64.8863397 23.9525239 64.8863397 24.7477392 65.3338278 25.3122129 66.1649282 25.3122129 66.3594258 25.3122129 66.6845455 25.2899641 66.8334689 25.1995335L66.8334689 24.0928349zM69.3076077 24.2147727C69.3076077 23.8125 69.1450478 23.4148923 68.7205263 23.4148923 68.300311 23.4148923 68.0430144 23.8351077 68.0430144 24.2147727L69.3076077 24.2147727zM69.4479187 25.4571172C69.2491148 25.5382177 68.9914593 25.583433 68.7790191 25.583433 68.0157416 25.583433 67.7311722 25.0684809 67.7311722 24.3773325 67.7311722 23.6725478 68.1194498 23.1712321 68.7022249 23.1712321 69.352823 23.1712321 69.6194498 23.6955144 69.6194498 24.3141746L69.6194498 24.4587919 68.0430144 24.4587919C68.0430144 24.9464713 68.3049761 25.3397727 68.8019856 25.3397727 69.0097608 25.3397727 69.3122727 25.2536483 69.4479187 25.1678828L69.4479187 25.4571172zM70.1605622 23.7402632C70.1605622 23.4872727 70.1605622 23.3925359 70.1426196 23.225311L70.427189 23.225311 70.427189 23.668134 70.4365191 23.668134C70.5402273 23.4108373 70.734366 23.1711244 71.0279067 23.1711244 71.0957297 23.1711244 71.177189 23.1847608 71.2270694 23.1983971L71.2270694 23.496244C71.1682177 23.4783014 71.0914234 23.4693301 71.0192943 23.4693301 70.5675 23.4693301 70.4451316 23.9749522 70.4451316 24.3905024L70.4451316 25.5291388 70.1605622 25.5291388 70.1605622 23.7402632zM74.4468301 25.5292823L74.4468301 23.9977033C74.4468301 23.6725837 74.3248206 23.4149282 73.9591507 23.4149282 73.6469498 23.4149282 73.3401316 23.681555 73.3401316 24.2553589L73.3401316 25.5292823 73.0555622 25.5292823 73.0555622 23.9977033C73.0555622 23.6725837 72.9335526 23.4149282 72.5675239 23.4149282 72.2560407 23.4149282 71.9485048 23.681555 71.9485048 24.2553589L71.9485048 25.5292823 71.6639354 25.5292823 71.6639354 23.7676794C71.6639354 23.5914833 71.6639354 23.4109809 71.6459928 23.2254545L71.9215909 23.2254545 71.9215909 23.6140909 71.9305622 23.6183971C72.0209928 23.4601435 72.1562799 23.1712679 72.6489833 23.1712679 72.8524522 23.1712679 73.1861842 23.2570335 73.2586722 23.6589474L73.2680024 23.6589474C73.3717105 23.3880144 73.6426435 23.1712679 74.004366 23.1712679 74.4690789 23.1712679 74.7313995 23.4963876 74.7313995 23.9435167L74.7313995 25.5292823 74.4468301 25.5292823zM76.7222368 24.3682536L76.6407775 24.3682536C76.148433 24.3682536 75.5613517 24.418134 75.5613517 24.9241148 75.5613517 25.2269856 75.7780981 25.3396651 76.0400598 25.3396651 76.7086005 25.3396651 76.7222368 24.7565311 76.7222368 24.5085646L76.7222368 24.3682536zM76.7491507 25.1588038L76.7405383 25.1588038C76.6138636 25.4344019 76.2930502 25.5836842 76.0084809 25.5836842 75.3535766 25.5836842 75.2495096 25.1405024 75.2495096 24.9330861 75.2495096 24.1604785 76.0719976 24.1242344 76.6680502 24.1242344L76.7222368 24.1242344 76.7222368 24.00689C76.7222368 23.6139474 76.5819258 23.4151435 76.1983134 23.4151435 75.9586005 23.4151435 75.7328828 23.4693301 75.5204426 23.6049761L75.5204426 23.329378C75.6969976 23.2432536 75.9952033 23.1711244 76.1983134 23.1711244 76.7674522 23.1711244 77.0068062 23.4287799 77.0068062 24.0298565L77.0068062 25.0461244C77.0068062 25.230933 77.0068062 25.371244 77.0294139 25.5291388L76.7491507 25.5291388 76.7491507 25.1588038zM77.683134 23.7676077C77.683134 23.5914115 77.683134 23.4109091 77.6651914 23.2253828L77.9407895 23.2253828 77.9407895 23.6366268 77.9497608 23.6366268C78.0448565 23.4288517 78.2160287 23.1711962 78.6950957 23.1711962 79.2642344 23.1711962 79.4813397 23.5508612 79.4813397 24.0564833L79.4813397 25.5292105 79.1967703 25.5292105 79.1967703 24.1289713C79.1967703 23.6954785 79.042823 23.4152153 78.6498804 23.4152153 78.130622 23.4152153 77.9677033 23.8713158 77.9677033 24.2552871L77.9677033 25.5292105 77.683134 25.5292105 77.683134 23.7676077zM81.6483732 23.9526316C81.6483732 24.6211722 81.9824641 25.3123206 82.7234928 25.3123206 83.4645215 25.3123206 83.7982536 24.6211722 83.7982536 23.9526316 83.7982536 23.2840909 83.4645215 22.5929426 82.7234928 22.5929426 81.9824641 22.5929426 81.6483732 23.2840909 81.6483732 23.9526316M82.7234928 22.3216507C83.6722967 22.3216507 84.1194258 23.0989234 84.1100957 23.9526316 84.1011244 24.919378 83.6313876 25.5836124 82.7234928 25.5836124 81.8155981 25.5836124 81.3455024 24.919378 81.3365311 23.9526316 81.327201 23.0989234 81.774689 22.3216507 82.7234928 22.3216507M84.9039833 23.4694019L84.4385526 23.4694019 84.4385526 23.2253828 84.9039833 23.2253828 84.9039833 23.0581579C84.9039833 22.5747847 84.9219258 22.0867464 85.5136722 22.0867464 85.6041029 22.0867464 85.7261124 22.1007416 85.7799402 22.1319617L85.7623565 22.3806459C85.7035048 22.349067 85.6173804 22.3307656 85.5362799 22.3307656 85.1480024 22.3307656 85.1885526 22.7513397 85.1885526 23.0269378L85.1885526 23.2253828 85.707811 23.2253828 85.707811 23.4694019 85.1885526 23.4694019 85.1885526 25.5292105 84.9039833 25.5292105 84.9039833 23.4694019z"/>
    <mask id="go_vet-f" fill="#fff">
      <use xlink:href="#go_vet-e"/>
    </mask>
    <path fill="#000" d="M87.5956938 25.52939L87.8802632 25.52939 87.8802632 23.2255622 87.5956938 23.2255622 87.5956938 25.52939zM87.5956938 22.6112081L87.8802632 22.6112081 87.8802632 22.2315431 87.5956938 22.2315431 87.5956938 22.6112081zM86.3264354 23.4692225L85.8610048 23.4692225 85.8610048 23.2255622 86.3264354 23.2255622 86.3264354 23.0583373C86.3264354 22.5746053 86.344378 22.0869258 86.9361244 22.0869258 87.026555 22.0869258 87.1485646 22.1005622 87.2023923 22.1321411L87.1848086 22.3804665C87.1255981 22.3488876 87.0398325 22.330945 86.9587321 22.330945 86.5704545 22.330945 86.6110048 22.7511603 86.6110048 23.0267584L86.6110048 23.2255622 87.1302632 23.2255622 87.1302632 23.4692225 86.6110048 23.4692225 86.6110048 25.52939 86.3264354 25.52939 86.3264354 23.4692225zM90.1423565 23.532811C89.9887679 23.464988 89.8036005 23.4151077 89.650012 23.4151077 89.0941507 23.4151077 88.7826675 23.8173804 88.7826675 24.3775478 88.7826675 24.9011124 89.0988158 25.3396292 89.618433 25.3396292 89.7989354 25.3396292 89.9661603 25.2990789 90.1376914 25.2355622L90.1649641 25.502189C89.9704665 25.570012 89.790323 25.5836483 89.5732177 25.5836483 88.8325478 25.5836483 88.4711842 25.0188158 88.4711842 24.3775478 88.4711842 23.6680981 88.9269258 23.1710885 89.6094617 23.1710885 89.884701 23.1710885 90.0835048 23.2342464 90.1649641 23.2615191L90.1423565 23.532811zM92.0522727 24.2147727C92.0522727 23.8125 91.8897129 23.4148923 91.4651914 23.4148923 91.0449761 23.4148923 90.7876794 23.8351077 90.7876794 24.2147727L92.0522727 24.2147727zM92.1925837 25.4571172C91.9937799 25.5382177 91.7361244 25.583433 91.5236842 25.583433 90.7604067 25.583433 90.4758373 25.0684809 90.4758373 24.3773325 90.4758373 23.6725478 90.8641148 23.1712321 91.44689 23.1712321 92.097488 23.1712321 92.3641148 23.6955144 92.3641148 24.3141746L92.3641148 24.4587919 90.7876794 24.4587919C90.7876794 24.9464713 91.0496411 25.3397727 91.5466507 25.3397727 91.7544258 25.3397727 92.0569378 25.2536483 92.1925837 25.1678828L92.1925837 25.4571172zM94.3550239 23.4694019L93.8895933 23.4694019 93.8895933 23.2253828 94.3550239 23.2253828 94.3550239 23.0581579C94.3550239 22.5747847 94.3729665 22.0867464 94.9647129 22.0867464 95.0551435 22.0867464 95.1771531 22.1007416 95.2309809 22.1319617L95.2133971 22.3806459C95.1545455 22.349067 95.0684211 22.3307656 94.9873206 22.3307656 94.5990431 22.3307656 94.6395933 22.7513397 94.6395933 23.0269378L94.6395933 23.2253828 95.1588517 23.2253828 95.1588517 23.4694019 94.6395933 23.4694019 94.6395933 25.5292105 94.3550239 25.5292105 94.3550239 23.4694019zM96.5631459 25.339701C97.0601555 25.339701 97.3264234 24.9105144 97.3264234 24.3772608 97.3264234 23.844366 97.0601555 23.4151794 96.5631459 23.4151794 96.0661364 23.4151794 95.7995096 23.844366 95.7995096 24.3772608 95.7995096 24.9105144 96.0661364 25.339701 96.5631459 25.339701M96.5631459 23.1711603C97.3084809 23.1711603 97.6382656 23.7492703 97.6382656 24.3772608 97.6382656 25.0052512 97.3084809 25.5837201 96.5631459 25.5837201 95.817811 25.5837201 95.4880263 25.0052512 95.4880263 24.3772608 95.4880263 23.7492703 95.817811 23.1711603 96.5631459 23.1711603M98.1744976 23.7402632C98.1744976 23.4872727 98.1744976 23.3925359 98.156555 23.225311L98.4411244 23.225311 98.4411244 23.668134 98.4504545 23.668134C98.5541627 23.4108373 98.7483014 23.1711244 99.0418421 23.1711244 99.1096651 23.1711244 99.1911244 23.1847608 99.2410048 23.1983971L99.2410048 23.496244C99.1821531 23.4783014 99.1053589 23.4693301 99.0332297 23.4693301 98.5814354 23.4693301 98.459067 23.9749522 98.459067 24.3905024L98.459067 25.5291388 98.1744976 25.5291388 98.1744976 23.7402632z" mask="url(#go_vet-f)"/>
    <polygon fill="#000" points="100.925 25.529 101.359 25.529 101.359 22.377 100.925 22.377" mask="url(#go_vet-f)"/>
    <path fill="#000" d="M101.936124 23.7676077C101.936124 23.5914115 101.936124 23.4109091 101.918182 23.2253828L102.19378 23.2253828 102.19378 23.6366268 102.202751 23.6366268C102.297847 23.4288517 102.469019 23.1711962 102.948086 23.1711962 103.517225 23.1711962 103.73433 23.5508612 103.73433 24.0564833L103.73433 25.5292105 103.449761 25.5292105 103.449761 24.1289713C103.449761 23.6954785 103.295813 23.4152153 102.902871 23.4152153 102.383612 23.4152153 102.220694 23.8713158 102.220694 24.2552871L102.220694 25.5292105 101.936124 25.5292105 101.936124 23.7676077zM105.440526 23.4694019L104.916603 23.4694019 104.916603 24.9600718C104.916603 25.1678469 104.993397 25.3397368 105.22378 25.3397368 105.332153 25.3397368 105.404282 25.3167703 105.485742 25.2855502L105.504043 25.5202392C105.435861 25.5471531 105.296268 25.583756 105.155957 25.583756 104.649976 25.583756 104.632033 25.2356699 104.632033 24.8154545L104.632033 23.4694019 104.180239 23.4694019 104.180239 23.2253828 104.632033 23.2253828 104.632033 22.6695215 104.916603 22.5704785 104.916603 23.2253828 105.440526 23.2253828 105.440526 23.4694019zM107.355323 24.2147727C107.355323 23.8125 107.192763 23.4148923 106.768242 23.4148923 106.348026 23.4148923 106.09073 23.8351077 106.09073 24.2147727L107.355323 24.2147727zM107.495634 25.4571172C107.29683 25.5382177 107.039175 25.583433 106.826734 25.583433 106.063457 25.583433 105.778888 25.0684809 105.778888 24.3773325 105.778888 23.6725478 106.167165 23.1712321 106.74994 23.1712321 107.400538 23.1712321 107.667165 23.6955144 107.667165 24.3141746L107.667165 24.4587919 106.09073 24.4587919C106.09073 24.9464713 106.352691 25.3397727 106.849701 25.3397727 107.057476 25.3397727 107.359988 25.2536483 107.495634 25.1678828L107.495634 25.4571172zM108.207955 23.7402632C108.207955 23.4872727 108.207955 23.3925359 108.190012 23.225311L108.474581 23.225311 108.474581 23.668134 108.483911 23.668134C108.58762 23.4108373 108.781758 23.1711244 109.075299 23.1711244 109.143122 23.1711244 109.224581 23.1847608 109.274462 23.1983971L109.274462 23.496244C109.21561 23.4783014 109.138816 23.4693301 109.066687 23.4693301 108.614892 23.4693301 108.492524 23.9749522 108.492524 24.3905024L108.492524 25.5291388 108.207955 25.5291388 108.207955 23.7402632zM109.793002 23.7676077C109.793002 23.5914115 109.793002 23.4109091 109.77506 23.2253828L110.050658 23.2253828 110.050658 23.6366268 110.059629 23.6366268C110.154725 23.4288517 110.325897 23.1711962 110.804964 23.1711962 111.374103 23.1711962 111.591208 23.5508612 111.591208 24.0564833L111.591208 25.5292105 111.306639 25.5292105 111.306639 24.1289713C111.306639 23.6954785 111.152691 23.4152153 110.759749 23.4152153 110.24049 23.4152153 110.077572 23.8713158 110.077572 24.2552871L110.077572 25.5292105 109.793002 25.5292105 109.793002 23.7676077zM113.600203 24.3682536L113.518744 24.3682536C113.0264 24.3682536 112.439318 24.418134 112.439318 24.9241148 112.439318 25.2269856 112.656065 25.3396651 112.918026 25.3396651 113.586567 25.3396651 113.600203 24.7565311 113.600203 24.5085646L113.600203 24.3682536zM113.627117 25.1588038L113.618505 25.1588038C113.49183 25.4344019 113.171017 25.5836842 112.886447 25.5836842 112.231543 25.5836842 112.127476 25.1405024 112.127476 24.9330861 112.127476 24.1604785 112.949964 24.1242344 113.546017 24.1242344L113.600203 24.1242344 113.600203 24.00689C113.600203 23.6139474 113.459892 23.4151435 113.07628 23.4151435 112.836567 23.4151435 112.610849 23.4693301 112.398409 23.6049761L112.398409 23.329378C112.574964 23.2432536 112.87317 23.1711244 113.07628 23.1711244 113.645419 23.1711244 113.884773 23.4287799 113.884773 24.0298565L113.884773 25.0461244C113.884773 25.230933 113.884773 25.371244 113.90738 25.5291388L113.627117 25.5291388 113.627117 25.1588038zM115.555299 23.4694019L115.031376 23.4694019 115.031376 24.9600718C115.031376 25.1678469 115.10817 25.3397368 115.338553 25.3397368 115.446926 25.3397368 115.519055 25.3167703 115.600514 25.2855502L115.618816 25.5202392C115.550634 25.5471531 115.411041 25.583756 115.27073 25.583756 114.764749 25.583756 114.746806 25.2356699 114.746806 24.8154545L114.746806 23.4694019 114.295012 23.4694019 114.295012 23.2253828 114.746806 23.2253828 114.746806 22.6695215 115.031376 22.5704785 115.031376 23.2253828 115.555299 23.2253828 115.555299 23.4694019zM116.064833 25.52939L116.461333 25.52939 116.461333 23.2255622 116.064833 23.2255622 116.064833 25.52939zM116.064833 22.6112081L116.461333 22.6112081 116.461333 22.2315431 116.064833 22.2315431 116.064833 22.6112081zM117.966711 25.339701C118.46372 25.339701 118.729988 24.9105144 118.729988 24.3772608 118.729988 23.844366 118.46372 23.4151794 117.966711 23.4151794 117.469701 23.4151794 117.203074 23.844366 117.203074 24.3772608 117.203074 24.9105144 117.469701 25.339701 117.966711 25.339701M117.966711 23.1711603C118.712045 23.1711603 119.04183 23.7492703 119.04183 24.3772608 119.04183 25.0052512 118.712045 25.5837201 117.966711 25.5837201 117.221376 25.5837201 116.891591 25.0052512 116.891591 24.3772608 116.891591 23.7492703 117.221376 23.1711603 117.966711 23.1711603M119.578026 23.7676077C119.578026 23.5914115 119.578026 23.4109091 119.560084 23.2253828L119.835682 23.2253828 119.835682 23.6366268 119.844653 23.6366268C119.939749 23.4288517 120.110921 23.1711962 120.589988 23.1711962 121.159127 23.1711962 121.376232 23.5508612 121.376232 24.0564833L121.376232 25.5292105 121.091663 25.5292105 121.091663 24.1289713C121.091663 23.6954785 120.937715 23.4152153 120.544773 23.4152153 120.025514 23.4152153 119.862596 23.8713158 119.862596 24.2552871L119.862596 25.5292105 119.578026 25.5292105 119.578026 23.7676077zM123.385227 24.3682536L123.303768 24.3682536C122.811423 24.3682536 122.224342 24.418134 122.224342 24.9241148 122.224342 25.2269856 122.441089 25.3396651 122.70305 25.3396651 123.371591 25.3396651 123.385227 24.7565311 123.385227 24.5085646L123.385227 24.3682536zM123.412141 25.1588038L123.403529 25.1588038C123.276854 25.4344019 122.956041 25.5836842 122.671471 25.5836842 122.016567 25.5836842 121.9125 25.1405024 121.9125 24.9330861 121.9125 24.1604785 122.734988 24.1242344 123.331041 24.1242344L123.385227 24.1242344 123.385227 24.00689C123.385227 23.6139474 123.244916 23.4151435 122.861304 23.4151435 122.621591 23.4151435 122.395873 23.4693301 122.183433 23.6049761L122.183433 23.329378C122.359988 23.2432536 122.658194 23.1711244 122.861304 23.1711244 123.430443 23.1711244 123.669797 23.4287799 123.669797 24.0298565L123.669797 25.0461244C123.669797 25.230933 123.669797 25.371244 123.692404 25.5291388L123.412141 25.5291388 123.412141 25.1588038z" mask="url(#go_vet-f)"/>
    <polygon fill="#000" points="124.346 25.529 124.743 25.529 124.743 22.141 124.346 22.141" mask="url(#go_vet-f)"/>
    <path fill="#000" d="M128.799545 22.7285526C128.600742 22.6244856 128.316172 22.5929067 128.094761 22.5929067 127.277297 22.5929067 126.816531 23.1710167 126.816531 23.9525957 126.816531 24.747811 127.26366 25.3122847 128.094761 25.3122847 128.302536 25.3122847 128.619043 25.2853708 128.799545 25.1769976L128.817847 25.4479306C128.645957 25.5519976 128.293565 25.5835766 128.094761 25.5835766 127.1011 25.5835766 126.504689 24.9283134 126.504689 23.9525957 126.504689 22.9951794 127.119043 22.3216148 128.094761 22.3216148 128.280287 22.3216148 128.655287 22.3535526 128.817847 22.4393182L128.799545 22.7285526zM130.515287 25.339701C131.012297 25.339701 131.278565 24.9105144 131.278565 24.3772608 131.278565 23.844366 131.012297 23.4151794 130.515287 23.4151794 130.018278 23.4151794 129.751651 23.844366 129.751651 24.3772608 129.751651 24.9105144 130.018278 25.339701 130.515287 25.339701M130.515287 23.1711603C131.260622 23.1711603 131.590407 23.7492703 131.590407 24.3772608 131.590407 25.0052512 131.260622 25.5837201 130.515287 25.5837201 129.769952 25.5837201 129.440167 25.0052512 129.440167 24.3772608 129.440167 23.7492703 129.769952 23.1711603 130.515287 23.1711603M133.025849 25.339701C133.522859 25.339701 133.789127 24.9105144 133.789127 24.3772608 133.789127 23.844366 133.522859 23.4151794 133.025849 23.4151794 132.52884 23.4151794 132.262213 23.844366 132.262213 24.3772608 132.262213 24.9105144 132.52884 25.339701 133.025849 25.339701M133.025849 23.1711603C133.771184 23.1711603 134.100969 23.7492703 134.100969 24.3772608 134.100969 25.0052512 133.771184 25.5837201 133.025849 25.5837201 132.280514 25.5837201 131.95073 25.0052512 131.95073 24.3772608 131.95073 23.7492703 132.280514 23.1711603 133.025849 23.1711603M135.577069 23.4150718C135.071089 23.4150718 134.894892 23.9572967 134.894892 24.377512 134.894892 24.7973684 135.071089 25.3395933 135.577069 25.3395933 136.118935 25.3395933 136.258888 24.8246411 136.258888 24.377512 136.258888 23.9303828 136.118935 23.4150718 135.577069 23.4150718zM134.610323 23.2255981L134.894892 23.2255981 134.87695 23.6458134 134.885562 23.6458134C134.95805 23.5187799 135.134246 23.1710526 135.622285 23.1710526 136.299797 23.1710526 136.571089 23.6770335 136.571089 24.377512 136.571089 25.0593301 136.254581 25.5836124 135.622285 25.5836124 135.260562 25.5836124 135.044175 25.4343301 134.903864 25.1364833L134.894892 25.1364833 134.894892 26.4778708 134.610323 26.4778708 134.610323 23.2255981zM138.552667 24.2147727C138.552667 23.8125 138.390108 23.4148923 137.965586 23.4148923 137.545371 23.4148923 137.288074 23.8351077 137.288074 24.2147727L138.552667 24.2147727zM138.692978 25.4571172C138.494175 25.5382177 138.236519 25.583433 138.024079 25.583433 137.260801 25.583433 136.976232 25.0684809 136.976232 24.3773325 136.976232 23.6725478 137.36451 23.1712321 137.947285 23.1712321 138.597883 23.1712321 138.86451 23.6955144 138.86451 24.3141746L138.86451 24.4587919 137.288074 24.4587919C137.288074 24.9464713 137.550036 25.3397727 138.047045 25.3397727 138.254821 25.3397727 138.557333 25.2536483 138.692978 25.1678828L138.692978 25.4571172zM139.405622 23.7402632C139.405622 23.4872727 139.405622 23.3925359 139.387679 23.225311L139.672249 23.225311 139.672249 23.668134 139.681579 23.668134C139.785287 23.4108373 139.979426 23.1711244 140.272967 23.1711244 140.340789 23.1711244 140.422249 23.1847608 140.472129 23.1983971L140.472129 23.496244C140.413278 23.4783014 140.336483 23.4693301 140.264354 23.4693301 139.81256 23.4693301 139.690191 23.9749522 139.690191 24.3905024L139.690191 25.5291388 139.405622 25.5291388 139.405622 23.7402632zM142.205993 24.3682536L142.124533 24.3682536C141.632189 24.3682536 141.045108 24.418134 141.045108 24.9241148 141.045108 25.2269856 141.261854 25.3396651 141.523816 25.3396651 142.192356 25.3396651 142.205993 24.7565311 142.205993 24.5085646L142.205993 24.3682536zM142.232907 25.1588038L142.224294 25.1588038C142.09762 25.4344019 141.776806 25.5836842 141.492237 25.5836842 140.837333 25.5836842 140.733266 25.1405024 140.733266 24.9330861 140.733266 24.1604785 141.555754 24.1242344 142.151806 24.1242344L142.205993 24.1242344 142.205993 24.00689C142.205993 23.6139474 142.065682 23.4151435 141.682069 23.4151435 141.442356 23.4151435 141.216639 23.4693301 141.004199 23.6049761L141.004199 23.329378C141.180754 23.2432536 141.478959 23.1711244 141.682069 23.1711244 142.251208 23.1711244 142.490562 23.4287799 142.490562 24.0298565L142.490562 25.0461244C142.490562 25.230933 142.490562 25.371244 142.51317 25.5291388L142.232907 25.5291388 142.232907 25.1588038zM144.160766 23.4694019L143.636842 23.4694019 143.636842 24.9600718C143.636842 25.1678469 143.713636 25.3397368 143.944019 25.3397368 144.052392 25.3397368 144.124522 25.3167703 144.205981 25.2855502L144.224282 25.5202392C144.1561 25.5471531 144.016507 25.583756 143.876196 25.583756 143.370215 25.583756 143.352273 25.2356699 143.352273 24.8154545L143.352273 23.4694019 142.900478 23.4694019 142.900478 23.2253828 143.352273 23.2253828 143.352273 22.6695215 143.636842 22.5704785 143.636842 23.2253828 144.160766 23.2253828 144.160766 23.4694019zM144.670694 25.52939L145.067194 25.52939 145.067194 23.2255622 144.670694 23.2255622 144.670694 25.52939zM144.670694 22.6112081L145.067194 22.6112081 145.067194 22.2315431 144.670694 22.2315431 144.670694 22.6112081zM146.572141 25.339701C147.069151 25.339701 147.335419 24.9105144 147.335419 24.3772608 147.335419 23.844366 147.069151 23.4151794 146.572141 23.4151794 146.075132 23.4151794 145.808505 23.844366 145.808505 24.3772608 145.808505 24.9105144 146.075132 25.339701 146.572141 25.339701M146.572141 23.1711603C147.317476 23.1711603 147.647261 23.7492703 147.647261 24.3772608 147.647261 25.0052512 147.317476 25.5837201 146.572141 25.5837201 145.826806 25.5837201 145.497022 25.0052512 145.497022 24.3772608 145.497022 23.7492703 145.826806 23.1711603 146.572141 23.1711603M148.183816 23.7676077C148.183816 23.5914115 148.183816 23.4109091 148.165873 23.2253828L148.441471 23.2253828 148.441471 23.6366268 148.450443 23.6366268C148.545538 23.4288517 148.716711 23.1711962 149.195778 23.1711962 149.764916 23.1711962 149.982022 23.5508612 149.982022 24.0564833L149.982022 25.5292105 149.697452 25.5292105 149.697452 24.1289713C149.697452 23.6954785 149.543505 23.4152153 149.150562 23.4152153 148.631304 23.4152153 148.468385 23.8713158 148.468385 24.2552871L148.468385 25.5292105 148.183816 25.5292105 148.183816 23.7676077zM64.6424641 30.9480502L65.0389641 30.9480502 65.0389641 28.6442225 64.6424641 28.6442225 64.6424641 30.9480502zM64.6424641 28.0295096L65.0389641 28.0295096 65.0389641 27.6502033 64.6424641 27.6502033 64.6424641 28.0295096zM65.6447727 29.1861244C65.6447727 29.0102871 65.6447727 28.8294258 65.6268301 28.6442584L65.9024282 28.6442584 65.9024282 29.0551435 65.9113995 29.0551435C66.0064952 28.8477273 66.1776675 28.5897129 66.6567344 28.5897129 67.2258732 28.5897129 67.4429785 28.969378 67.4429785 29.4753589L67.4429785 30.9480861 67.1584091 30.9480861 67.1584091 29.5478469C67.1584091 29.1139952 67.0044617 28.8337321 66.6115191 28.8337321 66.0922608 28.8337321 65.9293421 29.2898325 65.9293421 29.6738038L65.9293421 30.9480861 65.6447727 30.9480861 65.6447727 29.1861244z" mask="url(#go_vet-f)"/>
    <polygon fill="#000" points="70.59 30.948 70.256 30.948 69.081 27.795 69.411 27.795 70.428 30.636 71.48 27.795 71.787 27.795" mask="url(#go_vet-f)"/>
    <path fill="#000" d="M72.8207656 30.7582177C73.3177751 30.7582177 73.5840431 30.32939 73.5840431 29.7957775 73.5840431 29.2632416 73.3177751 28.8336962 72.8207656 28.8336962 72.323756 28.8336962 72.0571292 29.2632416 72.0571292 29.7957775 72.0571292 30.32939 72.323756 30.7582177 72.8207656 30.7582177M72.8207656 28.589677C73.5661005 28.589677 73.8958852 29.1677871 73.8958852 29.7957775 73.8958852 30.4237679 73.5661005 31.0022368 72.8207656 31.0022368 72.0754306 31.0022368 71.7456459 30.4237679 71.7456459 29.7957775 71.7456459 29.1677871 72.0754306 28.589677 72.8207656 28.589677M75.9319737 28.9513278C75.7783852 28.8835048 75.5932177 28.8336244 75.4396292 28.8336244 74.8837679 28.8336244 74.5722847 29.2358971 74.5722847 29.7960646 74.5722847 30.319988 74.888433 30.7581459 75.4080502 30.7581459 75.5885526 30.7581459 75.7557775 30.7175957 75.9273086 30.6544378L75.9545813 30.9207057C75.7600837 30.9888876 75.5799402 31.0021651 75.3628349 31.0021651 74.6221651 31.0021651 74.2608014 30.4376914 74.2608014 29.7960646 74.2608014 29.0866148 74.7165431 28.5896053 75.3990789 28.5896053 75.6743182 28.5896053 75.873122 28.653122 75.9545813 28.6800359L75.9319737 28.9513278zM77.7335885 29.7868062L77.6521292 29.7868062C77.1597847 29.7868062 76.5727033 29.8366866 76.5727033 30.3426675 76.5727033 30.6455383 76.7894498 30.7582177 77.0514115 30.7582177 77.7199522 30.7582177 77.7335885 30.1754426 77.7335885 29.9271172L77.7335885 29.7868062zM77.7605024 30.5773565L77.75189 30.5773565C77.6252153 30.8533134 77.3044019 31.0022368 77.0198325 31.0022368 76.3649282 31.0022368 76.2608612 30.5594139 76.2608612 30.3516388 76.2608612 29.57939 77.0833493 29.5427871 77.6794019 29.5427871L77.7335885 29.5427871 77.7335885 29.4258014C77.7335885 29.0325 77.5932775 28.8336962 77.2096651 28.8336962 76.9699522 28.8336962 76.7442344 28.8882416 76.5317943 29.0235287L76.5317943 28.7479306C76.7083493 28.6621651 77.006555 28.589677 77.2096651 28.589677 77.7788038 28.589677 78.0181579 28.8476914 78.0181579 29.4484091L78.0181579 30.464677C78.0181579 30.6494856 78.0181579 30.7897967 78.0407656 30.9480502L77.7605024 30.9480502 77.7605024 30.5773565zM79.6887201 28.8882416L79.1647967 28.8882416 79.1647967 30.3789115C79.1647967 30.5863278 79.2415909 30.7582177 79.4719737 30.7582177 79.5803469 30.7582177 79.6524761 30.73561 79.7339354 30.70439L79.7522368 30.9390789C79.684055 30.9659928 79.5444617 31.0022368 79.4041507 31.0022368 78.8981699 31.0022368 78.8802273 30.6545096 78.8802273 30.2342943L78.8802273 28.8882416 78.428433 28.8882416 78.428433 28.6442225 78.8802273 28.6442225 78.8802273 28.0883612 79.1647967 27.9889593 79.1647967 28.6442225 79.6887201 28.6442225 79.6887201 28.8882416zM80.1983254 30.9480502L80.5948254 30.9480502 80.5948254 28.6442225 80.1983254 28.6442225 80.1983254 30.9480502zM80.1983254 28.0295096L80.5948254 28.0295096 80.5948254 27.6502033 80.1983254 27.6502033 80.1983254 28.0295096zM82.1000957 30.7582177C82.5971053 30.7582177 82.8633732 30.32939 82.8633732 29.7957775 82.8633732 29.2632416 82.5971053 28.8336962 82.1000957 28.8336962 81.6030861 28.8336962 81.3364593 29.2632416 81.3364593 29.7957775 81.3364593 30.32939 81.6030861 30.7582177 82.1000957 30.7582177M82.1000957 28.589677C82.8454306 28.589677 83.1752153 29.1677871 83.1752153 29.7957775 83.1752153 30.4237679 82.8454306 31.0022368 82.1000957 31.0022368 81.3547608 31.0022368 81.0249761 30.4237679 81.0249761 29.7957775 81.0249761 29.1677871 81.3547608 28.589677 82.1000957 28.589677M83.7114115 29.1861244C83.7114115 29.0102871 83.7114115 28.8294258 83.6934689 28.6442584L83.969067 28.6442584 83.969067 29.0551435 83.9780383 29.0551435C84.073134 28.8477273 84.2443062 28.5897129 84.7233732 28.5897129 85.292512 28.5897129 85.5096172 28.969378 85.5096172 29.4753589L85.5096172 30.9480861 85.2250478 30.9480861 85.2250478 29.5478469C85.2250478 29.1139952 85.0711005 28.8337321 84.6781579 28.8337321 84.1588995 28.8337321 83.9959809 29.2898325 83.9959809 29.6738038L83.9959809 30.9480861 83.7114115 30.9480861 83.7114115 29.1861244zM87.5186124 29.7868062L87.4371531 29.7868062C86.9448086 29.7868062 86.3577273 29.8366866 86.3577273 30.3426675 86.3577273 30.6455383 86.5744737 30.7582177 86.8364354 30.7582177 87.5049761 30.7582177 87.5186124 30.1754426 87.5186124 29.9271172L87.5186124 29.7868062zM87.5455263 30.5773565L87.5369139 30.5773565C87.4102392 30.8533134 87.0894258 31.0022368 86.8048565 31.0022368 86.1499522 31.0022368 86.0458852 30.5594139 86.0458852 30.3516388 86.0458852 29.57939 86.8683732 29.5427871 87.4644258 29.5427871L87.5186124 29.5427871 87.5186124 29.4258014C87.5186124 29.0325 87.3783014 28.8336962 86.994689 28.8336962 86.7549761 28.8336962 86.5292584 28.8882416 86.3168182 29.0235287L86.3168182 28.7479306C86.4933732 28.6621651 86.7915789 28.589677 86.994689 28.589677 87.5638278 28.589677 87.8031818 28.8476914 87.8031818 29.4484091L87.8031818 30.464677C87.8031818 30.6494856 87.8031818 30.7897967 87.8257895 30.9480502L87.5455263 30.9480502 87.5455263 30.5773565z" mask="url(#go_vet-f)"/>
    <polygon fill="#000" points="88.48 30.948 88.876 30.948 88.876 27.56 88.48 27.56" mask="url(#go_vet-f)"/>
    <polygon fill="#000" points="90.769 27.795 92.314 27.795 92.314 28.066 91.081 28.066 91.081 29.191 92.251 29.191 92.251 29.462 91.081 29.462 91.081 30.677 92.368 30.677 92.368 30.948 90.769 30.948" mask="url(#go_vet-f)"/>
    <path fill="#000" d="M93.8538876 30.7582177C94.3595096 30.7582177 94.5357057 30.2159928 94.5357057 29.7957775 94.5357057 29.3759211 94.3595096 28.8336962 93.8538876 28.8336962 93.3116627 28.8336962 93.1717105 29.3486483 93.1717105 29.7957775 93.1717105 30.2429067 93.3116627 30.7582177 93.8538876 30.7582177zM94.8202751 30.9480502L94.5357057 30.9480502 94.5357057 30.5823804 94.5267344 30.5823804C94.3731459 30.8755622 94.1384569 31.0022368 93.8086722 31.0022368 93.1760167 31.0022368 92.8598684 30.4783134 92.8598684 29.7957775 92.8598684 29.0956579 93.1308014 28.589677 93.8086722 28.589677 94.2604665 28.589677 94.4861842 28.9198206 94.5267344 29.0325L94.5357057 29.0325 94.5357057 27.5601316 94.8202751 27.5601316 94.8202751 30.9480502zM97.3039952 30.4056818C97.3039952 30.5822368 97.3039952 30.7627392 97.3219378 30.9482656L97.0463397 30.9482656 97.0463397 30.5366627 97.0373684 30.5366627C96.9426316 30.7447967 96.7711005 31.0020933 96.2920335 31.0020933 95.7228947 31.0020933 95.5057895 30.6227871 95.5057895 30.1168062L95.5057895 28.6444378 95.7903589 28.6444378 95.7903589 30.044677C95.7903589 30.4781699 95.9443062 30.7580742 96.3372488 30.7580742 96.856866 30.7580742 97.0194258 30.3019737 97.0194258 29.9180024L97.0194258 28.6444378 97.3039952 28.6444378 97.3039952 30.4056818zM99.5163158 28.9513278C99.3627273 28.8835048 99.1775598 28.8336244 99.0239713 28.8336244 98.46811 28.8336244 98.1566268 29.2358971 98.1566268 29.7960646 98.1566268 30.319988 98.4727751 30.7581459 98.9923923 30.7581459 99.1728947 30.7581459 99.3401196 30.7175957 99.5116507 30.6544378L99.5385646 30.9207057C99.3444258 30.9888876 99.1642823 31.0021651 98.947177 31.0021651 98.2065072 31.0021651 97.8451435 30.4376914 97.8451435 29.7960646 97.8451435 29.0866148 98.3008852 28.5896053 98.9834211 28.5896053 99.2586603 28.5896053 99.4574641 28.653122 99.5385646 28.6800359L99.5163158 28.9513278zM101.317931 29.7868062L101.236471 29.7868062C100.744127 29.7868062 100.157045 29.8366866 100.157045 30.3426675 100.157045 30.6455383 100.373792 30.7582177 100.635754 30.7582177 101.304294 30.7582177 101.317931 30.1754426 101.317931 29.9271172L101.317931 29.7868062zM101.344844 30.5773565L101.336232 30.5773565C101.209557 30.8533134 100.888744 31.0022368 100.604175 31.0022368 99.9492703 31.0022368 99.8452033 30.5594139 99.8452033 30.3516388 99.8452033 29.57939 100.667691 29.5427871 101.263744 29.5427871L101.317931 29.5427871 101.317931 29.4258014C101.317931 29.0325 101.17762 28.8336962 100.794007 28.8336962 100.554294 28.8336962 100.328577 28.8882416 100.116136 29.0235287L100.116136 28.7479306C100.292691 28.6621651 100.590897 28.589677 100.794007 28.589677 101.363146 28.589677 101.6025 28.8476914 101.6025 29.4484091L101.6025 30.464677C101.6025 30.6494856 101.6025 30.7897967 101.625108 30.9480502L101.344844 30.9480502 101.344844 30.5773565zM103.273062 28.8882416L102.749139 28.8882416 102.749139 30.3789115C102.749139 30.5863278 102.825933 30.7582177 103.056316 30.7582177 103.164689 30.7582177 103.236818 30.73561 103.318278 30.70439L103.336579 30.9390789C103.268397 30.9659928 103.128804 31.0022368 102.988493 31.0022368 102.482512 31.0022368 102.464569 30.6545096 102.464569 30.2342943L102.464569 28.8882416 102.012775 28.8882416 102.012775 28.6442225 102.464569 28.6442225 102.464569 28.0883612 102.749139 27.9889593 102.749139 28.6442225 103.273062 28.6442225 103.273062 28.8882416zM103.782775 30.9480502L104.179275 30.9480502 104.179275 28.6442225 103.782775 28.6442225 103.782775 30.9480502zM103.782775 28.0295096L104.179275 28.0295096 104.179275 27.6502033 103.782775 27.6502033 103.782775 28.0295096zM105.684438 30.7582177C106.181447 30.7582177 106.447715 30.32939 106.447715 29.7957775 106.447715 29.2632416 106.181447 28.8336962 105.684438 28.8336962 105.187428 28.8336962 104.920801 29.2632416 104.920801 29.7957775 104.920801 30.32939 105.187428 30.7582177 105.684438 30.7582177M105.684438 28.589677C106.429773 28.589677 106.759557 29.1677871 106.759557 29.7957775 106.759557 30.4237679 106.429773 31.0022368 105.684438 31.0022368 104.939103 31.0022368 104.609318 30.4237679 104.609318 29.7957775 104.609318 29.1677871 104.939103 28.589677 105.684438 28.589677M107.295754 29.1861244C107.295754 29.0102871 107.295754 28.8294258 107.277811 28.6442584L107.553409 28.6442584 107.553409 29.0551435 107.56238 29.0551435C107.657476 28.8477273 107.828648 28.5897129 108.307715 28.5897129 108.876854 28.5897129 109.093959 28.969378 109.093959 29.4753589L109.093959 30.9480861 108.80939 30.9480861 108.80939 29.5478469C108.80939 29.1139952 108.655443 28.8337321 108.2625 28.8337321 107.743242 28.8337321 107.580323 29.2898325 107.580323 29.6738038L107.580323 30.9480861 107.295754 30.9480861 107.295754 29.1861244zM112.358577 29.7868062L112.277117 29.7868062C111.784773 29.7868062 111.197691 29.8366866 111.197691 30.3426675 111.197691 30.6455383 111.414438 30.7582177 111.6764 30.7582177 112.34494 30.7582177 112.358577 30.1754426 112.358577 29.9271172L112.358577 29.7868062zM112.38549 30.5773565L112.376878 30.5773565C112.250203 30.8533134 111.92939 31.0022368 111.644821 31.0022368 110.989916 31.0022368 110.885849 30.5594139 110.885849 30.3516388 110.885849 29.57939 111.708337 29.5427871 112.30439 29.5427871L112.358577 29.5427871 112.358577 29.4258014C112.358577 29.0325 112.218266 28.8336962 111.834653 28.8336962 111.59494 28.8336962 111.369222 28.8882416 111.156782 29.0235287L111.156782 28.7479306C111.333337 28.6621651 111.631543 28.589677 111.834653 28.589677 112.403792 28.589677 112.643146 28.8476914 112.643146 29.4484091L112.643146 30.464677C112.643146 30.6494856 112.643146 30.7897967 112.665754 30.9480502L112.38549 30.9480502 112.38549 30.5773565zM113.31951 29.1861244C113.31951 29.0102871 113.31951 28.8294258 113.301567 28.6442584L113.577165 28.6442584 113.577165 29.0551435 113.586136 29.0551435C113.681232 28.8477273 113.852404 28.5897129 114.331471 28.5897129 114.90061 28.5897129 115.117715 28.969378 115.117715 29.4753589L115.117715 30.9480861 114.833146 30.9480861 114.833146 29.5478469C114.833146 29.1139952 114.679199 28.8337321 114.286256 28.8337321 113.766998 28.8337321 113.604079 29.2898325 113.604079 29.6738038L113.604079 30.9480861 113.31951 30.9480861 113.31951 29.1861244zM116.688983 30.7582177C117.194605 30.7582177 117.370801 30.2159928 117.370801 29.7957775 117.370801 29.3759211 117.194605 28.8336962 116.688983 28.8336962 116.146758 28.8336962 116.006806 29.3486483 116.006806 29.7957775 116.006806 30.2429067 116.146758 30.7582177 116.688983 30.7582177zM117.655371 30.9480502L117.370801 30.9480502 117.370801 30.5823804 117.36183 30.5823804C117.208242 30.8755622 116.973553 31.0022368 116.643768 31.0022368 116.011112 31.0022368 115.694964 30.4783134 115.694964 29.7957775 115.694964 29.0956579 115.965897 28.589677 116.643768 28.589677 117.095562 28.589677 117.32128 28.9198206 117.36183 29.0325L117.370801 29.0325 117.370801 27.5601316 117.655371 27.5601316 117.655371 30.9480502z" mask="url(#go_vet-f)"/>
    <polygon fill="#000" points="120.215 28.066 119.285 28.066 119.285 27.795 121.457 27.795 121.457 28.066 120.527 28.066 120.527 30.948 120.215 30.948" mask="url(#go_vet-f)"/>
    <path fill="#000" d="M121.438529 29.1591388C121.438529 28.9061483 121.438529 28.8110526 121.420586 28.6441866L121.705156 28.6441866 121.705156 29.0866507 121.714486 29.0866507C121.818194 28.8293541 122.012333 28.5896411 122.305873 28.5896411 122.373696 28.5896411 122.455156 28.6036364 122.505036 28.6169139L122.505036 28.9147608C122.446184 28.897177 122.36939 28.8882057 122.297261 28.8882057 121.845467 28.8882057 121.723098 29.3938278 121.723098 29.809378L121.723098 30.9480144 121.438529 30.9480144 121.438529 29.1591388zM124.2389 29.7868062L124.15744 29.7868062C123.665096 29.7868062 123.078014 29.8366866 123.078014 30.3426675 123.078014 30.6455383 123.294761 30.7582177 123.556722 30.7582177 124.225263 30.7582177 124.2389 30.1754426 124.2389 29.9271172L124.2389 29.7868062zM124.265813 30.5773565L124.257201 30.5773565C124.130526 30.8533134 123.809713 31.0022368 123.525144 31.0022368 122.870239 31.0022368 122.766172 30.5594139 122.766172 30.3516388 122.766172 29.57939 123.58866 29.5427871 124.184713 29.5427871L124.2389 29.5427871 124.2389 29.4258014C124.2389 29.0325 124.098589 28.8336962 123.714976 28.8336962 123.475263 28.8336962 123.249545 28.8882416 123.037105 29.0235287L123.037105 28.7479306C123.21366 28.6621651 123.511866 28.589677 123.714976 28.589677 124.284115 28.589677 124.523469 28.8476914 124.523469 29.4484091L124.523469 30.464677C124.523469 30.6494856 124.523469 30.7897967 124.546077 30.9480502L124.265813 30.9480502 124.265813 30.5773565zM125.20012 30.9480502L125.59662 30.9480502 125.59662 28.6442225 125.20012 28.6442225 125.20012 30.9480502zM125.20012 28.0295096L125.59662 28.0295096 125.59662 27.6502033 125.20012 27.6502033 125.20012 28.0295096zM126.202428 29.1861244C126.202428 29.0102871 126.202428 28.8294258 126.184486 28.6442584L126.460084 28.6442584 126.460084 29.0551435 126.469055 29.0551435C126.564151 28.8477273 126.735323 28.5897129 127.21439 28.5897129 127.783529 28.5897129 128.000634 28.969378 128.000634 29.4753589L128.000634 30.9480861 127.716065 30.9480861 127.716065 29.5478469C127.716065 29.1139952 127.562117 28.8337321 127.169175 28.8337321 126.649916 28.8337321 126.486998 29.2898325 126.486998 29.6738038L126.486998 30.9480861 126.202428 30.9480861 126.202428 29.1861244zM128.712919 30.9480502L129.109419 30.9480502 129.109419 28.6442225 128.712919 28.6442225 128.712919 30.9480502zM128.712919 28.0295096L129.109419 28.0295096 129.109419 27.6502033 128.712919 27.6502033 128.712919 28.0295096zM129.715227 29.1861244C129.715227 29.0102871 129.715227 28.8294258 129.697285 28.6442584L129.972883 28.6442584 129.972883 29.0551435 129.981854 29.0551435C130.07695 28.8477273 130.248122 28.5897129 130.727189 28.5897129 131.296328 28.5897129 131.513433 28.969378 131.513433 29.4753589L131.513433 30.9480861 131.228864 30.9480861 131.228864 29.5478469C131.228864 29.1139952 131.074916 28.8337321 130.681974 28.8337321 130.162715 28.8337321 129.999797 29.2898325 129.999797 29.6738038L129.999797 30.9480861 129.715227 30.9480861 129.715227 29.1861244zM133.066507 30.7042464C133.581818 30.7042464 133.766627 30.2162081 133.766627 29.7959928 133.766627 29.2404904 133.604067 28.8335526 133.084809 28.8335526 132.542584 28.8335526 132.402273 29.3488636 132.402273 29.7959928 132.402273 30.2481459 132.583134 30.7042464 133.066507 30.7042464zM134.051196 30.7580742C134.051196 31.3993421 133.761962 31.9236244 132.971411 31.9236244 132.669258 31.9236244 132.393301 31.8378589 132.275957 31.8019737L132.298565 31.5174043C132.474761 31.6078349 132.727751 31.6799641 132.976077 31.6799641 133.707775 31.6799641 133.771292 31.1463517 133.771292 30.4961124L133.761962 30.4961124C133.608732 30.8305622 133.355742 30.9482656 133.061842 30.9482656 132.325837 30.9482656 132.090789 30.3066388 132.090789 29.7959928 132.090789 29.0958732 132.361722 28.5895335 133.039593 28.5895335 133.346411 28.5895335 133.545215 28.6304426 133.757656 28.9060407L133.766627 28.9060407 133.766627 28.6444378 134.051196 28.6444378 134.051196 30.7580742z" mask="url(#go_vet-f)"/>
  </g>
</svg>
