<svg xmlns="http://www.w3.org/2000/svg" xmlns:xlink="http://www.w3.org/1999/xlink" width="120" height="51" viewBox="0 0 120 51">
  <defs>
    <polygon id="i_move-a" points="0 51 120 51 120 0 0 0"/>
  </defs>
  <g fill="none" fill-rule="evenodd">
    <path fill="#1D1D1B" d="M118.2998,10.1001 L117.7998,10.1001 L117.7998,9.6001 L118.2998,9.6001 C118.4998,9.6001 118.5998,9.7001 118.5998,9.8001 C118.5998,10.1001 118.4008,10.1001 118.2998,10.1001 Z M118.5998,10.4001 C118.6998,10.3001 118.9008,10.3001 118.9008,9.9001 C118.9008,9.4001 118.4998,9.3001 118.0998,9.3001 L117.4998,9.3001 L117.4998,11.2001 L117.7998,11.2001 L117.7998,10.4001 L118.1998,10.4001 L118.4998,11.2001 L118.9008,11.2001 L118.5998,10.4001 Z"/>
    <polygon fill="#1D1D1B" points="18.4 38.9 21.4 38.9 21.4 13 21.5 13 30.1 38.9 33.4 38.9 42.1 13 42.2 13 42.2 38.9 45.2 38.9 45.2 9.4 40.2 9.4 31.9 34.5 31.8 34.5 23.4 9.4 18.4 9.4"/>
    <path fill="#1D1D1B" d="M54.6001,24 C54.6001,18.7 55.5001,11.7 61.5001,11.7 C67.4001,11.7 68.3001,18.7 68.3001,24 C68.3001,29.3 67.4001,36.5 61.5001,36.5 C55.5001,36.6 54.6001,29.3 54.6001,24 M61.4001,39.3 C69.8001,39.3 71.9001,31.5 71.9001,24.1 C71.9001,16.6 69.9001,8.9 61.4001,8.9 C52.9001,8.9 50.9001,16.6 50.9001,24.1 C50.9001,31.5 53.0001,39.3 61.4001,39.3"/>
    <polygon fill="#1D1D1B" points="82.9 38.9 87.099 38.9 96.9 9.4 93.5 9.4 85.099 35.2 85 35.2 76.799 9.4 73.299 9.4"/>
    <polygon fill="#1D1D1B" points="99.8 38.9 114.5 38.9 114.5 36.099 103.2 36.099 103.2 24.799 113.6 24.799 113.6 22 103.2 22 103.2 12.2 114.1 12.2 114.1 9.4 99.8 9.4"/>
    <path fill="#1D1D1B" d="M7.2998,6.6001 C8.0998,6.6001 8.8998,6.3001 9.4998,5.6001 C10.1998,5.0001 10.4998,4.2001 10.4998,3.3001 C10.4998,2.4001 10.0998,1.6001 9.4998,1.0001 C8.8998,0.3001 8.0998,0.0001 7.1998,0.0001 C6.2998,0.0001 5.4998,0.4001 4.8998,1.0001 C4.2998,1.6001 3.9998,2.4001 3.9998,3.3001 C3.9998,4.2001 4.2998,5.0001 4.9998,5.7001 C5.5998,6.3001 6.3998,6.6001 7.2998,6.6001"/>
    <path fill="#FFCB00" d="M5.1001,32.4004 C5.1001,34.7994 4.8001,36.2994 4.2001,36.9004 C3.6001,37.4004 2.2001,37.7994 0.0001,38.0004 L0.0001,38.9004 L15.0001,38.9004 L15.0001,38.0004 C13.0001,37.7994 11.7001,37.4004 11.1001,36.7994 C10.6001,36.2004 10.3001,34.7004 10.3001,32.2994 L10.3001,29.2004 L5.1001,29.2004 L5.1001,32.4004 Z"/>
    <mask id="i_move-b" fill="#fff">
      <use xlink:href="#i_move-a"/>
    </mask>
    <polygon fill="#E20613" points="5.1 29.2 10.3 29.2 10.3 19 5.1 19" mask="url(#i_move-b)"/>
    <path fill="#1D1D1B" d="M10.2002,9.3999 C10.1002,9.3999 9.7002,9.5999 9.1002,9.7999 C7.7002,10.3999 5.1002,11.2999 1.5002,12.4999 L0.2002,12.8999 L0.2002,13.8999 C1.3002,13.5999 1.9002,13.3999 2.1002,13.3999 C2.3002,13.2999 2.6002,13.2999 2.8002,13.2999 C3.8002,13.2999 4.5002,13.6999 4.8002,14.5999 C5.0002,15.0999 5.1002,15.9999 5.1002,17.3999 L5.1002,18.9999 L10.3002,18.9999 L10.3002,9.8999 C10.3002,9.6999 10.3002,9.3999 10.2002,9.3999" mask="url(#i_move-b)"/>
    <polygon fill="#1D1D1B" points="30.9 47.4 30.9 50.9 30.1 50.9 30.1 47.4 29.2 47.4 29.2 46.7 31.9 46.7 31.9 47.4" mask="url(#i_move-b)"/>
    <path fill="#1D1D1B" d="M33.7002 47.2998L33.3002 47.2998 33.3002 48.4998 33.7002 48.4998C34.1002 48.4998 34.3002 48.1998 34.3002 47.9008 34.3002 47.4998 34.1002 47.2998 33.7002 47.2998zM34.5002 50.9008L34.1002 49.5998C34.0002 49.1998 33.8002 49.0998 33.5002 49.0998L33.3002 49.0998 33.3002 50.9008 32.5002 50.9008 32.5002 46.6998 33.9002 46.6998C34.9002 46.6998 35.2002 47.1998 35.2002 47.7998 35.2002 48.2998 34.9002 48.6998 34.4002 48.7998 34.6002 48.9008 34.8002 48.9998 34.9002 49.4008L35.4002 50.9008 34.5002 50.9008zM37.6001 47.4004L37.0001 49.2994 38.1001 49.2994 37.6001 47.4004zM38.5001 50.9004L38.2001 49.9004 36.8001 49.9004 36.5001 50.9004 35.7001 50.9004 37.1001 46.7004 38.0001 46.7004 39.4001 50.9004 38.5001 50.9004z" mask="url(#i_move-b)"/>
    <polygon fill="#1D1D1B" points="40 50.9 40.8 50.9 40.8 46.7 40 46.7" mask="url(#i_move-b)"/>
    <polygon fill="#1D1D1B" points="43.9 50.9 42.6 47.7 42.6 50.9 41.9 50.9 41.9 46.7 42.9 46.7 44.2 49.9 44.2 46.7 44.9 46.7 44.9 50.9" mask="url(#i_move-b)"/>
    <polygon fill="#1D1D1B" points="45.9 50.9 46.7 50.9 46.7 46.7 45.9 46.7" mask="url(#i_move-b)"/>
    <polygon fill="#1D1D1B" points="49.8 50.9 48.5 47.7 48.5 50.9 47.8 50.9 47.8 46.7 48.8 46.7 50.1 49.9 50.1 46.7 50.8 46.7 50.8 50.9" mask="url(#i_move-b)"/>
    <path fill="#1D1D1B" d="M53.7998,51 C52.4998,51 51.6998,50.1 51.6998,48.9 C51.6998,47.6 52.4998,46.7 53.7998,46.7 C54.2998,46.7 54.5998,46.8 54.7998,46.9 L54.7998,47.6 C54.4998,47.4 54.1998,47.4 53.7998,47.4 C52.9998,47.4 52.4998,47.9 52.4998,48.9 C52.4998,49.9 52.8998,50.4 53.5998,50.4 C53.7998,50.4 53.8998,50.4 53.9998,50.3 L53.9998,49.2 L53.3998,49.2 L53.3998,48.6 L54.7998,48.6 L54.7998,50.8 C54.6998,50.8 54.1998,51 53.7998,51" mask="url(#i_move-b)"/>
    <polygon fill="#1D1D1B" points="57.1 49.5 60.1 49.5 60.1 48.9 57.1 48.9" mask="url(#i_move-b)"/>
    <polygon fill="#1D1D1B" points="65.5 50.9 65.5 47.5 64.5 50.9 64 50.9 63 47.5 63 50.9 62.3 50.9 62.3 46.7 63.5 46.7 64.3 49.7 65.1 46.7 66.3 46.7 66.3 50.9" mask="url(#i_move-b)"/>
    <path fill="#1D1D1B" d="M68.7998 47.4004L68.1998 49.2994 69.2998 49.2994 68.7998 47.4004zM69.6998 50.9004L69.4008 49.9004 67.9998 49.9004 67.6998 50.9004 66.9008 50.9004 68.2998 46.7004 69.1998 46.7004 70.5998 50.9004 69.6998 50.9004zM72.2002 47.4004L72.0002 47.4004 72.0002 50.2994 72.3002 50.2994C73.0992 50.2994 73.5002 49.7994 73.5002 48.7994 73.5002 47.7994 73.0002 47.4004 72.2002 47.4004M72.2002 50.9004L71.0992 50.9004 71.0992 46.7004 72.4002 46.7004C73.5992 46.7004 74.3002 47.5004 74.3002 48.7994 74.4002 50.0994 73.7002 50.9004 72.2002 50.9004" mask="url(#i_move-b)"/>
    <polygon fill="#1D1D1B" points="75.2 50.9 75.2 46.7 77.5 46.7 77.5 47.299 76 47.299 76 48.4 77.4 48.4 77.4 49 76 49 76 50.2 77.5 50.2 77.5 50.799 75.2 50.799" mask="url(#i_move-b)"/>
    <polygon fill="#1D1D1B" points="79.9 50.9 80.7 50.9 80.7 46.7 79.9 46.7" mask="url(#i_move-b)"/>
    <polygon fill="#1D1D1B" points="83.9 50.9 82.599 47.7 82.599 50.9 81.9 50.9 81.9 46.7 82.9 46.7 84.2 49.9 84.2 46.7 84.9 46.7 84.9 50.9" mask="url(#i_move-b)"/>
    <path fill="#1D1D1B" d="M89.4004,51 C88.0994,51 87.2994,50.1 87.2994,48.9 C87.2994,47.6 88.0994,46.7 89.4004,46.7 C89.9004,46.7 90.2004,46.8 90.4004,46.9 L90.4004,47.6 C90.0994,47.4 89.7994,47.4 89.4004,47.4 C88.5994,47.4 88.0994,47.9 88.0994,48.9 C88.0994,49.9 88.5004,50.4 89.2004,50.4 C89.4004,50.4 89.5004,50.4 89.5994,50.3 L89.5994,49.2 L89.0004,49.2 L89.0004,48.6 L90.4004,48.6 L90.4004,50.8 C90.2994,50.8 89.7994,51 89.4004,51" mask="url(#i_move-b)"/>
    <polygon fill="#1D1D1B" points="91.5 50.9 91.5 46.7 93.8 46.7 93.8 47.299 92.4 47.299 92.4 48.4 93.8 48.4 93.8 49 92.4 49 92.4 50.2 93.9 50.2 93.9 50.799 91.5 50.799" mask="url(#i_move-b)"/>
    <path fill="#1D1D1B" d="M95.9004,47.2998 L95.5004,47.2998 L95.5004,48.4998 L95.9004,48.4998 C96.2994,48.4998 96.5004,48.1998 96.5004,47.9008 C96.5004,47.4998 96.2994,47.2998 95.9004,47.2998 Z M96.5994,50.9008 L96.2004,49.5998 C96.0994,49.1998 95.9004,49.0998 95.5994,49.0998 L95.4004,49.0998 L95.4004,50.9008 L94.5994,50.9008 L94.5994,46.6998 L96.0004,46.6998 C97.0004,46.6998 97.2994,47.1998 97.2994,47.7998 C97.2994,48.2998 97.0004,48.6998 96.5004,48.7998 C96.7004,48.9008 96.9004,48.9998 97.0004,49.4008 L97.5004,50.9008 L96.5994,50.9008 Z" mask="url(#i_move-b)"/>
    <polygon fill="#1D1D1B" points="101.6 50.9 101.6 47.5 100.6 50.9 100 50.9 99 47.5 99 50.9 98.3 50.9 98.3 46.7 99.5 46.7 100.3 49.7 101.1 46.7 102.3 46.7 102.3 50.9" mask="url(#i_move-b)"/>
    <path fill="#1D1D1B" d="M104.9004,47.4004 L104.2994,49.2994 L105.4004,49.2994 L104.9004,47.4004 Z M105.7994,50.9004 L105.5004,49.9004 L104.0994,49.9004 L103.7994,50.9004 L103.0004,50.9004 L104.4004,46.7004 L105.2994,46.7004 L106.7004,50.9004 L105.7994,50.9004 Z" mask="url(#i_move-b)"/>
    <polygon fill="#1D1D1B" points="109.4 50.9 108.099 47.7 108.099 50.9 107.4 50.9 107.4 46.7 108.4 46.7 109.7 49.9 109.7 46.7 110.4 46.7 110.4 50.9" mask="url(#i_move-b)"/>
    <polygon fill="#1D1D1B" points="113.1 49.3 113.1 50.901 112.3 50.901 112.3 49.3 111 46.7 111.901 46.7 112.701 48.401 113.401 46.7 114.3 46.7" mask="url(#i_move-b)"/>
    <path fill="#1D1D1B" d="M118.2002,8.5 C117.2002,8.5 116.4002,9.3 116.4002,10.3 C116.4002,11.3 117.2002,12.1 118.2002,12.1 C119.2002,12.1 120.0002,11.3 120.0002,10.3 C120.0002,9.3 119.2002,8.5 118.2002,8.5 M118.2002,8.8 C119.0992,8.8 119.7002,9.5 119.7002,10.3 C119.7002,11.1 119.0002,11.8 118.2002,11.8 C117.4002,11.8 116.7002,11.1 116.7002,10.3 C116.7002,9.5 117.4002,8.8 118.2002,8.8" mask="url(#i_move-b)"/>
  </g>
</svg>
