<svg xmlns="http://www.w3.org/2000/svg" xmlns:xlink="http://www.w3.org/1999/xlink" width="120" height="63" viewBox="0 0 120 63">
  <defs>
    <polygon id="job_starter-a" points="0 62.535 119.778 62.535 119.778 .687 0 .687"/>
  </defs>
  <g fill="none" fill-rule="evenodd">
    <polygon fill="#F6A600" points="86.503 47.6 86.585 45.72 89.243 47.625"/>
    <polygon fill="#F6A600" points="82.152 49.704 82.734 47.877 84.868 50.063"/>
    <polygon fill="#F6A600" points="77.141 51.191 78.266 49.479 79.744 51.905"/>
    <polygon fill="#F6A600" points="71.77 52.068 73.378 50.515 74.195 53.092"/>
    <polygon fill="#F6A600" points="66.086 52.278 68.156 50.935 68.258 53.59"/>
    <polygon fill="#F6A600" points="60.234 51.79 62.733 50.711 62.075 53.364"/>
    <polygon fill="#F6A600" points="54.375 50.582 57.258 49.816 55.803 52.381"/>
    <polygon fill="#F6A600" points="48.689 48.644 51.892 48.241 49.626 50.62"/>
    <polygon fill="#F6A600" points="43.382 45.923 46.829 45.966 43.69 48.016"/>
    <polygon fill="#F6A600" points="38.754 42.628 42.328 43.077 38.488 44.761"/>
    <polygon fill="#F6A600" points="34.932 38.707 38.514 39.618 33.984 40.791"/>
    <polygon fill="#F6A600" points="32.201 34.316 35.646 35.692 30.551 36.25"/>
    <polygon fill="#F6A600" points="30.698 29.526 34.166 31.523 28.129 31.372"/>
    <polygon fill="#F6A600" points="30.716 24.714 33.824 27.245 27.312 26.226"/>
    <polygon fill="#F6A600" points="32.293 20.007 34.82 23.012 28.117 21.036"/>
    <polygon fill="#F6A600" points="35.712 15.542 37.532 19.259 30.388 15.929"/>
    <polygon fill="#F6A600" points="40.702 11.723 41.421 16.02 34.386 11.202"/>
    <polygon fill="#F6A600" points="46.885 8.842 46.369 13.72 39.592 7.296"/>
    <polygon fill="#F6A600" points="53.728 7.113 51.492 12.306 45.802 4.233"/>
    <polygon fill="#F6A600" points="62.26 6.972 57.105 11.898 54.283 1.31"/>
    <polygon fill="#F6A600" points="65.496 12.944 72.409 6.748 65.286 .845"/>
    <polygon fill="#1D1D1B" points="57.601 39.765 57.601 37.797 59.114 37.797 59.114 37.32 57.601 37.32 57.601 35.936 59.199 35.936 59.199 35.459 57.049 35.459 57.049 39.765"/>
    <g transform="translate(0 .158)">
      <path fill="#1D1D1B" d="M61.3228732 38.5928451C61.3228732 39.0939718 60.9924507 39.2900282 60.7287887 39.2900282 60.3806197 39.2900282 60.2124507 39.0458028 60.2124507 38.6815775L60.2124507 36.5950986 59.7197746 36.5950986 59.7197746 38.8911549C59.7197746 39.4032676 60.0079437 39.6660845 60.5361127 39.6660845 60.8547042 39.6660845 61.1428732 39.5173521 61.3051268 39.2427042L61.3228732 39.2427042 61.3228732 39.6060845 61.8451268 39.6060845C61.8282254 39.3973521 61.8155493 39.1886197 61.8155493 38.9798873L61.8155493 36.5950986 61.3228732 36.5950986 61.3228732 38.5928451zM61.0169577 36.0880563L61.5814648 36.0880563 61.5814648 35.4677746 61.0169577 35.4677746 61.0169577 36.0880563zM59.9597746 36.0880563L60.5242817 36.0880563 60.5242817 35.4677746 59.9597746 35.4677746 59.9597746 36.0880563zM63.2152394 36.5948451L62.7225634 36.5948451 62.7225634 39.605831 63.2152394 39.605831 63.2152394 37.829493C63.2152394 37.4238592 63.3529859 37.0123099 63.9005915 37.0123099 63.990169 37.0123099 64.0746761 37.0300563 64.1642535 37.0418873L64.1642535 36.5356901C63.6842535 36.5356901 63.4315775 36.5889296 63.2279155 37.0478028L63.2152394 37.0478028 63.2152394 36.5948451zM67.637831 36.8994085L67.6200845 36.8994085C67.4510704 36.6610986 67.2406479 36.5351831 66.9524789 36.5351831 65.9738873 36.5351831 65.9502254 37.4005352 65.9502254 38.1509577 65.9502254 39.4751831 66.4429014 39.6653239 66.9288169 39.6653239 67.2474085 39.6653239 67.4569859 39.5284225 67.6251549 39.2487042L67.637831 39.2487042 67.637831 39.606169 68.129662 39.606169 68.129662 35.3005352 67.637831 35.3005352 67.637831 36.8994085zM67.637831 37.9785634C67.637831 38.586169 67.637831 39.2664507 67.0851549 39.2664507 66.4665634 39.2664507 66.4665634 38.609831 66.4665634 38.1568732 66.4665634 37.3523662 66.5383944 36.9349014 67.0665634 36.9349014 67.614169 36.9349014 67.637831 37.5788451 67.637831 37.9785634z"/>
      <mask id="job_starter-b" fill="#fff">
        <use xlink:href="#job_starter-a"/>
      </mask>
      <path fill="#1D1D1B" d="M68.9957746 35.8259155L69.5476056 35.8259155 69.5476056 35.3011268 68.9957746 35.3011268 68.9957746 35.8259155zM69.0253521 39.6059155L69.5180282 39.6059155 69.5180282 36.5949296 69.0253521 36.5949296 69.0253521 39.6059155zM72.5555493 38.2586197L72.5555493 38.0017183C72.5555493 37.0070704 72.3392113 36.5355211 71.4747042 36.5355211 70.4234366 36.5355211 70.3211831 37.2622817 70.3211831 38.1453803 70.3211831 39.4746761 70.8316056 39.665662 71.4747042 39.665662 72.1110423 39.665662 72.5251268 39.3622817 72.5318873 38.6946761L71.9910423 38.6946761C71.9732958 38.9980563 71.7983662 39.2659437 71.4620282 39.2659437 71.0783662 39.2659437 70.8493521 39.0994648 70.8493521 38.2586197L72.5555493 38.2586197zM70.8493521 37.8893239C70.8552676 37.0535493 71.1138592 36.9048169 71.4265352 36.9048169 71.7865352 36.9048169 72.0332958 37.0121408 72.0332958 37.8893239L70.8493521 37.8893239z" mask="url(#job_starter-b)"/>
      <polygon fill="#1D1D1B" points="77.076 35.301 74.487 35.301 74.487 35.777 76.517 35.777 76.517 35.79 74.416 38.986 74.416 39.607 77.125 39.607 77.125 39.129 74.926 39.129 77.076 35.849" mask="url(#job_starter-b)"/>
      <path fill="#1D1D1B" d="M79.3276901,38.5928451 C79.3276901,39.0939718 78.9972676,39.2900282 78.7336056,39.2900282 C78.3854366,39.2900282 78.2172676,39.0458028 78.2172676,38.6815775 L78.2172676,36.5950986 L77.7254366,36.5950986 L77.7254366,38.8911549 C77.7254366,39.4032676 78.0127606,39.6660845 78.5409296,39.6660845 C78.8595211,39.6660845 79.1476901,39.5173521 79.3099437,39.2427042 L79.3276901,39.2427042 L79.3276901,39.6060845 L79.8507887,39.6060845 C79.8330423,39.3973521 79.8203662,39.1886197 79.8203662,38.9798873 L79.8203662,36.5950986 L79.3276901,36.5950986 L79.3276901,38.5928451 Z" mask="url(#job_starter-b)"/>
      <polygon fill="#1D1D1B" points="81.202 37.919 81.215 37.919 82.295 39.606 82.919 39.606 81.731 37.889 82.739 36.595 82.138 36.595 81.215 37.895 81.202 37.895 81.202 35.301 80.71 35.301 80.71 39.606 81.202 39.606" mask="url(#job_starter-b)"/>
      <path fill="#1D1D1B" d="M84.9964225 38.5928451C84.9964225 39.0939718 84.666 39.2900282 84.402338 39.2900282 84.054169 39.2900282 83.886 39.0458028 83.886 38.6815775L83.886 36.5950986 83.3933239 36.5950986 83.3933239 38.8911549C83.3933239 39.4032676 83.681493 39.6660845 84.209662 39.6660845 84.5282535 39.6660845 84.8164225 39.5173521 84.9786761 39.2427042L84.9964225 39.2427042 84.9964225 39.6060845 85.5186761 39.6060845C85.5009296 39.3973521 85.4890986 39.1886197 85.4890986 38.9798873L85.4890986 36.5950986 84.9964225 36.5950986 84.9964225 38.5928451zM88.5161408 39.6062535L88.5161408 37.5189296C88.5161408 36.9223099 88.3538873 36.5352676 87.7048732 36.5352676 87.3144507 36.5352676 87.0871268 36.6425915 86.8944507 36.9831549L86.8707887 36.9831549 86.8707887 36.5952676 86.3485352 36.5952676C86.3662817 36.804 86.3781127 37.0127324 86.3781127 37.2214648L86.3781127 39.6062535 86.8707887 39.6062535 86.8707887 37.824C86.8707887 37.4116056 86.9493803 36.9349859 87.4893803 36.9349859 87.9093803 36.9349859 88.0234648 37.1969577 88.0234648 37.5189296L88.0234648 39.6062535 88.5161408 39.6062535zM89.0030704 36.5948451L89.0030704 36.9641408 89.4712394 36.9641408 89.4712394 39.605831 89.9639155 39.605831 89.9639155 36.9641408 90.5757465 36.9641408 90.5757465 36.5948451 89.9639155 36.5948451 89.9639155 36.0827324C89.9639155 35.837662 90.053493 35.6170986 90.5757465 35.6525915L90.5757465 35.3010423C90.5039155 35.2892113 90.4439155 35.2824507 90.341662 35.2824507 89.9030704 35.2824507 89.4712394 35.4024507 89.4712394 36.0109014L89.4712394 36.5948451 89.0030704 36.5948451zM90.6057465 36.5948451L90.6057465 36.9641408 91.103493 36.9641408 91.103493 39.1055493C91.103493 39.4511831 91.3139155 39.642169 91.7829296 39.642169 91.944338 39.642169 92.1065915 39.605831 92.2688451 39.5948451L92.2688451 39.2179437C92.1606761 39.2306197 92.0829296 39.2424507 92.0465915 39.2424507 91.596169 39.2424507 91.596169 38.9982254 91.596169 38.8072394L91.596169 36.9641408 92.2570141 36.9641408 92.2570141 36.5948451 91.596169 36.5948451 91.596169 35.7962535 91.103493 36.0159718 91.103493 36.5948451 90.6057465 36.5948451zM95.6109296 39.6062535L96.1517746 39.6062535C96.1154366 39.3738592 96.0909296 39.1296338 96.0909296 38.8904789L96.0909296 37.4411831C96.0909296 36.9349859 95.8872676 36.5352676 95.1064225 36.5352676 94.464169 36.5352676 94.104169 36.768507 94.079662 37.4411831L94.6137465 37.4411831C94.584169 37.1251268 94.7582535 36.9054085 95.0886761 36.9054085 95.6168451 36.9054085 95.6109296 37.3397746 95.5990986 37.739493 94.9086761 37.7225915 94.007831 37.7631549 94.007831 38.675831 94.007831 39.2547042 94.1937465 39.6654085 94.836 39.6654085 95.2145915 39.6654085 95.4495211 39.5175211 95.5990986 39.1710423L95.6109296 39.1710423 95.6109296 39.6062535zM95.5990986 38.1096338C95.6472676 39.0814648 95.2754366 39.2665352 94.9745915 39.2665352 94.644169 39.2665352 94.500507 39.0037183 94.500507 38.7113239 94.500507 38.0741408 95.1309296 38.1155493 95.5990986 38.1096338zM98.6743099 38.5928451C98.6743099 39.0939718 98.3430423 39.2900282 98.0793803 39.2900282 97.7312113 39.2900282 97.5630423 39.0458028 97.5630423 38.6815775L97.5630423 36.5950986 97.0712113 36.5950986 97.0712113 38.8911549C97.0712113 39.4032676 97.3585352 39.6660845 97.8867042 39.6660845 98.2052958 39.6660845 98.4934648 39.5173521 98.6565634 39.2427042L98.6743099 39.2427042 98.6743099 39.6060845 99.1965634 39.6060845C99.1788169 39.3973521 99.1661408 39.1886197 99.1661408 38.9798873L99.1661408 36.5950986 98.6743099 36.5950986 98.6743099 38.5928451zM102.007606 38.748C102.007606 37.8294085 100.494085 37.8412394 100.494085 37.3105352 100.494085 37.0477183 100.697746 36.9049014 100.962254 36.9049014 101.27493 36.9049014 101.443099 37.0722254 101.436338 37.3882817L101.983099 37.3882817C102.025352 36.791662 101.563099 36.5356056 101.022254 36.5356056 100.169577 36.5356056 99.9777465 37.0418028 99.9777465 37.3578592 99.9777465 38.2587042 101.491268 38.2713803 101.491268 38.8071549 101.491268 39.1172958 101.262254 39.2660282 100.969014 39.2660282 100.470423 39.2660282 100.464507 38.8612394 100.464507 38.688L99.9059155 38.688C99.8873239 39.3801127 100.296338 39.6657465 100.950423 39.6657465 101.551268 39.6657465 102.007606 39.4096901 102.007606 38.748M103.255352 39.2488732L103.268028 39.2488732C103.436197 39.5285915 103.645775 39.665493 103.964366 39.665493 104.450282 39.665493 104.942958 39.4753521 104.942958 38.1511268 104.942958 37.3998592 104.919296 36.5353521 103.940704 36.5353521 103.652535 36.5353521 103.442113 36.6604225 103.273099 36.8995775L103.255352 36.8995775 103.255352 35.3007042 102.763521 35.3007042 102.763521 39.606338 103.255352 39.606338 103.255352 39.2488732zM103.255352 37.9787324C103.255352 37.578169 103.279014 36.9350704 103.82662 36.9350704 104.354789 36.9350704 104.42662 37.3525352 104.42662 38.1570423 104.42662 38.61 104.42662 39.2666197 103.808028 39.2666197 103.202113 39.2666197 103.255352 38.4376056 103.255352 37.9787324zM105.682817 35.8259155L106.234648 35.8259155 106.234648 35.3011268 105.682817 35.3011268 105.682817 35.8259155zM105.712394 39.6059155L106.20507 39.6059155 106.20507 36.5949296 105.712394 36.5949296 105.712394 39.6059155z" mask="url(#job_starter-b)"/>
      <polygon fill="#1D1D1B" points="107.044 39.607 107.537 39.607 107.537 35.301 107.044 35.301" mask="url(#job_starter-b)"/>
      <path fill="#1D1D1B" d="M109.992 36.8994085L109.974254 36.8994085C109.806085 36.6610986 109.595662 36.5351831 109.307493 36.5351831 108.328901 36.5351831 108.304394 37.4005352 108.304394 38.1509577 108.304394 39.4751831 108.79707 39.6653239 109.283831 39.6653239 109.601577 39.6653239 109.812 39.5284225 109.980169 39.2487042L109.992 39.2487042 109.992 39.606169 110.484676 39.606169 110.484676 35.3005352 109.992 35.3005352 109.992 36.8994085zM109.992 37.9785634C109.992 38.586169 109.992 39.2664507 109.440169 39.2664507 108.820732 39.2664507 108.820732 38.609831 108.820732 38.1568732 108.820732 37.3523662 108.893408 36.9349014 109.421577 36.9349014 109.968338 36.9349014 109.992 37.5788451 109.992 37.9785634zM113.577803 38.2586197L113.577803 38.0017183C113.577803 37.0070704 113.361465 36.5355211 112.496958 36.5355211 111.446535 36.5355211 111.343437 37.2622817 111.343437 38.1453803 111.343437 39.4746761 111.853859 39.665662 112.496958 39.665662 113.133296 39.665662 113.54738 39.3622817 113.554141 38.6946761L113.013296 38.6946761C112.995549 38.9980563 112.82062 39.2659437 112.484282 39.2659437 112.10062 39.2659437 111.871606 39.0994648 111.871606 38.2586197L113.577803 38.2586197zM111.871606 37.8893239C111.877521 37.0535493 112.136113 36.9048169 112.448789 36.9048169 112.808789 36.9048169 113.055549 37.0121408 113.055549 37.8893239L111.871606 37.8893239zM116.532254 39.6062535L116.532254 37.5189296C116.532254 36.9223099 116.370845 36.5352676 115.721831 36.5352676 115.331408 36.5352676 115.104085 36.6425915 114.911408 36.9831549L114.887746 36.9831549 114.887746 36.5952676 114.365493 36.5952676C114.382394 36.804 114.39507 37.0127324 114.39507 37.2214648L114.39507 39.6062535 114.887746 39.6062535 114.887746 37.824C114.887746 37.4116056 114.965493 36.9349859 115.505493 36.9349859 115.925493 36.9349859 116.040423 37.1969577 116.040423 37.5189296L116.040423 39.6062535 116.532254 39.6062535z" mask="url(#job_starter-b)"/>
      <path fill="#164193" d="M52.8866197,36.6327887 L52.8866197,20.8350423 L54.6274648,20.8350423 L54.6274648,36.5305352 C54.6274648,38.5899718 54.1390141,39.6454648 51.5919718,39.6454648 L51.5919718,37.8437746 C52.3347887,37.8437746 52.8866197,37.7144789 52.8866197,36.6327887 Z M52.7809859,18.3987042 L54.7339437,18.3987042 L54.7339437,16.1322254 L52.7809859,16.1322254 L52.7809859,18.3987042 Z" mask="url(#job_starter-b)"/>
      <polygon fill="#164193" points="52.781 18.399 54.734 18.399 54.734 16.132 52.781 16.132" mask="url(#job_starter-b)"/>
      <path fill="#164193" d="M52.8866197 36.6327887C52.8866197 37.7144789 52.3347887 37.8437746 51.5919718 37.8437746L51.5919718 39.6454648C54.1390141 39.6454648 54.6274648 38.5899718 54.6274648 36.5305352L54.6274648 20.8350423 52.8866197 20.8350423 52.8866197 36.6327887zM60.0556901 31.7810704C62.3306197 31.7810704 64.1382254 31.1058592 64.1382254 26.3971268 64.1382254 23.2720563 63.7765352 20.6962817 60.0556901 20.6962817 56.3348451 20.6962817 55.9731549 23.2720563 55.9731549 26.3971268 55.9731549 31.1058592 57.7807606 31.7810704 60.0556901 31.7810704M60.0556901 30.3664225C58.2480845 30.3664225 57.8018873 29.1207887 57.8018873 25.6576901 57.8018873 22.7438873 58.7162535 22.1109296 60.0556901 22.1109296 61.3951268 22.1109296 62.309493 22.7438873 62.309493 25.6576901 62.309493 29.1207887 61.8632958 30.3664225 60.0556901 30.3664225M67.1022254 30.3034648L67.1453239 30.3034648C67.7402535 31.2955775 68.4847606 31.781493 69.6120845 31.781493 71.334338 31.781493 73.0777183 31.1054366 73.0777183 26.417831 73.0777183 23.7575493 72.9932113 20.6958592 69.5267324 20.6958592 68.5058873 20.6958592 67.7613803 21.1395211 67.1664507 21.9837465L67.1022254 21.9837465 67.1022254 16.3251549 65.3588451 16.3251549 65.3588451 31.5702254 67.1022254 31.5702254 67.1022254 30.3034648zM67.1022254 25.806C67.1022254 24.3913521 67.1875775 22.110507 69.1227887 22.110507 70.9929296 22.110507 71.2489859 23.5885352 71.2489859 26.4389577 71.2489859 28.0437465 71.2489859 30.3668451 69.0585634 30.3668451 66.9103944 30.3668451 67.1022254 27.4319155 67.1022254 25.806z" mask="url(#job_starter-b)"/>
      <path fill="#F6A600" d="M81.2654366,28.5295775 C81.2654366,25.2777465 75.9068451,25.32 75.9068451,23.4414085 C75.9068451,22.511831 76.6302254,22.0047887 77.5657183,22.0047887 C78.6710704,22.0047887 79.266,22.596338 79.2448732,23.7152113 L81.1800845,23.7152113 C81.3288169,21.6042254 79.6919155,20.6957746 77.777831,20.6957746 C74.7583944,20.6957746 74.0781127,22.4907042 74.0781127,23.6095775 C74.0781127,26.7980282 79.4367042,26.8402817 79.4367042,28.7408451 C79.4367042,29.8385915 78.6288169,30.3667606 77.586,30.3667606 C75.822338,30.3667606 75.8003662,28.9309859 75.8003662,28.3183099 L73.8229014,28.3183099 C73.7595211,30.768169 75.2045915,31.7814085 77.5226197,31.7814085 C79.6488169,31.7814085 81.2654366,30.8729577 81.2654366,28.5295775" mask="url(#job_starter-b)"/>
      <path fill="#F6A600" d="M80.6604507,20.9070423 L80.7314366,22.2160563 L82.4959437,22.2160563 L82.4959437,29.7971831 C82.4959437,31.0208451 83.2404507,31.6969014 84.8993239,31.6969014 C85.4722817,31.6969014 86.0469296,31.5701408 86.6207324,31.5278873 L86.6207324,30.1977465 C86.2387606,30.24 85.9615775,30.2822535 85.8339718,30.2822535 C84.2393239,30.2822535 84.2393239,29.4160563 84.2393239,28.7408451 L84.2393239,22.2160563 L86.5784789,22.2160563 L86.5784789,20.9070423 L84.2393239,20.9070423 L84.2393239,18.0777465 L82.4959437,18.8585915 L82.4959437,20.9070423 L80.6604507,20.9070423 Z" mask="url(#job_starter-b)"/>
      <path fill="#F6A600" d="M92.2529577 31.5698028L94.1661972 31.5698028C94.0385915 30.7467042 93.9540845 29.880507 93.9540845 29.0362817L93.9540845 23.9050141C93.9540845 22.1109296 93.2307042 20.6962817 90.4664789 20.6962817 88.1915493 20.6962817 86.915493 21.5193803 86.8301408 23.9050141L88.7222535 23.9050141C88.6166197 22.7861408 89.2335211 22.0052958 90.4030986 22.0052958 92.2732394 22.0052958 92.2529577 23.5467042 92.2098592 24.9613521 89.7650704 24.8979718 86.5749296 25.0458592 86.5749296 28.2765634 86.5749296 30.324169 87.2349296 31.7810704 89.5098592 31.7810704 90.8492958 31.7810704 91.6783099 31.2537465 92.2098592 30.0283944L92.2529577 30.0283944 92.2529577 31.5698028zM92.2098592 26.2703662C92.3797183 29.712338 91.0622535 30.3664225 89.9983099 30.3664225 88.8295775 30.3664225 88.3191549 29.4376901 88.3191549 28.4033239 88.3191549 26.1436056 90.5509859 26.291493 92.2098592 26.2703662zM97.4034085 20.9070423L95.6600282 20.9070423 95.6600282 31.5701408 97.4034085 31.5701408 97.4034085 25.2777465C97.4034085 23.8419718 98.0794648 22.2160563 100.013831 22.2160563 100.333268 22.2160563 100.444817 22.1721127 100.763408 22.2143662L100.777775 20.9070423C99.0943944 20.8909859 98.1622817 20.8369014 97.4397465 22.4628169L97.3966479 22.4628169 97.4034085 20.9070423z" mask="url(#job_starter-b)"/>
      <path fill="#F6A600" d="M100.132563,20.9070423 L99.7446761,22.2160563 L101.510028,22.2160563 L101.510028,29.7971831 C101.510028,31.0208451 102.254535,31.6969014 103.912563,31.6969014 C104.486366,31.6969014 105.061014,31.5701408 105.634817,31.5278873 L105.634817,30.1977465 C105.252845,30.24 104.975662,30.2822535 104.848056,30.2822535 C103.253408,30.2822535 103.253408,29.4160563 103.253408,28.7408451 L103.253408,22.2160563 L105.592563,22.2160563 L105.592563,20.9070423 L103.253408,20.9070423 L103.253408,18.0777465 L101.510028,18.8585915 L101.510028,20.9070423 L100.132563,20.9070423 Z" mask="url(#job_starter-b)"/>
      <path fill="#F6A600" d="M113.477915 26.7981972L113.477915 25.8905915C113.477915 22.3641127 112.712282 20.6959437 109.650592 20.6959437 105.928901 20.6959437 105.568056 23.2717183 105.568056 26.3967887 105.568056 31.1055211 107.374817 31.7807324 109.650592 31.7807324 111.904394 31.7807324 113.371437 30.7049577 113.392563 28.3396056L111.479324 28.3396056C111.415944 29.4162254 110.799042 30.3669296 109.608338 30.3669296 108.247775 30.3669296 107.439042 29.7753803 107.439042 26.7981972L113.477915 26.7981972zM107.439042 25.4891831C107.460169 22.5331268 108.374535 22.0049577 109.480732 22.0049577 110.755944 22.0049577 111.628056 22.3852394 111.628056 25.4891831L107.439042 25.4891831zM116.417493 20.9070423L114.674113 20.9070423 114.674113 31.5701408 116.417493 31.5701408 116.417493 25.2777465C116.417493 23.8419718 116.906789 22.3850704 118.841155 22.3850704 119.160592 22.3850704 119.458901 22.4484507 119.777493 22.4915493L119.777493 20.6957746C118.076366 20.6957746 117.183127 20.8859155 116.460592 22.511831L116.417493 22.511831 116.417493 20.9070423z" mask="url(#job_starter-b)"/>
      <polygon fill="#0093D2" points="59.72 62.535 79.765 62.535 79.765 58.359 59.72 58.359" mask="url(#job_starter-b)"/>
      <polygon fill="#004F91" points="39.714 62.519 59.758 62.519 59.758 58.359 39.714 58.359" mask="url(#job_starter-b)"/>
      <polygon fill="#B60F0C" points="19.857 62.519 39.901 62.519 39.901 58.359 19.857 58.359" mask="url(#job_starter-b)"/>
      <polygon fill="#F6A600" points="0 62.519 20.044 62.519 20.044 58.359 0 58.359" mask="url(#job_starter-b)"/>
      <polygon fill="#00964F" points="79.525 62.535 99.57 62.535 99.57 58.359 79.525 58.359" mask="url(#job_starter-b)"/>
      <polygon fill="#94C01F" points="99.467 62.535 119.512 62.535 119.512 58.375 99.467 58.375" mask="url(#job_starter-b)"/>
    </g>
  </g>
</svg>
