<svg xmlns="http://www.w3.org/2000/svg" xmlns:xlink="http://www.w3.org/1999/xlink" width="120" height="58" viewBox="0 0 120 58">
  <defs>
    <polygon id="klischeefrei-a" points="0 58.154 119.443 58.154 119.443 .026 0 .026"/>
  </defs>
  <g fill="none" fill-rule="evenodd" transform="translate(0 -1)">
    <polygon fill="#595857" points="8.224 12.563 10.707 12.563 10.707 16.479 11.729 16.479 13.828 12.563 16.495 12.563 13.757 17.416 13.757 17.444 16.651 22.708 13.87 22.708 11.729 18.594 10.707 18.594 10.707 22.708 8.224 22.708"/>
    <polygon fill="#595857" points="18.044 12.563 20.527 12.563 20.527 20.579 24.67 20.579 24.67 22.708 18.044 22.708"/>
    <polygon fill="#595857" points="26.034 22.708 28.518 22.708 28.518 12.564 26.034 12.564"/>
    <g transform="translate(0 .897)">
      <path fill="#595857" d="M31.4544923 18.6467077C31.4544923 18.6467077 32.6037231 19.6971692 33.8803385 19.6971692 34.3917231 19.6971692 34.9446462 19.4977846 34.9446462 18.8876308 34.9446462 17.6820923 30.3763385 17.7245538 30.3763385 14.6036308 30.3763385 12.7307077 31.9511077 11.4965538 33.9652615 11.4965538 36.1511077 11.4965538 37.2292615 12.6457846 37.2292615 12.6457846L36.1797231 14.6747077C36.1797231 14.6747077 35.1578769 13.7802462 33.9375692 13.7802462 33.4271077 13.7802462 32.8594154 14.0073231 32.8594154 14.5750154 32.8594154 15.8516308 37.4277231 15.6245538 37.4277231 18.8313231 37.4277231 20.5196308 36.1363385 21.9808615 33.8517231 21.9808615 31.4692615 21.9808615 30.1483385 20.5334769 30.1483385 20.5334769L31.4544923 18.6467077zM43.7568923 11.4964615C46.2685846 11.4964615 47.5599692 12.9290769 47.5599692 12.9290769L46.4107385 14.802C46.4107385 14.802 45.2753538 13.7663077 43.8704308 13.7663077 41.9273538 13.7663077 41.0052 15.1989231 41.0052 16.6601538 41.0052 18.1647692 41.9984308 19.7109231 43.8704308 19.7109231 45.4027385 19.7109231 46.5667385 18.462 46.5667385 18.462L47.8433538 20.2786154C47.8433538 20.2786154 46.4107385 21.9807692 43.7568923 21.9807692 40.5787385 21.9807692 38.4372 19.7247692 38.4372 16.7173846 38.4372 13.7663077 40.7070462 11.4964615 43.7568923 11.4964615"/>
      <polygon fill="#595857" points="49.35 11.666 51.833 11.666 51.833 15.724 55.522 15.724 55.522 11.666 58.004 11.666 58.004 21.811 55.522 21.811 55.522 17.838 51.833 17.838 51.833 21.811 49.35 21.811"/>
      <polygon fill="#595857" points="60.391 11.666 66.747 11.666 66.747 13.795 62.874 13.795 62.874 15.639 65.966 15.639 65.966 17.767 62.874 17.767 62.874 19.682 66.946 19.682 66.946 21.811 60.391 21.811"/>
      <polygon fill="#595857" points="68.735 11.666 75.092 11.666 75.092 13.795 71.218 13.795 71.218 15.639 74.311 15.639 74.311 17.767 71.218 17.767 71.218 19.682 75.29 19.682 75.29 21.811 68.735 21.811"/>
      <polygon fill="#EE7800" points="86.829 11.666 93.043 11.666 93.043 13.795 89.312 13.795 89.312 15.923 92.404 15.923 92.404 18.051 89.312 18.051 89.312 21.811 86.829 21.811"/>
      <path fill="#EE7800" d="M99.5994462,16.2633231 C100.394215,16.2633231 100.890831,15.8230154 100.890831,15.0144 C100.890831,14.2482462 100.606523,13.7950154 99.3585231,13.7950154 L98.5212923,13.7950154 L98.5212923,16.2633231 L99.5994462,16.2633231 Z M96.0391385,11.6664 L99.5717538,11.6664 C100.606523,11.6664 101.103138,11.7374769 101.542523,11.9073231 C102.692677,12.3476308 103.416369,13.3833231 103.416369,14.8593231 C103.416369,15.9365538 102.904985,17.1144 101.897908,17.6257846 L101.897908,17.6534769 C101.897908,17.6534769 102.040062,17.8380923 102.280985,18.2636308 L104.2536,21.8110154 L101.486215,21.8110154 L99.6843692,18.3919385 L98.5212923,18.3919385 L98.5212923,21.8110154 L96.0391385,21.8110154 L96.0391385,11.6664 Z"/>
      <polygon fill="#EE7800" points="107.136 11.666 113.492 11.666 113.492 13.795 109.619 13.795 109.619 15.639 112.711 15.639 112.711 17.767 109.619 17.767 109.619 19.682 113.691 19.682 113.691 21.811 107.136 21.811"/>
      <mask id="klischeefrei-b" fill="#fff">
        <use xlink:href="#klischeefrei-a"/>
      </mask>
      <polygon fill="#EE7800" points="116.899 21.811 119.382 21.811 119.382 11.667 116.899 11.667" mask="url(#klischeefrei-b)"/>
      <path fill="#595958" d="M8.1048 41.3915077L8.93926154 41.3915077 11.6134154 45.2998154C11.8349538 45.6228923 12.1155692 46.1684308 12.1155692 46.1684308L12.1321846 46.1684308C12.1321846 46.1684308 12.0731077 45.6312 12.0731077 45.2998154L12.0731077 41.3915077 12.9158769 41.3915077 12.9158769 47.4025846 12.0897231 47.4025846 9.40818462 43.5035077C9.18664615 43.1712 8.90510769 42.6256615 8.90510769 42.6256615L8.88849231 42.6256615C8.88849231 42.6256615 8.94849231 43.1619692 8.94849231 43.5035077L8.94849231 47.4025846 8.1048 47.4025846 8.1048 41.3915077zM15.6751385 46.8407077C16.3729846 46.8407077 16.8243692 46.1087077 16.8243692 45.4699385L16.8243692 45.3333231 16.6120615 45.3333231C15.9899077 45.3333231 14.8665231 45.3767077 14.8665231 46.1511692 14.8665231 46.5000923 15.1388308 46.8407077 15.6751385 46.8407077M16.6286769 44.7120923L16.8160615 44.7120923 16.8160615 44.6354769C16.8160615 43.9293231 16.4154462 43.6902462 15.8708308 43.6902462 15.2071385 43.6902462 14.6708308 44.1074769 14.6708308 44.1074769L14.3292923 43.5028615C14.3292923 43.5028615 14.9514462 42.9924 15.9391385 42.9924 17.0292923 42.9924 17.6422154 43.5887077 17.6422154 44.6779385L17.6422154 47.4028615 16.8760615 47.4028615 16.8760615 46.9939385C16.8760615 46.7982462 16.8926769 46.6533231 16.8926769 46.6533231L16.8760615 46.6533231C16.8760615 46.6533231 16.5262154 47.5053231 15.4969846 47.5053231 14.7557538 47.5053231 14.0320615 47.0539385 14.0320615 46.1936308 14.0320615 44.7720923 15.9049846 44.7120923 16.6286769 44.7120923M19.0303385 43.8181846L18.4681846 43.8181846 18.4681846 43.1535692 19.0561846 43.1535692 19.0561846 41.9111077 19.8564923 41.9111077 19.8564923 43.1535692 20.8949538 43.1535692 20.8949538 43.8181846 19.8564923 43.8181846 19.8564923 45.7335692C19.8564923 46.5938769 20.4601846 46.7046462 20.7758769 46.7046462 20.8949538 46.7046462 20.9715692 46.6871077 20.9715692 46.6871077L20.9715692 47.4191077C20.9715692 47.4191077 20.8524923 47.4366462 20.6826462 47.4366462 20.1288 47.4366462 19.0303385 47.2658769 19.0303385 45.8277231L19.0303385 43.8181846zM21.9 47.4027692L22.7261538 47.4027692 22.7261538 43.0947692 21.9 43.0947692 21.9 47.4027692zM21.8916923 42.2344615L22.7261538 42.2344615 22.7261538 41.3916923 21.8916923 41.3916923 21.8916923 42.2344615zM26.0295692 46.7897538C26.8464923 46.7897538 27.5111077 46.1426769 27.5111077 45.2399077 27.5111077 44.3463692 26.8464923 43.7076 26.0295692 43.7076 25.2209538 43.7076 24.5480308 44.3463692 24.5480308 45.2399077 24.5480308 46.1426769 25.2209538 46.7897538 26.0295692 46.7897538M26.0295692 42.9922154C27.3154154 42.9922154 28.3538769 43.9374462 28.3538769 45.2399077 28.3538769 46.5516 27.3154154 47.5051385 26.0295692 47.5051385 24.7437231 47.5051385 23.7052615 46.5516 23.7052615 45.2399077 23.7052615 43.9374462 24.7437231 42.9922154 26.0295692 42.9922154M29.3338154 43.0943077L30.1341231 43.0943077 30.1341231 43.6647692C30.1341231 43.8355385 30.1175077 43.9795385 30.1175077 43.9795385L30.1341231 43.9795385C30.3048923 43.6047692 30.8153538 42.9927692 31.7522769 42.9927692 32.7648923 42.9927692 33.2338154 43.5456923 33.2338154 44.6441538L33.2338154 47.4023077 32.4076615 47.4023077 32.4076615 44.8315385C32.4076615 44.2269231 32.2793538 43.7496923 31.5898154 43.7496923 30.9344308 43.7496923 30.4064308 44.1844615 30.2282769 44.8056923 30.1775077 44.9764615 30.1599692 45.1721538 30.1599692 45.3844615L30.1599692 47.4023077 29.3338154 47.4023077 29.3338154 43.0943077zM35.7628615 46.8407077C36.4616308 46.8407077 36.9130154 46.1087077 36.9130154 45.4699385L36.9130154 45.3333231 36.6997846 45.3333231C36.0776308 45.3333231 34.9542462 45.3767077 34.9542462 46.1511692 34.9542462 46.5000923 35.2265538 46.8407077 35.7628615 46.8407077M36.7164 44.7120923L36.9037846 44.7120923 36.9037846 44.6354769C36.9037846 43.9293231 36.5040923 43.6902462 35.9585538 43.6902462 35.2948615 43.6902462 34.7585538 44.1074769 34.7585538 44.1074769L34.4179385 43.5028615C34.4179385 43.5028615 35.0391692 42.9924 36.0268615 42.9924 37.1170154 42.9924 37.7299385 43.5887077 37.7299385 44.6779385L37.7299385 47.4028615 36.9637846 47.4028615 36.9637846 46.9939385C36.9637846 46.7982462 36.9804 46.6533231 36.9804 46.6533231L36.9637846 46.6533231C36.9637846 46.6533231 36.6148615 47.5053231 35.5847077 47.5053231 34.8434769 47.5053231 34.1197846 47.0539385 34.1197846 46.1936308 34.1197846 44.7720923 35.9927077 44.7120923 36.7164 44.7120923M38.9134154 41.3915077L39.7395692 41.3915077 39.7395692 46.0835077C39.7395692 46.6022769 39.9435692 46.6964308 40.1992615 46.6964308 40.2758769 46.6964308 40.3441846 46.6872 40.3441846 46.6872L40.3441846 47.4192C40.3441846 47.4192 40.2168 47.4367385 40.0718769 47.4367385 39.6038769 47.4367385 38.9134154 47.3093538 38.9134154 46.2275077L38.9134154 41.3915077zM44.0994462 44.7462462C44.0736 44.0050154 43.6139077 43.6477846 43.0609846 43.6477846 42.4305231 43.6477846 41.9200615 44.0391692 41.8000615 44.7462462L44.0994462 44.7462462zM43.0776 42.9924C44.2951385 42.9924 44.9422154 43.8951692 44.9422154 45.0102462 44.9422154 45.1210154 44.9163692 45.3674769 44.9163692 45.3674769L41.7742154 45.3674769C41.8176 46.3127077 42.4896 46.7899385 43.2557538 46.7899385 43.9969846 46.7899385 44.5332923 46.2868615 44.5332923 46.2868615L44.8739077 46.8914769C44.8739077 46.8914769 44.2351385 47.5053231 43.2049846 47.5053231 41.8508308 47.5053231 40.9231385 46.5259385 40.9231385 45.2484 40.9231385 43.8776308 41.8508308 42.9924 43.0776 42.9924z" mask="url(#klischeefrei-b)"/>
      <polygon fill="#595958" points="48.306 41.392 49.149 41.392 49.149 43.921 50.043 43.921 51.559 41.392 52.487 41.392 50.741 44.244 50.741 44.26 52.597 47.403 51.644 47.403 50.043 44.644 49.149 44.644 49.149 47.403 48.306 47.403" mask="url(#klischeefrei-b)"/>
      <path fill="#595958" d="M55.3818462 46.7897538C56.1996923 46.7897538 56.8633846 46.1426769 56.8633846 45.2399077 56.8633846 44.3463692 56.1996923 43.7076 55.3818462 43.7076 54.5732308 43.7076 53.9003077 44.3463692 53.9003077 45.2399077 53.9003077 46.1426769 54.5732308 46.7897538 55.3818462 46.7897538M55.3818462 42.9922154C56.6676923 42.9922154 57.7061538 43.9374462 57.7061538 45.2399077 57.7061538 46.5516 56.6676923 47.5051385 55.3818462 47.5051385 54.096 47.5051385 53.0575385 46.5516 53.0575385 45.2399077 53.0575385 43.9374462 54.096 42.9922154 55.3818462 42.9922154M60.6959077 46.7897538C61.5137538 46.7897538 62.1774462 46.1426769 62.1774462 45.2399077 62.1774462 44.3463692 61.5137538 43.7076 60.6959077 43.7076 59.8872923 43.7076 59.2143692 44.3463692 59.2143692 45.2399077 59.2143692 46.1426769 59.8872923 46.7897538 60.6959077 46.7897538M60.6959077 42.9922154C61.9817538 42.9922154 63.0202154 43.9374462 63.0202154 45.2399077 63.0202154 46.5516 61.9817538 47.5051385 60.6959077 47.5051385 59.4100615 47.5051385 58.3716 46.5516 58.3716 45.2399077 58.3716 43.9374462 59.4100615 42.9922154 60.6959077 42.9922154M66.018 46.7983385C66.6992308 46.7983385 67.2613846 46.2361846 67.2613846 45.2577231 67.2613846 44.3208 66.7592308 43.7161846 66.0429231 43.7161846 65.3958462 43.7161846 64.8004615 44.1675692 64.8004615 45.2660308 64.8004615 46.0312615 65.226 46.7983385 66.018 46.7983385zM64.0001538 43.0940308L64.758 43.0940308 64.758 43.4604923C64.758 43.6312615 64.7404615 43.7761846 64.7404615 43.7761846L64.758 43.7761846C64.758 43.7761846 65.1235385 42.9924923 66.2053846 42.9924923 67.3638462 42.9924923 68.0949231 43.9118769 68.0949231 45.2484923 68.0949231 46.6192615 67.2696923 47.5054154 66.1453846 47.5054154 65.2001538 47.5054154 64.8253846 46.7983385 64.8253846 46.7983385L64.8087692 46.7983385C64.8087692 46.7983385 64.8253846 46.9515692 64.8253846 47.1731077L64.8253846 49.1060308 64.0001538 49.1060308 64.0001538 43.0940308zM71.9873538 44.7462462C71.9615077 44.0050154 71.5018154 43.6477846 70.9488923 43.6477846 70.3184308 43.6477846 69.8079692 44.0391692 69.6888923 44.7462462L71.9873538 44.7462462zM70.9655077 42.9924C72.1830462 42.9924 72.8301231 43.8951692 72.8301231 45.0102462 72.8301231 45.1210154 72.8052 45.3674769 72.8052 45.3674769L69.6621231 45.3674769C69.7055077 46.3127077 70.3784308 46.7899385 71.1436615 46.7899385 71.8848923 46.7899385 72.4212 46.2868615 72.4212 46.2868615L72.7618154 46.8914769C72.7618154 46.8914769 72.1230462 47.5053231 71.0928923 47.5053231 69.7396615 47.5053231 68.8110462 46.5259385 68.8110462 45.2484 68.8110462 43.8776308 69.7396615 42.9924 70.9655077 42.9924zM73.8353538 43.0943077L74.6356615 43.0943077 74.6356615 43.8438462C74.6356615 44.022 74.6190462 44.1678462 74.6190462 44.1678462L74.6356615 44.1678462C74.8313538 43.5373846 75.3335077 43.0435385 75.9981231 43.0435385 76.1088923 43.0435385 76.2104308 43.0601538 76.2104308 43.0601538L76.2104308 43.878C76.2104308 43.878 76.1005846 43.8521538 75.9722769 43.8521538 75.4442769 43.8521538 74.9596615 44.2269231 74.7630462 44.8656923 74.6864308 45.1121538 74.6615077 45.3761538 74.6615077 45.6401538L74.6615077 47.4023077 73.8353538 47.4023077 73.8353538 43.0943077zM78.3231692 46.8407077C79.0210154 46.8407077 79.4724 46.1087077 79.4724 45.4699385L79.4724 45.3333231 79.2600923 45.3333231C78.6379385 45.3333231 77.5145538 45.3767077 77.5145538 46.1511692 77.5145538 46.5000923 77.7868615 46.8407077 78.3231692 46.8407077M79.2767077 44.7120923L79.4640923 44.7120923 79.4640923 44.6354769C79.4640923 43.9293231 79.0634769 43.6902462 78.5188615 43.6902462 77.8542462 43.6902462 77.3179385 44.1074769 77.3179385 44.1074769L76.9773231 43.5028615C76.9773231 43.5028615 77.5994769 42.9924 78.5871692 42.9924 79.6764 42.9924 80.2893231 43.5887077 80.2893231 44.6779385L80.2893231 47.4028615 79.5231692 47.4028615 79.5231692 46.9939385C79.5231692 46.7982462 79.5407077 46.6533231 79.5407077 46.6533231L79.5231692 46.6533231C79.5231692 46.6533231 79.1742462 47.5053231 78.1440923 47.5053231 77.4028615 47.5053231 76.6800923 47.0539385 76.6800923 46.1936308 76.6800923 44.7720923 78.5530154 44.7120923 79.2767077 44.7120923M81.6782769 43.8181846L81.1161231 43.8181846 81.1161231 43.1535692 81.7032 43.1535692 81.7032 41.9111077 82.5044308 41.9111077 82.5044308 43.1535692 83.5428923 43.1535692 83.5428923 43.8181846 82.5044308 43.8181846 82.5044308 45.7335692C82.5044308 46.5938769 83.1081231 46.7046462 83.4238154 46.7046462 83.5428923 46.7046462 83.6195077 46.6871077 83.6195077 46.6871077L83.6195077 47.4191077C83.6195077 47.4191077 83.5004308 47.4366462 83.3296615 47.4366462 82.7758154 47.4366462 81.6782769 47.2658769 81.6782769 45.8277231L81.6782769 43.8181846zM84.5473846 47.4027692L85.3735385 47.4027692 85.3735385 43.0947692 84.5473846 43.0947692 84.5473846 47.4027692zM84.5390769 42.2344615L85.3735385 42.2344615 85.3735385 41.3916923 84.5390769 41.3916923 84.5390769 42.2344615zM88.6776 46.7897538C89.4945231 46.7897538 90.1582154 46.1426769 90.1582154 45.2399077 90.1582154 44.3463692 89.4945231 43.7076 88.6776 43.7076 87.8689846 43.7076 87.1960615 44.3463692 87.1960615 45.2399077 87.1960615 46.1426769 87.8689846 46.7897538 88.6776 46.7897538M88.6776 42.9922154C89.9634462 42.9922154 91.0019077 43.9374462 91.0019077 45.2399077 91.0019077 46.5516 89.9634462 47.5051385 88.6776 47.5051385 87.3917538 47.5051385 86.3523692 46.5516 86.3523692 45.2399077 86.3523692 43.9374462 87.3917538 42.9922154 88.6776 42.9922154M91.9817538 43.0943077L92.7820615 43.0943077 92.7820615 43.6647692C92.7820615 43.8355385 92.7654462 43.9795385 92.7654462 43.9795385L92.7820615 43.9795385C92.9528308 43.6047692 93.4632923 42.9927692 94.4002154 42.9927692 95.4128308 42.9927692 95.8817538 43.5456923 95.8817538 44.6441538L95.8817538 47.4023077 95.0556 47.4023077 95.0556 44.8315385C95.0556 44.2269231 94.9272923 43.7496923 94.2377538 43.7496923 93.5823692 43.7496923 93.0543692 44.1844615 92.8752923 44.8056923 92.8245231 44.9764615 92.8079077 45.1721538 92.8079077 45.3844615L92.8079077 47.4023077 91.9817538 47.4023077 91.9817538 43.0943077zM99.9947077 44.7462462C99.9688615 44.0050154 99.5091692 43.6477846 98.9562462 43.6477846 98.3257846 43.6477846 97.8153231 44.0391692 97.6953231 44.7462462L99.9947077 44.7462462zM98.9728615 42.9924C100.1904 42.9924 100.837477 43.8951692 100.837477 45.0102462 100.837477 45.1210154 100.811631 45.3674769 100.811631 45.3674769L97.6694769 45.3674769C97.7128615 46.3127077 98.3848615 46.7899385 99.1510154 46.7899385 99.8922462 46.7899385 100.428554 46.2868615 100.428554 46.2868615L100.769169 46.8914769C100.769169 46.8914769 100.1304 47.5053231 99.1002462 47.5053231 97.7460923 47.5053231 96.8184 46.5259385 96.8184 45.2484 96.8184 43.8776308 97.7460923 42.9924 98.9728615 42.9924zM101.842708 43.0943077L102.643015 43.0943077 102.643015 43.6647692C102.643015 43.8355385 102.6264 43.9795385 102.6264 43.9795385L102.643015 43.9795385C102.813785 43.6047692 103.324246 42.9927692 104.261169 42.9927692 105.273785 42.9927692 105.742708 43.5456923 105.742708 44.6441538L105.742708 47.4023077 104.916554 47.4023077 104.916554 44.8315385C104.916554 44.2269231 104.788246 43.7496923 104.098708 43.7496923 103.443323 43.7496923 102.915323 44.1844615 102.736246 44.8056923 102.685477 44.9764615 102.668862 45.1721538 102.668862 45.3844615L102.668862 47.4023077 101.842708 47.4023077 101.842708 43.0943077zM7.61990769 57.5746154L9.79098462 54.8496923C9.97836923 54.6198462 10.1482154 54.45 10.1482154 54.45L10.1482154 54.4333846C10.1482154 54.4333846 10.0125231 54.45 9.73098462 54.45L7.71406154 54.45 7.71406154 53.7429231 11.2642154 53.7429231 11.2642154 54.2201538 9.09313846 56.9533846C8.91406154 57.174 8.72667692 57.3447692 8.72667692 57.3447692L8.72667692 57.3623077C8.72667692 57.3623077 8.8716 57.3447692 9.15221538 57.3447692L11.3408308 57.3447692 11.3408308 58.0518462 7.61990769 58.0518462 7.61990769 57.5746154zM12.2776615 53.7430154L13.1038154 53.7430154 13.1038154 56.3147077C13.1038154 56.9110154 13.2219692 57.3873231 13.9124308 57.3873231 14.7893538 57.3873231 15.3090462 56.6128615 15.3090462 55.7608615L15.3090462 53.7430154 16.1342769 53.7430154 16.1342769 58.0510154 15.3348923 58.0510154 15.3348923 57.4805538C15.3348923 57.3024 15.3515077 57.1657846 15.3515077 57.1657846L15.3348923 57.1657846C15.1558154 57.5913231 14.5936615 58.1534769 13.7508923 58.1534769 12.7798154 58.1534769 12.2776615 57.6430154 12.2776615 56.5020923L12.2776615 53.7430154zM17.4293538 53.7430154L18.2296615 53.7430154 18.2296615 54.4925538C18.2296615 54.6707077 18.2130462 54.8156308 18.2130462 54.8156308L18.2296615 54.8156308C18.4253538 54.1860923 18.9284308 53.6922462 19.5921231 53.6922462 19.7028923 53.6922462 19.8044308 53.7088615 19.8044308 53.7088615L19.8044308 54.5267077C19.8044308 54.5267077 19.6945846 54.5008615 19.5662769 54.5008615 19.0382769 54.5008615 18.5536615 54.8756308 18.3570462 55.5134769 18.2804308 55.7608615 18.2555077 56.0248615 18.2555077 56.2888615L18.2555077 58.0510154 17.4293538 58.0510154 17.4293538 53.7430154zM25.1776615 57.3191077C25.8247385 57.3191077 26.2078154 56.9111077 26.2078154 56.2972615 26.2078154 55.6843385 25.7998154 55.2671077 25.1693538 55.2671077L23.8244308 55.2671077 23.8244308 57.3191077 25.1776615 57.3191077zM25.0844308 54.5692615C25.6290462 54.5692615 25.9696615 54.1861846 25.9696615 53.6581846 25.9696615 53.1301846 25.6456615 52.7720308 25.0668923 52.7720308L23.8244308 52.7720308 23.8244308 54.5692615 25.0844308 54.5692615zM22.9816615 52.0400308L25.0844308 52.0400308C26.0979692 52.0400308 26.8299692 52.6021846 26.8299692 53.5723385 26.8299692 54.1603385 26.5401231 54.6283385 26.0804308 54.8674154L26.0804308 54.8840308C26.7108923 55.0714154 27.0681231 55.6677231 27.0681231 56.3397231 27.0681231 57.4723385 26.1912 58.0511077 25.1352 58.0511077L22.9816615 58.0511077 22.9816615 52.0400308zM31.0875692 55.3949538C31.0617231 54.6537231 30.6020308 54.2964923 30.0491077 54.2964923 29.4186462 54.2964923 28.9081846 54.6878769 28.7891077 55.3949538L31.0875692 55.3949538zM30.0657231 53.6411077C31.2832615 53.6411077 31.9312615 54.5438769 31.9312615 55.6589538 31.9312615 55.7697231 31.9054154 56.0161846 31.9054154 56.0161846L28.7632615 56.0161846C28.8057231 56.9614154 29.4786462 57.4386462 30.2448 57.4386462 30.9851077 57.4386462 31.5214154 56.9355692 31.5214154 56.9355692L31.8620308 57.5401846C31.8620308 57.5401846 31.2232615 58.1540308 30.1940308 58.1540308 28.8398769 58.1540308 27.9112615 57.1746462 27.9112615 55.8971077 27.9112615 54.5263385 28.8398769 53.6411077 30.0657231 53.6411077zM32.9359385 53.7430154L33.7362462 53.7430154 33.7362462 54.4925538C33.7362462 54.6707077 33.7196308 54.8156308 33.7196308 54.8156308L33.7362462 54.8156308C33.9319385 54.1860923 34.4340923 53.6922462 35.0987077 53.6922462 35.2094769 53.6922462 35.3110154 53.7088615 35.3110154 53.7088615L35.3110154 54.5267077C35.3110154 54.5267077 35.2011692 54.5008615 35.0728615 54.5008615 34.5448615 54.5008615 34.0593231 54.8756308 33.8636308 55.5134769 33.7870154 55.7608615 33.7620923 56.0248615 33.7620923 56.2888615L33.7620923 58.0510154 32.9359385 58.0510154 32.9359385 53.7430154zM36.0694154 53.7430154L36.8955692 53.7430154 36.8955692 56.3147077C36.8955692 56.9110154 37.0146462 57.3873231 37.7041846 57.3873231 38.5811077 57.3873231 39.1008 56.6128615 39.1008 55.7608615L39.1008 53.7430154 39.9269538 53.7430154 39.9269538 58.0510154 39.1266462 58.0510154 39.1266462 57.4805538C39.1266462 57.3024 39.1432615 57.1657846 39.1432615 57.1657846L39.1266462 57.1657846C38.9475692 57.5913231 38.3854154 58.1534769 37.5426462 58.1534769 36.5715692 58.1534769 36.0694154 57.6430154 36.0694154 56.5020923L36.0694154 53.7430154zM41.4509538 54.4668923L40.9146462 54.4668923 40.9146462 53.8022769 41.4509538 53.8022769 41.4509538 53.5982769C41.4509538 52.1767385 42.5244923 51.9976615 43.0691077 51.9976615 43.2564923 51.9976615 43.3838769 52.0235077 43.3838769 52.0235077L43.3838769 52.7296615C43.3838769 52.7296615 43.2989538 52.7130462 43.1706462 52.7130462 42.8558769 52.7130462 42.2688 52.8145846 42.2688 53.6158154L42.2688 53.8022769 43.2906462 53.8022769 43.2906462 54.4668923 42.2688 54.4668923 42.2688 58.0512 41.4509538 58.0512 41.4509538 54.4668923zM44.1336923 56.9359385C44.1336923 56.9359385 44.6192308 57.4380923 45.3678462 57.4380923 45.726 57.4380923 46.0832308 57.2507077 46.0832308 56.9017846 46.0832308 56.1097846 43.8696923 56.2722462 43.8696923 54.8673231 43.8696923 54.0836308 44.5684615 53.6414769 45.4278462 53.6414769 46.3730769 53.6414769 46.8152308 54.1177846 46.8152308 54.1177846L46.4838462 54.7390154C46.4838462 54.7390154 46.1007692 54.3559385 45.4195385 54.3559385 45.0613846 54.3559385 44.7124615 54.5091692 44.7124615 54.8839385 44.7124615 55.6593231 46.926 55.4885538 46.926 56.9017846 46.926 57.6171692 46.3130769 58.1534769 45.3678462 58.1534769 44.3127692 58.1534769 43.7330769 57.5230154 43.7330769 57.5230154L44.1336923 56.9359385z" mask="url(#klischeefrei-b)"/>
      <polygon fill="#595958" points="48.018 55.991 50.503 55.991 50.503 55.259 48.018 55.259" mask="url(#klischeefrei-b)"/>
      <path fill="#595958" d="M54.0459692 53.7430154L54.8712 53.7430154 54.8712 56.3147077C54.8712 56.9110154 54.9902769 57.3873231 55.6807385 57.3873231 56.5576615 57.3873231 57.0764308 56.6128615 57.0764308 55.7608615L57.0764308 53.7430154 57.9025846 53.7430154 57.9025846 58.0510154 57.1022769 58.0510154 57.1022769 57.4805538C57.1022769 57.3024 57.1198154 57.1657846 57.1198154 57.1657846L57.1022769 57.1657846C56.9232 57.5913231 56.3610462 58.1534769 55.5182769 58.1534769 54.5481231 58.1534769 54.0459692 57.6430154 54.0459692 56.5020923L54.0459692 53.7430154zM59.1976615 53.7430154L59.9979692 53.7430154 59.9979692 54.3134769C59.9979692 54.4842462 59.9813538 54.6282462 59.9813538 54.6282462L59.9979692 54.6282462C60.1678154 54.2534769 60.6782769 53.6414769 61.6152 53.6414769 62.6287385 53.6414769 63.0967385 54.1944 63.0967385 55.2928615L63.0967385 58.0510154 62.2715077 58.0510154 62.2715077 55.4802462C62.2715077 54.8756308 62.1432 54.3984 61.4536615 54.3984 60.7982769 54.3984 60.2702769 54.8331692 60.0912 55.4544 60.0404308 55.6251692 60.0238154 55.8208615 60.0238154 56.0331692L60.0238154 58.0510154 59.1976615 58.0510154 59.1976615 53.7430154zM66.1117846 57.4385538C66.7505538 57.4385538 67.3551692 56.9871692 67.3551692 55.8887077 67.3551692 55.1225538 66.9545538 54.3564 66.1376308 54.3564 65.4564 54.3564 64.8942462 54.9185538 64.8942462 55.8970154 64.8942462 56.8339385 65.3964 57.4385538 66.1117846 57.4385538M66.0010154 53.6410154C66.9970154 53.6410154 67.3293231 54.3222462 67.3293231 54.3222462L67.3459385 54.3222462C67.3459385 54.3222462 67.3293231 54.1939385 67.3293231 54.0333231L67.3293231 52.0404 68.1554769 52.0404 68.1554769 58.0514769 67.3717846 58.0514769 67.3717846 57.6425538C67.3717846 57.4727077 67.3810154 57.3536308 67.3810154 57.3536308L67.3634769 57.3536308C67.3634769 57.3536308 67.0145538 58.1539385 65.9502462 58.1539385 64.7834769 58.1539385 64.0514769 57.2336308 64.0514769 55.8970154 64.0514769 54.5262462 64.8600923 53.6410154 66.0010154 53.6410154M71.8255385 56.7231692C71.8255385 56.7231692 72.4643077 57.3702462 73.3587692 57.3702462 73.92 57.3702462 74.3972308 57.0554769 74.3972308 56.4850154 74.3972308 55.1825538 71.4849231 55.4631692 71.4849231 53.6151692 71.4849231 52.6791692 72.2935385 51.9379385 73.4261538 51.9379385 74.5412308 51.9379385 75.1292308 52.5425538 75.1292308 52.5425538L74.7461538 53.2413231C74.7461538 53.2413231 74.1923077 52.7216308 73.4261538 52.7216308 72.7873846 52.7216308 72.3369231 53.1213231 72.3369231 53.5985538 72.3369231 54.8410154 75.2483077 54.5096308 75.2483077 56.4591692 75.2483077 57.3868615 74.5329231 58.1539385 73.3412308 58.1539385 72.0636923 58.1539385 71.3483077 57.3619385 71.3483077 57.3619385L71.8255385 56.7231692zM76.4409231 54.4668923L75.8787692 54.4668923 75.8787692 53.8022769 76.4667692 53.8022769 76.4667692 52.5598154 77.2670769 52.5598154 77.2670769 53.8022769 78.3055385 53.8022769 78.3055385 54.4668923 77.2670769 54.4668923 77.2670769 56.3822769C77.2670769 57.2425846 77.8707692 57.3533538 78.1864615 57.3533538 78.3055385 57.3533538 78.3821538 57.3358154 78.3821538 57.3358154L78.3821538 58.0678154C78.3821538 58.0678154 78.2630769 58.0853538 78.0932308 58.0853538 77.5393846 58.0853538 76.4409231 57.9155077 76.4409231 56.4764308L76.4409231 54.4668923zM79.2511385 53.7430154L80.0772923 53.7430154 80.0772923 56.3147077C80.0772923 56.9110154 80.1954462 57.3873231 80.8859077 57.3873231 81.7628308 57.3873231 82.2816 56.6128615 82.2816 55.7608615L82.2816 53.7430154 83.1077538 53.7430154 83.1077538 58.0510154 82.3074462 58.0510154 82.3074462 57.4805538C82.3074462 57.3024 82.3249846 57.1657846 82.3249846 57.1657846L82.3074462 57.1657846C82.1292923 57.5913231 81.5671385 58.1534769 80.7234462 58.1534769 79.7532923 58.1534769 79.2511385 57.6430154 79.2511385 56.5020923L79.2511385 53.7430154zM86.1823385 57.4385538C86.8211077 57.4385538 87.4257231 56.9871692 87.4257231 55.8887077 87.4257231 55.1225538 87.0251077 54.3564 86.2072615 54.3564 85.5269538 54.3564 84.9648 54.9185538 84.9648 55.8970154 84.9648 56.8339385 85.4669538 57.4385538 86.1823385 57.4385538M86.0715692 53.6410154C87.0675692 53.6410154 87.3998769 54.3222462 87.3998769 54.3222462L87.4164923 54.3222462C87.4164923 54.3222462 87.3998769 54.1939385 87.3998769 54.0333231L87.3998769 52.0404 88.2251077 52.0404 88.2251077 58.0514769 87.4423385 58.0514769 87.4423385 57.6425538C87.4423385 57.4727077 87.4506462 57.3536308 87.4506462 57.3536308L87.4331077 57.3536308C87.4331077 57.3536308 87.0851077 58.1539385 86.0208 58.1539385 84.8540308 58.1539385 84.1220308 57.2336308 84.1220308 55.8970154 84.1220308 54.5262462 84.9306462 53.6410154 86.0715692 53.6410154M89.52 58.0513846L90.3461538 58.0513846 90.3461538 53.7433846 89.52 53.7433846 89.52 58.0513846zM89.5116923 52.8830769L90.3461538 52.8830769 90.3461538 52.0403077 89.5116923 52.0403077 89.5116923 52.8830769zM94.5189231 55.3949538C94.4930769 54.6537231 94.0333846 54.2964923 93.4804615 54.2964923 92.85 54.2964923 92.3395385 54.6878769 92.2195385 55.3949538L94.5189231 55.3949538zM93.4970769 53.6411077C94.7146154 53.6411077 95.3616923 54.5438769 95.3616923 55.6589538 95.3616923 55.7697231 95.3358462 56.0161846 95.3358462 56.0161846L92.1936923 56.0161846C92.2370769 56.9614154 92.9090769 57.4386462 93.6752308 57.4386462 94.4164615 57.4386462 94.9527692 56.9355692 94.9527692 56.9355692L95.2933846 57.5401846C95.2933846 57.5401846 94.6546154 58.1540308 93.6244615 58.1540308 92.2703077 58.1540308 91.3426154 57.1746462 91.3426154 55.8971077 91.3426154 54.5263385 92.2703077 53.6411077 93.4970769 53.6411077zM96.3668308 53.7430154L97.1671385 53.7430154 97.1671385 54.3134769C97.1671385 54.4842462 97.1505231 54.6282462 97.1505231 54.6282462L97.1671385 54.6282462C97.3379077 54.2534769 97.8483692 53.6414769 98.7852923 53.6414769 99.7979077 53.6414769 100.266831 54.1944 100.266831 55.2928615L100.266831 58.0510154 99.4406769 58.0510154 99.4406769 55.4802462C99.4406769 54.8756308 99.3123692 54.3984 98.6228308 54.3984 97.9674462 54.3984 97.4394462 54.8331692 97.2603692 55.4544 97.2096 55.6251692 97.1929846 55.8208615 97.1929846 56.0331692L97.1929846 58.0510154 96.3668308 58.0510154 96.3668308 53.7430154zM100.999385 53.7430154L101.876308 53.7430154 102.770769 56.7651692C102.838154 56.9867077 102.872308 57.2248615 102.881538 57.2248615L102.898154 57.2248615C102.898154 57.2248615 102.940615 56.9867077 103.008923 56.7651692L103.944923 53.7513231 104.703692 53.7513231 105.631385 56.7651692C105.699692 56.9867077 105.750462 57.2248615 105.750462 57.2248615L105.768 57.2248615C105.768 57.2248615 105.802154 56.9867077 105.869538 56.7651692L106.772308 53.7430154 107.640923 53.7430154 106.252615 58.0510154 105.341538 58.0510154 104.448 55.2836308C104.379692 55.0630154 104.328 54.8156308 104.328 54.8156308L104.311385 54.8156308C104.311385 54.8156308 104.260615 55.0630154 104.192308 55.2836308L103.307077 58.0510154 102.386769 58.0510154 100.999385 53.7430154zM109.727631 57.4894154C110.425477 57.4894154 110.876862 56.7574154 110.876862 56.1186462L110.876862 55.9820308 110.664554 55.9820308C110.0424 55.9820308 108.919015 56.0254154 108.919015 56.7998769 108.919015 57.1488 109.191323 57.4894154 109.727631 57.4894154M110.681169 55.3608L110.868554 55.3608 110.868554 55.2841846C110.868554 54.5780308 110.467938 54.3389538 109.923323 54.3389538 109.259631 54.3389538 108.723323 54.7561846 108.723323 54.7561846L108.381785 54.1515692C108.381785 54.1515692 109.003938 53.6411077 109.991631 53.6411077 111.080862 53.6411077 111.694708 54.2374154 111.694708 55.3266462L111.694708 58.0515692 110.927631 58.0515692 110.927631 57.6426462C110.927631 57.4469538 110.945169 57.3020308 110.945169 57.3020308L110.927631 57.3020308C110.927631 57.3020308 110.578708 58.1540308 109.548554 58.1540308 108.807323 58.1540308 108.084554 57.7026462 108.084554 56.8423385 108.084554 55.4208 109.957477 55.3608 110.681169 55.3608M112.929508 52.0402154L113.755662 52.0402154 113.755662 54.2454462C113.755662 54.4494462 113.738123 54.6026769 113.738123 54.6026769L113.755662 54.6026769C113.942123 54.1863692 114.486738 53.6408308 115.347969 53.6408308 116.360585 53.6408308 116.829508 54.1937538 116.829508 55.2922154L116.829508 58.0512923 116.003354 58.0512923 116.003354 55.4805231C116.003354 54.8759077 115.875046 54.3986769 115.185508 54.3986769 114.538431 54.3986769 114.002123 54.8417538 113.823046 55.4629846 113.772277 55.6337538 113.755662 55.8285231 113.755662 56.0334462L113.755662 58.0512923 112.929508 58.0512923 112.929508 52.0402154zM118.013169 52.0402154L118.839323 52.0402154 118.839323 56.7322154C118.839323 57.2509846 119.043323 57.3451385 119.299015 57.3451385 119.375631 57.3451385 119.443015 57.3359077 119.443015 57.3359077L119.443015 58.0679077C119.443015 58.0679077 119.315631 58.0854462 119.170708 58.0854462 118.702708 58.0854462 118.013169 57.9580615 118.013169 56.8762154L118.013169 52.0402154z" mask="url(#klischeefrei-b)"/>
      <polygon fill="#595958" points="79.956 25.253 79.956 31.18 2.27 31.18 2.27 2.297 79.956 2.297 79.956 8.224 82.225 8.224 82.225 .026 0 .026 0 33.45 82.225 33.45 82.225 25.253" mask="url(#klischeefrei-b)"/>
    </g>
  </g>
</svg>
