<svg xmlns="http://www.w3.org/2000/svg" width="177" height="46" viewBox="0 0 177 46">
  <g fill="none" fill-rule="evenodd">
    <path fill="#003369" d="M7.76026571 26.4981029L2.01880857 26.4981029 2.01880857 15.0467314.0000657142857 15.0467314.0000657142857 10.3153029 2.01880857 10.3153029 2.01880857 8.26501714C2.01880857 6.02547429 2.08189429 4.38458857 3.65969429 2.58664571 5.07912286.914217143 7.12940857.000131428571 9.30652286.000131428571 10.1890657.000131428571 10.9776371.157845714 11.7668657.567902857L11.7668657 5.52013143C11.1038086 5.23690286 10.5044943 4.98390286 9.74746571 4.98390286 8.26495143 4.98390286 7.76026571 5.86710286 7.76026571 7.69724571L7.76026571 10.3153029 11.7668657 10.3153029 11.7668657 15.0467314 7.76026571 15.0467314 7.76026571 26.4981029zM21.0712857 18.4224743C21.0712857 20.47276 22.4276286 22.05056 24.7618 22.05056 27.0966286 22.05056 28.4529714 20.47276 28.4529714 18.4224743 28.4529714 16.4352743 27.0966286 14.7635029 24.7618 14.7635029 22.4276286 14.7635029 21.0712857 16.4352743 21.0712857 18.4224743M34.5098571 18.4224743C34.5098571 23.9115886 29.9670286 27.0343314 24.7618 27.0343314 19.5887714 27.0343314 15.0144 23.9424743 15.0144 18.4224743 15.0144 12.9024743 19.5572286 9.77907429 24.7618 9.77907429 29.9670286 9.77907429 34.5098571 12.9024743 34.5098571 18.4224743M45.35922 12.9651L45.4223057 12.9651C46.5256486 10.9779 48.4188771 10.0947 50.65842 10.0947L51.76242 10.0947 51.76242 15.6147C50.9738486 15.1731 50.2174771 15.0784714 49.33362 15.0784714 46.1471343 15.0784714 45.35922 17.1925 45.35922 19.9682714L45.35922 26.4983 39.6177629 26.4983 39.6177629 10.3155 45.35922 10.3155 45.35922 12.9651z"/>
    <path fill="#94C01F" d="M61.1922886 18.4224743C61.1922886 20.47276 62.5486314 22.05056 64.88346 22.05056 67.2182886 22.05056 68.5739743 20.47276 68.5739743 18.4224743 68.5739743 16.4352743 67.2182886 14.7635029 64.88346 14.7635029 62.5486314 14.7635029 61.1922886 16.4352743 61.1922886 18.4224743zM74.1261743 26.4981029L68.3847171 26.4981029 68.3847171 24.70016 68.3222886 24.70016C67.31226 26.3088457 65.32506 27.0343314 63.4318314 27.0343314 58.6373171 27.0343314 55.2622314 23.0283886 55.2622314 18.3909314 55.2622314 13.7541314 58.5742314 9.77907429 63.3694029 9.77907429 65.2304314 9.77907429 67.1860886 10.4730171 68.3847171 11.8924457L68.3847171 10.3153029 74.1261743 10.3153029 74.1261743 26.4981029zM86.11108 10.3153686L86.11108 18.9587686C86.11108 21.0090543 86.6157657 22.4600257 88.9821371 22.4600257 91.3478514 22.4600257 91.85188 21.0090543 91.85188 18.9587686L91.85188 10.3153686 97.5933371 10.3153686 97.5933371 20.0627686C97.5933371 25.3941686 93.8403943 27.0343971 88.9821371 27.0343971 84.1232229 27.0343971 80.37028 25.3941686 80.37028 20.0627686L80.37028 10.3153686 86.11108 10.3153686zM114.468306 14.47896C113.585106 14.0058171 112.354277 13.6910457 111.376449 13.6910457 110.714049 13.6910457 109.578506 13.9742743 109.578506 14.7943886 109.578506 15.8990457 111.376449 16.0561029 112.165677 16.2144743 114.84682 16.7507029 116.865563 18.0124171 116.865563 21.0096457 116.865563 25.2679314 112.985791 27.0343314 109.231534 27.0343314 106.928906 27.0343314 104.657163 26.3719314 102.701506 25.1726457L104.783334 21.16736C105.951077 21.9874743 107.907391 22.8075886 109.32682 22.8075886 110.051649 22.8075886 111.124763 22.4606171 111.124763 21.5774171 111.124763 20.3150457 109.32682 20.25196 107.52822 19.7788171 105.730277 19.3056743 103.932334 18.4224743 103.932334 15.5205314 103.932334 11.5454743 107.52822 9.77907429 111.060363 9.77907429 112.891163 9.77907429 114.721306 10.06296 116.39242 10.8199886L114.468306 14.47896zM129.703243 23.4383143C129.703243 25.4570571 128.063014 27.1288286 126.012071 27.1288286 123.962443 27.1288286 122.322214 25.4570571 122.322214 23.4383143 122.322214 21.3880286 123.962443 19.7478 126.012071 19.7478 128.063014 19.7478 129.703243 21.3880286 129.703243 23.4383143M140.805409 18.4224743C140.805409 20.47276 142.161751 22.05056 144.49658 22.05056 146.831409 22.05056 148.187751 20.47276 148.187751 18.4224743 148.187751 16.4352743 146.831409 14.7635029 144.49658 14.7635029 142.161751 14.7635029 140.805409 16.4352743 140.805409 18.4224743zM147.997837 24.70016L147.935409 24.70016C146.92538 26.3088457 144.93818 27.0343314 143.044951 27.0343314 138.24978 27.0343314 134.876009 23.0283886 134.876009 18.3909314 134.876009 13.7541314 138.187351 9.77907429 142.982523 9.77907429 144.843551 9.77907429 146.799209 10.4730171 147.997837 11.8924457L147.997837.314902857 153.739294.314902857 153.739294 26.4981029 147.997837 26.4981029 147.997837 24.70016zM171.149506 16.0563657C170.86562 14.5107657 169.446191 13.5013943 167.901249 13.5013943 166.22882 13.5013943 164.840934 14.3845943 164.493306 16.0563657L171.149506 16.0563657zM176.480906 19.3690229L164.399991 19.3690229C164.399991 21.7031943 165.629506 22.9649086 167.995877 22.9649086 169.225391 22.9649086 170.108591 22.5548514 170.740106 21.4823943L176.260106 21.4823943C175.345363 25.29908 171.717934 27.0345943 168.026763 27.0345943 162.664477 27.0345943 158.65722 24.00648 158.65722 18.4227371 158.65722 13.0282514 162.348391 9.77868 167.617363 9.77868 173.232649 9.77868 176.480906 13.2490514 176.480906 18.7697086L176.480906 19.3690229z"/>
    <polygon fill="#94C01F" points="3.363 35.459 3.363 38.524 7.152 38.524 7.152 39.768 3.363 39.768 3.363 45.117 2.004 45.117 2.004 34.215 7.282 34.215 7.282 35.459"/>
    <path fill="#94C01F" d="M10.3753657 41.7484829C10.3753657 43.0213686 11.4018229 44.1056543 12.6891657 44.1056543 13.9758514 44.1056543 15.0023086 43.0213686 15.0023086 41.7484829 15.0023086 40.4617971 13.9758514 39.3919686 12.6891657 39.3919686 11.4018229 39.3919686 10.3753657 40.4617971 10.3753657 41.7484829M16.3034514 41.7484829C16.3034514 43.7875971 14.7131657 45.3489686 12.6891657 45.3489686 10.6645086 45.3489686 9.07422286 43.7875971 9.07422286 41.7484829 9.07422286 39.7093686 10.6645086 38.1479971 12.6891657 38.1479971 14.7131657 38.1479971 16.3034514 39.7093686 16.3034514 41.7484829M19.83014 39.4497314L19.8735114 39.4497314C20.1915686 38.6545886 20.8565971 38.1485886 21.7240257 38.1485886 22.1005686 38.1485886 22.4757971 38.2787029 22.7945114 38.4804457L22.2011114 39.6665886C21.9697971 39.4635314 21.7095686 39.3919029 21.4059686 39.3919029 20.0036257 39.3919029 19.83014 40.6930457 19.83014 41.7917886L19.83014 45.1175886 18.5289971 45.1175886 18.5289971 38.3503314 19.83014 38.3503314 19.83014 39.4497314zM25.7142629 38.3504629L25.7142629 42.09552C25.7142629 43.1804629 25.9889486 44.1346343 27.2756343 44.1346343 28.5629771 44.1346343 28.8376629 43.1804629 28.8376629 42.09552L28.8376629 38.3504629 30.1388057 38.3504629 30.1388057 42.2400914C30.1388057 44.0906057 29.2713771 45.3483771 27.2756343 45.3483771 25.2805486 45.3483771 24.41312 44.0906057 24.41312 42.2400914L24.41312 38.3504629 25.7142629 38.3504629zM34.0848171 39.20396L34.1137314 39.20396C34.4896171 38.6112171 35.1691029 38.1485886 35.9064171 38.1485886 36.78896 38.1485886 37.4250743 38.5961029 37.8587886 39.3485314 38.2780457 38.6250171 39.0876457 38.1485886 39.9412743 38.1485886 41.7195029 38.1485886 42.1821314 39.5364743 42.1821314 41.0689314L42.1821314 45.1175886 40.8809886 45.1175886 40.8809886 41.2857886C40.8809886 40.41836 40.7653314 39.3045029 39.62256 39.3045029 38.2346743 39.3045029 38.1334743 40.7508743 38.1334743 41.7917886L38.1334743 45.1175886 36.8323314 45.1175886 36.8323314 41.53156C36.8323314 40.6496743 36.78896 39.3045029 35.5890171 39.3045029 34.2004743 39.3045029 34.0848171 40.7364171 34.0848171 41.7917886L34.0848171 45.1175886 32.7836743 45.1175886 32.7836743 38.3503314 34.0848171 38.3503314 34.0848171 39.20396z"/>
    <path fill="#003369" d="M53.3996257 33.8826143C53.1393971 33.7669571 52.80754 33.6079286 52.5328543 33.6079286 51.60694 33.6079286 51.60694 34.7789571 51.60694 35.4446429L51.60694 38.3505286 53.3996257 38.3505286 53.3996257 39.5649286 51.60694 39.5649286 51.60694 45.1177857 50.3057971 45.1177857 50.3057971 39.5649286 49.7130543 39.5649286 49.7130543 38.3505286 50.3057971 38.3505286 50.3057971 35.0536429C50.3057971 33.5790143 50.8117971 32.3928714 52.4888257 32.3928714 52.80754 32.3928714 53.1104829 32.4513571 53.3996257 32.5670143L53.3996257 33.8826143zM60.1802229 35.9503143C60.1802229 36.4418571 59.78988 36.8328571 59.3134514 36.8328571 58.8219086 36.8328571 58.4309086 36.4418571 58.4309086 35.9503143 58.4309086 35.4732286 58.8219086 35.0828857 59.3134514 35.0828857 59.78988 35.0828857 60.1802229 35.4732286 60.1802229 35.9503143zM57.1291086 35.9503143C57.1291086 36.4418571 56.7387657 36.8328571 56.26168 36.8328571 55.7701371 36.8328571 55.3797943 36.4418571 55.3797943 35.9503143 55.3797943 35.4732286 55.7701371 35.0828857 56.26168 35.0828857 56.7387657 35.0828857 57.1291086 35.4732286 57.1291086 35.9503143zM56.2189657 38.3502L56.2189657 42.0959143C56.2189657 43.1802 56.4936514 44.1343714 57.7803371 44.1343714 59.0670229 44.1343714 59.3417086 43.1802 59.3417086 42.0959143L59.3417086 38.3502 60.6428514 38.3502 60.6428514 42.2398286C60.6428514 44.091 59.7754229 45.3487714 57.7803371 45.3487714 55.7852514 45.3487714 54.9171657 44.091 54.9171657 42.2398286L54.9171657 38.3502 56.2189657 38.3502zM64.7193057 39.4497314L64.7626771 39.4497314C65.0807343 38.6545886 65.7457629 38.1485886 66.6138486 38.1485886 66.9897343 38.1485886 67.3649629 38.2787029 67.6836771 38.4804457L67.0902771 39.6665886C66.8589629 39.4635314 66.5987343 39.3919029 66.2951343 39.3919029 64.8927914 39.3919029 64.7193057 40.6930457 64.7193057 41.7917886L64.7193057 45.1175886 63.4181629 45.1175886 63.4181629 38.3503314 64.7193057 38.3503314 64.7193057 39.4497314z"/>
    <path fill="#94C01F" d="M78.6996257 36.7313286L76.7623686 41.1414143 80.6368829 41.1414143 78.6996257 36.7313286zM76.1978829 42.3853857L74.9552257 45.1177857 73.4943971 45.1177857 78.6996257 33.7525 83.9048543 45.1177857 82.4440257 45.1177857 81.2013686 42.3853857 76.1978829 42.3853857zM86.8670571 38.3504629L86.8670571 42.09552C86.8670571 43.1804629 87.1417429 44.1346343 88.4290857 44.1346343 89.7164286 44.1346343 89.9911143 43.1804629 89.9911143 42.09552L89.9911143 38.3504629 91.2916 38.3504629 91.2916 42.2400914C91.2916 44.0906057 90.4248286 45.3483771 88.4290857 45.3483771 86.4333429 45.3483771 85.5665714 44.0906057 85.5665714 42.2400914L85.5665714 38.3504629 86.8670571 38.3504629zM96.6985057 39.8977057C96.5394771 39.5651914 96.2069629 39.3049629 95.8310771 39.3049629 95.4689914 39.3049629 95.1226771 39.5941057 95.1226771 39.9699914 95.1226771 40.5633914 95.9027057 40.8229629 96.6985057 41.1850486 97.4936486 41.5464771 98.2598771 42.03802 98.2598771 43.1078486 98.2598771 44.3945343 97.1900486 45.3487057 95.9322771 45.3487057 94.9491914 45.3487057 93.9509914 44.7848771 93.59022 43.8307057L94.7027629 43.3247057C94.9774486 43.8307057 95.31062 44.1921343 95.9322771 44.1921343 96.4816486 44.1921343 96.9587343 43.8162486 96.9587343 43.2379629 96.9587343 42.8765343 96.7852486 42.7030486 96.4816486 42.5006486L95.2087629 41.8211629C94.4576486 41.4163629 93.9082771 41.03982 93.9082771 40.1145629 93.9082771 39.01582 94.8039629 38.1483914 95.9027057 38.1483914 96.72742 38.1483914 97.3931057 38.5965629 97.75322 39.3345343L96.6985057 39.8977057zM105.951143 41.7343543C105.951143 40.4180971 105.155343 39.3048971 103.753 39.3048971 102.408486 39.3048971 101.612686 40.4759257 101.612686 41.7343543 101.612686 43.0065829 102.378914 44.1920686 103.753 44.1920686 105.170457 44.1920686 105.951143 43.0644114 105.951143 41.7343543zM100.383829 32.5672114L101.685629 32.5672114 101.685629 39.4783829 101.714543 39.4783829C102.249457 38.6687829 103.059714 38.1483257 104.071057 38.1483257 106.022771 38.1483257 107.252286 39.8398114 107.252286 41.6909829 107.252286 43.62824 106.095714 45.34864 104.013229 45.34864 103.059714 45.34864 102.235 44.8281829 101.714543 44.0619543L101.685629 44.0619543 101.685629 45.1173257 100.383829 45.1173257 100.383829 32.5672114zM109.767171 45.1173257L111.068314 45.1173257 111.068314 38.3500686 109.767171 38.3500686 109.767171 45.1173257zM111.314086 35.2568971C111.314086 35.74844 110.909286 36.1381257 110.417743 36.1381257 109.9262 36.1381257 109.5214 35.74844 109.5214 35.2568971 109.5214 34.75024 109.9262 34.34544 110.417743 34.34544 110.909286 34.34544 111.314086 34.75024 111.314086 35.2568971z"/>
    <polygon fill="#94C01F" points="114.162 45.117 115.463 45.117 115.463 32.567 114.162 32.567"/>
    <path fill="#94C01F" d="M123.385997 41.7343543C123.385997 40.4180971 122.590854 39.3048971 121.188511 39.3048971 119.84334 39.3048971 119.04754 40.4759257 119.04754 41.7343543 119.04754 43.0065829 119.814426 44.1920686 121.188511 44.1920686 122.605969 44.1920686 123.385997 43.0644114 123.385997 41.7343543zM123.314369 44.0619543L123.284797 44.0619543C122.76434 44.8281829 121.940283 45.34864 120.986111 45.34864 118.904283 45.34864 117.747054 43.62824 117.747054 41.6909829 117.747054 39.8398114 118.975911 38.1483257 120.928283 38.1483257 121.940283 38.1483257 122.749226 38.6687829 123.284797 39.4783829L123.314369 39.4783829 123.314369 32.5672114 124.614854 32.5672114 124.614854 45.1173257 123.314369 45.1173257 123.314369 44.0619543zM131.901254 40.9681257C131.742226 39.9554686 131.07654 39.2759829 130.035626 39.2759829 129.024283 39.2759829 128.272511 39.99884 128.112826 40.9681257L131.901254 40.9681257zM128.04054 41.9512114C128.054997 43.1077829 128.835683 44.1920686 130.079654 44.1920686 131.07654 44.1920686 131.612111 43.6860686 132.103654 42.8764686L133.202397 43.4981257C132.56694 44.6698114 131.380797 45.34864 130.065197 45.34864 127.997826 45.34864 126.740054 43.7872686 126.740054 41.7921829 126.740054 39.7096971 127.852597 38.1483257 130.035626 38.1483257 132.190397 38.1483257 133.202397 39.7386114 133.202397 41.7481543L133.202397 41.9512114 128.04054 41.9512114zM136.657194 39.4497314L136.700566 39.4497314C137.018623 38.6545886 137.683651 38.1485886 138.551737 38.1485886 138.927623 38.1485886 139.302851 38.2787029 139.621566 38.4804457L139.028166 39.6665886C138.796851 39.4635314 138.536623 39.3919029 138.233023 39.3919029 136.83068 39.3919029 136.657194 40.6930457 136.657194 41.7917886L136.657194 45.1175886 135.356051 45.1175886 135.356051 38.3503314 136.657194 38.3503314 136.657194 39.4497314z"/>
    <polygon fill="#003369" points="141.399 45.117 142.758 45.117 142.758 34.215 141.399 34.215"/>
    <path fill="#003369" d="M146.907046 39.2617229L146.936617 39.2617229C147.34076 38.5382086 148.151017 38.1485229 148.974417 38.1485229 150.883417 38.1485229 151.37496 39.4352086 151.37496 41.0833229L151.37496 45.1175229 150.07316 45.1175229 150.07316 41.2430086C150.07316 40.08578 149.914131 39.3044371 148.584731 39.3044371 146.907046 39.3044371 146.907046 40.78038 146.907046 42.0092371L146.907046 45.1175229 145.605903 45.1175229 145.605903 38.3502657 146.907046 38.3502657 146.907046 39.2617229zM155.42296 39.2617229L155.451217 39.2617229C155.856017 38.5382086 156.666274 38.1485229 157.490331 38.1485229 159.399331 38.1485229 159.890874 39.4352086 159.890874 41.0833229L159.890874 45.1175229 158.589074 45.1175229 158.589074 41.2430086C158.589074 40.08578 158.430046 39.3044371 157.099989 39.3044371 155.42296 39.3044371 155.42296 40.78038 155.42296 42.0092371L155.42296 45.1175229 154.121817 45.1175229 154.121817 38.3502657 155.42296 38.3502657 155.42296 39.2617229zM167.277226 40.9681257C167.119511 39.9554686 166.453169 39.2759829 165.412254 39.2759829 164.400911 39.2759829 163.64914 39.99884 163.489454 40.9681257L167.277226 40.9681257zM163.417826 41.9512114C163.431626 43.1077829 164.212311 44.1920686 165.456283 44.1920686 166.453169 44.1920686 166.98874 43.6860686 167.480283 42.8764686L168.578369 43.4981257C167.943569 44.6698114 166.757426 45.34864 165.441826 45.34864 163.374454 45.34864 162.116026 43.7872686 162.116026 41.7921829 162.116026 39.7096971 163.229226 38.1483257 165.412254 38.1483257 167.567026 38.1483257 168.578369 39.7386114 168.578369 41.7481543L168.578369 41.9512114 163.417826 41.9512114zM171.946489 39.2617229L171.97606 39.2617229C172.380203 38.5382086 173.19046 38.1485229 174.01386 38.1485229 175.92286 38.1485229 176.414403 39.4352086 176.414403 41.0833229L176.414403 45.1175229 175.112603 45.1175229 175.112603 41.2430086C175.112603 40.08578 174.953574 39.3044371 173.624174 39.3044371 171.946489 39.3044371 171.946489 40.78038 171.946489 42.0092371L171.946489 45.1175229 170.645346 45.1175229 170.645346 38.3502657 171.946489 38.3502657 171.946489 39.2617229z"/>
  </g>
</svg>
