<svg xmlns="http://www.w3.org/2000/svg" xmlns:xlink="http://www.w3.org/1999/xlink" width="145" height="55" viewBox="0 0 145 55">
  <defs>
    <polygon id="logo_deqavet-a" points=".419 .438 23.525 .438 23.525 18.97 .419 18.97"/>
  </defs>
  <g fill="none" fill-rule="evenodd" transform="translate(2 2)">
    <g stroke-width="3">
      <path stroke="#D8232A" d="M0.191962617,20.8254098 C3.7284486,11.7703279 12.455215,5.36557377 22.6579065,5.36557377 C35.9951776,5.36557377 46.8082617,16.3077049 46.8082617,29.8047541"/>
      <path stroke="#1A1919" d="M4.83016822,6.63836066 C9.75024299,2.75606557 15.937757,0.442622951 22.6579065,0.442622951 C34.5756262,0.442622951 44.8137944,7.71344262 49.2799626,18.1091803 C50.8195514,21.692459 51.6734206,25.6485246 51.6734206,29.8047541"/>
    </g>
    <path stroke="#F6BC25" stroke-width="3" d="M22.4987836,48 C12.2821224,48 4,39.7163671 4,29.4997567 C4,19.2831464 12.2821224,11 22.4987836,11 C32.7169045,11 41,19.2831464 41,29.4997567"/>
    <path fill="#1A1919" d="M61.8250395,41.9287489 C61.8250395,40.6915064 61.6045748,39.6558638 61.1646186,38.8218213 C60.7241757,37.9877787 60.0496411,37.3858383 59.1415014,37.0174298 C58.8689622,36.9073362 58.6017764,36.819166 58.339944,36.7505362 C58.077625,36.682383 57.7997323,36.6309106 57.506266,36.5965957 C57.2127996,36.5627574 56.8949994,36.5389277 56.5523786,36.5251064 C56.2102446,36.5112851 55.8257696,36.5046128 55.399927,36.5046128 L54.2883562,36.5046128 C54.2469887,36.5046128 54.1992943,36.5217702 54.1472199,36.5556085 C54.0946587,36.5899234 54.0683781,36.6580766 54.0683781,36.7605447 L54.0683781,47.2399319 C54.0683781,47.3352511 54.0946587,47.4019745 54.1472199,47.4396255 C54.1992943,47.4772766 54.2469887,47.4958638 54.2883562,47.4958638 L56.0077868,47.4958638 C56.4058888,47.4958638 56.8268646,47.472034 57.2707142,47.4243745 C57.7145638,47.3762383 58.1511133,47.2823489 58.5808493,47.1422298 C59.0105852,47.0021106 59.4208541,46.8057532 59.8126293,46.5531574 C60.2034311,46.2996085 60.5494586,45.9664681 60.8502251,45.5532596 C61.1505049,45.1395745 61.3880034,44.6372426 61.5627205,44.0457872 C61.7374376,43.4548085 61.8250395,42.7484936 61.8250395,41.9287489 Z M64,41.9287489 C64,42.6255319 63.9279718,43.2846638 63.7848887,43.9066213 C63.6418056,44.5285787 63.4320477,45.0990638 63.1561017,45.6185532 C62.8801557,46.1380426 62.5409417,46.6022468 62.139433,47.0121191 C61.7379243,47.4224681 61.2819078,47.7637106 60.7718701,48.0368 C60.2058645,48.3375319 59.5459302,48.5729702 58.7910938,48.7440681 C58.0367441,48.9146894 57.1388247,49 56.0978221,49 L52.3878817,49 C52.2968731,49 52.2092712,48.9795064 52.1260494,48.9385191 C52.0418542,48.8980085 52,48.7917277 52,48.6206298 L52,35.3793702 C52,35.2087489 52.0418542,35.1024681 52.1260494,35.0614809 C52.2092712,35.0204936 52.2968731,35 52.3878817,35 L56.3805816,35 C57.2264266,35 58.0017034,35.0595745 58.7073853,35.1796766 C59.4130673,35.2988255 60.0170337,35.4785021 60.5202579,35.7177532 C61.0653364,35.9774979 61.554447,36.3134979 61.9875897,36.7267064 C62.4207324,37.1403915 62.7857404,37.6141277 63.0826135,38.1464851 C63.3794866,38.6797957 63.6062781,39.2655319 63.7639616,39.9041702 C63.9211583,40.5432851 64,41.2176681 64,41.9287489 Z"/>
    <g transform="translate(66 34)">
      <mask id="logo_deqavet-b" fill="#fff">
        <use xlink:href="#logo_deqavet-a"/>
      </mask>
      <path fill="#1A1919" d="M8.81289796 14.899C8.81289796 15.0785 8.76881633 15.1895 8.68114286 15.232 8.59346939 15.275 8.50726531 15.2965 8.42302041 15.2965L.808163265 15.2965C.717061224 15.2965.629387755 15.275.545142857 15.232.460897959 15.1895.419265306 15.078.419265306 14.8985L.419265306 1.007C.419265306.828.460897959.7165.545142857.6735.629387755.6305.717061224.609.808163265.609L7.99102041.609C8.07526531.609 8.16146939.6305 8.24914286.6735 8.33681633.7165 8.38089796.828 8.38089796 1.0065L8.38089796 1.8005C8.38089796 1.9725 8.33681633 2.08 8.24914286 2.123 8.16146939 2.166 8.07526531 2.1875 7.99102041 2.1875L2.72228571 2.1875C2.68016327 2.1875 2.63265306 2.2055 2.5797551 2.241 2.52734694 2.277 2.50089796 2.3485 2.50089796 2.456L2.50089796 6.445C2.50089796 6.5455 2.52734694 6.6135 2.5797551 6.649 2.63265306 6.6855 2.68016327 6.703 2.72228571 6.703L6.88457143 6.703C6.97567347 6.703 7.06334694 6.7245 7.14808163 6.7675 7.23232653 6.8105 7.27444898 6.9215 7.27444898 7.1015L7.27444898 7.8985C7.27444898 8.078 7.23232653 8.1895 7.14808163 8.2325 7.06334694 8.275 6.97567347 8.2965 6.88457143 8.2965L2.72228571 8.2965C2.68016327 8.2965 2.63265306 8.3135 2.5797551 8.3455 2.52734694 8.378 2.50089796 8.4475 2.50089796 8.555L2.50089796 13.4495C2.50089796 13.55 2.52734694 13.62 2.5797551 13.6595 2.63265306 13.699 2.68016327 13.7185 2.72228571 13.7185L8.42302041 13.7185C8.50726531 13.7185 8.59346939 13.74 8.68114286 13.783 8.76881633 13.826 8.81289796 13.9335 8.81289796 14.1055L8.81289796 14.899M21.3213061 7.9635C21.3213061 7.197 21.244898 6.456 21.0940408 5.739 20.9426939 5.0235 20.6875102 4.3875 20.3284898 3.832 19.9699592 3.277 19.4953469 2.833 18.9041633 2.5 18.3129796 2.167 17.5812245 2 16.708898 2 16.1387755 2 15.6303673 2.077 15.1836735 2.2315 14.7364898 2.385 14.3426939 2.5985 14.0013061 2.8705 13.6599184 3.1425 13.3694694 3.4645 13.130449 3.8375 12.8914286 4.21 12.6955102 4.6165 12.5446531 5.057 12.3933061 5.498 12.2826122 5.963 12.2125714 6.454 12.1420408 6.9445 12.1067755 7.4405 12.1067755 7.942 12.1067755 8.709 12.1826939 9.45 12.3340408 10.167 12.4853878 10.8825 12.7400816 11.519 13.099102 12.074 13.4576327 12.629 13.9307755 13.0735 14.5185306 13.4065 15.1057959 13.7395 15.8365714 13.906 16.708898 13.906 17.2790204 13.906 17.788898 13.829 18.2395102 13.675 18.6896327 13.5215 19.084898 13.308 19.4267755 13.036 19.7681633 12.7635 20.0581224 12.441 20.2971429 12.0685 20.5361633 11.696 20.7320816 11.29 20.8829388 10.849 21.0342857 10.4085 21.1449796 9.9425 21.2155102 9.452 21.285551 8.9615 21.3213061 8.465 21.3213061 7.9635zM23.5253878 7.92C23.5253878 8.9735 23.4034286 9.9285 23.1604898 10.785 22.917551 11.6415 22.5629388 12.3865 22.0976327 13.0215 21.6328163 13.655 21.0612245 14.168 20.3853061 14.5585 19.7079184 14.949 18.9394286 15.2015 18.0798367 15.316L17.762449 15.359C17.6713469 15.3735 17.611102 15.406 17.5831837 15.4565 17.5542857 15.5065 17.5405714 15.579 17.5405714 15.6725 17.5405714 15.8375 17.5753469 16.0215 17.6463673 16.2235 17.7159184 16.4245 17.8515918 16.615 18.0519184 16.7955 18.2517551 16.9755 18.5309388 17.125 18.8894694 17.2435 19.2475102 17.362 19.7182041 17.4215 20.3020408 17.4215 20.5753469 17.4215 20.8266122 17.402 21.0548571 17.3625 21.2835918 17.323 21.4814694 17.278 21.650449 17.2285 21.8189388 17.1775 21.9609796 17.1275 22.077551 17.078 22.1931429 17.027 22.2793469 16.988 22.3356735 16.9595 22.3988571 16.923 22.4527347 16.8945 22.4982857 16.873 22.5443265 16.8515 22.605551 16.8405 22.6829388 16.8405 22.7813878 16.8405 22.8519184 16.875 22.8940408 16.943 22.9361633 17.011 22.9577143 17.0955 22.9577143 17.196L22.9577143 17.9695C22.9577143 18.1335 22.9410612 18.257 22.9097143 18.3395 22.8778776 18.4215 22.802449 18.495 22.6829388 18.5595 22.6408163 18.581 22.5565714 18.617 22.4302041 18.667 22.3038367 18.717 22.1314286 18.7655 21.9139592 18.8125 21.6955102 18.858 21.427102 18.901 21.1072653 18.9405 20.7879184 18.9805 20.4137143 19 19.9851429 19 19.7466122 19 19.4693878 18.987 19.1529796 18.962 18.8365714 18.937 18.5118367 18.8845 18.1782857 18.806 17.8442449 18.727 17.5141224 18.61 17.1884082 18.456 16.8622041 18.3015 16.5712653 18.0985 16.3155918 17.8475 16.0599184 17.5955 15.8532245 17.285 15.6955102 16.916 15.5377959 16.5455 15.4589388 16.1025 15.4589388 15.5855 15.4589388 15.506 15.4413061 15.4525 15.4060408 15.4235 15.3707755 15.395 15.3149388 15.3735 15.237551 15.359 14.4225306 15.209 13.7245714 14.9665 13.1446531 14.6335 12.5647347 14.3005 12.0783673 13.915 11.6845714 13.478 11.2907755 13.041 10.9763265 12.5695 10.7407347 12.0645 10.5056327 11.559 10.3263673 11.0595 10.2034286 10.5645 10.0804898 10.07 9.99967347 9.597 9.9604898 9.1455 9.92179592 8.694 9.90269388 8.307 9.90269388 7.984 9.90269388 6.895 10.0403265 5.8895 10.3141224 4.9685 10.5884082 4.0475 11.0071837 3.251 11.5699592 2.577 12.1327347 1.903 12.8409796 1.378 13.6961633 1.002 14.5508571.626 15.5549388.4375 16.708898.4375 17.8202449.4375 18.8013061.615 19.6525714.9695 20.5038367 1.324 21.216 1.83 21.789551 2.485 22.3626122 3.1415 22.7955918 3.9295 23.0875102 4.8505 23.3794286 5.7715 23.5253878 6.795 23.5253878 7.92z" mask="url(#logo_deqavet-b)"/>
    </g>
    <path fill="#1A1919" d="M99.4658965 42.9714315C99.4658965 42.9280234 99.4586708 42.8825964 99.4437034 42.8351504 99.429252 42.7882092 99.4142846 42.7427822 99.3993171 42.6998789L97.5784501 37.1179083C97.5562569 37.0603675 97.5356122 37.0088835 97.5170319 36.9654755 97.4989678 36.9220674 97.4597427 36.9003634 97.4003891 36.9003634 97.3415515 36.9003634 97.2987137 36.9301433 97.2729077 36.9876842 97.2471018 37.0452251 97.226457 37.0962043 97.2114896 37.1396124L95.3245593 42.6998789C95.3095919 42.7427822 95.2941083 42.7882092 95.279657 42.8351504 95.2652057 42.8825964 95.2574639 42.9280234 95.2574639 42.9714315 95.2574639 43.0365435 95.2853343 43.0779326 95.340559 43.0961034 95.3962998 43.1142742 95.4757821 43.1228548 95.579522 43.1228548L99.1438383 43.1228548C99.2475782 43.1228548 99.3275766 43.1142742 99.3828013 43.0961034 99.4385422 43.0779326 99.4658965 43.0365435 99.4658965 42.9714315zM104 49.7072481C104 49.9025843 103.870454 50 103.611879 50L102.095522 50C101.93346 50 101.826108 49.9732485 101.77398 49.9187361 101.722368 49.8647284 101.685723 49.8011306 101.66353 49.7284474L100.08782 44.905108C100.065626 44.8470624 100.044982 44.7965879 100.026918 44.7531799 100.008337 44.7097719 99.9773702 44.669897 99.932984 44.6335554 99.8958234 44.6118514 99.8478244 44.598728 99.7879546 44.5951948 99.729117 44.5921664 99.6480864 44.5901474 99.5443465 44.5901474L95.0959187 44.5901474C94.9988884 44.5901474 94.923535 44.5921664 94.8677942 44.5951948 94.8125695 44.598728 94.7661188 44.6118514 94.7294744 44.6335554 94.6850881 44.669897 94.6530888 44.7133051 94.6350246 44.7637795 94.6164443 44.8147587 94.5963157 44.8687664 94.5741226 44.926812L92.9540257 49.7284474C92.9318326 49.8011306 92.8951882 49.8647284 92.8425441 49.9187361 92.7914483 49.9732485 92.6840956 50 92.5210021 50L91.3891536 50C91.1300619 50 91 49.9025843 91 49.7072481 91 49.6274985 91.0061934 49.5765193 91.0170319 49.55532 91.0283865 49.533616 91.0449023 49.4826368 91.0670954 49.4033919L95.8582261 36.0417929C95.9170637 35.8827983 95.9712562 35.7384413 96.0192552 35.6082172 96.0672542 35.4779931 96.1266079 35.3674541 96.1962839 35.2766 96.2669922 35.1862508 96.3578291 35.1176055 96.4687947 35.0706642 96.5797602 35.023723 96.7268541 35 96.9121407 35L98.2762427 35C98.4610132 35 98.6086232 35.019685 98.7195887 35.0595599 98.8305542 35.0994347 98.9193267 35.1605088 98.985906 35.2442964 99.0524853 35.3270745 99.1097745 35.4320614 99.1582897 35.5587523 99.2057726 35.6854432 99.2599651 35.8318191 99.3188026 35.9983848L103.92155 49.4033919C103.951485 49.4826368 103.971613 49.533616 103.982452 49.55532 103.993807 49.5765193 104 49.6274985 104 49.7072481zM109 43.8296747C109 43.8751653 108.975536 43.9148373 108.926118 43.9489553 108.87719 43.9830733 108.803308 44 108.705451 44L104.326353 44C104.241707 44 104.166357 43.9830733 104.099814 43.9489553 104.033271 43.9148373 104 43.8751653 104 43.8296747L104 43.1647712C104 43.1158424 104.033271 43.0759058 104.099814 43.0454906 104.166357 43.0153399 104.241707 43 104.326353 43L108.705451 43C108.789608 43 108.859575 43.0153399 108.915843 43.0454906 108.972111 43.0759058 109 43.1158424 109 43.1647712L109 43.8296747M122 35.292742C122 35.3729937 121.994331 35.4234665 121.982994 35.4451698 121.972173 35.466873 121.955682 35.5178505 121.933524 35.5970928L117.118365 48.9582422C117.059619 49.1248023 117.007056 49.2711733 116.962738 49.39786 116.918421 49.5245466 116.86122 49.633063 116.791136 49.7229045 116.721053 49.8137555 116.630872 49.8823985 116.520078 49.9293381 116.409284 49.9762778 116.261387 50 116.076386 50L114.713878 50C114.521663 50 114.37222 49.9803156 114.265033 49.9404421 114.157847 49.9005687 114.071273 49.8394966 114.004796 49.7562166 113.93832 49.6729365 113.881119 49.5679532 113.832679 49.4412665 113.784239 49.3145799 113.731161 49.1682089 113.671899 49.0016488L109.066476 35.5970928C109.044318 35.5178505 109.027827 35.466873 109.01649 35.4451698 109.005669 35.4234665 109 35.3729937 109 35.292742 109 35.0979172 109.129346 35 109.388037 35L110.904626 35C111.067983 35 111.174654 35.02776 111.226186 35.0822706 111.278234 35.1362765 111.314821 35.1993674 111.33698 35.2715435L115.43172 47.6944043C115.453879 47.7524479 115.474492 47.8049396 115.493558 47.8518793 115.511595 47.8993237 115.550759 47.9225411 115.610021 47.9225411 115.668768 47.9225411 115.711539 47.8932669 115.737305 47.835728 115.763071 47.778189 115.783684 47.7236785 115.798113 47.672701L120.048995 35.2715435C120.071154 35.1993674 120.108257 35.1362765 120.159789 35.0822706 120.211837 35.02776 120.315416 35 120.470528 35L121.611963 35C121.870654 35 122 35.0979172 122 35.292742M131 48.6211064C131 48.7922043 130.95845 48.8980085 130.874883 48.9385191 130.791317 48.9795064 130.70915 49 130.629318 49L123.371148 49C123.28338 49 123.20028 48.9795064 123.120448 48.9385191 123.040149 48.8980085 123 48.7917277 123 48.6206298L123 35.3793702C123 35.2087489 123.040149 35.1024681 123.120448 35.0614809 123.20028 35.0204936 123.28338 35 123.371148 35L130.217087 35C130.297386 35 130.379085 35.0204936 130.463119 35.0614809 130.547152 35.1024681 130.589169 35.2087489 130.589169 35.3788936L130.589169 36.1357277C130.589169 36.2996766 130.547152 36.4021447 130.463119 36.4431319 130.379085 36.4841191 130.297386 36.5046128 130.217087 36.5046128L125.194678 36.5046128C125.154528 36.5046128 125.109244 36.5217702 125.05929 36.5556085 125.00887 36.5899234 124.984127 36.6580766 124.984127 36.7605447L124.984127 40.5628255C124.984127 40.6586213 125.00887 40.7234383 125.05929 40.7572766 125.109244 40.7920681 125.154528 40.8087489 125.194678 40.8087489L129.162465 40.8087489C129.2493 40.8087489 129.332866 40.8292426 129.413632 40.8702298 129.493931 40.911217 129.53408 41.0170213 129.53408 41.1885957L129.53408 41.9482894C129.53408 42.1193872 129.493931 42.2256681 129.413632 42.2666553 129.332866 42.307166 129.2493 42.3276596 129.162465 42.3276596L125.194678 42.3276596C125.154528 42.3276596 125.109244 42.3438638 125.05929 42.374366 125.00887 42.4053447 124.984127 42.4715915 124.984127 42.5740596L124.984127 47.2394553C124.984127 47.3352511 125.00887 47.4019745 125.05929 47.4396255 125.109244 47.4772766 125.154528 47.4958638 125.194678 47.4958638L130.629318 47.4958638C130.70915 47.4958638 130.791317 47.5163574 130.874883 47.5573447 130.95845 47.5983319 131 47.7008 131 47.8647489L131 48.6211064M143 36.1357277C143 36.2996766 142.960888 36.4021447 142.882663 36.4431319 142.804894 36.4841191 142.726214 36.5046128 142.64799 36.5046128L139.174277 36.5046128C139.135165 36.5046128 139.092414 36.5217702 139.046935 36.5556085 139.001001 36.5899234 138.978261 36.6580766 138.978261 36.7605447L138.978261 48.6206298C138.978261 48.7917277 138.937784 48.8980085 138.856376 48.9385191 138.774513 48.9795064 138.69447 49 138.6167 49L137.393305 49C137.315081 49 137.235037 48.9795064 137.153629 48.9385191 137.071766 48.8980085 137.03129 48.7917277 137.03129 48.6206298L137.03129 36.7605447C137.03129 36.6580766 137.00855 36.5899234 136.962616 36.5556085 136.917137 36.5217702 136.874386 36.5046128 136.835729 36.5046128L133.36247 36.5046128C133.283791 36.5046128 133.203747 36.4841191 133.122339 36.4431319 133.040931 36.4021447 133 36.2996766 133 36.1357277L133 35.3788936C133 35.2087489 133.040931 35.1024681 133.122339 35.0614809 133.203747 35.0204936 133.283791 35 133.36247 35L142.64799 35C142.726214 35 142.804894 35.0204936 142.882663 35.0614809 142.960888 35.1024681 143 35.2087489 143 35.3788936L143 36.1357277"/>
    <polyline fill="#F6BC25" points="36.499 32 39.436 37.925 46 38.876 41.25 43.487 42.371 50 36.499 46.925 30.629 50 31.749 43.487 27 38.876 33.565 37.925 36.499 32"/>
  </g>
</svg>
