<svg xmlns="http://www.w3.org/2000/svg" xmlns:xlink="http://www.w3.org/1999/xlink" width="150" height="47" viewBox="0 0 150 47">
  <defs>
    <polygon id="na_bibb-a" points="0 46.875 149.927 46.875 149.927 .104 0 .104"/>
  </defs>
  <g fill="none" fill-rule="evenodd">
    <polygon fill="#003369" points="106.521 9.946 111.285 12.637 111.285 9.946"/>
    <polygon fill="#003369" points="106.851 15.83 106.851 25.576 111.284 25.576 111.284 13.157"/>
    <polygon fill="#94C01F" points="144.822 24.55 149.868 21.614 144.822 18.675"/>
    <path fill="#003369" d="M27.028151 3.18653646L29.4440365 3.18653646C30.4857031 3.18653646 31.2604427 3.81283854 31.2604427 4.69929687 31.2604427 5.89096354 30.4857031 6.35763021 29.287526 6.35763021L27.028151 6.36752604 27.028151 3.18653646zM27.028151 12.7422656L27.028151 9.36544271 29.9307552 9.36544271C30.9289323 9.42924479 31.5508073 10.251901 31.5508073 11.119349 31.5508073 12.091224 30.7294531 12.7422656 29.6200781 12.7422656L27.028151 12.7422656zM30.1078385 15.7844531C30.276849 15.7589323 36.2057552 16.0867969 36.2057552 11.5401823 36.2057552 9.31153646 34.4760677 7.99148437 32.3479427 7.70919271L32.3479427 7.66570313C34.1427344 7.34174479 35.8060156 6.17429688 35.8060156 4.24721354 35.8060156 1.49695313 33.2776302.176640625 30.2651302.154765625L22.5929948.154765625 22.5929948 15.7844531 30.1078385 15.7844531zM42.3448958 3.18653646L44.7639063 3.18653646C45.8045313 3.18653646 46.5808333 3.81283854 46.5808333 4.69929687 46.5808333 5.89096354 45.8045313 6.35763021 44.6076563 6.35763021L42.3448958 6.36752604 42.3448958 3.18653646zM42.3448958 12.7422656L42.3448958 9.36544271 45.2495833 9.36544271C46.2464583 9.42924479 46.8680729 10.251901 46.8680729 11.119349 46.8680729 12.091224 46.0482813 12.7422656 44.9404688 12.7422656L42.3448958 12.7422656zM45.4282292 15.7844531C45.5873438 15.738099 51.525625 16.0867969 51.525625 11.5401823 51.525625 9.31153646 49.7961979 7.99148437 47.6675521 7.70919271L47.6675521 7.66570313C49.4636458 7.34174479 51.1269271 6.17429688 51.1269271 4.24721354 51.1269271 1.49695313 48.5964583.176640625 45.5823958.154765625L37.9107813.154765625 37.9107813 15.7844531 45.4282292 15.7844531zM4.51226563 3.18653646L6.92710938 3.18653646C7.97033854 3.18653646 8.74716146 3.81283854 8.74716146 4.69929687 8.74716146 5.89096354 7.97033854 6.35763021 6.77164063 6.35763021L4.51226563 6.36752604 4.51226563 3.18653646zM4.51226563 12.7422656L4.51226563 9.36544271 7.41408854 9.36544271C8.41434896 9.42924479 9.03335938 10.251901 9.03335938 11.119349 9.03335938 12.091224 8.21356771 12.7422656 7.10679688 12.7422656L4.51226563 12.7422656zM7.59351563 15.7844531C7.76044271 15.738099 13.6898698 16.0867969 13.6898698 11.5401823 13.6898698 9.31153646 11.9614844 7.99148437 9.83309896 7.70919271L9.83309896 7.66570313C11.6273698 7.34174479 13.2922135 6.17429688 13.2922135 4.24721354 13.2922135 1.49695313 10.7627865.176640625 7.74768229.154765625L.077109375.154765625.077109375 15.7844531 7.59351563 15.7844531z" transform="translate(91.406 9.791)"/>
    <polygon fill="#94C01F" points="54.495 9.938 60.583 9.938 66.646 20.54 66.697 20.54 66.723 9.938 70.985 9.938 70.985 25.549 65.053 25.549 58.785 14.881 58.733 14.881 58.705 25.549 54.495 25.549"/>
    <path fill="#94C01F" d="M81.1747135,13.1591406 L81.1252344,13.1591406 L78.8395573,19.2653906 L83.2820052,19.2653906 L81.1747135,13.1591406 Z M78.2822656,9.93804687 L84.0697656,9.93804687 L90.896849,25.5489844 L85.7189844,25.5489844 L84.3989323,22.2164323 L77.748151,22.2164323 L76.353099,25.5489844 L71.5554427,25.5489844 L78.2822656,9.93804687 Z"/>
    <polygon fill="#003369" points="3.833 9.94 4.599 9.94 5.767 12.876 5.778 12.876 5.778 9.94 6.362 9.94 6.362 13.681 5.591 13.681 4.428 10.765 4.418 10.765 4.418 13.681 3.833 13.681"/>
    <g transform="translate(0 .156)">
      <path fill="#003369" d="M8.36854167 12.1739844L8.31333333 12.1739844C7.77895833 12.1739844 7.46177083 12.2919531 7.46177083 12.6935156 7.46177083 12.9458594 7.61802083 13.1177344 7.8596875 13.1177344 8.233125 13.1177344 8.36854167 12.8216406 8.36854167 12.3297135L8.36854167 12.1739844zM7.13911458 10.9255469C7.3159375 10.8390885 7.56229167 10.7211198 7.96020833 10.7211198 8.76645833 10.7211198 8.95265625 11.1409115 8.95265625 11.831276L8.95265625 13.036224C8.95265625 13.2346615 8.97296875 13.4164323 8.98859375 13.5252865L8.42322917 13.5252865C8.3940625 13.4164323 8.38885417 13.2823177 8.38885417 13.1502865L8.3784375 13.1502865C8.22244792 13.373724 8.02661458 13.5669531 7.65291667 13.5669531 7.25057292 13.5669531 6.87713542 13.2721615 6.87713542 12.7575781 6.87713542 12.0073177 7.45135417 11.8203385 8.24302083 11.8203385L8.36854167 11.8203385 8.36854167 11.7185156C8.36854167 11.4450781 8.24302083 11.193776 7.88494792 11.193776 7.57322917 11.193776 7.29536458 11.3536719 7.1753125 11.461224L7.13911458 10.9255469zM9.76585938 10.1964323L10.3898177 9.99278646 10.3898177 10.7646615 10.9088281 10.7646615 10.9088281 11.2529427 10.3898177 11.2529427 10.3898177 12.6834115C10.3898177 12.9784635 10.4908594 13.0638802 10.6721094 13.0638802 10.7833073 13.0638802 10.8632552 13.0313281 10.9088281 13.003724L10.9088281 13.4766406C10.8135156 13.5253385 10.6773177 13.5670052 10.4908594 13.5670052 10.0278385 13.5670052 9.76585938 13.342526 9.76585938 12.7628385L9.76585938 11.2529427 9.35205729 11.2529427 9.35205729 10.7646615 9.76585938 10.7646615 9.76585938 10.1964323z"/>
      <mask id="na_bibb-b" fill="#fff">
        <use xlink:href="#na_bibb-a"/>
      </mask>
      <path fill="#003369" d="M11.3684896 13.5252604L11.9932292 13.5252604 11.9932292 10.7645833 11.3684896 10.7645833 11.3684896 13.5252604zM11.3583333 10.2453125L12.0033854 10.2453125 12.0033854 9.59140625 11.3583333 9.59140625 11.3583333 10.2453125zM13.6914323 13.0953385C14.0942969 13.0953385 14.1849219 12.603151 14.1849219 12.142474 14.1849219 11.6797135 14.0942969 11.193776 13.6914323 11.193776 13.2880469 11.193776 13.192474 11.6797135 13.192474 12.142474 13.192474 12.603151 13.2880469 13.0953385 13.6914323 13.0953385M13.6914323 10.7211198C14.2208594 10.7211198 14.829974 11.0159115 14.829974 12.142474 14.829974 13.2997656 14.2208594 13.5669531 13.6914323 13.5669531 13.1620052 13.5669531 12.5479427 13.2997656 12.5479427 12.142474 12.5479427 11.0159115 13.1620052 10.7211198 13.6914323 10.7211198M15.3252865 11.2191667C15.3252865 11.0483333 15.3198177 10.8879167 15.304974 10.7647396L15.8890885 10.7647396C15.8945573 10.9040625 15.909401 11.0483333 15.909401 11.1876562L15.9247656 11.1876562 15.9192969 11.1876562C16.0104427 11.0220312 16.1864844 10.7209896 16.6096615 10.7209896 17.1982031 10.7209896 17.3755469 11.1876562 17.3755469 11.7449479L17.3755469 13.5254167 16.7510677 13.5254167 16.7510677 11.8691667C16.7510677 11.4449479 16.6505469 11.268125 16.392474 11.268125 16.0653906 11.268125 15.9492448 11.5629167 15.9492448 11.9157813L15.9492448 13.5254167 15.3252865 13.5254167 15.3252865 11.2191667zM19.2957552 12.1739844L19.2405469 12.1739844C18.7072135 12.1739844 18.3895052 12.2919531 18.3895052 12.6935156 18.3895052 12.9458594 18.5452344 13.1177344 18.7871615 13.1177344 19.1603385 13.1177344 19.2957552 12.8216406 19.2957552 12.3297135L19.2957552 12.1739844zM18.0676302 10.9255469C18.243151 10.8390885 18.490026 10.7211198 18.8874219 10.7211198 19.6936719 10.7211198 19.8809115 11.1409115 19.8809115 11.831276L19.8809115 13.036224C19.8809115 13.2346615 19.9001823 13.4164323 19.915026 13.5252865L19.3514844 13.5252865C19.3210156 13.4164323 19.3155469 13.2823177 19.3155469 13.1502865L19.305651 13.1502865C19.1496615 13.373724 18.9540885 13.5669531 18.580651 13.5669531 18.1777865 13.5669531 17.8046094 13.2721615 17.8046094 12.7575781 17.8046094 12.0073177 18.379349 11.8203385 19.1702344 11.8203385L19.2957552 11.8203385 19.2957552 11.7185156C19.2957552 11.4450781 19.1702344 11.193776 18.8116406 11.193776 18.499401 11.193776 18.223099 11.3536719 18.1017448 11.461224L18.0676302 10.9255469z" mask="url(#na_bibb-b)"/>
      <polygon fill="#003369" points="20.522 13.525 21.146 13.525 21.146 9.505 20.522 9.505" mask="url(#na_bibb-b)"/>
      <path fill="#003369" d="M23.201875 11.9066927C23.201875 11.4184115 23.0508333 11.1715365 22.7685417 11.1715365 22.4419792 11.1715365 22.3055208 11.5415885 22.3055208 11.9066927L23.201875 11.9066927zM23.6758333 13.3902865C23.5443229 13.4501823 23.2724479 13.566849 22.9000521 13.566849 22.0633333 13.566849 21.7008333 12.9296094 21.7008333 12.1840365 21.7008333 11.3595573 22.1094271 10.7210156 22.7685417 10.7210156 23.3286979 10.7210156 23.8073438 11.0697135 23.8073438 12.1952344L23.8073438 12.324401 22.3055208 12.324401C22.3055208 12.7952344 22.4818229 13.0801302 22.9654167 13.0801302 23.3482292 13.0801302 23.5294792 12.9559115 23.6461458 12.8655469L23.6758333 13.3902865zM27.0432552 12.0988281L26.600026 10.3519531 26.5901302 10.3519531 26.1054948 12.0988281 27.0432552 12.0988281zM27.1786719 12.6235677L25.970599 12.6235677 25.7182552 13.5253906 25.0732031 13.5253906 26.2523698 9.78346354 26.9575781 9.78346354 28.0909115 13.5253906 27.4263281 13.5253906 27.1786719 12.6235677zM29.3877865 13.036224C29.7791927 13.036224 29.9357031 12.7372656 29.9357031 12.1091406 29.9357031 11.5304948 29.7297135 11.2190365 29.4325781 11.2252865 29.104974 11.2302344 28.9784115 11.5528906 28.9784115 12.1151302 28.9784115 12.7627865 29.1752865 13.036224 29.3877865 13.036224zM28.4854427 13.9534115C28.631276 14.0398698 28.923724 14.189349 29.2502865 14.189349 29.8409115 14.189349 29.9357031 13.7541927 29.9357031 13.3208594L29.9357031 13.0586198 29.9260677 13.0586198C29.8255469 13.2721615 29.6492448 13.5252865 29.2403906 13.5252865 28.8778906 13.5252865 28.3351823 13.2672135 28.3351823 12.1526302 28.3351823 11.3911719 28.5909115 10.7211198 29.2708594 10.7211198 29.6492448 10.7211198 29.8255469 10.951849 29.9554948 11.193776L29.9763281 11.193776C29.9763281 11.0484635 29.9911719 10.9091406 29.9966406 10.7646094L30.5604427 10.7646094C30.5505469 10.9091406 30.5401302 11.0544531 30.5401302 11.198724L30.5401302 13.2346615C30.5401302 14.0979427 30.293776 14.7140885 29.3409115 14.7140885 28.9286719 14.7140885 28.6010677 14.6021094 28.4492448 14.5432552L28.4854427 13.9534115zM32.5420313 11.9066927C32.5420313 11.4184115 32.3909896 11.1715365 32.1097396 11.1715365 31.7810938 11.1715365 31.6456771 11.5415885 31.6456771 11.9066927L32.5420313 11.9066927zM33.0159896 13.3902865C32.8855208 13.4501823 32.6126042 13.566849 32.2402083 13.566849 31.4034896 13.566849 31.0420313 12.9296094 31.0420313 12.1840365 31.0420313 11.3595573 31.4493229 10.7210156 32.1097396 10.7210156 32.6688542 10.7210156 33.1469792 11.0697135 33.1469792 12.1952344L33.1469792 12.324401 31.6456771 12.324401C31.6456771 12.7952344 31.8217188 13.0801302 32.3063542 13.0801302 32.6878646 13.0801302 32.8701563 12.9559115 32.9852604 12.8655469L33.0159896 13.3902865zM33.632526 11.2191667C33.632526 11.0483333 33.6265365 10.8879167 33.6116927 10.7647396L34.1960677 10.7647396C34.2010156 10.9040625 34.2158594 11.0483333 34.2158594 11.1876562L34.2317448 11.1876562 34.2257552 11.1876562C34.3163802 11.0220312 34.4929427 10.7209896 34.9171615 10.7209896 35.5046615 10.7209896 35.6820052 11.1876562 35.6820052 11.7449479L35.6820052 13.5254167 35.057526 13.5254167 35.057526 11.8691667C35.057526 11.4449479 34.9570052 11.268125 34.699974 11.268125 34.3723698 11.268125 34.2567448 11.5629167 34.2567448 11.9157813L34.2567448 13.5254167 33.632526 13.5254167 33.632526 11.2191667zM36.4788021 10.1964323L37.1040625 9.99278646 37.1040625 10.7646615 37.6222917 10.7646615 37.6222917 11.2529427 37.1040625 11.2529427 37.1040625 12.6834115C37.1040625 12.9784635 37.2048438 13.0638802 37.386875 13.0638802 37.4965104 13.0638802 37.5772396 13.0313281 37.6222917 13.003724L37.6222917 13.4766406C37.5264583 13.5253385 37.3910417 13.5670052 37.2048438 13.5670052 36.7407812 13.5670052 36.4788021 13.342526 36.4788021 12.7628385L36.4788021 11.2529427 36.0655208 11.2529427 36.0655208 10.7646615 36.4788021 10.7646615 36.4788021 10.1964323zM40.0722396 13.0686458C40.0722396 13.2407813 40.0771875 13.4014583 40.0909896 13.5254167L39.5073958 13.5254167C39.5024479 13.3850521 39.4876042 13.2407813 39.4876042 13.1014583L39.4714583 13.0954688 39.4777083 13.1014583C39.3560938 13.3048438 39.1956771 13.5670833 38.7873438 13.5670833 38.1977604 13.5670833 38.0214583 13.1014583 38.0214583 12.543125L38.0214583 10.7647396 38.6459375 10.7647396 38.6459375 12.4199479C38.6459375 12.843125 38.7573958 13.0209896 39.019375 13.0209896 39.3508854 13.0209896 39.4467188 12.6996354 39.4467188 12.3449479L39.4467188 10.7647396 40.0722396 10.7647396 40.0722396 13.0686458zM40.6576563 11.2191667C40.6576563 11.0483333 40.6527083 10.8879167 40.6378646 10.7647396L41.2027083 10.7647396C41.2063542 10.930625 41.2225 11.1014583 41.2225 11.268125L41.2334375 11.268125C41.3081771 11.0545833 41.5042708 10.7209896 41.8928125 10.7209896 41.9326563 10.7209896 41.9636458 10.7319271 41.9982813 10.7371354L41.9982813 11.3597917C41.9425521 11.3433854 41.8878646 11.3321875 41.8222396 11.3321875 41.5639063 11.3321875 41.2831771 11.4978125 41.2831771 12.0134375L41.2831771 13.5254167 40.6576563 13.5254167 40.6576563 11.2191667zM1.13739583 18.9786198C1.5009375 18.9786198 1.59651042 18.656224 1.59651042 18.018724 1.59651042 17.4666406 1.4759375 17.1085677 1.12828125 17.1085677.7853125 17.1085677.644947917 17.4978906.644947917 18.0348698.644947917 18.5546615.770729167 18.9786198 1.13739583 18.9786198zM.644947917 15.4033594L.644947917 17.0598698.654322917 17.0598698C.74546875 16.8452865.951197917 16.6205469 1.32463542 16.6205469 1.88427083 16.6205469 2.22098958 17.1452865 2.22098958 18.0460677 2.22098958 18.8119531 1.9540625 19.4658594 1.30979167 19.4658594.9071875 19.4658594.719947917 19.2296615.619427083 18.9939844L.604583333 18.9939844C.604583333 19.1820052.594947917 19.341901.58453125 19.4228906L-.000104166667 19.4228906C.0147395833 19.3213281.0199479167 19.1494531.0199479167 18.951276L.0199479167 15.4033594.644947917 15.4033594zM4.14669271 17.8042188C4.14669271 17.3159375 3.99617188 17.0711458 3.71388021 17.0711458 3.38627604 17.0711458 3.25085938 17.4404167 3.25085938 17.8042188L4.14669271 17.8042188zM4.62013021 19.2885938C4.48966146 19.34875 4.21778646 19.4656771 3.84539062 19.4656771 3.00867187 19.4656771 2.64617187 18.8281771 2.64617187 18.0839063 2.64617187 17.258125 3.05450521 16.620625 3.71388021 16.620625 4.27299479 16.620625 4.75268229 16.9693229 4.75268229 18.0940625L4.75268229 18.2229688 3.25085938 18.2229688C3.25085938 18.6948438 3.42716146 18.9786979 3.91075521 18.9786979 4.29356771 18.9786979 4.47429687 18.8547396 4.59044271 18.764375L4.62013021 19.2885938zM5.296875 19.4229167L5.92083333 19.4229167 5.92083333 16.6635417 5.296875 16.6635417 5.296875 19.4229167zM5.28697917 16.14375L5.93203125 16.14375 5.93203125 15.4888021 5.28697917 15.4888021 5.28697917 16.14375zM6.53203125 17.11375C6.53203125 16.9142708 6.52135417 16.7650521 6.51145833 16.6634896L7.13697917 16.6634896C7.14140625 16.8067187 7.15703125 16.9509896 7.15703125 17.0965625L7.16692708 17.0965625C7.26302083 16.8840625 7.46432292 16.6205208 7.82135417 16.6205208 8.26041667 16.6205208 8.40182292 16.9093229 8.47708333 17.0598437 8.60208333 16.8666146 8.78932292 16.6205208 9.171875 16.6205208 9.73541667 16.6205208 9.91770833 17.0486458 9.91770833 17.72L9.91770833 19.4228646 9.29322917 19.4228646 9.29322917 17.6811979C9.29322917 17.3384896 9.19166667 17.1666146 8.96067708 17.1666146 8.6828125 17.1666146 8.53645833 17.4452604 8.53645833 17.75125L8.53645833 19.4228646 7.9125 19.4228646 7.9125 17.6811979C7.9125 17.3384896 7.81276042 17.1666146 7.58020833 17.1666146 7.30234375 17.1666146 7.15703125 17.4452604 7.15703125 17.75125L7.15703125 19.4228646 6.53203125 19.4228646 6.53203125 17.11375zM12.4942708 18.8982552L12.8528646 18.8982552C13.2 18.8982552 13.3911458 18.6727344 13.3911458 18.3248177 13.3911458 17.997474 13.2302083 17.7511198 12.8322917 17.7511198L12.4942708 17.7511198 12.4942708 18.8982552zM12.4942708 17.2479948L12.8268229 17.2479948C13.1447917 17.2479948 13.3309896 16.9948698 13.3309896 16.6896615 13.3309896 16.3735156 13.11875 16.1854948 12.8119792 16.1854948L12.4942708 16.1854948 12.4942708 17.2479948zM11.8708333 15.6821094L12.8971354 15.6821094C13.6226563 15.6821094 13.9554688 15.9716927 13.9554688 16.6052865 13.9554688 17.1990365 13.6028646 17.3740365 13.3708333 17.4667448L13.3708333 17.478724C13.64375 17.5420052 14.0359375 17.7464323 14.0359375 18.372474 14.0359375 19.0529427 13.5674479 19.4229948 12.9429688 19.4229948L11.8708333 19.4229948 11.8708333 15.6821094zM16.6315625 18.9664323C16.6315625 19.139349 16.6375521 19.2997656 16.651875 19.4229427L16.0677604 19.4229427C16.0622917 19.2836198 16.0469271 19.139349 16.0469271 19.000026L16.0318229 18.993776 16.0378125 19.000026C15.9159375 19.2023698 15.7560417 19.465651 15.3477083 19.465651 14.758125 19.465651 14.5818229 19.000026 14.5818229 18.4416927L14.5818229 16.6635677 15.2063021 16.6635677 15.2063021 18.318776C15.2063021 18.7416927 15.3175 18.9185156 15.5789583 18.9185156 15.9115104 18.9185156 16.0070833 18.5974219 16.0070833 18.2435156L16.0070833 16.6635677 16.6315625 16.6635677 16.6315625 18.9664323zM17.1972917 17.1188281C17.1972917 16.9469531 17.1920833 16.786276 17.1767187 16.6633594L17.761875 16.6633594C17.7665625 16.8026823 17.7819271 16.9469531 17.7819271 17.086276L17.7967708 17.086276 17.7918229 17.086276C17.8824479 16.920651 18.05875 16.620651 18.4821875 16.620651 19.0715104 16.620651 19.2480729 17.086276 19.2480729 17.6435677L19.2480729 19.4229948 18.6235937 19.4229948 18.6235937 17.7664844C18.6235937 17.3435677 18.5228125 17.1667448 18.2663021 17.1667448 17.9381771 17.1667448 17.8220312 17.4604948 17.8220312 17.8154427L17.8220312 19.4229948 17.1972917 19.4229948 17.1972917 17.1188281zM20.8264583 18.9786198C21.193125 18.9786198 21.3194271 18.5546615 21.3194271 18.0348698 21.3194271 17.4978906 21.1785417 17.1085677 20.8366146 17.1085677 20.4879167 17.1085677 20.3673438 17.4666406 20.3673438 18.018724 20.3673438 18.656224 20.4629167 18.9786198 20.8264583 18.9786198zM21.9439063 15.4033594L21.9439063 18.951276C21.9439063 19.1494531 21.949375 19.3213281 21.965 19.4228906L21.3801042 19.4228906C21.3702083 19.341901 21.3597917 19.1820052 21.3597917 18.9939844L21.3449479 18.9939844C21.2439063 19.2296615 21.0574479 19.4658594 20.6545833 19.4658594 20.0097917 19.4658594 19.7428646 18.8119531 19.7428646 18.0460677 19.7428646 17.1452865 20.080625 16.6205469 20.6402604 16.6205469 21.0126563 16.6205469 21.2199479 16.8452865 21.3095313 17.0598698L21.3194271 17.0598698 21.3194271 15.4033594 21.9439063 15.4033594zM23.9508073 17.8042188C23.9508073 17.3159375 23.7997656 17.0711458 23.517474 17.0711458 23.1903906 17.0711458 23.0544531 17.4404167 23.0544531 17.8042188L23.9508073 17.8042188zM24.4247656 19.2885938C24.293776 19.34875 24.0213802 19.4656771 23.6495052 19.4656771 22.8122656 19.4656771 22.4492448 18.8281771 22.4492448 18.0839063 22.4492448 17.258125 22.8573177 16.620625 23.517474 16.620625 24.076849 16.620625 24.5552344 16.9693229 24.5552344 18.0940625L24.5552344 18.2229688 23.0544531 18.2229688C23.0544531 18.6948438 23.2297135 18.9786979 23.7148698 18.9786979 24.0971615 18.9786979 24.2784115 18.8547396 24.3945573 18.764375L24.4247656 19.2885938zM24.970625 18.779375C25.0714063 18.8220833 25.3271354 18.9614063 25.6201042 18.9614063 25.8461458 18.9614063 26.0224479 18.9033333 26.0224479 18.68875 26.0224479 18.5809375 25.9727083 18.479375 25.745625 18.3408333L25.4880729 18.179375C25.2260938 18.01375 24.939375 17.8366667 24.939375 17.4025521 24.939375 17.0223438 25.2872917 16.6205208 25.83625 16.6205208 26.1688021 16.6205208 26.4253125 16.7111458 26.4854688 16.7325L26.4508333 17.248125C26.2943229 17.1830208 26.1279167 17.123125 25.9008333 17.123125 25.6497917 17.123125 25.5443229 17.2254688 25.5443229 17.3923958 25.5443229 17.541875 25.6547396 17.6223438 25.83625 17.7463021L26.1425 17.9546354C26.4656771 18.1744271 26.626875 18.3288542 26.626875 18.6509896 26.626875 19.1616667 26.2240104 19.4658333 25.6599479 19.4658333 25.3372917 19.4658333 25.0714063 19.3843229 24.939375 19.3325L24.970625 18.779375zM27.1523438 19.4229167L27.7763021 19.4229167 27.7763021 16.6635417 27.1523438 16.6635417 27.1523438 19.4229167zM27.1408854 16.14375L27.7861979 16.14375 27.7861979 15.4888021 27.1408854 15.4888021 27.1408854 16.14375zM28.4017969 17.1188281C28.4017969 16.9469531 28.3965885 16.786276 28.3817448 16.6633594L28.9663802 16.6633594C28.9715885 16.8026823 28.9859115 16.9469531 28.9859115 17.086276L29.0017969 17.086276 28.996849 17.086276C29.0864323 16.920651 29.263776 16.620651 29.6866927 16.620651 30.2754948 16.620651 30.4525781 17.086276 30.4525781 17.6435677L30.4525781 19.4229948 29.8275781 19.4229948 29.8275781 17.7664844C29.8275781 17.3435677 29.7267969 17.1667448 29.4705469 17.1667448 29.1426823 17.1667448 29.0270573 17.4604948 29.0270573 17.8154427L29.0270573 19.4229948 28.4017969 19.4229948 28.4017969 17.1188281zM30.947474 18.779375C31.0490365 18.8220833 31.3045052 18.9614063 31.5977344 18.9614063 31.823776 18.9614063 32.0011198 18.9033333 32.0011198 18.68875 32.0011198 18.5809375 31.9498177 18.479375 31.7232552 18.3408333L31.466224 18.179375C31.2047656 18.01375 30.9170052 17.8366667 30.9170052 17.4025521 30.9170052 17.0223438 31.2651823 16.6205208 31.8149219 16.6205208 32.147474 16.6205208 32.4039844 16.7111458 32.4633594 16.7325L32.4292448 17.248125C32.2719531 17.1830208 32.1058073 17.123125 31.8797656 17.123125 31.6266406 17.123125 31.5222135 17.2254688 31.5222135 17.3923958 31.5222135 17.541875 31.6326302 17.6223438 31.8149219 17.7463021L32.1211719 17.9546354C32.4433073 18.1744271 32.6058073 18.3288542 32.6058073 18.6509896 32.6058073 19.1616667 32.2013802 19.4658333 31.6375781 19.4658333 31.3159635 19.4658333 31.0490365 19.3843229 30.9170052 19.3325L30.947474 18.779375zM33.301901 16.0939583L33.9261198 15.8916146 33.9261198 16.6634896 34.4451302 16.6634896 34.4451302 17.1515104 33.9261198 17.1515104 33.9261198 18.5809375C33.9261198 18.8770312 34.0266406 18.9614062 34.2078906 18.9614062 34.3185677 18.9614062 34.3990365 18.9298958 34.4451302 18.9033333L34.4451302 19.3741667C34.3492969 19.4228646 34.2128385 19.4658333 34.0266406 19.4658333 33.5628385 19.4658333 33.301901 19.2408333 33.301901 18.6624479L33.301901 17.1515104 32.8886198 17.1515104 32.8886198 16.6634896 33.301901 16.6634896 33.301901 16.0939583zM34.9041667 19.4229167L35.5296875 19.4229167 35.5296875 16.6635417 34.9041667 16.6635417 34.9041667 19.4229167zM34.8942708 16.14375L35.5388021 16.14375 35.5388021 15.4888021 34.8942708 15.4888021 34.8942708 16.14375zM36.3852083 16.0939583L37.0104688 15.8916146 37.0104688 16.6634896 37.5294792 16.6634896 37.5294792 17.1515104 37.0104688 17.1515104 37.0104688 18.5809375C37.0104688 18.8770312 37.11125 18.9614062 37.2922396 18.9614062 37.4039583 18.9614062 37.4836458 18.9298958 37.5294792 18.9033333L37.5294792 19.3741667C37.4336458 19.4228646 37.2974479 19.4658333 37.11125 19.4658333 36.6479687 19.4658333 36.3852083 19.2408333 36.3852083 18.6624479L36.3852083 17.1515104 35.9719271 17.1515104 35.9719271 16.6634896 36.3852083 16.6634896 36.3852083 16.0939583zM39.9783854 18.9664323C39.9783854 19.139349 39.9835938 19.2997656 39.9973958 19.4229427L39.4138021 19.4229427C39.4085938 19.2836198 39.3940104 19.139349 39.3940104 19.000026L39.3778646 18.993776 39.3830729 19.000026C39.2625 19.2023698 39.1010417 19.465651 38.6934896 19.465651 38.1041667 19.465651 37.9278646 19.000026 37.9278646 18.4416927L37.9278646 16.6635677 38.5520833 16.6635677 38.5520833 18.318776C38.5520833 18.7416927 38.6638021 18.9185156 38.9257812 18.9185156 39.2583333 18.9185156 39.353125 18.5974219 39.353125 18.2435156L39.353125 16.6635677 39.9783854 16.6635677 39.9783854 18.9664323zM40.7764323 16.0939583L41.3998698 15.8916146 41.3998698 16.6634896 41.9186198 16.6634896 41.9186198 17.1515104 41.3998698 17.1515104 41.3998698 18.5809375C41.3998698 18.8770312 41.5003906 18.9614062 41.6816406 18.9614062 41.7941406 18.9614062 41.8738281 18.9298958 41.9186198 18.9033333L41.9186198 19.3741667C41.8238281 19.4228646 41.6876302 19.4658333 41.5003906 19.4658333 41.0373698 19.4658333 40.7764323 19.2408333 40.7764323 18.6624479L40.7764323 17.1515104 40.361849 17.1515104 40.361849 16.6634896 40.7764323 16.6634896 40.7764323 16.0939583zM5.87958333 23.0499219L5.44625 23.0499219 5.44625 22.561901 5.87958333 22.561901 5.87958333 21.9996615C5.87958333 21.6017448 6.05536458 21.2379427 6.624375 21.2379427 6.79078125 21.2379427 6.95223958 21.2764844 7.0728125 21.3022656L7.0478125 21.7840365C6.97255208 21.7626823 6.89130208 21.7413281 6.8009375 21.7413281 6.61942708 21.7413281 6.5040625 21.8754427 6.5040625 22.0840365L6.5040625 22.561901 6.97697917 22.561901 6.97697917 23.0499219 6.5040625 23.0499219 6.5040625 25.3217969 5.87958333 25.3217969 5.87958333 23.0499219zM8.56510417 22.0914062L9.04869792 22.0914062 9.04869792 21.5005208 8.56510417 21.5005208 8.56510417 22.0914062zM7.71901042 22.0914062L8.20260417 22.0914062 8.20260417 21.5005208 7.71901042 21.5005208 7.71901042 22.0914062zM9.40677083 24.8658854C9.40677083 25.0388021 9.41171875 25.1994792 9.42604167 25.3216146L8.84296875 25.3216146C8.83671875 25.1822917 8.82265625 25.0388021 8.82265625 24.8984375L8.80703125 24.8924479 8.81223958 24.8984375C8.69114583 25.1020833 8.5296875 25.3643229 8.121875 25.3643229 7.5328125 25.3643229 7.35546875 24.8984375 7.35546875 24.3414063L7.35546875 22.5619792 7.98098958 22.5619792 7.98098958 24.2171875C7.98098958 24.6403646 8.09166667 24.8171875 8.353125 24.8171875 8.68619792 24.8171875 8.78177083 24.4958333 8.78177083 24.1421875L8.78177083 22.5619792 9.40677083 22.5619792 9.40677083 24.8658854zM9.99234375 23.0173698C9.99234375 22.8454948 9.986875 22.6848177 9.97177083 22.561901L10.5366146 22.561901C10.5415625 22.7277865 10.5569271 22.899401 10.5569271 23.0660677L10.5665625 23.0660677C10.6428646 22.8507031 10.8389583 22.518151 11.2269792 22.518151 11.2668229 22.518151 11.2965104 22.5290885 11.3324479 22.5345573L11.3324479 23.1566927C11.2767188 23.1405469 11.2217708 23.129349 11.155625 23.129349 10.8991146 23.129349 10.6163021 23.294974 10.6163021 23.810599L10.6163021 25.3217969 9.99234375 25.3217969 9.99234375 23.0173698zM13.7720573 24.7957812L14.1301302 24.7957812C14.477526 24.7957812 14.6689323 24.5720833 14.6689323 24.2233854 14.6689323 23.8957812 14.507474 23.6499479 14.1095573 23.6499479L13.7720573 23.6499479 13.7720573 24.7957812zM13.7720573 23.1465625L14.1046094 23.1465625C14.4223177 23.1465625 14.6085156 22.8942187 14.6085156 22.5874479 14.6085156 22.273125 14.3960156 22.0840625 14.0897656 22.0840625L13.7720573 22.0840625 13.7720573 23.1465625zM13.148099 21.5796354L14.1749219 21.5796354C14.9009635 21.5796354 15.2335156 21.8705208 15.2335156 22.5030729 15.2335156 23.0976042 14.8803906 23.2736458 14.6483594 23.3650521L14.6483594 23.37625C14.9207552 23.4403125 15.3142448 23.6447396 15.3142448 24.2702604 15.3142448 24.9525521 14.8452344 25.3218229 14.2207552 25.3218229L13.148099 25.3218229 13.148099 21.5796354zM17.2892188 23.7036458C17.2892188 23.2148437 17.1384375 22.9697917 16.8569271 22.9697917 16.5293229 22.9697917 16.3939063 23.3388021 16.3939063 23.7036458L17.2892188 23.7036458zM17.7631771 25.1875C17.6327083 25.2473958 17.3608333 25.3643229 16.9879167 25.3643229 16.1519792 25.3643229 15.7884375 24.7268229 15.7884375 23.9822917 15.7884375 23.1567708 16.1967708 22.5182292 16.8569271 22.5182292 17.4157813 22.5182292 17.8946875 22.8679687 17.8946875 23.9916667L17.8946875 24.1216146 16.3939063 24.1216146C16.3939063 24.5924479 16.5691667 24.8773438 17.0527604 24.8773438 17.4355729 24.8773438 17.6168229 24.7541667 17.7334896 24.6625L17.7631771 25.1875zM18.3997917 23.0173698C18.3997917 22.8454948 18.3945833 22.6848177 18.3792187 22.561901L18.9430208 22.561901C18.9484896 22.7277865 18.964375 22.899401 18.964375 23.0660677L18.9740104 23.0660677C19.0490104 22.8507031 19.2458854 22.518151 19.633125 22.518151 19.6740104 22.518151 19.7044792 22.5290885 19.739375 22.5345573L19.739375 23.1566927C19.6846875 23.1405469 19.6286979 23.129349 19.5630729 23.129349 19.3065625 23.129349 19.02375 23.294974 19.02375 23.810599L19.02375 25.3217969 18.3997917 25.3217969 18.3997917 23.0173698zM22.2038021 24.8659896C22.2038021 25.0389063 22.20875 25.1995833 22.2241146 25.3217188L21.64 25.3217188C21.6345313 25.1823958 21.6196875 25.0389063 21.6196875 24.8985417L21.6043229 24.8925521 21.6097917 24.8985417C21.4881771 25.1019271 21.3272396 25.3644271 20.9189063 25.3644271 20.3298438 25.3644271 20.1535417 24.8985417 20.1535417 24.3415104L20.1535417 22.5618229 20.7775 22.5618229 20.7775 24.2172917C20.7775 24.6402083 20.8897396 24.8172917 21.1511979 24.8172917 21.4832292 24.8172917 21.5798438 24.4959375 21.5798438 24.1420313L21.5798438 22.5618229 22.2038021 22.5618229 22.2038021 24.8659896zM22.9711979 23.0499219L22.5378646 23.0499219 22.5378646 22.561901 22.9711979 22.561901 22.9711979 21.9996615C22.9711979 21.6017448 23.1475 21.2379427 23.7167708 21.2379427 23.8834375 21.2379427 24.0433333 21.2764844 24.1652083 21.3022656L24.1394271 21.7840365C24.0646875 21.7626823 23.9839583 21.7413281 23.8930729 21.7413281 23.7120833 21.7413281 23.5956771 21.8754427 23.5956771 22.0840365L23.5956771 22.561901 24.0696354 22.561901 24.0696354 23.0499219 23.5956771 23.0499219 23.5956771 25.3217969 22.9711979 25.3217969 22.9711979 23.0499219zM24.3774219 24.6789323C24.4782031 24.7216406 24.734974 24.8599219 25.026901 24.8599219 25.255026 24.8599219 25.430026 24.801849 25.430026 24.587526 25.430026 24.4807552 25.3795052 24.3789323 25.153724 24.2396094L24.8964323 24.0778906C24.6344531 23.9122656 24.347474 23.7351823 24.347474 23.3010677 24.347474 22.921901 24.6946094 22.5182552 25.2440885 22.5182552 25.5766406 22.5182552 25.8336719 22.6107031 25.8933073 22.629974L25.8584115 23.1466406C25.7021615 23.0815365 25.5357552 23.0224219 25.3097135 23.0224219 25.0576302 23.0224219 24.9521615 23.1242448 24.9521615 23.2898698 24.9521615 23.4403906 25.0620573 23.5208594 25.2440885 23.6448177L25.5516406 23.853151C25.8740365 24.0726823 26.0347135 24.2286719 26.0347135 24.548724 26.0347135 25.0591406 25.6323698 25.364349 25.0685677 25.364349 24.7459115 25.364349 24.4782031 25.283099 24.347474 25.229974L24.3774219 24.6789323zM27.6283073 24.8772917C27.9908073 24.8772917 28.0858594 24.5538542 28.0858594 23.9181771 28.0858594 23.3650521 27.9647656 23.0072396 27.6173698 23.0072396 27.2746615 23.0072396 27.1342969 23.3978646 27.1342969 23.9335417 27.1342969 24.4533333 27.2598177 24.8772917 27.6283073 24.8772917zM27.1342969 21.3020312L27.1342969 22.9582812 27.1441927 22.9582812C27.2348177 22.7439583 27.4415885 22.5181771 27.8145052 22.5181771 28.3728385 22.5181771 28.7108594 23.0429167 28.7108594 23.9439583 28.7108594 24.7103646 28.4439323 25.3642708 27.7996615 25.3642708 27.396276 25.3642708 27.2100781 25.129375 27.1082552 24.8926563L27.0934115 24.8926563C27.0934115 25.0806771 27.0835156 25.2410938 27.073099 25.3218229L26.4892448 25.3218229C26.5048698 25.2189583 26.508776 25.048125 26.508776 24.8507292L26.508776 21.3020312 27.1342969 21.3020312zM29.265625 25.321875L29.890625 25.321875 29.890625 22.5619792 29.265625 22.5619792 29.265625 25.321875zM29.2557292 22.0421875L29.9013021 22.0421875 29.9013021 21.3882813 29.2557292 21.3882813 29.2557292 22.0421875z" mask="url(#na_bibb-b)"/>
      <polygon fill="#003369" points="30.576 25.322 31.201 25.322 31.201 21.302 30.576 21.302" mask="url(#na_bibb-b)"/>
      <path fill="#003369" d="M32.8381771 24.8772917C33.2066667 24.8772917 33.3327083 24.4533333 33.3327083 23.9335417 33.3327083 23.3978646 33.1915625 23.0072396 32.8491146 23.0072396 32.5019792 23.0072396 32.3801042 23.3650521 32.3801042 23.9181771 32.3801042 24.5538542 32.4767187 24.8772917 32.8381771 24.8772917zM33.9564063 21.3020312L33.9564063 24.8507292C33.9564063 25.048125 33.9613542 25.2189583 33.9772396 25.3218229L33.3928646 25.3218229C33.3829688 25.2410938 33.3730729 25.0806771 33.3730729 24.8926563L33.3579688 24.8926563C33.2574479 25.129375 33.0696875 25.3642708 32.6668229 25.3642708 32.0215104 25.3642708 31.755625 24.7103646 31.755625 23.9439583 31.755625 23.0429167 32.093125 22.5181771 32.6530208 22.5181771 33.0254167 22.5181771 33.2316667 22.7439583 33.3220313 22.9582812L33.3327083 22.9582812 33.3327083 21.3020312 33.9564063 21.3020312zM36.5836979 24.8659896C36.5836979 25.0389063 36.5889063 25.1995833 36.6024479 25.3217188L36.0191146 25.3217188C36.0139063 25.1823958 35.9990625 25.0389063 35.9990625 24.8985417L35.9839583 24.8925521 35.9891667 24.8985417C35.8675521 25.1019271 35.7063542 25.3644271 35.2988021 25.3644271 34.7092187 25.3644271 34.5339583 24.8985417 34.5339583 24.3415104L34.5339583 22.5618229 35.1573958 22.5618229 35.1573958 24.2172917C35.1573958 24.6402083 35.2680729 24.8172917 35.5300521 24.8172917 35.8626042 24.8172917 35.9584375 24.4959375 35.9584375 24.1420313L35.9584375 22.5618229 36.5836979 22.5618229 36.5836979 24.8659896zM37.1482813 23.0173698C37.1482813 22.8454948 37.144375 22.6848177 37.1295312 22.561901L37.713125 22.561901C37.7180729 22.701224 37.7321354 22.8454948 37.7321354 22.9848177L37.7490625 22.9848177 37.7430729 22.9848177C37.8336979 22.8191927 38.01 22.518151 38.4339583 22.518151 39.0227604 22.518151 39.1990625 22.9848177 39.1990625 23.5421094L39.1990625 25.3217969 38.5748438 25.3217969 38.5748438 23.665026C38.5748438 23.2421094 38.4740625 23.0660677 38.2170313 23.0660677 37.8894271 23.0660677 37.7738021 23.3600781 37.7738021 23.7139844L37.7738021 25.3217969 37.1482813 25.3217969 37.1482813 23.0173698zM40.7478125 24.8334375C41.1402604 24.8334375 41.2965104 24.5334375 41.2965104 23.9060938 41.2965104 23.3274479 41.0902604 23.0172917 40.7936458 23.0225 40.465 23.0274479 40.3394792 23.3498438 40.3394792 23.9123438 40.3394792 24.56 40.5358333 24.8334375 40.7478125 24.8334375zM39.8454687 25.750625C39.9920833 25.8363021 40.28375 25.9865625 40.6121354 25.9865625 41.2009375 25.9865625 41.2965104 25.5524479 41.2965104 25.1180729L41.2965104 24.8558333 41.2866146 24.8558333C41.1860937 25.0704167 41.0097917 25.3217188 40.6022396 25.3217188 40.2389583 25.3217188 39.6949479 25.0644271 39.6949479 23.9490625 39.6949479 23.1894271 39.9509375 22.5180729 40.6314062 22.5180729 41.0097917 22.5180729 41.1860937 22.7490625 41.3155208 22.9899479L41.3373958 22.9899479C41.3373958 22.8456771 41.3522396 22.7063542 41.3574479 22.5618229L41.9209896 22.5618229C41.9110937 22.7063542 41.9022396 22.8508854 41.9022396 22.9959375L41.9022396 25.031875C41.9022396 25.8961979 41.6540625 26.5102604 40.7030208 26.5102604 40.2876562 26.5102604 39.961875 26.3993229 39.8095312 26.3394271L39.8454687 25.750625z" mask="url(#na_bibb-b)"/>
      <path stroke="#003369" stroke-width="2.046" d="M48.2504427,0.10453125 L48.2504427,46.8751042" mask="url(#na_bibb-b)"/>
      <path fill="#003369" d="M55.3391667,36.520651 L55.9725,36.520651 C56.7316146,36.520651 57.4157292,36.3607552 57.4157292,35.5664844 C57.4157292,34.6547656 56.6136458,34.5284635 55.8878646,34.5284635 L55.3391667,34.5284635 L55.3391667,36.520651 Z M55.3391667,33.8365365 L55.8034896,33.8365365 C56.6222396,33.8365365 57.3141667,33.7607552 57.3141667,32.8909635 C57.3141667,32.1901823 56.7146875,32.0128385 56.2251042,32.0128385 L55.3391667,32.0128385 L55.3391667,33.8365365 Z M54.4948958,31.320651 L56.0904688,31.320651 C57.3141667,31.320651 58.1584375,31.7177865 58.1584375,32.8060677 C58.1584375,33.6170052 57.6857813,34.0216927 56.9428125,34.2078906 L56.9428125,34.2245573 C57.744375,34.2920052 58.31,34.8154427 58.31,35.6427865 C58.31,36.9084115 57.2636458,37.2123177 56.0649479,37.2123177 L54.4948958,37.2123177 L54.4948958,31.320651 Z" mask="url(#na_bibb-b)"/>
      <polygon fill="#003369" points="59.703 37.212 60.547 37.212 60.547 31.321 59.703 31.321" mask="url(#na_bibb-b)"/>
      <polygon fill="#003369" points="62.041 31.321 62.885 31.321 62.885 36.47 65.35 36.47 65.35 37.212 62.041 37.212" mask="url(#na_bibb-b)"/>
      <path fill="#003369" d="M67.0632552 36.4702865L67.9494531 36.4702865C69.401276 36.4702865 70.2028385 35.7697656 70.2028385 34.249974 70.2028385 32.8736719 69.2663802 32.0642969 68.0510156 32.0642969L67.0632552 32.0642969 67.0632552 36.4702865zM66.2189844 31.3208073L67.9580469 31.3208073C69.7054427 31.3208073 71.0976302 32.401276 71.0976302 34.2166406 71.0976302 36.1911198 69.8991927 37.212474 67.9580469 37.212474L66.2189844 37.212474 66.2189844 31.3208073zM76.946875 34.773776C76.946875 36.4282031 76.1111979 37.3138802 74.6596354 37.3138802 73.2075521 37.3138802 72.3721354 36.4282031 72.3721354 34.773776L72.3721354 31.320651 73.2161458 31.320651 73.2161458 34.6636198C73.2161458 35.7946094 73.5710938 36.5714323 74.6596354 36.5714323 75.7481771 36.5714323 76.1028646 35.7946094 76.1028646 34.6636198L76.1028646 31.320651 76.946875 31.320651 76.946875 34.773776z" mask="url(#na_bibb-b)"/>
      <polygon fill="#003369" points="78.449 31.321 79.598 31.321 82.197 36.064 82.213 36.064 82.213 31.321 83.057 31.321 83.057 37.212 81.977 37.212 79.31 32.368 79.293 32.368 79.293 37.212 78.449 37.212" mask="url(#na_bibb-b)"/>
      <path fill="#003369" d="M89.0253646,32.3674479 C88.6113021,32.0981771 88.1636458,31.9625 87.4042708,31.9625 C86.0459375,31.9625 85.1430729,32.9494792 85.1430729,34.2669271 C85.1430729,35.6505208 86.1383854,36.5716146 87.3626042,36.5716146 C87.9446354,36.5716146 88.0967188,36.5122396 88.3076563,36.4703125 L88.3076563,34.6802083 L87.0667708,34.6802083 L87.0667708,33.9880208 L89.1514063,33.9880208 L89.1514063,37.0523438 C88.8310938,37.1619792 88.2740625,37.3138021 87.3534896,37.3138021 C85.4883854,37.3138021 84.2477604,36.1153646 84.2477604,34.2419271 C84.2477604,32.4268229 85.5641667,31.2200521 87.3626042,31.2200521 C88.2232813,31.2200521 88.6032292,31.3460938 89.0920313,31.5151042 L89.0253646,32.3674479 Z" mask="url(#na_bibb-b)"/>
      <polygon fill="#003369" points="92.941 31.321 96.074 31.321 96.074 32.064 93.785 32.064 93.785 33.786 95.972 33.786 95.972 34.528 93.785 34.528 93.785 37.212 92.941 37.212" mask="url(#na_bibb-b)"/>
      <path fill="#003369" d="M99.803125 30.8309896L100.597656 30.8309896 100.597656 29.9875 99.803125 29.9875 99.803125 30.8309896zM98.4192708 30.8309896L99.2127604 30.8309896 99.2127604 29.9875 98.4192708 29.9875 98.4192708 30.8309896zM101.795573 34.7736979C101.795573 36.428125 100.960156 37.3138021 99.5080729 37.3138021 98.0559896 37.3138021 97.2208333 36.428125 97.2208333 34.7736979L97.2208333 31.3205729 98.0640625 31.3205729 98.0640625 34.6635417C98.0640625 35.7945313 98.4192708 36.5716146 99.5080729 36.5716146 100.597656 36.5716146 100.951563 35.7945313 100.951563 34.6635417L100.951563 31.3205729 101.795573 31.3205729 101.795573 34.7736979zM104.099531 33.8528906L104.816719 33.8528906C105.618802 33.8528906 106.09224 33.4984635 106.09224 32.9333594 106.09224 32.4013281 105.687031 32.0640885 104.910208 32.0640885L104.099531 32.0640885 104.099531 33.8528906zM103.256302 31.320599L104.69875 31.320599C105.863333 31.320599 106.985469 31.5070573 106.985469 32.915651 106.985469 33.6333594 106.453958 34.1403906 105.770885 34.2583594L105.770885 34.2752865C106.032865 34.3763281 106.159427 34.5028906 106.344583 34.8664323L107.458906 37.2122656 106.497188 37.2122656 105.593802 35.1698177C105.331823 34.5961198 105.053698 34.5961198 104.606042 34.5961198L104.099531 34.5961198 104.099531 37.2122656 103.256302 37.2122656 103.256302 31.320599z" mask="url(#na_bibb-b)"/>
      <polygon fill="#003369" points="110.853 31.321 114.153 31.321 114.153 32.064 111.696 32.064 111.696 33.786 113.933 33.786 113.933 34.528 111.696 34.528 111.696 36.47 114.153 36.47 114.153 37.212 110.853 37.212" mask="url(#na_bibb-b)"/>
      <path fill="#003369" d="M120.086667 34.773776C120.086667 36.4282031 119.250469 37.3138802 117.798385 37.3138802 116.347344 37.3138802 115.511667 36.4282031 115.511667 34.773776L115.511667 31.320651 116.355417 31.320651 116.355417 34.6636198C116.355417 35.7946094 116.709844 36.5714323 117.798385 36.5714323 118.887448 36.5714323 119.242917 35.7946094 119.242917 34.6636198L119.242917 31.320651 120.086667 31.320651 120.086667 34.773776zM122.390234 33.8528906L123.107422 33.8528906C123.910026 33.8528906 124.382422 33.4984635 124.382422 32.9333594 124.382422 32.4013281 123.977734 32.0640885 123.200391 32.0640885L122.390234 32.0640885 122.390234 33.8528906zM121.546484 31.320599L122.989974 31.320599C124.154036 31.320599 125.277214 31.5070573 125.277214 32.915651 125.277214 33.6333594 124.745182 34.1403906 124.062109 34.2583594L124.062109 34.2752865C124.323047 34.3763281 124.449609 34.5028906 124.635807 34.8664323L125.749609 37.2122656 124.787891 37.2122656 123.883984 35.1698177C123.623047 34.5961198 123.34388 34.5961198 122.897266 34.5961198L122.390234 34.5961198 122.390234 37.2122656 121.546484 37.2122656 121.546484 31.320599zM129.286198 36.5715104C130.645313 36.5715104 131.227604 35.44 131.227604 34.2668229 131.227604 33.0686458 130.586719 31.9543229 129.286198 31.9626563 127.986719 31.9543229 127.345313 33.0686458 127.345313 34.2668229 127.345313 35.44 127.927604 36.5715104 129.286198 36.5715104M129.286198 31.2202083C131.076042 31.2202083 132.122396 32.5194271 132.122396 34.2668229 132.122396 36.0561458 131.084115 37.3139583 129.286198 37.3139583 127.488281 37.3139583 126.451042 36.0561458 126.451042 34.2668229 126.451042 32.5194271 127.496875 31.2202083 129.286198 31.2202083M134.114062 34.1143229L134.950781 34.1143229C135.474219 34.1143229 136.132292 33.8528646 136.132292 33.0768229 136.132292 32.3335938 135.355208 32.0640625 134.831771 32.0640625L134.114062 32.0640625 134.114062 34.1143229zM133.270833 31.3205729L134.814323 31.3205729C136.021875 31.3205729 137.026562 31.7429688 137.026562 33.0851563 137.026562 34.3932292 136.005729 34.8578125 134.941667 34.8578125L134.114062 34.8578125 134.114062 37.2122396 133.270833 37.2122396 133.270833 31.3205729zM139.981563 32.1145313L138.808646 35.0340625 141.155521 35.0340625 139.981563 32.1145313zM139.568542 31.3207813L140.453958 31.3207813 142.944323 37.2124479 142.024271 37.2124479 141.425052 35.7270313 138.538594 35.7270313 137.939896 37.2124479 137.052917 37.2124479 139.568542 31.3207813z" mask="url(#na_bibb-b)"/>
    </g>
  </g>
</svg>
