<svg xmlns="http://www.w3.org/2000/svg" xmlns:xlink="http://www.w3.org/1999/xlink" width="180" height="32" viewBox="0 0 180 32">
  <defs>
    <polygon id="refernet-a" points="0 31.765 178.946 31.765 178.946 .541 0 .541"/>
  </defs>
  <g fill="none" fill-rule="evenodd" transform="translate(0 -1)">
    <polygon fill="#94C01F" points=".01 1.145 .01 6.906 5.783 6.906 5.782 1.144"/>
    <polygon fill="#164193" points="0 14.902 .002 20.654 5.762 20.642 5.762 14.889"/>
    <polygon fill="#164193" points="6.866 8.027 12.628 8.016 12.628 13.769 6.868 13.78"/>
    <polygon fill="#94C01F" points="6.866 14.864 12.626 14.862 12.628 20.622 6.867 20.624"/>
    <polygon fill="#009EE2" points="6.875 21.767 12.637 21.756 12.59 27.519 6.876 27.519"/>
    <polygon fill="#009EE2" points="13.738 8.012 19.489 8.011 19.5 13.774 13.738 13.725"/>
    <polygon fill="#94C01F" points="13.74 14.893 19.503 14.881 19.456 20.645 13.744 20.645"/>
    <polygon fill="#164193" points="20.591 21.753 26.352 21.753 26.353 27.514 20.593 27.516"/>
    <path fill="#1D1D1B" d="M103.136612,23.1214235 L95.4813176,11.7983647 L95.5363765,23.1214235 L94.3854353,23.1214235 L94.3854353,10.3403647 L95.7470824,10.3403647 L103.367435,21.6824824 L103.349435,10.3403647 L104.480259,10.3403647 L104.480259,23.1214235 L103.136612,23.1214235 Z M107.033082,23.1214235 L107.033082,10.3403647 L115.899671,10.3403647 L115.899671,11.3960118 L108.242259,11.3960118 L108.242259,15.9828353 L115.418965,15.9828353 L115.418965,17.0003647 L108.242259,17.0003647 L108.242259,22.0467176 L115.976965,22.0467176 L115.976965,23.1214235 L107.033082,23.1214235 Z M121.982612,11.3960118 L121.982612,23.1214235 L120.773435,23.1214235 L120.773435,11.3960118 L116.281906,11.3960118 L116.281906,10.3403647 L126.474141,10.3403647 L126.474141,11.3960118 L121.982612,11.3960118 Z"/>
    <g transform="translate(0 .518)">
      <path fill="#164193" d="M88.3399765 22.6033412C88.2055059 22.3354588 88.1472706 22.0474588 88.0900941 21.4704L88.0318588 20.7800471 87.9577412 19.9340471C87.8222118 18.4379294 87.1699765 17.8439294 85.6717412 17.8439294L83.6186824 17.8439294 83.6186824 22.6033412 80.2791529 22.6033412 80.2791529 9.82228235 86.5929176 9.82228235C88.5506824 9.82228235 89.6253882 10.1854588 90.4502118 11.1648706 91.0060941 11.7991059 91.2951529 12.5868706 91.2951529 13.5059294 91.2951529 14.9660471 90.5455059 16.1540471 89.3183294 16.6548706 90.4311529 16.9608706 91.0452706 17.9402824 91.1977412 19.7254588L91.3142118 21.0108706C91.3904471 21.7975765 91.4878588 22.3164 91.6403294 22.4889882L91.7356235 22.6033412 88.3399765 22.6033412zM85.9406824 12.3931059L83.6186824 12.3931059 83.6186824 15.4647529 85.9968 15.4647529C87.3806824 15.4647529 87.9926824 15.0041647 87.9926824 13.9294588 87.9926824 12.8928706 87.3415059 12.3931059 85.9406824 12.3931059zM68.0158588 22.6033412L68.0158588 9.82228235 78.2440941 9.82228235 78.2440941 12.5667529 71.3342118 12.5667529 71.3342118 14.7151059 77.6500941 14.7151059 77.6500941 17.2869882 71.3553882 17.2869882 71.3553882 19.8408706 78.4177412 19.8408706 78.4177412 22.6033412 68.0158588 22.6033412zM60.2620941 12.5667529L60.2620941 15.0613412 65.5583294 15.0613412 65.5583294 17.6724 60.2620941 17.6724 60.2620941 22.6033412 56.9225647 22.6033412 56.9225647 9.82228235 66.3662118 9.82228235 66.3662118 12.5667529 60.2620941 12.5667529zM44.6412706 22.6033412L44.6412706 9.82228235 54.8695059 9.82228235 54.8695059 12.5667529 47.9606824 12.5667529 47.9606824 14.7151059 54.2744471 14.7151059 54.2744471 17.2869882 47.9786824 17.2869882 47.9786824 19.8408706 55.0420941 19.8408706 55.0420941 22.6033412 44.6412706 22.6033412zM37.2909176 12.3931059L34.9678588 12.3931059 34.9678588 15.4647529 37.3480941 15.4647529C38.7298588 15.4647529 39.3439765 15.0041647 39.3439765 13.9294588 39.3439765 12.8928706 38.6917412 12.3931059 37.2909176 12.3931059zM39.6902118 22.6033412C39.5546824 22.3354588 39.4975059 22.0474588 39.4392706 21.4704L39.3820941 20.7800471 39.3048 19.9340471C39.1703294 18.4379294 38.5191529 17.8439294 37.0219765 17.8439294L34.9678588 17.8439294 34.9678588 22.6033412 31.6283294 22.6033412 31.6283294 9.82228235 37.9431529 9.82228235C39.9009176 9.82228235 40.9756235 10.1854588 41.7993882 11.1648706 42.3573882 11.7991059 42.6453882 12.5868706 42.6453882 13.5059294 42.6453882 14.9660471 41.8968 16.1540471 40.6685647 16.6548706 41.7803294 16.9608706 42.3944471 17.9402824 42.5490353 19.7254588L42.6644471 21.0108706C42.7417412 21.7975765 42.8370353 22.3164 42.9905647 22.4889882L43.0858588 22.6033412 39.6902118 22.6033412zM129.267 19.8983647L129.267 22.2976588 129.599471 22.2976588C129.883235 22.2976588 130.084412 22.2648353 130.204059 22.2023647 130.323706 22.1398941 130.416882 22.0297765 130.485706 21.8730706 130.553471 21.7163647 130.587353 21.4633059 130.587353 21.1117765 130.587353 20.6469529 130.511118 20.3271882 130.359706 20.1567176 130.208294 19.9851882 129.956294 19.8983647 129.604765 19.8983647L129.267 19.8983647zM127.910647 18.9062471L129.925588 18.9062471C130.322647 18.9062471 130.643471 18.9591882 130.888059 19.0671882 131.132647 19.1741294 131.334882 19.3297765 131.494765 19.5309529 131.653588 19.7321294 131.770059 19.9661294 131.842059 20.2340118 131.913 20.5018941 131.949 20.7856588 131.949 21.0842471 131.949 21.5522471 131.896059 21.9175412 131.789118 22.1748353 131.682176 22.4342471 131.533941 22.6513059 131.344412 22.8249529 131.154882 23.0007176 130.951588 23.1150706 130.733471 23.1733059 130.435941 23.2537765 130.167 23.2940118 129.925588 23.2940118L127.910647 23.2940118 127.910647 18.9062471z"/>
      <polygon fill="#164193" points="132.659 18.906 136.293 18.906 136.293 19.842 134.018 19.842 134.018 20.539 136.128 20.539 136.128 21.434 134.018 21.434 134.018 22.299 136.359 22.299 136.359 23.295 132.659 23.295"/>
      <path fill="#164193" d="M139.944176,18.9057176 L141.297353,18.9057176 L141.297353,21.5199529 C141.297353,21.7783059 141.257118,22.0239529 141.176647,22.2537176 C141.096176,22.4845412 140.969118,22.6857176 140.796529,22.8583059 C140.623941,23.0308941 140.442882,23.1526588 140.253353,23.2214824 C139.989706,23.3188941 139.673118,23.3686588 139.304647,23.3686588 C139.089706,23.3686588 138.857824,23.3527765 138.604765,23.3231294 C138.352765,23.2945412 138.141,23.2341882 137.971588,23.1463059 C137.802176,23.0573647 137.647588,22.9303059 137.506765,22.7661882 C137.365941,22.6031294 137.269588,22.4358353 137.217706,22.2621882 C137.134059,21.9816 137.091706,21.7348941 137.091706,21.5199529 L137.091706,18.9057176 L138.444882,18.9057176 L138.444882,21.5813647 C138.444882,21.8217176 138.510529,22.0080706 138.643941,22.1436 C138.776294,22.2770118 138.960529,22.3447765 139.195588,22.3447765 C139.429588,22.3447765 139.613824,22.2780706 139.746176,22.1457176 C139.878529,22.0133647 139.944176,21.8259529 139.944176,21.5813647 L139.944176,18.9057176 Z"/>
      <polygon fill="#164193" points="141.887 18.906 146.01 18.906 146.01 19.989 144.626 19.989 144.626 23.295 143.271 23.295 143.271 19.989 141.887 19.989"/>
      <path fill="#164193" d="M146.386059 21.8423647L147.676765 21.7608353C147.704294 21.9704824 147.762529 22.1303647 147.847235 22.2404824 147.987 22.4183647 148.186059 22.5062471 148.445471 22.5062471 148.640294 22.5062471 148.789588 22.4607176 148.893353 22.3696588 148.998176 22.2796588 149.051118 22.1737765 149.051118 22.0541294 149.051118 21.9408353 149.001353 21.8391882 148.900765 21.7481294 148.801235 21.6591882 148.570412 21.5744824 148.207235 21.4950706 147.612176 21.3616588 147.188647 21.1827176 146.934529 20.9624824 146.678294 20.7401294 146.550176 20.4574235 146.550176 20.1143647 146.550176 19.8888353 146.616882 19.6760118 146.747118 19.4758941 146.878412 19.2747176 147.074294 19.1180118 147.336882 19.0026 147.599471 18.8882471 147.959471 18.8300118 148.415824 18.8300118 148.975941 18.8300118 149.404765 18.9348353 149.699118 19.1434235 149.993471 19.3509529 150.168176 19.6834235 150.224294 20.1387176L148.945235 20.2128353C148.912412 20.0158941 148.840412 19.8729529 148.732412 19.7829529 148.622294 19.6929529 148.473 19.6474235 148.281353 19.6474235 148.124647 19.6474235 148.003941 19.6813059 147.925588 19.7480118 147.846176 19.8147176 147.805941 19.8951882 147.805941 19.9915412 147.805941 20.0614235 147.837706 20.1238941 147.904412 20.1810706 147.967941 20.2382471 148.119353 20.2922471 148.358647 20.3420118 148.952647 20.4701294 149.376176 20.5993059 149.632412 20.7295412 149.889706 20.8608353 150.075 21.0228353 150.193588 21.2166 150.309 21.4103647 150.368294 21.6263647 150.368294 21.8656588 150.368294 22.1473059 150.291 22.4067176 150.134294 22.6438941 149.978647 22.8810706 149.761588 23.0610706 149.482059 23.1849529 149.201471 23.3077765 148.849941 23.3681294 148.425353 23.3681294 147.678882 23.3681294 147.162176 23.2251882 146.875235 22.9371882 146.587235 22.6502471 146.424176 22.2849529 146.386059 21.8423647M153.972529 21.4980353L155.160529 21.8569765C155.081118 22.1894471 154.955118 22.4689765 154.783588 22.6913294 154.612059 22.9158 154.398176 23.0841529 154.144059 23.1974471 153.889941 23.3118 153.564882 23.3689765 153.172059 23.3689765 152.695588 23.3689765 152.305941 23.2990941 152.004176 23.1603882 151.701353 23.0216824 151.439824 22.7781529 151.220647 22.4298 151.000412 22.0803882 150.891353 21.6335647 150.891353 21.0893294 150.891353 20.3629765 151.084059 19.8049765 151.471588 19.4142706 151.857 19.0256824 152.403353 18.8298 153.109588 18.8298 153.662294 18.8298 154.097471 18.9420353 154.414059 19.1665059 154.729588 19.3899176 154.964647 19.7319176 155.118176 20.1956824L153.920647 20.4614471C153.878294 20.3280353 153.834882 20.2306235 153.789353 20.1681529 153.714176 20.0643882 153.621 19.9849765 153.509824 19.9299176 153.400765 19.8727412 153.277941 19.8452118 153.143471 19.8452118 152.835353 19.8452118 152.600294 19.9690941 152.436176 20.2158 152.312294 20.4000353 152.250882 20.6869765 152.250882 21.0798 152.250882 21.5658 152.323941 21.9003882 152.472176 22.0803882 152.620412 22.2603882 152.826882 22.3514471 153.094765 22.3514471 153.354176 22.3514471 153.551118 22.2773294 153.683471 22.1322706 153.815824 21.9861529 153.912176 21.7754471 153.972529 21.4980353"/>
      <polygon fill="#164193" points="155.825 18.906 157.181 18.906 157.181 20.441 158.663 20.441 158.663 18.906 160.025 18.906 160.025 23.295 158.663 23.295 158.663 21.519 157.181 21.519 157.181 23.295 155.825 23.295"/>
      <polygon fill="#164193" points="160.926 18.906 162.282 18.906 162.282 22.213 164.398 22.213 164.398 23.295 160.926 23.295"/>
      <path fill="#164193" d="M167.431235,21.6200118 L166.947353,20.0434235 L166.467706,21.6200118 L167.431235,21.6200118 Z M167.712882,22.5687176 L166.173353,22.5687176 L165.959471,23.2940118 L164.575588,23.2940118 L166.224176,18.9062471 L167.703353,18.9062471 L169.351941,23.2940118 L167.933118,23.2940118 L167.712882,22.5687176 Z"/>
      <polygon fill="#164193" points="169.792 18.906 171.058 18.906 172.711 21.333 172.711 18.906 173.989 18.906 173.989 23.295 172.711 23.295 171.067 20.884 171.067 23.295 169.792 23.295"/>
      <path fill="#164193" d="M176.263729,19.8983647 L176.263729,22.2976588 L176.5962,22.2976588 C176.879965,22.2976588 177.081141,22.2648353 177.201847,22.2023647 C177.320435,22.1398941 177.414671,22.0297765 177.482435,21.8730706 C177.5502,21.7163647 177.584082,21.4633059 177.584082,21.1117765 C177.584082,20.6469529 177.507847,20.3271882 177.356435,20.1567176 C177.206082,19.9851882 176.953024,19.8983647 176.601494,19.8983647 L176.263729,19.8983647 Z M174.908435,18.9062471 L176.923376,18.9062471 C177.320435,18.9062471 177.6402,18.9591882 177.884788,19.0671882 C178.129376,19.1741294 178.331612,19.3297765 178.491494,19.5309529 C178.650318,19.7321294 178.766788,19.9661294 178.838788,20.2340118 C178.909729,20.5018941 178.945729,20.7856588 178.945729,21.0842471 C178.945729,21.5522471 178.891729,21.9175412 178.785847,22.1748353 C178.678906,22.4342471 178.531729,22.6513059 178.341141,22.8249529 C178.151612,23.0007176 177.948318,23.1150706 177.731259,23.1733059 C177.433729,23.2537765 177.164788,23.2940118 176.923376,23.2940118 L174.908435,23.2940118 L174.908435,18.9062471 Z"/>
      <path fill="#1D1D1B" d="M129.970694,29.9686235 L129.970694,29.4550941 L131.828929,29.4508588 L131.828929,31.0793294 C131.544106,31.3080353 131.249753,31.4785059 130.945871,31.5928588 C130.643047,31.7082706 130.331753,31.7643882 130.013047,31.7643882 C129.581047,31.7643882 129.189282,31.6722706 128.837753,31.4890941 C128.485165,31.3038 128.2194,31.0369765 128.0394,30.6875647 C127.860459,30.3381529 127.770459,29.9474471 127.770459,29.5165059 C127.770459,29.0898 127.8594,28.6916824 128.038341,28.3210941 C128.217282,27.9505059 128.473518,27.6762706 128.809165,27.4962706 C129.144812,27.3162706 129.530224,27.2262706 129.967518,27.2262706 C130.285165,27.2262706 130.572106,27.2781529 130.828341,27.3819176 C131.084576,27.4835647 131.285753,27.6275647 131.430812,27.8107412 C131.576929,27.9949765 131.688106,28.2332118 131.763282,28.5286235 L131.240224,28.6726235 C131.173518,28.4481529 131.091988,28.2723882 130.994576,28.1453294 C130.897165,28.0172118 130.7574,27.9155647 130.575282,27.8393294 C130.393165,27.7620353 130.191988,27.7239176 129.970694,27.7239176 C129.704929,27.7239176 129.475165,27.7641529 129.282459,27.8446235 C129.088694,27.9261529 128.933047,28.0320353 128.8134,28.1643882 C128.694812,28.2956824 128.602694,28.4407412 128.537047,28.5985059 C128.424812,28.8695647 128.368694,29.1628588 128.368694,29.4815647 C128.368694,29.8722706 128.436459,30.1994471 128.570929,30.4630941 C128.7054,30.7256824 128.902341,30.9215647 129.159635,31.0496824 C129.416929,31.1778 129.690106,31.2413294 129.979165,31.2413294 C130.231165,31.2413294 130.476812,31.1926235 130.716106,31.0952118 C130.9554,30.9988588 131.137518,30.8961529 131.260341,30.7860353 L131.260341,29.9686235 L129.970694,29.9686235 Z"/>
      <polygon fill="#1D1D1B" points="132.697 31.69 132.697 27.301 135.871 27.301 135.871 27.819 133.279 27.819 133.279 29.163 135.705 29.163 135.705 29.68 133.279 29.68 133.279 31.173 135.972 31.173 135.972 31.69"/>
      <path fill="#1D1D1B" d="M137.364353 29.2385647L138.612706 29.2385647C138.878471 29.2385647 139.084941 29.2120941 139.235294 29.1559765 139.384588 29.1009176 139.498941 29.0130353 139.577294 28.8933882 139.653529 28.7716235 139.692706 28.6413882 139.692706 28.4995059 139.692706 28.2909176 139.618588 28.1204471 139.467176 27.9859765 139.316824 27.8525647 139.078588 27.7869176 138.753529 27.7869176L137.364353 27.7869176 137.364353 29.2385647zM136.784118 31.6897412L136.784118 27.3019765 138.729176 27.3019765C139.119882 27.3019765 139.417412 27.3411529 139.621765 27.4195059 139.825059 27.4989176 139.988118 27.6376235 140.108824 27.8377412 140.231647 28.0368 140.293059 28.2580941 140.293059 28.4995059 140.293059 28.8108 140.191412 29.0733882 139.989176 29.2862118 139.788 29.4990353 139.476706 29.6356235 139.055294 29.6938588 139.208824 29.7679765 139.326353 29.8389176 139.406824 29.9119765 139.575176 30.0676235 139.736118 30.2624471 139.887529 30.4953882L140.650941 31.6897412 139.921412 31.6897412 139.340118 30.7770353C139.169647 30.5133882 139.030941 30.3122118 138.920824 30.1724471 138.810706 30.0326824 138.712235 29.9352706 138.625412 29.8780941 138.539647 29.8240941 138.450706 29.7849176 138.360706 29.7626824 138.295059 29.7478588 138.187059 29.7415059 138.037765 29.7415059L137.364353 29.7415059 137.364353 31.6897412 136.784118 31.6897412zM141.183953 31.6902706L141.183953 27.3014471 142.057482 27.3014471 143.097247 30.4090941C143.191482 30.6981529 143.262424 30.9152118 143.305835 31.0581529 143.356659 30.8982706 143.433953 30.6642706 143.540894 30.3540353L144.590188 27.3014471 145.3716 27.3014471 145.3716 31.6902706 144.812541 31.6902706 144.812541 28.0161529 143.536659 31.6902706 143.0136 31.6902706 141.744071 27.9547412 141.744071 31.6902706 141.183953 31.6902706zM147.092294 29.8879412L148.581 29.8879412 148.123588 28.6734706C147.982765 28.3028824 147.879 28.0000588 147.811235 27.7628824 147.755118 28.0434706 147.677824 28.323 147.575118 28.6004118L147.092294 29.8879412zM145.827 31.6900588L147.511588 27.3022941 148.137353 27.3022941 149.934176 31.6900588 149.272412 31.6900588 148.759941 30.3612353 146.925 30.3612353 146.443235 31.6900588 145.827 31.6900588z"/>
      <polygon fill="#1D1D1B" points="150.392 31.69 150.392 27.301 150.987 27.301 153.293 30.747 153.293 27.301 153.85 27.301 153.85 31.69 153.254 31.69 150.948 28.242 150.948 31.69"/>
      <path fill="#1D1D1B" d="M156.061271,31.6902706 L156.061271,29.8309765 L154.370329,27.3014471 L155.076565,27.3014471 L155.941624,28.6249765 C156.100447,28.8727412 156.2508,29.1194471 156.387388,29.3672118 C156.519741,29.1374471 156.678565,28.8801529 156.867035,28.5921529 L157.716212,27.3014471 L158.393859,27.3014471 L156.642565,29.8309765 L156.642565,31.6902706 L156.061271,31.6902706 Z"/>
      <mask id="refernet-b" fill="#fff">
        <use xlink:href="#refernet-a"/>
      </mask>
      <polygon fill="#164193" points="20.573 6.28 29.181 6.28 29.181 .541 20.573 .541" mask="url(#refernet-b)"/>
      <polygon fill="#FFEC00" points="24.694 1.79 24.875 1.657 25.057 1.79 24.989 1.577 25.172 1.445 24.944 1.445 24.875 1.227 24.806 1.445 24.579 1.445 24.763 1.577" mask="url(#refernet-b)"/>
      <polygon fill="#FFEC00" points="23.754 2.044 23.935 1.911 24.118 2.044 24.048 1.83 24.234 1.696 24.005 1.696 23.935 1.479 23.866 1.696 23.64 1.696 23.824 1.83" mask="url(#refernet-b)"/>
      <polygon fill="#FFEC00" points="23.248 2.168 23.179 2.386 22.95 2.386 23.136 2.519 23.067 2.733 23.248 2.6 23.429 2.733 23.36 2.519 23.545 2.386 23.318 2.386" mask="url(#refernet-b)"/>
      <polygon fill="#FFEC00" points="22.996 3.539 23.178 3.672 23.107 3.457 23.292 3.324 23.066 3.324 22.996 3.107 22.926 3.325 22.698 3.324 22.884 3.457 22.814 3.672" mask="url(#refernet-b)"/>
      <polygon fill="#FFEC00" points="23.317 4.266 23.248 4.048 23.179 4.266 22.95 4.266 23.136 4.398 23.066 4.613 23.248 4.481 23.429 4.613 23.36 4.398 23.545 4.266" mask="url(#refernet-b)"/>
      <polygon fill="#FFEC00" points="24.008 4.955 23.937 4.738 23.868 4.955 23.64 4.955 23.824 5.087 23.755 5.302 23.937 5.17 24.119 5.302 24.05 5.087 24.233 4.955" mask="url(#refernet-b)"/>
      <polygon fill="#FFEC00" points="24.946 5.205 24.876 4.988 24.806 5.205 24.58 5.205 24.763 5.338 24.695 5.551 24.876 5.419 25.057 5.551 24.988 5.338 25.172 5.205" mask="url(#refernet-b)"/>
      <polygon fill="#FFEC00" points="25.884 4.955 25.815 4.738 25.744 4.955 25.518 4.955 25.703 5.087 25.633 5.302 25.815 5.17 25.996 5.302 25.928 5.087 26.112 4.955" mask="url(#refernet-b)"/>
      <polygon fill="#FFEC00" points="26.573 4.266 26.504 4.048 26.434 4.266 26.207 4.266 26.391 4.398 26.322 4.613 26.504 4.481 26.685 4.613 26.616 4.398 26.801 4.266" mask="url(#refernet-b)"/>
      <polygon fill="#FFEC00" points="27.05 3.322 26.823 3.322 26.753 3.105 26.684 3.322 26.456 3.322 26.641 3.455 26.571 3.67 26.753 3.536 26.935 3.67 26.866 3.455" mask="url(#refernet-b)"/>
      <polygon fill="#FFEC00" points="26.322 2.73 26.504 2.598 26.685 2.73 26.617 2.515 26.801 2.383 26.573 2.383 26.504 2.165 26.434 2.384 26.207 2.383 26.39 2.515" mask="url(#refernet-b)"/>
      <polygon fill="#FFEC00" points="25.818 1.48 25.749 1.697 25.52 1.697 25.705 1.83 25.636 2.044 25.818 1.912 25.999 2.044 25.93 1.83 26.115 1.697 25.888 1.697" mask="url(#refernet-b)"/>
      <path fill="#1D1D1B" d="M34.0510235 1.52565882C32.9943176 1.52565882 32.1366706 2.38436471 32.1366706 3.43895294 32.1366706 4.49354118 32.9943176 5.35330588 34.0510235 5.35330588L37.2719647 5.35330588 37.2719647 4.65765882 34.0510235 4.65765882C33.3786706 4.65765882 32.8323176 4.10918824 32.8323176 3.43895294 32.8323176 2.7666 33.3786706 2.22024706 34.0510235 2.22024706L37.2719647 2.22024706 37.2719647 1.52565882 34.0510235 1.52565882zM46.9957765 2.22045882C47.7390706 2.22045882 48.2758941 2.65034118 48.2758941 3.44234118 48.2758941 4.23328235 47.7327176 4.65681176 46.9957765 4.65681176L44.2004824 4.65681176 44.2004824 2.22045882 46.9957765 2.22045882zM43.4868353 1.52587059L43.4868353 5.35245882 47.0751882 5.35245882C48.2017765 5.35245882 48.9884824 4.49375294 48.9884824 3.43810588 48.9884824 2.38351765 48.2102471 1.52587059 47.0751882 1.52587059L43.4868353 1.52587059zM67.3785529 1.52565882L67.0122 1.52565882 67.0122 7.26554118 67.7258471 7.26554118 67.7258471 2.22024706 70.5560824 2.22024706C71.3533765 2.22024706 71.7980824 2.72001176 71.7980824 3.43895294 71.7980824 4.11024706 71.3713765 4.65765882 70.5994941 4.65765882L68.3145529 4.65765882 68.3145529 5.35330588 70.5994941 5.35330588C71.7620824 5.35330588 72.5149059 4.49354118 72.5149059 3.43895294 72.5149059 2.38436471 71.7006706 1.52565882 70.5994941 1.52565882L67.3785529 1.52565882zM39.5462118 4.65712941C38.8029176 4.65712941 38.2660941 4.22618824 38.2660941 3.43418824 38.2660941 2.64218824 38.8092706 2.22077647 39.5462118 2.22077647L42.6898588 2.22077647 42.6898588 1.52512941 39.4678588 1.52512941C38.3391529 1.52512941 37.5535059 2.38383529 37.5535059 3.43842353 37.5535059 4.49407059 38.3306824 5.35277647 39.4678588 5.35277647L42.6898588 5.35277647 42.6898588 4.65712941 39.5462118 4.65712941zM38.8495059 3.77301176L41.7877412 3.77301176 41.7877412 3.07736471 38.8495059 3.07736471 38.8495059 3.77301176zM51.5862 4.65712941C50.8429059 4.65712941 50.3060824 4.22618824 50.3060824 3.43418824 50.3060824 2.64218824 50.8503176 2.22077647 51.5862 2.22077647L54.7319647 2.22077647 54.7319647 1.52512941 51.5067882 1.52512941C50.3791412 1.52512941 49.5945529 2.38383529 49.5945529 3.43842353 49.5945529 4.49407059 50.3706706 5.35277647 51.5067882 5.35277647L54.7319647 5.35277647 54.7319647 4.65712941 51.5862 4.65712941zM50.8937294 3.77301176L53.8309059 3.77301176 53.8309059 3.07736471 50.8937294 3.07736471 50.8937294 3.77301176zM64.4001882 4.65712941L62.6573647 4.65712941C61.8696 4.65712941 61.3783059 4.22618824 61.3783059 3.43418824 61.3783059 2.64218824 61.8791294 2.22077647 62.6573647 2.22077647L64.4001882 2.22077647C65.1868941 2.22077647 65.6792471 2.64218824 65.6792471 3.43418824 65.6792471 4.22618824 65.1953647 4.65712941 64.4001882 4.65712941M64.4796 1.52512941L62.5790118 1.52512941C61.3783059 1.52512941 60.6657176 2.38383529 60.6657176 3.43842353 60.6657176 4.49407059 61.4481882 5.35277647 62.5790118 5.35277647L64.4796 5.35277647C65.6548941 5.35277647 66.3918353 4.49407059 66.3918353 3.43842353 66.3918353 2.38383529 65.5977176 1.52512941 64.4796 1.52512941M56.0944588 7.26543529L56.0944588 3.43461176C56.0944588 2.64261176 56.6386941 2.22014118 57.3735176 2.22014118L60.5192824 2.22014118 60.5192824 1.52555294 57.2941059 1.52555294C56.1675176 1.52555294 55.3818706 2.38425882 55.3818706 3.43884706L55.3818706 7.26543529 56.0944588 7.26543529zM56.6842235 3.77237647L59.6203412 3.77237647 59.6203412 3.07672941 56.6842235 3.07672941 56.6842235 3.77237647z" mask="url(#refernet-b)"/>
    </g>
  </g>
</svg>
