<svg xmlns="http://www.w3.org/2000/svg" xmlns:xlink="http://www.w3.org/1999/xlink" width="150" height="32" viewBox="0 0 150 32">
  <defs>
    <polygon id="ueberaus-a" points="0 32.143 149.375 32.143 149.375 0 0 0"/>
  </defs>
  <g fill="none" fill-rule="evenodd">
    <path fill="#F18200" d="M47.8959202,23.7358896 C46.4308896,23.7358896 45.2538957,23.5904908 44.3584969,23.302454 C43.4630982,23.0134969 42.7710736,22.5800613 42.2824233,21.9993865 C41.7946933,21.4205521 41.4643252,20.692638 41.2940798,19.8174847 C41.1210736,18.9404908 41.0345706,17.9162577 41.0345706,16.7392638 L41.0345706,8.2803681 L44.1799693,8.2803681 L44.1799693,16.8211656 C44.1799693,17.3815951 44.201135,17.9107362 44.249908,18.4076687 C44.2940798,18.9046012 44.4275153,19.3306748 44.6557362,19.6831288 C44.8821166,20.0355828 45.2492945,20.3153374 45.7545092,20.5242331 C46.2588037,20.7303681 46.9729141,20.8352761 47.8959202,20.8352761 C48.8189264,20.8352761 49.5256748,20.7303681 50.0235276,20.5242331 C50.5213804,20.3153374 50.8867178,20.0300613 51.1223006,19.6684049 C51.3578834,19.3076687 51.4931595,18.8779141 51.5290491,18.3819018 C51.5658589,17.8831288 51.5842638,17.3466258 51.5842638,16.7668712 L51.5842638,8.2803681 L54.6735276,8.2803681 L54.6735276,16.6849693 C54.6735276,17.8803681 54.592546,18.9156442 54.4305828,19.7907975 C54.2676994,20.6677914 53.9465337,21.3993865 53.4670859,21.9874233 C52.987638,22.5745399 52.3066564,23.0134969 51.4213804,23.302454 C50.535184,23.5904908 49.3591104,23.7358896 47.8959202,23.7358896"/>
    <mask id="ueberaus-b" fill="#fff">
      <use xlink:href="#ueberaus-a"/>
    </mask>
    <polygon fill="#F18200" points="43.45 6.68 46.323 6.68 46.323 3.801 43.45 3.801" mask="url(#ueberaus-b)"/>
    <polygon fill="#F18200" points="49.389 6.68 52.233 6.68 52.233 3.801 49.389 3.801" mask="url(#ueberaus-b)"/>
    <path fill="#F18200" d="M65.8730982 20.9158896C66.6681902 20.9158896 67.3270859 20.7990184 67.8507055 20.5634356 68.3761656 20.3278528 68.7875153 19.9938037 69.0856748 19.5603681 69.3819939 19.1260123 69.5918098 18.6060736 69.7077607 18.0005521 69.8264724 17.3950307 69.8853681 16.721411 69.8853681 15.9815337 69.8853681 15.221411 69.8301534 14.534908 69.7224847 13.920184 69.6129755 13.3045399 69.4105215 12.7818405 69.1132822 12.3474847 68.812362 11.9140491 68.4028528 11.5744785 67.8783129 11.3296933 67.3528528 11.0876687 66.6865951 10.9643558 65.8730982 10.9643558 65.0402761 10.9643558 64.3307669 11.0545399 63.7436503 11.2367485 63.1546933 11.4161963 62.6761656 11.7115951 62.3071472 12.1174233 61.9362883 12.5241718 61.6684969 13.0431902 61.507454 13.6753988 61.3436503 14.3085276 61.2617485 15.0769325 61.2617485 15.9815337 61.2617485 16.8658896 61.3381288 17.6278528 61.4927301 18.2582209 61.6454908 18.8904294 61.9031595 19.4039264 62.2657362 19.7904294 62.6283129 20.178773 63.101319 20.4631288 63.6884356 20.6444172 64.2755521 20.8257055 65.002546 20.9158896 65.8730982 20.9158896M66.4142025 23.7355215C64.8589877 23.7355215 63.6589877 23.5901227 62.808681 23.3030061 61.9583742 23.0131288 61.3096012 22.5870552 60.8559202 22.0284663L60.2319939 23.6011656 58.0896626 23.3563804 58.0896626 2.42263804 61.2332209 2.42263804 61.2332209 9.60791411C61.6519325 9.02907975 62.2887423 8.60576687 63.1473313 8.33429448 64.0059202 8.06282209 65.1580675 7.92754601 66.6028528 7.92754601 67.8875153 7.92754601 68.9448773 8.12539877 69.7758589 8.52478528 70.6077607 8.92141104 71.2675767 9.47355828 71.756227 10.1784663 72.2448773 10.8833742 72.5872086 11.7180368 72.7887423 12.6852147 72.9856748 13.6523926 73.0841411 14.7060736 73.0841411 15.8453374 73.0841411 16.9846012 72.9810736 18.0382822 72.7712577 19.0054601 72.5642025 19.972638 72.2071472 20.8026994 71.7028528 21.4984049 71.1957975 22.1941104 70.511135 22.7416564 69.6553067 23.1410429 68.7967178 23.538589 67.7163497 23.7355215 66.4142025 23.7355215M82.8212577 10.7207669C82.0445706 10.7207669 81.3893558 10.8054294 80.8565337 10.9775153 80.3209509 11.1505215 79.8847546 11.3971472 79.5424233 11.7238344 79.196411 12.0477607 78.9396626 12.442546 78.7675767 12.9026687 78.5954908 13.3646319 78.4832209 13.8753681 78.4280061 14.4348773L86.4286196 14.4348773C86.3927301 13.8928528 86.3365951 13.3959202 86.2657362 12.9422393 86.1930368 12.4922393 86.0356748 12.0992945 85.7908896 11.7652454 85.5461043 11.4293558 85.1936503 11.1716871 84.7316871 10.9903988 84.2724847 10.8109509 83.6365951 10.7207669 82.8212577 10.7207669M82.9565337 23.7624847C81.3672699 23.7624847 80.0780061 23.5545092 79.0915031 23.141319 78.1077607 22.7235276 77.3411963 22.1594172 76.7872086 21.446227 76.2369018 20.7302761 75.862362 19.8891718 75.663589 18.9229141 75.464816 17.9557362 75.363589 16.9305828 75.363589 15.8446933 75.363589 14.7597239 75.4694172 13.7391718 75.6783129 12.7811963 75.8835276 11.8223006 76.2645092 10.987638 76.8166564 10.2735276 77.3669632 9.55849693 78.1335276 8.98886503 79.1209509 8.56371166 80.1056135 8.13947853 81.3672699 7.92782209 82.9022393 7.92782209 84.5126687 7.92782209 85.7605215 8.18365031 86.6457975 8.70082822 87.5301534 9.2152454 88.1807669 9.89714724 88.5967178 10.747454 89.013589 11.5977607 89.2629755 12.5824233 89.3430368 13.7032822 89.4267791 14.8232209 89.4461043 15.9818098 89.4092945 17.1735276L78.4280061 17.1735276C78.4832209 17.7698466 78.5862883 18.3081902 78.7418098 18.787638 78.8945706 19.2661656 79.1421166 19.6719939 79.4862883 20.0060429 79.8295399 20.3428528 80.2804601 20.5996012 80.8408896 20.7808896 81.401319 20.9603374 82.1071472 21.052362 82.9565337 21.052362 83.5528528 21.052362 84.0865951 21.0146319 84.5568405 20.9428528 85.0270859 20.8710736 85.447638 20.7670859 85.8184969 20.6318098 86.1893558 20.4956135 86.5261656 20.3428528 86.8353681 20.1698466 87.1408896 19.9977607 87.4399693 19.803589 87.7316871 19.5854908L89.4092945 21.7839571C88.5442638 22.451135 87.6120552 22.9489877 86.6181902 23.2756748 85.6243252 23.6014417 84.4040798 23.7624847 82.9565337 23.7624847M92.9996319 8.4704908L95.4677301 8.28 95.7934969 10.0155828C96.1017791 9.49104294 96.6925767 9.05300613 97.5704908 8.70055215 98.4484049 8.34809816 99.5370552 8.15300613 100.837362 8.11619632L100.837362 11.2901227C99.9327607 11.2901227 99.1772393 11.3931902 98.572638 11.6020859 97.9671166 11.8091411 97.488589 12.1026994 97.1379755 12.4827607 96.7827607 12.8628221 96.5342945 13.3229448 96.389816 13.8649693 96.2462577 14.4079141 96.172638 15.0051534 96.172638 15.6557669L96.172638 23.4658896 92.9996319 23.4658896 92.9996319 8.4704908zM108.507239 21.0254908C110.136074 21.0254908 111.309387 20.6988037 112.029939 20.0481902 112.755092 19.3966564 113.115828 18.3586196 113.115828 16.9303988L113.115828 16.143589 112.547117 16.143589C111.065521 16.143589 109.857239 16.188681 108.925951 16.2779448 107.994663 16.3681288 107.27135 16.5227301 106.756933 16.7389877 106.240675 16.9561656 105.894663 17.238681 105.714294 17.580092 105.533006 17.9233436 105.441902 18.3484969 105.441902 18.8546319 105.441902 19.1978834 105.486074 19.5052454 105.576258 19.7767178 105.669202 20.0481902 105.829325 20.2782515 106.066748 20.4696626 106.300491 20.6573926 106.616135 20.7991104 107.015521 20.8892945 107.413067 20.9785583 107.91184 21.0254908 108.507239 21.0254908M107.964294 23.7356135C106.843436 23.7356135 105.925031 23.6141411 105.212761 23.3711963 104.49773 23.1245706 103.93638 22.7978834 103.531472 22.3810123 103.123804 21.9650613 102.844969 21.476411 102.691288 20.9159816 102.534847 20.3546319 102.461227 19.7491104 102.461227 19.1003374 102.461227 18.0153681 102.625031 17.1153681 102.96184 16.4003374 103.294969 15.6880675 103.847117 15.1184356 104.616442 14.6932822 105.383006 14.2672086 106.400798 13.9699693 107.666135 13.7978834 108.930552 13.6267178 110.494049 13.541135 112.356626 13.541135L113.115828 13.541135C113.099264 13.0883742 113.044969 12.6963497 112.953865 12.3595399 112.863681 12.026411 112.689755 11.7503374 112.439448 11.5340798 112.18638 11.3178221 111.833006 11.1540184 111.381166 11.0454294 110.929325 10.938681 110.324724 10.8834663 109.564601 10.8834663 108.625951 10.8834663 107.775644 11.0224233 107.015521 11.3030982 106.257239 11.583773 105.641595 11.8672086 105.17135 12.1570859L103.517669 9.68898773C103.770736 9.50953988 104.116748 9.3153681 104.546503 9.10647239 104.981779 8.89941718 105.475031 8.70984663 106.026258 8.53684049 106.576564 8.3647546 107.182086 8.22027607 107.840982 8.10340491 108.501718 7.98653374 109.18454 7.92763804 109.889448 7.92763804 111.20908 7.92763804 112.280245 8.04082822 113.103865 8.26720859 113.926564 8.49174847 114.563374 8.84972393 115.014294 9.33653374 115.465215 9.82518405 115.770736 10.4527914 115.923497 11.2221166 116.075337 11.9905215 116.156319 12.9172086 116.156319 14.0012577L116.156319 19.1003374C116.156319 19.4417485 116.166442 19.7187423 116.194049 19.9257975 116.220736 20.1356135 116.279632 20.2975767 116.370736 20.4144479 116.45908 20.531319 116.606319 20.6086196 116.806012 20.6445092 117.003865 20.6803988 117.264294 20.6988037 117.590061 20.6988037L117.590061 23.437454C117.480552 23.4733436 117.32319 23.4917485 117.115215 23.4917485L116.288834 23.4917485C115.509387 23.4917485 114.920429 23.388681 114.513681 23.1807055 114.106012 22.9718098 113.804172 22.5512577 113.605399 21.9208896 113.171043 22.4997239 112.514908 22.9469632 111.639755 23.2616871 110.76092 23.5773313 109.536994 23.7356135 107.964294 23.7356135M127.029847 23.7358896C125.565736 23.7358896 124.386902 23.5904908 123.491503 23.302454 122.597025 23.0134969 121.90684 22.5800613 121.41727 21.9993865 120.927699 21.4205521 120.599172 20.692638 120.426166 19.8174847 120.25592 18.9404908 120.169417 17.9162577 120.169417 16.7392638L120.169417 8.2803681 123.315736 8.2803681 123.315736 16.8211656C123.315736 17.3815951 123.337822 17.9107362 123.382914 18.4076687 123.428006 18.9046012 123.564202 19.3306748 123.789663 19.6831288 124.015123 20.0355828 124.38138 20.3153374 124.887515 20.5242331 125.394571 20.7303681 126.108681 20.8352761 127.029847 20.8352761 127.952853 20.8352761 128.660521 20.7303681 129.158374 20.5242331 129.656227 20.3153374 130.021564 20.0300613 130.256227 19.6684049 130.49181 19.3076687 130.627086 18.8779141 130.664816 18.3819018 130.699785 17.8831288 130.71819 17.3466258 130.71819 16.7668712L130.71819 8.2803681 133.808374 8.2803681 133.808374 16.6849693C133.808374 17.8803681 133.728313 18.9156442 133.565429 19.7907975 133.402546 20.6677914 133.08046 21.3993865 132.602853 21.9874233 132.123405 22.5745399 131.441503 23.0134969 130.555307 23.302454 129.66911 23.5904908 128.494877 23.7358896 127.029847 23.7358896M142.758497 23.7358896C141.601748 23.7358896 140.438558 23.6015337 139.272607 23.3282209 138.106656 23.058589 137.009724 22.5800613 135.979049 21.8917178L137.606043 19.451227C138.455429 19.9941718 139.351748 20.3852761 140.290399 20.6319018 141.23089 20.8766871 142.117086 20.996319 142.946227 20.996319 143.562791 20.996319 144.08181 20.9696319 144.505123 20.9162577 144.930276 20.8619632 145.28089 20.7662577 145.552362 20.6319018 145.821074 20.4957055 146.017086 20.306135 146.135798 20.0641104 146.250828 19.8174847 146.311564 19.5046012 146.311564 19.1254601 146.311564 18.8180982 146.250828 18.5668712 146.135798 18.3680982 146.017086 18.1674847 145.830276 18.0009202 145.578129 17.8665644 145.325982 17.7312883 144.984571 17.6180982 144.561258 17.5279141 144.134264 17.4368098 143.607883 17.3374233 142.976595 17.2297546 142.070153 17.0825153 141.239172 16.9251534 140.48181 16.7530675 139.721687 16.5819018 139.070153 16.3288344 138.526288 15.9947853 137.985184 15.659816 137.565552 15.2125767 137.267393 14.651227 136.968313 14.0917178 136.821074 13.35 136.821074 12.4279141 136.821074 11.7046012 136.927822 11.0641104 137.14684 10.503681 137.362178 9.94417178 137.714632 9.47300613 138.203282 9.09294479 138.691012 8.71288344 139.326902 8.42392638 140.113712 8.22607362 140.900521 8.02638037 141.853896 7.92791411 142.976595 7.92791411 144.167393 7.92791411 145.269847 8.04478528 146.283957 8.2803681 147.297147 8.51319018 148.183344 8.85 148.942546 9.28435583L147.449908 11.8858896C146.888558 11.5803681 146.228742 11.3300613 145.46954 11.1395706 144.711258 10.9509202 143.906043 10.8552147 143.056656 10.8552147 142.441012 10.8552147 141.931196 10.8911043 141.525368 10.9647239 141.115859 11.0374233 140.794693 11.1395706 140.561871 11.2757669 140.325368 11.4110429 140.166166 11.5748466 140.072301 11.7653374 139.982117 11.9539877 139.937945 12.1757669 139.937945 12.4279141 139.937945 12.7352761 139.99316 12.9883436 140.099908 13.1889571 140.210337 13.3858896 140.385184 13.5542945 140.629969 13.6886503 140.872914 13.8248466 141.195 13.942638 141.592546 14.0420245 141.990092 14.141411 142.477822 14.2361963 143.056656 14.3282209 143.996227 14.490184 144.855736 14.651227 145.631503 14.8150307 146.410951 14.9788344 147.074448 15.2217791 147.626595 15.5466258 148.175061 15.8723926 148.605736 16.301227 148.914018 16.8340491 149.22138 17.3677914 149.375061 18.0782209 149.375061 18.9634969 149.375061 19.8322086 149.252669 20.5674847 149.008804 21.1748466 148.764018 21.7803681 148.374755 22.2708589 147.841012 22.65 147.30819 23.0291411 146.620767 23.306135 145.781503 23.4791411 144.942239 23.6493865 143.93181 23.7358896 142.758497 23.7358896" mask="url(#ueberaus-b)"/>
    <path fill="#006D76" d="M.438588957 27.5912577C.0907361963 26.9121166-.0491411043 26.2615031.0152760736 25.6449387.0760122699 25.0246933.314355828 24.4154908.726625767 23.8136503 1.14349693 23.2108896 1.69380368 22.5639571 2.38582822 21.873773L6.46527607 17.7934049 8.25699387 19.5860429 4.1306135 23.7124233C3.79380368 24.0464724 3.49288344 24.3685583 3.22693252 24.6777607 2.9591411 24.9851227 2.7907362 25.3154908 2.71435583 25.6587423 2.64349693 26.0056748 2.69042945 26.3820552 2.85699387 26.7934049 3.02447853 27.1992331 3.37509202 27.6703988 3.90883436 28.2041411 4.44533742 28.7378834 4.91834356 29.0940184 5.33153374 29.2642638 5.74564417 29.4409509 6.12110429 29.4878834 6.45515337 29.4133436 6.79104294 29.3415644 7.11588957 29.175 7.4306135 28.9108896 7.74441718 28.6513804 8.06190184 28.3569018 8.38858896 28.0320552L12.5462577 23.872546 14.370184 25.6964724 10.2566871 29.8090491C9.57662577 30.4900307 8.93153374 31.034816 8.32417178 31.4415644 7.71773006 31.8510736 7.10576687 32.0792945 6.48736196 32.133589 5.86803681 32.1851227 5.21558282 32.0360429 4.53 31.6854294 3.84625767 31.334816 3.07693252 30.734816 2.22846626 29.8863497 1.37907975 29.0397239.783680982 28.2722393.438588957 27.5912577M27.5920859.43904908C26.9111043.0930368098 26.261411-.0486809816 25.6439264.0148159509 25.0246012.0783128834 24.4144785.315736196 23.8117178.72892638 23.2089571 1.14303681 22.5629448 1.69518405 21.8718405 2.3853681L17.7914724 6.46665644 19.5841104 8.25745399 23.7104908 4.13199387C24.0454601 3.79518405 24.3666258 3.49518405 24.678589 3.22923313 24.9859509 2.95960123 25.3117178 2.79119632 25.6577301 2.7157362 26.0037423 2.64395706 26.3810429 2.68904908 26.7887117 2.85929448 27.1982209 3.0258589 27.6693865 3.37555215 28.2058896 3.90929448 28.7377914 4.4448773 29.0911656 4.91972393 29.2641718 5.33383436 29.4390184 5.74610429 29.4850307 6.12156442 29.4141718 6.4556135 29.3387117 6.79334356 29.1730675 7.11726994 28.9117178 7.43291411 28.6494479 7.7448773 28.3558896 8.06420245 28.0301227 8.39088957L23.8733742 12.5467178 25.6954601 14.3706442 29.8080368 10.2589877C30.4871779 9.57892638 31.0338037 8.93383436 31.4405521 8.32555215 31.8500613 7.71911043 32.0782822 7.10622699 32.1316564 6.48966258 32.1831902 5.86941718 32.0350307 5.21788344 31.6825767 4.53046012 31.3319632 3.84763804 30.7338037 3.07831288 29.8834969 2.22984663 29.0377914 1.38138037 28.271227.78506135 27.5920859.43904908M4.57159509.43904908C5.24981595.0930368098 5.90134969-.0486809816 6.51791411.0148159509 7.13631902.0783128834 7.74644172.315736196 8.3501227.72892638 8.95196319 1.14303681 9.59797546 1.69518405 10.29 2.3853681L14.3694479 6.46665644 12.5768098 8.25745399 8.45042945 4.13199387C8.11638037 3.79518405 7.79429448 3.49518405 7.48417178 3.22923313 7.17588957 2.95960123 6.84828221 2.79119632 6.50411043 2.7157362 6.15809816 2.64395706 5.7798773 2.68904908 5.37220859 2.85929448 4.96269939 3.0258589 4.4906135 3.37555215 3.95779141 3.90929448 3.42404908 4.4448773 3.07067485 4.91972393 2.89766871 5.33383436 2.72190184 5.74610429 2.67496933 6.12156442 2.74858896 6.4556135 2.82128834 6.79334356 2.98877301 7.11726994 3.2501227 7.43291411 3.51423313 7.7448773 3.80595092 8.06420245 4.13079755 8.39088957L8.2893865 12.5467178 6.46546012 14.3706442 2.35380368 10.2589877C1.67374233 9.57892638 1.12711656 8.93383436.720368098 8.32555215.311779141 7.71911043.0835582822 7.10622699.0283435583 6.48966258-.023190184 5.86941718.124969325 5.21788344.478343558 4.53046012.82803681 3.84763804 1.42711656 3.07831288 2.27558282 2.22984663 3.12404908 1.38138037 3.8906135.78506135 4.57159509.43904908M31.7242638 27.5912577C32.0702761 26.9121166 32.2101534 26.2615031 32.1466564 25.6449387 32.0859202 25.0246933 31.8457362 24.4154908 31.4334663 23.8136503 31.0193558 23.2108896 30.4681288 22.5639571 29.7761043 21.873773L25.6957362 17.7934049 23.9040184 19.5860429 28.0294785 23.7124233C28.3653681 24.0464724 28.6681288 24.3685583 28.9331595 24.6777607 29.2027914 24.9851227 29.3711963 25.3154908 29.4457362 25.6587423 29.5184356 26.0056748 29.4715031 26.3820552 29.3040184 26.7934049 29.1365337 27.1992331 28.7868405 27.6703988 28.2530982 28.2041411 27.7165951 28.7378834 27.2417485 29.0940184 26.8303988 29.2642638 26.4144479 29.4409509 26.0408282 29.4878834 25.7058589 29.4133436 25.3708896 29.3415644 25.0460429 29.175 24.7285583 28.9108896 24.4175153 28.6513804 24.0981902 28.3569018 23.7733436 28.0320552L19.6156748 23.872546 17.7908282 25.6964724 21.9043252 29.8090491C22.582546 30.4900307 23.2303988 31.034816 23.8359202 31.4415644 24.4432822 31.8510736 25.0552454 32.0792945 25.6754908 32.133589 26.2920552 32.1851227 26.9445092 32.0360429 27.6310123 31.6854294 28.3147546 31.334816 29.0840798 30.734816 29.9334663 29.8863497 30.7819325 29.0397239 31.376411 28.2722393 31.7242638 27.5912577" mask="url(#ueberaus-b)"/>
    <polygon fill="#7E6F61" points="10.976 16.546 12.482 18.054 10.972 19.564 9.464 18.056" mask="url(#ueberaus-b)"/>
    <polygon fill="#7E6F61" points="14.09 19.663 15.583 21.155 14.071 22.667 12.578 21.173" mask="url(#ueberaus-b)"/>
    <polygon fill="#7E6F61" points="18.057 9.462 19.565 10.972 18.055 12.482 16.547 10.973" mask="url(#ueberaus-b)"/>
    <polygon fill="#7E6F61" points="21.174 12.58 22.667 14.072 21.155 15.581 19.662 14.089" mask="url(#ueberaus-b)"/>
    <polygon fill="#7E6F61" points="15.614 10.972 14.107 12.483 12.594 10.972 14.103 9.461" mask="url(#ueberaus-b)"/>
    <polygon fill="#7E6F61" points="12.498 14.089 11.005 15.581 9.495 14.072 10.987 12.58" mask="url(#ueberaus-b)"/>
    <polygon fill="#7E6F61" points="22.697 18.056 21.189 19.565 19.68 18.054 21.188 16.546" mask="url(#ueberaus-b)"/>
    <polygon fill="#7E6F61" points="19.58 21.173 18.089 22.666 16.58 21.155 18.073 19.663" mask="url(#ueberaus-b)"/>
    <path fill="#7E6F61" d="M41.7579755 30.5945706L41.7579755 31.7283129C41.7579755 31.8056135 41.7248466 31.8369018 41.6521472 31.8369018L41.2739264 31.8369018C41.1966258 31.8369018 41.1662577 31.8056135 41.1662577 31.7283129L41.1662577 28.8856748C41.1662577 28.8120552 41.1966258 28.7807669 41.2739264 28.7807669L42.9368098 28.7807669C43.008589 28.7807669 43.0389571 28.8120552 43.0389571 28.8819939L43.0389571 29.1893558C43.0389571 29.2629755 43.008589 29.298865 42.9368098 29.298865L41.7579755 29.298865 41.7579755 30.0875153 42.8981595 30.0875153C42.9662577 30.0875153 43.001227 30.1215644 43.001227 30.195184L43.001227 30.4924233C43.001227 30.5605215 42.9662577 30.5945706 42.8981595 30.5945706L41.7579755 30.5945706zM44.8826687 30.6611043L44.4703988 29.3810429 44.4565951 29.3810429 44.0360429 30.6611043 44.8826687 30.6611043zM44.7041411 28.7810429C44.7851227 28.7810429 44.8099693 28.8169325 44.831135 28.8813497L45.8222393 31.7147853C45.8489264 31.7847239 45.8148773 31.8362577 45.7458589 31.8362577L45.333589 31.8362577C45.2608896 31.8362577 45.2314417 31.8058896 45.2093558 31.7414724L45.015184 31.173681 43.9081288 31.173681 43.7130368 31.7414724C43.6909509 31.8058896 43.6615031 31.8362577 43.5934049 31.8362577L43.1802147 31.8362577C43.1084356 31.8362577 43.0743865 31.7847239 43.1001534 31.7147853L44.0912577 28.8813497C44.1124233 28.8169325 44.1372699 28.7810429 44.2182515 28.7810429L44.7041411 28.7810429zM47.9543558 31.2200613C48.0353374 31.1896933 48.0693865 31.2163804 48.0988344 31.2807975L48.2184663 31.5504294C48.2433129 31.6102454 48.2184663 31.6406135 48.1549693 31.680184 47.9976074 31.7841718 47.6994479 31.8835583 47.3423926 31.8835583 46.4819632 31.8835583 45.9546626 31.3636196 45.9546626 30.3090184 45.9546626 29.2553374 46.4746012 28.7289571 47.321227 28.7289571 47.673681 28.7289571 47.9635583 28.8255828 48.1255215 28.9249693 48.1844172 28.9645399 48.2092638 28.998589 48.1844172 29.0593252L48.0693865 29.3234356C48.0445399 29.388773 48.0058896 29.4099387 47.924908 29.3758896 47.8061963 29.3206748 47.6230675 29.2682209 47.4141718 29.2682209 46.8399387 29.2682209 46.5592638 29.5967485 46.5592638 30.3090184 46.5592638 31.0166871 46.8399387 31.346135 47.4362577 31.346135 47.6525153 31.346135 47.8356442 31.2844785 47.9543558 31.2200613M50.4490491 30.5515031L49.2665337 30.5515031 49.2665337 31.7284969C49.2665337 31.8057975 49.2324847 31.8361656 49.1607055 31.8361656L48.7778834 31.8361656C48.7005828 31.8361656 48.6702147 31.8057975 48.6702147 31.7284969L48.6702147 28.8849387C48.6702147 28.811319 48.7005828 28.7809509 48.7778834 28.7809509L49.1607055 28.7809509C49.2324847 28.7809509 49.2665337 28.811319 49.2665337 28.8849387L49.2665337 30.0048773 50.4490491 30.0048773 50.4490491 28.8849387C50.4490491 28.811319 50.4830982 28.7809509 50.5511963 28.7809509L50.9386196 28.7809509C51.0103988 28.7809509 51.0407669 28.811319 51.0407669 28.8849387L51.0407669 31.7284969C51.0407669 31.8057975 51.0103988 31.8361656 50.9386196 31.8361656L50.5511963 31.8361656C50.4830982 31.8361656 50.4490491 31.8057975 50.4490491 31.7284969L50.4490491 30.5515031zM52.4953988 31.8761043C52.1042945 31.8761043 51.7592025 31.8024847 51.5723926 31.7049387 51.5134969 31.676411 51.4822086 31.6460429 51.5088957 31.5761043L51.6101227 31.2991104C51.6322086 31.2328528 51.6662577 31.2024847 51.7389571 31.2328528 51.8917178 31.2991104 52.1300613 31.3635276 52.4144172 31.3635276 52.7843558 31.3635276 53.040184 31.2503374 53.040184 30.9991104 53.040184 30.7469632 52.7723926 30.6466564 52.440184 30.5169018 51.9846626 30.3429755 51.5558282 30.1653681 51.5558282 29.5662883 51.5558282 29.0169018 51.9257669 28.7343865 52.6352761 28.7343865 53.002454 28.7343865 53.2822086 28.8080061 53.448773 28.8853067 53.508589 28.9156748 53.5380368 28.9460429 53.5122699 29.0169018L53.4147239 29.2846933C53.3889571 29.3509509 53.3558282 29.3721166 53.2785276 29.3454294 53.1257669 29.2846933 52.9251534 29.2497239 52.691411 29.2497239 52.3297546 29.2497239 52.151227 29.3509509 52.151227 29.5810123 52.151227 29.8267178 52.3941718 29.9095399 52.7208589 30.044816 53.193865 30.2389877 53.6355828 30.4037117 53.6355828 31.0083129 53.6355828 31.6101534 53.1506135 31.8761043 52.4953988 31.8761043M53.7984663 28.8853067C53.7984663 28.8116871 53.8325153 28.781319 53.8996933 28.781319L55.8699387 28.781319C55.9472393 28.781319 55.9766871 28.8116871 55.9766871 28.8853067L55.9766871 29.2156748C55.9766871 29.2892945 55.9472393 29.3242638 55.8699387 29.3242638L55.1852761 29.3242638 55.1852761 31.728865C55.1852761 31.8061656 55.1558282 31.8365337 55.0794479 31.8365337L54.6966258 31.8365337C54.6230061 31.8365337 54.5889571 31.8061656 54.5889571 31.728865L54.5889571 29.3242638 53.9042945 29.3242638C53.8325153 29.3242638 53.7984663 29.2892945 53.7984663 29.2156748L53.7984663 28.8853067zM56.969908 30.5298773L56.969908 31.3157669 58.1772699 31.3157669C58.2508896 31.3157669 58.2849387 31.346135 58.2849387 31.4197546L58.2849387 31.7289571C58.2849387 31.8062577 58.2508896 31.8366258 58.1772699 31.8366258L56.4895399 31.8366258C56.4122393 31.8366258 56.3818712 31.8062577 56.3818712 31.7289571L56.3818712 28.8853988C56.3818712 28.8117791 56.4122393 28.781411 56.4849387 28.781411L58.1607055 28.781411C58.2334049 28.781411 58.267454 28.8117791 58.267454 28.8853988L58.267454 29.1946012C58.267454 29.2682209 58.2334049 29.3022699 58.1607055 29.3022699L56.969908 29.3022699 56.969908 30.0265031 58.1054908 30.0265031C58.1745092 30.0265031 58.207638 30.0660736 58.207638 30.1360123L58.207638 30.4222086C58.207638 30.4921472 58.1745092 30.5298773 58.1054908 30.5298773L56.969908 30.5298773zM59.3567485 31.290184L60.5015337 31.290184C60.5733129 31.290184 60.607362 31.3242331 60.607362 31.3941718L60.607362 31.7291411C60.607362 31.8064417 60.5733129 31.8368098 60.5015337 31.8368098L58.8680982 31.8368098C58.7907975 31.8368098 58.7613497 31.8064417 58.7613497 31.7291411L58.7613497 28.8855828C58.7613497 28.8119632 58.7907975 28.7806748 58.8680982 28.7806748L59.2509202 28.7806748C59.3226994 28.7806748 59.3567485 28.8119632 59.3567485 28.8855828L59.3567485 31.290184zM61.5747239 31.290184L62.7195092 31.290184C62.7912883 31.290184 62.8253374 31.3242331 62.8253374 31.3941718L62.8253374 31.7291411C62.8253374 31.8064417 62.7912883 31.8368098 62.7195092 31.8368098L61.0860736 31.8368098C61.008773 31.8368098 60.9793252 31.8064417 60.9793252 31.7291411L60.9793252 28.8855828C60.9793252 28.8119632 61.008773 28.7806748 61.0860736 28.7806748L61.4688957 28.7806748C61.5406748 28.7806748 61.5747239 28.8119632 61.5747239 28.8855828L61.5747239 31.290184zM63.8689877 30.5298773L63.8689877 31.3157669 65.0763497 31.3157669C65.1499693 31.3157669 65.1840184 31.346135 65.1840184 31.4197546L65.1840184 31.7289571C65.1840184 31.8062577 65.1499693 31.8366258 65.0763497 31.8366258L63.3886196 31.8366258C63.311319 31.8366258 63.2809509 31.8062577 63.2809509 31.7289571L63.2809509 28.8853988C63.2809509 28.8117791 63.311319 28.781411 63.3840184 28.781411L65.0597853 28.781411C65.1324847 28.781411 65.1665337 28.8117791 65.1665337 28.8853988L65.1665337 29.1946012C65.1665337 29.2682209 65.1324847 29.3022699 65.0597853 29.3022699L63.8689877 29.3022699 63.8689877 30.0265031 65.0045706 30.0265031C65.073589 30.0265031 65.1067178 30.0660736 65.1067178 30.1360123L65.1067178 30.4222086C65.1067178 30.4921472 65.073589 30.5298773 65.0045706 30.5298773L63.8689877 30.5298773zM68.7092945 28.4557362C68.7092945 28.5256748 68.6798466 28.5560429 68.6117485 28.5560429L68.2924233 28.5560429C68.2243252 28.5560429 68.1985583 28.5256748 68.1985583 28.4557362L68.1985583 28.1824233C68.1985583 28.1143252 68.2243252 28.0839571 68.2924233 28.0839571L68.6117485 28.0839571C68.6798466 28.0839571 68.7092945 28.1143252 68.7092945 28.1824233L68.7092945 28.4557362zM67.8497853 28.4557362C67.8497853 28.5256748 67.8157362 28.5560429 67.747638 28.5560429L67.4283129 28.5560429C67.364816 28.5560429 67.3353681 28.5256748 67.3353681 28.4557362L67.3353681 28.1824233C67.3353681 28.1143252 67.364816 28.0839571 67.4283129 28.0839571L67.747638 28.0839571C67.8157362 28.0839571 67.8497853 28.1143252 67.8497853 28.1824233L67.8497853 28.4557362zM66.8421166 30.7296626L66.8421166 28.8854908C66.8421166 28.8118712 66.8761656 28.7815031 66.9479448 28.7815031L67.3307669 28.7815031C67.4071472 28.7815031 67.4365951 28.8118712 67.4365951 28.8854908L67.4365951 30.6772086C67.4365951 31.1032822 67.6031595 31.342546 68.0246319 31.342546 68.4415031 31.342546 68.6117485 31.1032822 68.6117485 30.6772086L68.6117485 28.8854908C68.6117485 28.8118712 68.6411963 28.7815031 68.7138957 28.7815031L69.101319 28.7815031C69.1684969 28.7815031 69.202546 28.8118712 69.202546 28.8854908L69.202546 30.7296626C69.202546 31.4805828 68.8114417 31.8882515 68.0246319 31.8882515 67.2332209 31.8882515 66.8421166 31.4805828 66.8421166 30.7296626zM70.9694172 31.3495399C71.4461043 31.3495399 71.6117485 31.2381902 71.6117485 30.9161043 71.6117485 30.6179448 71.4580675 30.4955521 70.9869018 30.4955521L70.3776994 30.4955521 70.3776994 31.3495399 70.9694172 31.3495399zM70.964816 30.0391104C71.3770859 30.0391104 71.5261656 29.9222393 71.5261656 29.6406442 71.5261656 29.3728528 71.3770859 29.2624233 70.9565337 29.2624233L70.3776994 29.2624233 70.3776994 30.0391104 70.964816 30.0391104zM69.8973313 31.8363497C69.8200307 31.8363497 69.7905828 31.8059816 69.7905828 31.728681L69.7905828 28.8851227C69.7905828 28.8115031 69.8200307 28.781135 69.8973313 28.781135L70.9694172 28.781135C71.7433436 28.781135 72.105 29.0203988 72.105 29.5808282 72.105 29.9581288 71.9089877 30.1523006 71.696411 30.217638 71.9688037 30.2912577 72.198865 30.4992331 72.198865 30.9501534 72.198865 31.5851227 71.7819939 31.8363497 70.998865 31.8363497L69.8973313 31.8363497zM73.2799693 30.5298773L73.2799693 31.3157669 74.4873313 31.3157669C74.5609509 31.3157669 74.595 31.346135 74.595 31.4197546L74.595 31.7289571C74.595 31.8062577 74.5609509 31.8366258 74.4873313 31.8366258L72.7996012 31.8366258C72.7223006 31.8366258 72.6919325 31.8062577 72.6919325 31.7289571L72.6919325 28.8853988C72.6919325 28.8117791 72.7223006 28.781411 72.795 28.781411L74.4707669 28.781411C74.5434663 28.781411 74.5775153 28.8117791 74.5775153 28.8853988L74.5775153 29.1946012C74.5775153 29.2682209 74.5434663 29.3022699 74.4707669 29.3022699L73.2799693 29.3022699 73.2799693 30.0265031 74.4155521 30.0265031C74.4845706 30.0265031 74.5176994 30.0660736 74.5176994 30.1360123L74.5176994 30.4222086C74.5176994 30.4921472 74.4845706 30.5298773 74.4155521 30.5298773L73.2799693 30.5298773zM76.1180061 30.3142638C76.6029755 30.3142638 76.7778221 30.1523006 76.7778221 29.8108896 76.7778221 29.4409509 76.5910123 29.3019939 76.1226074 29.3019939L75.6624847 29.3019939 75.6624847 30.3142638 76.1180061 30.3142638zM76.1308896 28.781135C76.9563497 28.781135 77.3732209 29.081135 77.3732209 29.8108896 77.3732209 30.3391104 77.092546 30.6345092 76.6407055 30.734816L77.3640184 31.7019939C77.4109509 31.7627301 77.3861043 31.8363497 77.3005215 31.8363497L76.8965337 31.8363497C76.8201534 31.8363497 76.7861043 31.8023006 76.7483742 31.7507669L76.0591104 30.817638 75.6624847 30.817638 75.6624847 31.728681C75.6624847 31.8059816 75.6293558 31.8363497 75.5566564 31.8363497L75.1784356 31.8363497C75.101135 31.8363497 75.0707669 31.8059816 75.0707669 31.728681L75.0707669 28.8851227C75.0707669 28.8115031 75.101135 28.781135 75.1784356 28.781135L76.1308896 28.781135zM80.1692025 30.0176687C80.2363804 30.0176687 80.2750307 30.0535583 80.2750307 30.1271779L80.2750307 31.514908C80.2750307 31.5940491 80.2280982 31.6373006 80.1820859 31.6676687 79.9814724 31.7882209 79.6667485 31.8830061 79.211227 31.8830061 78.2928221 31.8830061 77.756319 31.3980368 77.756319 30.3047853 77.756319 29.219816 78.2974233 28.7293252 79.2498773 28.7293252 79.6326994 28.7293252 79.9391411 28.8333129 80.1093865 28.9373006 80.1728834 28.9731902 80.1986503 29.0072393 80.1728834 29.0725767L80.0670552 29.3422086C80.0412883 29.4066258 80.002638 29.4277914 79.9216564 29.3937423 79.7900613 29.3366871 79.5857669 29.268589 79.3262577 29.268589 78.6498773 29.268589 78.3609202 29.5722699 78.3609202 30.3047853 78.3609202 31.0474233 78.6581595 31.3455828 79.2793252 31.3455828 79.458773 31.3455828 79.6326994 31.3060123 79.7348466 31.26L79.7348466 30.4925153 79.2710429 30.4925153C79.1983436 30.4925153 79.1642945 30.461227 79.1642945 30.3912883L79.1642945 30.1271779C79.1642945 30.0572393 79.1983436 30.0176687 79.2710429 30.0176687L80.1692025 30.0176687zM82.6657362 28.4557362C82.6657362 28.5256748 82.6362883 28.5560429 82.5681902 28.5560429L82.248865 28.5560429C82.1807669 28.5560429 82.155 28.5256748 82.155 28.4557362L82.155 28.1824233C82.155 28.1143252 82.1807669 28.0839571 82.248865 28.0839571L82.5681902 28.0839571C82.6362883 28.0839571 82.6657362 28.1143252 82.6657362 28.1824233L82.6657362 28.4557362zM82.3979448 30.6606442L81.9856748 29.3815031 81.9718712 29.3815031 81.551319 30.6606442 82.3979448 30.6606442zM81.806227 28.4557362C81.806227 28.5256748 81.7721779 28.5560429 81.7040798 28.5560429L81.3847546 28.5560429C81.3212577 28.5560429 81.2918098 28.5256748 81.2918098 28.4557362L81.2918098 28.1824233C81.2918098 28.1143252 81.3212577 28.0839571 81.3847546 28.0839571L81.7040798 28.0839571C81.7721779 28.0839571 81.806227 28.1143252 81.806227 28.1824233L81.806227 28.4557362zM82.2194172 28.7815031C82.3003988 28.7815031 82.3252454 28.8173926 82.346411 28.8818098L83.3375153 31.7143252C83.3642025 31.7842638 83.3301534 31.8367178 83.261135 31.8367178L82.848865 31.8367178C82.7761656 31.8367178 82.7467178 31.8063497 82.7246319 31.7410123L82.5304601 31.1732209 81.4234049 31.1732209 81.2283129 31.7410123C81.206227 31.8063497 81.1767791 31.8367178 81.108681 31.8367178L80.6954908 31.8367178C80.6237117 31.8367178 80.5896626 31.7842638 80.6145092 31.7143252L81.6065337 28.8818098C81.6276994 28.8173926 81.652546 28.7815031 81.7335276 28.7815031L82.2194172 28.7815031zM86.107638 31.728773C86.107638 31.8060736 86.073589 31.8364417 86.006411 31.8364417L85.623589 31.8364417C85.5508896 31.8364417 85.5205215 31.8152761 85.4910736 31.7628221L84.2947546 29.7962577 84.2947546 31.728773C84.2947546 31.8060736 84.2653067 31.8364417 84.1935276 31.8364417L83.8272699 31.8364417C83.7499693 31.8364417 83.7205215 31.8060736 83.7205215 31.728773L83.7205215 28.8852147C83.7205215 28.8115951 83.7499693 28.781227 83.8272699 28.781227L84.2018098 28.781227C84.2791104 28.781227 84.3085583 28.7987117 84.3380061 28.8511656L85.5334049 30.821411 85.5334049 28.8852147C85.5334049 28.8115951 85.5628528 28.781227 85.6355521 28.781227L86.006411 28.781227C86.073589 28.781227 86.107638 28.8115951 86.107638 28.8815337L86.107638 31.728773zM89.0148773 30.0176687C89.0820552 30.0176687 89.1207055 30.0535583 89.1207055 30.1271779L89.1207055 31.514908C89.1207055 31.5940491 89.073773 31.6373006 89.0277607 31.6676687 88.8271472 31.7882209 88.5124233 31.8830061 88.0569018 31.8830061 87.1384969 31.8830061 86.6019939 31.3980368 86.6019939 30.3047853 86.6019939 29.219816 87.1430982 28.7293252 88.0955521 28.7293252 88.4783742 28.7293252 88.784816 28.8333129 88.9550613 28.9373006 89.0185583 28.9731902 89.0443252 29.0072393 89.0185583 29.0725767L88.9127301 29.3422086C88.8869632 29.4066258 88.8483129 29.4277914 88.7673313 29.3937423 88.6357362 29.3366871 88.4314417 29.268589 88.1719325 29.268589 87.4955521 29.268589 87.2065951 29.5722699 87.2065951 30.3047853 87.2065951 31.0474233 87.5038344 31.3455828 88.125 31.3455828 88.3044479 31.3455828 88.4783742 31.3060123 88.5805215 31.26L88.5805215 30.4925153 88.1167178 30.4925153C88.0440184 30.4925153 88.0099693 30.461227 88.0099693 30.3912883L88.0099693 30.1271779C88.0099693 30.0572393 88.0440184 30.0176687 88.1167178 30.0176687L89.0148773 30.0176687zM90.2694479 30.5298773L90.2694479 31.3157669 91.4768098 31.3157669C91.5504294 31.3157669 91.5844785 31.346135 91.5844785 31.4197546L91.5844785 31.7289571C91.5844785 31.8062577 91.5504294 31.8366258 91.4768098 31.8366258L89.7890798 31.8366258C89.7117791 31.8366258 89.681411 31.8062577 89.681411 31.7289571L89.681411 28.8853988C89.681411 28.8117791 89.7117791 28.781411 89.7844785 28.781411L91.4602454 28.781411C91.5329448 28.781411 91.5669939 28.8117791 91.5669939 28.8853988L91.5669939 29.1946012C91.5669939 29.2682209 91.5329448 29.3022699 91.4602454 29.3022699L90.2694479 29.3022699 90.2694479 30.0265031 91.4050307 30.0265031C91.4740491 30.0265031 91.5071779 30.0660736 91.5071779 30.1360123L91.5071779 30.4222086C91.5071779 30.4921472 91.4740491 30.5298773 91.4050307 30.5298773L90.2694479 30.5298773zM93.2890491 28.8853067C93.2890491 28.8116871 93.3184969 28.781319 93.3902761 28.781319L93.7776994 28.781319C93.8457975 28.781319 93.8844479 28.8116871 93.8844479 28.8853067L93.8844479 31.728865C93.8844479 31.8061656 93.8457975 31.8365337 93.7776994 31.8365337L93.3902761 31.8365337C93.3184969 31.8365337 93.2890491 31.8061656 93.2890491 31.728865L93.2890491 28.8853067zM96.9672699 31.728773C96.9672699 31.8060736 96.9332209 31.8364417 96.8660429 31.8364417L96.4832209 31.8364417C96.4105215 31.8364417 96.3801534 31.8152761 96.3507055 31.7628221L95.1543865 29.7962577 95.1543865 31.728773C95.1543865 31.8060736 95.1249387 31.8364417 95.0531595 31.8364417L94.6869018 31.8364417C94.6096012 31.8364417 94.5801534 31.8060736 94.5801534 31.728773L94.5801534 28.8852147C94.5801534 28.8115951 94.6096012 28.781227 94.6869018 28.781227L95.0614417 28.781227C95.1387423 28.781227 95.1681902 28.7987117 95.197638 28.8511656L96.3930368 30.821411 96.3930368 28.8852147C96.3930368 28.8115951 96.4224847 28.781227 96.495184 28.781227L96.8660429 28.781227C96.9332209 28.781227 96.9672699 28.8115951 96.9672699 28.8815337L96.9672699 31.728773zM100.335552 30.6611043L99.9232822 29.3810429 99.9094785 29.3810429 99.4889264 30.6611043 100.335552 30.6611043zM100.157025 28.7810429C100.238006 28.7810429 100.262853 28.8169325 100.284018 28.8813497L101.275123 31.7147853C101.30181 31.7847239 101.267761 31.8362577 101.198742 31.8362577L100.786472 31.8362577C100.713773 31.8362577 100.684325 31.8058896 100.662239 31.7414724L100.468067 31.173681 99.3610123 31.173681 99.1659202 31.7414724C99.1438344 31.8058896 99.1143865 31.8362577 99.0462883 31.8362577L98.6330982 31.8362577C98.561319 31.8362577 98.5272699 31.7847239 98.5530368 31.7147853L99.5441411 28.8813497C99.5653067 28.8169325 99.5901534 28.7810429 99.671135 28.7810429L100.157025 28.7810429zM101.582853 30.7293865L101.582853 28.8852147C101.582853 28.8115951 101.616902 28.781227 101.688681 28.781227L102.071503 28.781227C102.147883 28.781227 102.177331 28.8115951 102.177331 28.8852147L102.177331 30.6769325C102.177331 31.1030061 102.343896 31.3422699 102.765368 31.3422699 103.182239 31.3422699 103.352485 31.1030061 103.352485 30.6769325L103.352485 28.8852147C103.352485 28.8115951 103.381933 28.781227 103.454632 28.781227L103.842055 28.781227C103.909233 28.781227 103.943282 28.8115951 103.943282 28.8852147L103.943282 30.7293865C103.943282 31.4803067 103.553098 31.8888957 102.765368 31.8888957 101.973957 31.8888957 101.582853 31.4803067 101.582853 30.7293865M105.36092 31.8761043C104.969816 31.8761043 104.624724 31.8024847 104.437914 31.7049387 104.379018 31.676411 104.34773 31.6460429 104.374417 31.5761043L104.475644 31.2991104C104.49773 31.2328528 104.531779 31.2024847 104.604479 31.2328528 104.757239 31.2991104 104.995583 31.3635276 105.279939 31.3635276 105.649877 31.3635276 105.905706 31.2503374 105.905706 30.9991104 105.905706 30.7469632 105.637914 30.6466564 105.305706 30.5169018 104.850184 30.3429755 104.42135 30.1653681 104.42135 29.5662883 104.42135 29.0169018 104.791288 28.7343865 105.500798 28.7343865 105.867975 28.7343865 106.14773 28.8080061 106.314294 28.8853067 106.37411 28.9156748 106.403558 28.9460429 106.377791 29.0169018L106.280245 29.2846933C106.254479 29.3509509 106.22135 29.3721166 106.144049 29.3454294 105.991288 29.2846933 105.790675 29.2497239 105.556933 29.2497239 105.195276 29.2497239 105.016748 29.3509509 105.016748 29.5810123 105.016748 29.8267178 105.259693 29.9095399 105.58638 30.044816 106.059387 30.2389877 106.501104 30.4037117 106.501104 31.0083129 106.501104 31.6101534 106.016135 31.8761043 105.36092 31.8761043M108.131595 31.3495399C108.608282 31.3495399 108.773926 31.2381902 108.773926 30.9161043 108.773926 30.6179448 108.620245 30.4955521 108.14908 30.4955521L107.539877 30.4955521 107.539877 31.3495399 108.131595 31.3495399zM108.126994 30.0391104C108.539264 30.0391104 108.688344 29.9222393 108.688344 29.6406442 108.688344 29.3728528 108.539264 29.2624233 108.118712 29.2624233L107.539877 29.2624233 107.539877 30.0391104 108.126994 30.0391104zM107.059509 31.8363497C106.982209 31.8363497 106.952761 31.8059816 106.952761 31.728681L106.952761 28.8851227C106.952761 28.8115031 106.982209 28.781135 107.059509 28.781135L108.131595 28.781135C108.905521 28.781135 109.267178 29.0203988 109.267178 29.5808282 109.267178 29.9581288 109.071166 30.1523006 108.858589 30.217638 109.130982 30.2912577 109.361043 30.4992331 109.361043 30.9501534 109.361043 31.5851227 108.944172 31.8363497 108.161043 31.8363497L107.059509 31.8363497zM109.880429 28.8853067C109.880429 28.8116871 109.909877 28.781319 109.981656 28.781319L110.36908 28.781319C110.437178 28.781319 110.475828 28.8116871 110.475828 28.8853067L110.475828 31.728865C110.475828 31.8061656 110.437178 31.8365337 110.36908 31.8365337L109.981656 31.8365337C109.909877 31.8365337 109.880429 31.8061656 109.880429 31.728865L109.880429 28.8853067zM111.700215 31.290184L112.845 31.290184C112.916779 31.290184 112.950828 31.3242331 112.950828 31.3941718L112.950828 31.7291411C112.950828 31.8064417 112.916779 31.8368098 112.845 31.8368098L111.211564 31.8368098C111.134264 31.8368098 111.104816 31.8064417 111.104816 31.7291411L111.104816 28.8855828C111.104816 28.8119632 111.134264 28.7806748 111.211564 28.7806748L111.594387 28.7806748C111.666166 28.7806748 111.700215 28.8119632 111.700215 28.8855828L111.700215 31.290184zM114.002577 29.3203067L114.002577 31.2988344 114.31362 31.2988344C114.892454 31.2988344 115.210859 31.0945399 115.210859 30.2782822 115.210859 29.52 114.892454 29.3203067 114.309018 29.3203067L114.002577 29.3203067zM113.513926 31.8362577C113.436626 31.8362577 113.407178 31.8058896 113.407178 31.728589L113.407178 28.8850307C113.407178 28.811411 113.436626 28.7810429 113.509325 28.7810429L114.330184 28.7810429C115.29184 28.7810429 115.81546 29.1859509 115.81546 30.2782822 115.81546 31.428589 115.29184 31.8362577 114.333865 31.8362577L113.513926 31.8362577zM116.284325 30.7293865L116.284325 28.8852147C116.284325 28.8115951 116.318374 28.781227 116.390153 28.781227L116.772975 28.781227C116.849356 28.781227 116.878804 28.8115951 116.878804 28.8852147L116.878804 30.6769325C116.878804 31.1030061 117.045368 31.3422699 117.46684 31.3422699 117.883712 31.3422699 118.053957 31.1030061 118.053957 30.6769325L118.053957 28.8852147C118.053957 28.8115951 118.083405 28.781227 118.156104 28.781227L118.543528 28.781227C118.610706 28.781227 118.644755 28.8115951 118.644755 28.8852147L118.644755 30.7293865C118.644755 31.4803067 118.254571 31.8888957 117.46684 31.8888957 116.675429 31.8888957 116.284325 31.4803067 116.284325 30.7293865M121.618896 31.728773C121.618896 31.8060736 121.584847 31.8364417 121.517669 31.8364417L121.134847 31.8364417C121.062147 31.8364417 121.031779 31.8152761 121.002331 31.7628221L119.806012 29.7962577 119.806012 31.728773C119.806012 31.8060736 119.776564 31.8364417 119.704785 31.8364417L119.338528 31.8364417C119.261227 31.8364417 119.231779 31.8060736 119.231779 31.728773L119.231779 28.8852147C119.231779 28.8115951 119.261227 28.781227 119.338528 28.781227L119.713067 28.781227C119.790368 28.781227 119.819816 28.7987117 119.849264 28.8511656L121.044663 30.821411 121.044663 28.8852147C121.044663 28.8115951 121.07411 28.781227 121.14681 28.781227L121.517669 28.781227C121.584847 28.781227 121.618896 28.8115951 121.618896 28.8815337L121.618896 31.728773zM124.525215 30.0176687C124.592393 30.0176687 124.631043 30.0535583 124.631043 30.1271779L124.631043 31.514908C124.631043 31.5940491 124.58411 31.6373006 124.538098 31.6676687 124.337485 31.7882209 124.022761 31.8830061 123.567239 31.8830061 122.648834 31.8830061 122.112331 31.3980368 122.112331 30.3047853 122.112331 29.219816 122.653436 28.7293252 123.60589 28.7293252 123.988712 28.7293252 124.295153 28.8333129 124.465399 28.9373006 124.528896 28.9731902 124.554663 29.0072393 124.528896 29.0725767L124.423067 29.3422086C124.397301 29.4066258 124.35865 29.4277914 124.277669 29.3937423 124.146074 29.3366871 123.941779 29.268589 123.68227 29.268589 123.00589 29.268589 122.716933 29.5722699 122.716933 30.3047853 122.716933 31.0474233 123.014172 31.3455828 123.635337 31.3455828 123.814785 31.3455828 123.988712 31.3060123 124.090859 31.26L124.090859 30.4925153 123.627055 30.4925153C123.554356 30.4925153 123.520307 30.461227 123.520307 30.3912883L123.520307 30.1271779C123.520307 30.0572393 123.554356 30.0176687 123.627055 30.0176687L124.525215 30.0176687zM126.373804 30.7293865L126.373804 28.8852147C126.373804 28.8115951 126.407853 28.781227 126.479632 28.781227L126.862454 28.781227C126.938834 28.781227 126.968282 28.8115951 126.968282 28.8852147L126.968282 30.6769325C126.968282 31.1030061 127.134847 31.3422699 127.556319 31.3422699 127.97319 31.3422699 128.143436 31.1030061 128.143436 30.6769325L128.143436 28.8852147C128.143436 28.8115951 128.172883 28.781227 128.245583 28.781227L128.633006 28.781227C128.700184 28.781227 128.734233 28.8115951 128.734233 28.8852147L128.734233 30.7293865C128.734233 31.4803067 128.344049 31.8888957 127.556319 31.8888957 126.764908 31.8888957 126.373804 31.4803067 126.373804 30.7293865M131.708374 31.728773C131.708374 31.8060736 131.674325 31.8364417 131.607147 31.8364417L131.224325 31.8364417C131.151626 31.8364417 131.121258 31.8152761 131.09181 31.7628221L129.895491 29.7962577 129.895491 31.728773C129.895491 31.8060736 129.866043 31.8364417 129.794264 31.8364417L129.428006 31.8364417C129.350706 31.8364417 129.321258 31.8060736 129.321258 31.728773L129.321258 28.8852147C129.321258 28.8115951 129.350706 28.781227 129.428006 28.781227L129.802546 28.781227C129.879847 28.781227 129.909294 28.7987117 129.938742 28.8511656L131.134141 30.821411 131.134141 28.8852147C131.134141 28.8115951 131.163589 28.781227 131.236288 28.781227L131.607147 28.781227C131.674325 28.781227 131.708374 28.8115951 131.708374 28.8815337L131.708374 31.728773zM132.909018 29.3203067L132.909018 31.2988344 133.220061 31.2988344C133.798896 31.2988344 134.117301 31.0945399 134.117301 30.2782822 134.117301 29.52 133.798896 29.3203067 133.21546 29.3203067L132.909018 29.3203067zM132.420368 31.8362577C132.343067 31.8362577 132.31362 31.8058896 132.31362 31.728589L132.31362 28.8850307C132.31362 28.811411 132.343067 28.7810429 132.415767 28.7810429L133.236626 28.7810429C134.198282 28.7810429 134.721902 29.1859509 134.721902 30.2782822 134.721902 31.428589 134.198282 31.8362577 133.240307 31.8362577L132.420368 31.8362577zM137.591963 31.3495399C138.06865 31.3495399 138.234294 31.2381902 138.234294 30.9161043 138.234294 30.6179448 138.080613 30.4955521 137.609448 30.4955521L137.000245 30.4955521 137.000245 31.3495399 137.591963 31.3495399zM137.587362 30.0391104C137.999632 30.0391104 138.148712 29.9222393 138.148712 29.6406442 138.148712 29.3728528 137.999632 29.2624233 137.57908 29.2624233L137.000245 29.2624233 137.000245 30.0391104 137.587362 30.0391104zM136.519877 31.8363497C136.442577 31.8363497 136.413129 31.8059816 136.413129 31.728681L136.413129 28.8851227C136.413129 28.8115031 136.442577 28.781135 136.519877 28.781135L137.591963 28.781135C138.36589 28.781135 138.727546 29.0203988 138.727546 29.5808282 138.727546 29.9581288 138.531534 30.1523006 138.318957 30.217638 138.59135 30.2912577 138.821411 30.4992331 138.821411 30.9501534 138.821411 31.5851227 138.40454 31.8363497 137.621411 31.8363497L136.519877 31.8363497zM139.902515 30.5298773L139.902515 31.3157669 141.109877 31.3157669C141.183497 31.3157669 141.217546 31.346135 141.217546 31.4197546L141.217546 31.7289571C141.217546 31.8062577 141.183497 31.8366258 141.109877 31.8366258L139.422147 31.8366258C139.344847 31.8366258 139.314479 31.8062577 139.314479 31.7289571L139.314479 28.8853988C139.314479 28.8117791 139.344847 28.781411 139.417546 28.781411L141.093313 28.781411C141.166012 28.781411 141.200061 28.8117791 141.200061 28.8853988L141.200061 29.1946012C141.200061 29.2682209 141.166012 29.3022699 141.093313 29.3022699L139.902515 29.3022699 139.902515 30.0265031 141.038098 30.0265031C141.107117 30.0265031 141.140245 30.0660736 141.140245 30.1360123L141.140245 30.4222086C141.140245 30.4921472 141.107117 30.5298773 141.038098 30.5298773L139.902515 30.5298773zM142.740552 30.3142638C143.225521 30.3142638 143.400368 30.1523006 143.400368 29.8108896 143.400368 29.4409509 143.213558 29.3019939 142.745153 29.3019939L142.285031 29.3019939 142.285031 30.3142638 142.740552 30.3142638zM142.753436 28.781135C143.578896 28.781135 143.995767 29.081135 143.995767 29.8108896 143.995767 30.3391104 143.715092 30.6345092 143.263252 30.734816L143.986564 31.7019939C144.033497 31.7627301 144.00865 31.8363497 143.923067 31.8363497L143.51908 31.8363497C143.442699 31.8363497 143.40865 31.8023006 143.37092 31.7507669L142.681656 30.817638 142.285031 30.817638 142.285031 31.728681C142.285031 31.8059816 142.251902 31.8363497 142.179202 31.8363497L141.800982 31.8363497C141.723681 31.8363497 141.693313 31.8059816 141.693313 31.728681L141.693313 28.8851227C141.693313 28.8115031 141.723681 28.781135 141.800982 28.781135L142.753436 28.781135zM144.469601 30.7293865L144.469601 28.8852147C144.469601 28.8115951 144.50365 28.781227 144.575429 28.781227L144.958252 28.781227C145.034632 28.781227 145.06408 28.8115951 145.06408 28.8852147L145.06408 30.6769325C145.06408 31.1030061 145.230644 31.3422699 145.652117 31.3422699 146.068988 31.3422699 146.239233 31.1030061 146.239233 30.6769325L146.239233 28.8852147C146.239233 28.8115951 146.268681 28.781227 146.34138 28.781227L146.728804 28.781227C146.795982 28.781227 146.830031 28.8115951 146.830031 28.8852147L146.830031 30.7293865C146.830031 31.4803067 146.439847 31.8888957 145.652117 31.8888957 144.860706 31.8888957 144.469601 31.4803067 144.469601 30.7293865M148.008589 30.5945706L148.008589 31.7283129C148.008589 31.8056135 147.97546 31.8369018 147.902761 31.8369018L147.52454 31.8369018C147.447239 31.8369018 147.416871 31.8056135 147.416871 31.7283129L147.416871 28.8856748C147.416871 28.8120552 147.447239 28.7807669 147.52454 28.7807669L149.187423 28.7807669C149.259202 28.7807669 149.289571 28.8120552 149.289571 28.8819939L149.289571 29.1893558C149.289571 29.2629755 149.259202 29.298865 149.187423 29.298865L148.008589 29.298865 148.008589 30.0875153 149.148773 30.0875153C149.216871 30.0875153 149.25184 30.1215644 149.25184 30.195184L149.25184 30.4924233C149.25184 30.5605215 149.216871 30.5945706 149.148773 30.5945706L148.008589 30.5945706z" mask="url(#ueberaus-b)"/>
  </g>
</svg>
