<?xml version="1.0" encoding="utf-8"?><svg xmlns="http://www.w3.org/2000/svg" xmlns:xlink="http://www.w3.org/1999/xlink"><symbol viewBox="0 0 40 40" id="calendar" xmlns="http://www.w3.org/2000/svg"><path d="M37.656 36.484c0 .647-.525 1.172-1.172 1.172H3.516a1.173 1.173 0 0 1-1.172-1.172V16.562h35.312v19.922zM3.516 7.031h1.171v1.172a3.52 3.52 0 0 0 3.516 3.516 3.52 3.52 0 0 0 3.516-3.516V7.031h4.844v1.172a3.52 3.52 0 0 0 3.515 3.516 3.52 3.52 0 0 0 3.516-3.516V7.031h4.687v1.172a3.52 3.52 0 0 0 3.516 3.516 3.52 3.52 0 0 0 3.515-3.516V7.031h1.172c.647 0 1.172.526 1.172 1.172v6.016H2.344V8.203c0-.646.525-1.172 1.172-1.172zM7.03 3.516c0-.647.526-1.172 1.172-1.172.646 0 1.172.525 1.172 1.172v4.687c0 .646-.526 1.172-1.172 1.172a1.173 1.173 0 0 1-1.172-1.172V3.516zm11.875 0c0-.647.526-1.172 1.172-1.172.646 0 1.172.525 1.172 1.172v4.687c0 .646-.526 1.172-1.172 1.172a1.173 1.173 0 0 1-1.172-1.172V3.516zm11.719 0c0-.647.526-1.172 1.172-1.172.646 0 1.172.525 1.172 1.172v4.687c0 .646-.526 1.172-1.172 1.172a1.173 1.173 0 0 1-1.172-1.172V3.516zm5.86 1.171h-1.172V3.516A3.52 3.52 0 0 0 31.797 0a3.52 3.52 0 0 0-3.516 3.516v1.171h-4.687V3.516A3.52 3.52 0 0 0 20.078 0a3.52 3.52 0 0 0-3.515 3.516v1.171h-4.844V3.516A3.52 3.52 0 0 0 8.203 0a3.52 3.52 0 0 0-3.515 3.516v1.171H3.516A3.52 3.52 0 0 0 0 8.204v28.281A3.52 3.52 0 0 0 3.516 40h32.968A3.52 3.52 0 0 0 40 36.484V8.204a3.52 3.52 0 0 0-3.516-3.517z"/><path d="M7.3 34c0 1-1.15 1-1.15 1S5 35 5 34V20c0-1 1.15-1 1.15-1s1.15 0 1.15 1v14zm28 0c0 1-1.15 1-1.15 1S33 35 33 34V20c0-1 1.15-1 1.15-1s1.15 0 1.15 1v14zm-7 0c0 1-1.15 1-1.15 1S26 35 26 34V20c0-1 1.15-1 1.15-1s1.15 0 1.15 1v14zm-7 0c0 1-1.15 1-1.15 1S19 35 19 34V20c0-1 1.15-1 1.15-1s1.15 0 1.15 1v14zm-7 0c0 1-1.15 1-1.15 1S12 35 12 34V20c0-1 1.15-1 1.15-1s1.15 0 1.15 1v14z"/><path d="M34 19c.667 0 1 .383 1 1.15 0 .767-.333 1.15-1 1.15H6c-1 0-1-1.15-1-1.15S5 19 6 19h28zm0 7c.667 0 1 .367 1 1.1 0 .733-.333 1.1-1 1.1H6c-1 0-1-1.1-1-1.1S5 26 6 26h28zm0 7c.667 0 1 .383 1 1.15 0 .767-.333 1.15-1 1.15H6c-1 0-1-1.15-1-1.15S5 33 6 33h28z"/></symbol><symbol viewBox="0 0 40 40" id="cart" xmlns="http://www.w3.org/2000/svg"><path d="M1.2 2.395A1.199 1.199 0 0 1 1.2 0h4.045c.662 0 1.2.536 1.2 1.198v29.594H31.35a4.615 4.615 0 0 1 4.615 4.604c0 2.539-2.07 4.604-4.615 4.604a4.615 4.615 0 0 1-4.615-4.604c0-.8.206-1.553.567-2.21H9.292c.361.657.567 1.41.567 2.21C9.86 37.935 7.79 40 5.245 40 2.7 40 .63 37.935.63 35.396a4.613 4.613 0 0 1 3.414-4.445V12 2.395H1.2zM3 35.465c0 1.221.994 2.215 2.215 2.215a2.217 2.217 0 0 0 2.215-2.215 2.217 2.217 0 0 0-2.215-2.215A2.218 2.218 0 0 0 3 35.465zm26 0c0 1.221.994 2.215 2.215 2.215a2.217 2.217 0 0 0 2.215-2.215 2.217 2.217 0 0 0-2.215-2.215A2.218 2.218 0 0 0 29 35.465z"/><path d="M15.3 24.88c0 1.125-1.15 1.125-1.15 1.125s-1.15 0-1.15-1.126V9.125C13 8 14.15 8 14.15 8s1.15 0 1.15 1.125V24.88z"/><path d="M39 7.248c1 0 1 1.15 1 1.15s0 1.15-1 1.15H5.199C4 9.548 4 8.398 4 8.398s0-1.15 1.199-1.15H39zM34 24c.667 0 1 .383 1 1.15 0 .767-.333 1.15-1 1.15H6c-1 0-1-1.15-1-1.15S5 24 6 24h28z"/><path d="M22.42 25.034c-.137 1.117-1.279.977-1.279.977s-1.141-.14-1.004-1.257l1.92-15.637c.137-1.117 1.279-.977 1.279-.977s1.141.14 1.004 1.257l-1.92 15.637zM35.535 25.09c-.323 1.165-1.43.858-1.43.858s-1.109-.307-.786-1.472l4.523-16.311c.323-1.165 1.432-.858 1.432-.858s1.108.308.785 1.473l-4.524 16.31zM29.331 24.96c-.137 1.118-1.278.978-1.278.978s-1.142-.14-1.004-1.257l1.92-15.637c.137-1.117 1.278-.977 1.278-.977s1.141.14 1.004 1.257l-1.92 15.637zM7 24.88c0 1.125-1 1.125-1 1.125s-1 0-1-1.126V9.125C5 8 6 8 6 8s1 0 1 1.125V24.88z"/><path d="M35.81 15c.708 0 1.063.367 1.063 1.1 0 .733-.355 1.1-1.063 1.1H6.062C5 17.2 5 16.1 5 16.1S5 15 6.062 15H35.81z"/></symbol><symbol viewBox="0 0 40 40" id="comments" xmlns="http://www.w3.org/2000/svg"><path d="M5.86 16.406h4.687a1.172 1.172 0 0 0 0-2.343H5.859a1.172 1.172 0 0 0 0 2.343m5.86 3.516c0-.647-.525-1.172-1.172-1.172H5.859a1.172 1.172 0 0 0 0 2.344h4.688c.647 0 1.172-.525 1.172-1.172"/><path d="M35.313 20.893v-6.63a3.522 3.522 0 0 1 2.343 3.315c0 1.528-.98 2.831-2.343 3.315zM32.968 31.64a1.173 1.173 0 0 1-2.344 0V3.516c0-.647.526-1.172 1.172-1.172.646 0 1.172.525 1.172 1.172V31.64zm-16.563-8.166V11.68c4.457-.283 8.71-2.17 11.816-5.277l.06-.06v22.467l-.06-.058c-3.106-3.107-7.36-4.995-11.816-5.278zm0 3.478c0 .646-.525 1.172-1.172 1.172h-1.171v-2.344h1.171c.392 0 .783.015 1.172.043v1.13zm-4.687 9.531a1.173 1.173 0 0 1-2.344 0V25.781h2.344v10.703zM2.344 19.922v-4.688a3.52 3.52 0 0 1 3.515-3.515h8.204v11.718H5.858a3.52 3.52 0 0 1-3.515-3.515zm32.968-8.085V3.516A3.52 3.52 0 0 0 31.797 0c-1.76 0-3.222 1.3-3.476 2.99l-1.756 1.756c-2.941 2.942-7.071 4.629-11.33 4.629H5.858A5.866 5.866 0 0 0 0 15.235v4.687c0 3.23 2.629 5.86 5.86 5.86H7.03v10.702A3.52 3.52 0 0 0 10.547 40a3.52 3.52 0 0 0 3.515-3.516V30.47h1.172a3.52 3.52 0 0 0 3.516-3.516v-.786c2.958.655 5.695 2.123 7.815 4.243l1.756 1.755a3.521 3.521 0 0 0 3.476 2.991 3.52 3.52 0 0 0 3.515-3.515V23.32A5.87 5.87 0 0 0 40 17.578a5.87 5.87 0 0 0-4.688-5.741z"/></symbol><symbol viewBox="0 0 40 40" id="contact" xmlns="http://www.w3.org/2000/svg"><path d="M16.406 20.012c0 .69.525 1.25 1.172 1.25h16.563c.647 0 1.171-.56 1.171-1.25s-.524-1.25-1.171-1.25H17.578c-.647 0-1.172.56-1.172 1.25m10.703 4.512h-9.53c-.648 0-1.173.56-1.173 1.25s.525 1.25 1.172 1.25h9.531c.648 0 1.172-.56 1.172-1.25s-.524-1.25-1.172-1.25"/><path d="M2.344 3.75c0-.69.525-1.25 1.172-1.25H25.78c.646 0 1.172.56 1.172 1.25V10H15.234c-1.938 0-3.515 1.682-3.515 3.75v9.331L7.03 26.414V23.75c0-.69-.524-1.25-1.172-1.25H3.516c-.647 0-1.172-.56-1.172-1.25V3.75zm35.312 10v17.5c0 .69-.525 1.25-1.172 1.25h-2.343c-.648 0-1.172.56-1.172 1.25v2.664l-5.21-3.704a1.12 1.12 0 0 0-.65-.21H15.234c-.646 0-1.172-.56-1.172-1.25v-17.5c0-.69.526-1.25 1.172-1.25h21.25c.647 0 1.172.56 1.172 1.25zM3.516 25h1.171v3.75c0 .461.238.885.62 1.102.38.218.843.194 1.202-.062l5.21-3.704v5.164c0 2.068 1.577 3.75 3.515 3.75h11.52l6.737 4.79c.359.256.821.28 1.203.062.38-.217.618-.641.618-1.102V35h1.172C38.423 35 40 33.318 40 31.25v-17.5c0-2.068-1.577-3.75-3.516-3.75h-7.187V3.75c0-2.068-1.577-3.75-3.516-3.75H3.516C1.577 0 0 1.682 0 3.75v17.5C0 23.318 1.577 25 3.516 25z"/></symbol><symbol viewBox="0 0 40 40" id="divers" xmlns="http://www.w3.org/2000/svg"><path d="M33.544 14.141a1.3 1.3 0 0 1-.963-.438 1.647 1.647 0 0 1 0-2.183l4.078-4.45-4.078-4.449a1.647 1.647 0 0 1 0-2.183A1.3 1.3 0 0 1 33.544 0a1.3 1.3 0 0 1 .963.438l5.08 5.541a1.647 1.647 0 0 1 0 2.183l-5.08 5.541a1.3 1.3 0 0 1-.963.438m0 25.859a1.3 1.3 0 0 1-.963-.438 1.647 1.647 0 0 1 0-2.183l4.078-4.45-4.078-4.45a1.647 1.647 0 0 1 0-2.182 1.3 1.3 0 0 1 .963-.438 1.3 1.3 0 0 1 .963.438l5.08 5.54a1.647 1.647 0 0 1 0 2.184l-5.08 5.541a1.3 1.3 0 0 1-.963.438"/><path d="M28.465 34.459c-7.294 0-13.227-6.486-13.227-14.459S21.17 5.541 28.465 5.541h10.158c.759 0 1.376.686 1.376 1.53 0 .843-.617 1.53-1.376 1.53H28.465C22.688 8.6 17.989 13.713 17.989 20c0 6.286 4.7 11.4 10.476 11.4h10.158c.759 0 1.376.686 1.376 1.53 0 .843-.617 1.529-1.376 1.529H28.465z"/><path d="M1.376 34.459c-.759 0-1.376-.686-1.376-1.53 0-.843.617-1.53 1.376-1.53h3.386c5.776 0 10.476-5.113 10.476-11.399 0-6.286-4.7-11.4-10.476-11.4H1.376C.617 8.6 0 7.914 0 7.07c0-.843.617-1.529 1.376-1.529h3.386c7.293 0 13.227 6.486 13.227 14.459S12.055 34.459 4.762 34.459H1.376z"/></symbol><symbol viewBox="0 0 40 40" id="download" xmlns="http://www.w3.org/2000/svg"><path d="M38.591 16.041c-.778 0-1.408.64-1.408 1.429v19.674H2.817V17.47c0-.789-.63-1.429-1.408-1.429A1.42 1.42 0 0 0 0 17.47v21.102C0 39.362.631 40 1.409 40H38.59C39.37 40 40 39.361 40 38.572V17.47c0-.789-.631-1.429-1.409-1.429"/><path d="M19.502 26.581a1.42 1.42 0 0 0 1.992 0l6.08-5.986c.55-.542.55-1.42 0-1.962a1.425 1.425 0 0 0-1.992 0l-3.676 3.619.001-20.865C21.907.621 21.277 0 20.5 0c-.778 0-1.409.621-1.409 1.387v20.865l-3.672-3.615a1.424 1.424 0 0 0-1.992 0c-.55.542-.55 1.42 0 1.961l6.076 5.983z"/></symbol><symbol viewBox="0 0 40 40" id="follow" xmlns="http://www.w3.org/2000/svg"><path d="M8.186 14.545A5.462 5.462 0 0 1 13.644 20a5.462 5.462 0 0 1-5.458 5.455A5.462 5.462 0 0 1 2.73 20a5.462 5.462 0 0 1 5.457-5.455M31.814 2.727a5.462 5.462 0 0 1 5.457 5.455 5.462 5.462 0 0 1-5.457 5.454 5.462 5.462 0 0 1-5.458-5.454 5.462 5.462 0 0 1 5.458-5.455m0 23.637a5.462 5.462 0 0 1 5.457 5.454 5.462 5.462 0 0 1-5.457 5.455 5.462 5.462 0 0 1-5.458-5.455 5.462 5.462 0 0 1 5.458-5.454M8.186 28.182a8.186 8.186 0 0 0 6.797-3.627l8.91 5.194a8.162 8.162 0 0 0-.265 2.07c0 4.51 3.672 8.181 8.186 8.181C36.328 40 40 36.33 40 31.818c0-4.511-3.672-8.182-8.186-8.182a8.186 8.186 0 0 0-6.797 3.627l-8.91-5.194a8.164 8.164 0 0 0 0-4.138l8.91-5.194a8.186 8.186 0 0 0 6.797 3.627c4.514 0 8.186-3.67 8.186-8.182C40 3.67 36.328 0 31.814 0c-4.514 0-8.186 3.67-8.186 8.182 0 .715.092 1.408.265 2.07l-8.91 5.193a8.186 8.186 0 0 0-6.797-3.627C3.672 11.818 0 15.488 0 20c0 4.511 3.672 8.182 8.186 8.182"/></symbol><symbol viewBox="0 0 40 40" id="hints" xmlns="http://www.w3.org/2000/svg"><path d="M37.13 12.281L20.166 32.32 8.972 20.629 28.161 2.917a1.902 1.902 0 0 1 2.682.086l6.205 6.479c.73.762.766 1.992.082 2.8zM9.62 34.805L6.592 31.64l1.45-8.582L17.84 33.29l-8.218 1.515zM6.375 37.38l-3.186-1.37 2.165-2.26 2.249 2.348-1.228 1.282zm32.302-29.6L32.471 1.3a4.138 4.138 0 0 0-5.836-.187L6.53 19.675l-.008.008a1.13 1.13 0 0 0-.066.067l-.017.02a1.188 1.188 0 0 0-.066.082l-.01.015c-.018.025-.034.051-.05.077l-.012.022a1.24 1.24 0 0 0-.049.094l-.007.017a1.157 1.157 0 0 0-.033.086l-.009.025-.029.102-.004.018-.012.059-1.875 11.1-3.945 4.118c-.272.284-.39.692-.315 1.086.076.395.335.723.691.876l5.494 2.362c.142.061.29.091.438.091.3 0 .594-.122.815-.352l2.328-2.432 10.63-1.959.057-.012.015-.004c.034-.008.067-.019.1-.03l.022-.009c.029-.01.057-.023.084-.036l.015-.006c.03-.016.061-.033.091-.051l.02-.013c.025-.016.05-.034.075-.052l.014-.01a1.123 1.123 0 0 0 .162-.157l.007-.007 17.776-20.996c1.488-1.758 1.41-4.435-.18-6.094z"/><path d="M19.961 25.356l-4.321-4.512L29.348 8.189l2.731 2.853-12.118 14.314zm10.25-19.667a1.117 1.117 0 0 0-1.578-.05l-15.436 14.25c-.238.22-.379.532-.389.864-.01.331.112.653.337.887l6.053 6.32a1.128 1.128 0 0 0 .85.352c.318-.01.617-.157.828-.405l13.646-16.12a1.242 1.242 0 0 0-.048-1.646L30.21 5.689z"/></symbol><symbol viewBox="0 0 40 40" id="interesting" xmlns="http://www.w3.org/2000/svg"><path d="M20 20.17a1.172 1.172 0 1 1 0 2.344 1.172 1.172 0 0 1 0-2.344"/><path d="M11.238 21.91c-2.503-2.813-3.48-6.585-2.683-10.348.942-4.44 4.52-8.04 8.904-8.956 7.514-1.57 14.26 4.155 14.26 11.532a11.69 11.69 0 0 1-2.9 7.708c-1.63 1.86-2.634 4.08-2.893 6.356h-11.85c-.25-2.292-1.236-4.49-2.838-6.291zm14.621 9.886c0 .646-.525 1.172-1.172 1.172h-9.375a1.173 1.173 0 0 1-1.171-1.172v-1.25h11.718v1.25zM20 37.656a3.529 3.529 0 0 1-3.315-2.352h6.63A3.529 3.529 0 0 1 20 37.656zm-5.772-2.516A5.868 5.868 0 0 0 20 40a5.868 5.868 0 0 0 5.772-4.86 3.522 3.522 0 0 0 2.431-3.344v-2.422c0-2.108.845-4.233 2.378-5.983a14.034 14.034 0 0 0 3.481-9.253c0-8.874-8.12-15.7-17.083-13.827C11.7 1.414 7.393 5.741 6.262 11.076c-.954 4.5.222 9.016 3.225 12.393 1.49 1.674 2.31 3.77 2.31 5.905v2.422a3.522 3.522 0 0 0 2.43 3.344zM1.172 16.482h2.344a1.172 1.172 0 0 0 0-2.344H1.172a1.172 1.172 0 0 0 0 2.344m1.172-6.547A1.172 1.172 0 1 0 4 8.278L2.344 6.62A1.172 1.172 0 1 0 .686 8.278l1.658 1.657zm0 10.75L.686 22.341a1.172 1.172 0 0 0 1.658 1.657L4 22.342a1.172 1.172 0 0 0-1.657-1.658m36.484-6.546h-2.344a1.172 1.172 0 0 0 0 2.344h2.344a1.172 1.172 0 0 0 0-2.344m-1.172-4.203l1.657-1.657a1.172 1.172 0 0 0-1.657-1.658L36 8.278a1.172 1.172 0 0 0 1.657 1.657M39.313 24c.458-.457.458-1.2 0-1.657l-1.657-1.658A1.172 1.172 0 1 0 36 22.342l1.657 1.657c.458.458 1.2.458 1.657 0"/><path d="M20 17.826c.647 0 1.172-.525 1.172-1.172V9.622a1.172 1.172 0 1 0-2.344 0v7.032c0 .647.525 1.172 1.172 1.172"/></symbol><symbol viewBox="0 0 40 40" id="link" xmlns="http://www.w3.org/2000/svg"><path d="M12.792 28.38c-.369 0-.716-.143-.977-.404a1.386 1.386 0 0 1 0-1.956L27.17 10.653c.261-.262.608-.406.978-.406a1.386 1.386 0 0 1 .977 2.361L13.77 27.977a1.37 1.37 0 0 1-.978.405"/><path d="M30.636 23.996c-.366 0-.71-.142-.968-.4a1.359 1.359 0 0 1-.4-.968c0-.365.142-.709.4-.967l5.249-5.248a7.958 7.958 0 0 0 2.347-5.665c0-2.14-.834-4.152-2.347-5.666a7.964 7.964 0 0 0-5.667-2.346c-2.14 0-4.152.833-5.666 2.346l-5.248 5.248a1.36 1.36 0 0 1-.968.4 1.36 1.36 0 0 1-.967-.4A1.359 1.359 0 0 1 16 9.363c0-.365.142-.709.4-.967l5.25-5.248A10.68 10.68 0 0 1 29.25 0a10.68 10.68 0 0 1 7.602 3.148 10.677 10.677 0 0 1 3.148 7.6c0 2.871-1.118 5.57-3.148 7.6l-5.249 5.248c-.258.258-.602.4-.967.4M10.743 40c-2.87 0-5.569-1.118-7.6-3.149A10.676 10.676 0 0 1 0 29.251c0-2.875 1.117-5.574 3.144-7.601l5.25-5.25c.258-.258.602-.4.967-.4.366 0 .71.142.968.4.258.26.4.603.4.968s-.142.709-.4.967l-5.249 5.25a7.957 7.957 0 0 0-2.344 5.666c0 2.143.832 4.155 2.344 5.666a7.958 7.958 0 0 0 5.667 2.348c2.14 0 4.153-.834 5.666-2.348l5.25-5.249c.258-.258.602-.4.967-.4A1.364 1.364 0 0 1 24 30.635c0 .366-.142.709-.4.968l-5.25 5.248A10.682 10.682 0 0 1 10.746 40h-.004z"/></symbol><symbol viewBox="0 0 40 40" id="magnifier" xmlns="http://www.w3.org/2000/svg"><path d="M33.268 27.148c-5.614 5.625-14.749 5.626-20.363 0-5.614-5.625-5.614-14.778 0-20.403a14.29 14.29 0 0 1 10.182-4.226c3.846 0 7.462 1.5 10.181 4.226 5.614 5.625 5.614 14.778 0 20.403zm-29.45 10.11a.763.763 0 0 1-1.082-1.08l7.983-7.958a16.768 16.768 0 0 0 1.078 1.083l-7.98 7.955zM34.909 5.101A16.593 16.593 0 0 0 23.087.194 16.592 16.592 0 0 0 11.264 5.1a16.659 16.659 0 0 0-4.897 11.846c0 3.418 1.016 6.678 2.902 9.439l-8.172 8.146a3.073 3.073 0 0 0-.903 2.185c0 .826.32 1.602.903 2.185a3.072 3.072 0 0 0 2.182.904c.789 0 1.578-.3 2.177-.901l8.168-8.142a16.576 16.576 0 0 0 9.463 2.936c4.466 0 8.664-1.742 11.822-4.907a16.66 16.66 0 0 0 4.897-11.845A16.66 16.66 0 0 0 34.91 5.1z"/><path d="M23.087 2.713c-3.795 0-7.362 1.48-10.045 4.169-5.539 5.55-5.539 14.58 0 20.13a14.094 14.094 0 0 0 10.045 4.162c3.798 0 7.365-1.479 10.044-4.163 5.539-5.55 5.539-14.58 0-20.13a14.097 14.097 0 0 0-10.044-4.168m0 28.848a14.479 14.479 0 0 1-10.319-4.276c-5.69-5.7-5.69-14.976 0-20.677a14.483 14.483 0 0 1 10.319-4.283c3.898 0 7.562 1.521 10.318 4.283 5.69 5.7 5.69 14.976 0 20.677a14.48 14.48 0 0 1-10.318 4.276M10.713 28.5l-7.84 7.816a.568.568 0 0 0 .405.972c.152 0 .295-.059.403-.167l7.837-7.813a16.35 16.35 0 0 1-.805-.808m-7.435 9.175a.953.953 0 0 1-.957-.958.95.95 0 0 1 .278-.675l8.127-8.102.137.15a16.57 16.57 0 0 0 1.065 1.07l.15.138-8.123 8.097a.95.95 0 0 1-.677.28M23.087.387A16.4 16.4 0 0 0 11.4 5.237a16.467 16.467 0 0 0-4.84 11.71c0 3.358.992 6.584 2.868 9.33l.091.132-8.286 8.26a2.88 2.88 0 0 0-.847 2.048c0 .774.301 1.502.847 2.049a2.869 2.869 0 0 0 2.045.847c.772 0 1.497-.3 2.04-.845l8.283-8.256.132.091a16.378 16.378 0 0 0 9.353 2.903c4.414 0 8.564-1.723 11.685-4.85a16.467 16.467 0 0 0 4.84-11.71c0-4.423-1.718-8.58-4.84-11.709A16.401 16.401 0 0 0 23.087.387M3.279 40c-.877 0-1.7-.341-2.32-.96A3.264 3.264 0 0 1 0 36.716c0-.877.34-1.701.96-2.322l8.06-8.033a16.849 16.849 0 0 1-2.846-9.415c0-4.527 1.759-8.783 4.953-11.983A16.784 16.784 0 0 1 23.087 0c4.517 0 8.765 1.763 11.96 4.964A16.853 16.853 0 0 1 40 16.947c0 4.526-1.76 8.782-4.953 11.982a16.786 16.786 0 0 1-11.96 4.964c-3.394 0-6.654-.995-9.44-2.88l-8.054 8.029A3.248 3.248 0 0 1 3.28 40"/><path d="M30.247 24.121c-3.948 3.957-10.372 3.957-14.32 0-3.95-3.956-3.95-10.393 0-14.35a10.084 10.084 0 0 1 7.16-2.966c2.593 0 5.186.989 7.16 2.967a10.09 10.09 0 0 1 2.966 7.175 10.09 10.09 0 0 1-2.966 7.174m1.595-15.947a12.287 12.287 0 0 0-8.755-3.634c-3.307 0-6.417 1.29-8.756 3.634-4.827 4.837-4.827 12.708 0 17.545a12.29 12.29 0 0 0 8.756 3.634c3.307 0 6.417-1.29 8.755-3.634a12.338 12.338 0 0 0 3.627-8.772c0-3.314-1.288-6.43-3.627-8.773"/><path d="M23.087 6.993a9.86 9.86 0 0 0-7.027 2.912c-3.876 3.883-3.876 10.2 0 14.083a9.86 9.86 0 0 0 7.027 2.912 9.861 9.861 0 0 0 7.027-2.912 9.904 9.904 0 0 0 2.911-7.041c0-2.66-1.034-5.161-2.911-7.042a9.86 9.86 0 0 0-7.027-2.912m0 20.284a10.234 10.234 0 0 1-7.294-3.023c-4.021-4.03-4.021-10.586 0-14.615a10.234 10.234 0 0 1 7.294-3.023c2.758 0 5.348 1.074 7.293 3.023a10.277 10.277 0 0 1 3.021 7.308c0 2.76-1.072 5.355-3.02 7.307a10.235 10.235 0 0 1-7.294 3.023m0-22.549c-3.257 0-6.32 1.271-8.622 3.579-4.755 4.764-4.755 12.515 0 17.28a12.103 12.103 0 0 0 8.622 3.578c3.257 0 6.319-1.271 8.622-3.579a12.15 12.15 0 0 0 3.571-8.64 12.15 12.15 0 0 0-3.571-8.64 12.101 12.101 0 0 0-8.622-3.578m0 24.813c-3.358 0-6.514-1.31-8.889-3.689-4.9-4.91-4.9-12.9 0-17.81a12.475 12.475 0 0 1 8.889-3.69c3.357 0 6.514 1.31 8.888 3.69a12.523 12.523 0 0 1 3.682 8.905c0 3.364-1.308 6.526-3.682 8.905a12.475 12.475 0 0 1-8.888 3.689"/></symbol><symbol viewBox="0 0 40 40" id="news" xmlns="http://www.w3.org/2000/svg"><path d="M36.04 37.586a1.548 1.548 0 0 1-1.545-1.545V7.694h3.091v28.347c0 .851-.693 1.545-1.545 1.545zM2.415 2.414H32.08V36.04c0 .547.113 1.07.315 1.545H3.959a1.547 1.547 0 0 1-1.545-1.545V2.414zm36.38 2.82h-4.299V1.207C34.495.54 33.955 0 33.288 0H1.207C.54 0 0 .54 0 1.207V36.04A3.964 3.964 0 0 0 3.96 40h32.08A3.964 3.964 0 0 0 40 36.04V6.44c0-.666-.54-1.206-1.207-1.206z"/><path d="M30.3 15.945c0 .582-.515 1.055-1.15 1.055-.635 0-1.15-.473-1.15-1.055v-8.89C28 6.473 28.515 6 29.15 6c.635 0 1.15.473 1.15 1.055v8.89zm-24 0C6.3 16.527 5.785 17 5.15 17 4.515 17 4 16.527 4 15.945v-8.89C4 6.473 4.515 6 5.15 6c.635 0 1.15.473 1.15 1.055v8.89z"/><path d="M29.15 14.85c1 0 1 1.15 1 1.15s0 1.15-1 1.15H5.132C4.15 17.15 4.15 16 4.15 16s0-1.15.982-1.15H29.15zM29.15 5.85c1 0 1 1.15 1 1.15s0 1.15-1 1.15H5.132C4.15 8.15 4.15 7 4.15 7s0-1.15.982-1.15H29.15zM29.372 20H19.207c-.666 0-1.207.515-1.207 1.15 0 .635.54 1.15 1.207 1.15h10.165c.666 0 1.206-.515 1.206-1.15 0-.635-.54-1.15-1.206-1.15m-14.523 0H5.15a1.151 1.151 0 1 0 0 2.3h9.698a1.151 1.151 0 1 0 0-2.3m0 10H5.15a1.151 1.151 0 1 0 0 2.3h9.698a1.151 1.151 0 1 0 0-2.3"/><path d="M6.15 21.357c0-.666-.515-1.207-1.15-1.207-.635 0-1.15.54-1.15 1.207v9.793c0 .666.515 1 1.15 1 .635 0 1.15-.334 1.15-1v-9.793zM16.15 21.357c0-.666-.515-1.207-1.15-1.207-.635 0-1.15.54-1.15 1.207v9.793c0 .666.515 1 1.15 1 .635 0 1.15-.334 1.15-1v-9.793zM29.372 30H19.207c-.666 0-1.207.515-1.207 1.15 0 .636.54 1.15 1.207 1.15h10.165c.666 0 1.206-.514 1.206-1.15 0-.635-.54-1.15-1.206-1.15m0-5H19.207c-.666 0-1.207.515-1.207 1.15 0 .636.54 1.15 1.207 1.15h10.165c.666 0 1.206-.514 1.206-1.15 0-.635-.54-1.15-1.206-1.15"/></symbol><symbol viewBox="0 0 40 40" id="newsletter" xmlns="http://www.w3.org/2000/svg"><path d="M36.413 37.656H3.51c-.645 0-1.17-.525-1.17-1.172V17.73l16.922 12.663a1.166 1.166 0 0 0 1.4 0l16.922-12.663v18.755c0 .647-.525 1.172-1.17 1.172zM7.096 12.446v5.917l-3.968-2.97 3.968-2.947zM30.487 2.344v17.77L19.961 27.99 9.435 20.113V2.343h21.052zm6.307 13.05l-3.967 2.969v-5.917l3.967 2.948zm3.127-.015a1.174 1.174 0 0 0-.454-.914l-.018-.016-6.622-4.922V1.172A1.17 1.17 0 0 0 31.657 0H8.265a1.17 1.17 0 0 0-1.17 1.172v8.355L.474 14.45a1.179 1.179 0 0 0-.472.93l-.001.01v21.095A3.516 3.516 0 0 0 3.509 40h32.904a3.516 3.516 0 0 0 3.51-3.516V15.391l-.001-.001v-.001-.01z"/><path d="M12.944 9.531h14.035a1.17 1.17 0 0 0 1.17-1.172 1.17 1.17 0 0 0-1.17-1.171H12.944a1.17 1.17 0 0 0 0 2.343m0 4.688h14.035a1.17 1.17 0 0 0 1.17-1.172 1.17 1.17 0 0 0-1.17-1.172H12.944a1.17 1.17 0 0 0 0 2.344m0 4.687h7.017a1.17 1.17 0 0 0 1.17-1.172 1.17 1.17 0 0 0-1.17-1.171h-7.017a1.17 1.17 0 0 0 0 2.343"/></symbol><symbol viewBox="0 0 40 40" id="partners" xmlns="http://www.w3.org/2000/svg"><path d="M32.618 27.77a1.172 1.172 0 0 0 0 2.344h2.344a1.172 1.172 0 0 0 0-2.344h-2.344z"/><path d="M37.649 37.564H23.512V30.98c0-2.592-.764-5-2.07-6.989a9.497 9.497 0 0 1 1.688-1.409l4.126 4.333a1.136 1.136 0 0 0 1.649.014l4.25-4.321c2.697 1.748 4.494 4.847 4.494 8.372v6.585zm-16.488-.01H2.351V30.97c0-3.667 2.077-7.198 5.225-8.8a8.689 8.689 0 0 1 4.177-.95h.006a8.688 8.688 0 0 1 4.177.95c3.148 1.602 5.225 5.133 5.225 8.8v6.585zM7.054 14.075a4.708 4.708 0 0 1 4.702-4.703 4.708 4.708 0 0 1 4.703 4.703 4.708 4.708 0 0 1-4.703 4.702 4.708 4.708 0 0 1-4.702-4.702zm23.789 7.432L28.1 24.161l-2.672-2.672a9.434 9.434 0 0 1 2.659-.382c.958 0 1.883.14 2.756.4zm-7.458-7.452a4.708 4.708 0 0 1 4.702-4.703c2.634 0 4.86 2.154 4.86 4.703 0 2.549-2.226 4.702-4.86 4.702a4.708 4.708 0 0 1-4.702-4.702zm9.119 5.886c.22-.173.432-.358.634-.559a7.19 7.19 0 0 0 2.16-5.137c0-3.996-3.3-7.244-7.211-7.244-3.89 0-7.054 3.25-7.054 7.244a7.307 7.307 0 0 0 2.69 5.687 11.673 11.673 0 0 0-3.805 2.534 11.764 11.764 0 0 0-3.802-2.53 7.307 7.307 0 0 0 2.694-5.691C18.81 10.249 15.646 7 11.756 7s-7.054 3.25-7.054 7.244a7.307 7.307 0 0 0 2.694 5.69C3.066 21.716 0 26.07 0 31.146v7.647C0 39.459.527 40 1.176 40h37.649c.649 0 1.175-.54 1.175-1.207v-7.647c0-5.186-3.243-9.465-7.496-11.206z"/><path d="M10.854 23.267h1.804l.312-1.053h-2.428l.312 1.053zm2.33 1.96h-2.856c-.552 0-1.047-.37-1.204-.9l-.728-2.461a1.26 1.26 0 0 1 .198-1.107 1.261 1.261 0 0 1 1.006-.504h4.313c.394 0 .77.188 1.005.504.236.315.31.73.198 1.107l-.728 2.461c-.157.53-.651.9-1.204.9z"/><path d="M10.257 31.685l1.5 1.519 1.498-1.519-.739-6.459h-1.52l-.739 6.46zm1.5 3.776h-.001c-.338 0-.656-.132-.893-.373l-2.237-2.266a1.25 1.25 0 0 1-.354-1.025l.849-7.417a1.255 1.255 0 0 1 1.247-1.113h2.776c.639 0 1.175.478 1.247 1.113l.849 7.417a1.25 1.25 0 0 1-.353 1.024l-2.238 2.267c-.237.24-.555.373-.893.373z"/></symbol><symbol viewBox="0 0 40 40" id="publication" xmlns="http://www.w3.org/2000/svg"><path d="M2.344 18.571c0-.787.525-1.428 1.172-1.428H4.6c.048 0 .087.039.087.087v8.397c0 .048-.039.087-.087.087H3.516c-.647 0-1.172-.64-1.172-1.428V18.57zm3.716-5.959c-.885-1.08-1.373-2.514-1.373-4.04 0-1.527.488-2.962 1.373-4.041.886-1.08 2.063-1.674 3.315-1.674h24.617c.063 0 .105.065.079.123-1.575 3.466-1.575 7.717 0 11.183a.087.087 0 0 1-.08.123h-7.966a.087.087 0 0 1-.088-.088v-5.54c0-.048.04-.087.088-.087h3.663c.518 0 .937-.419.937-.936V6.65a.937.937 0 0 0-.937-.937H10.312a.937.937 0 0 0-.937.937v.984c0 .517.42.936.937.936h3.663c.048 0 .087.04.087.088v5.54c0 .048-.039.087-.087.087h-4.6c-1.252 0-2.43-.595-3.315-1.674zm31.596 23.102c0 .788-.525 1.429-1.172 1.429H35.4a.087.087 0 0 1-.088-.087v-8.397c0-.049.04-.088.088-.088h1.084c.647 0 1.172.641 1.172 1.429v5.714zm-4.774-10h-2.17a.087.087 0 0 1-.087-.087V17.23c0-.048.039-.087.087-.087h2.17c.048 0 .087.039.087.087v8.397c0 .048-.04.087-.087.087zM9.288 37.143h-2.17a.087.087 0 0 1-.087-.087v-8.397c0-.049.04-.088.087-.088h2.17c.048 0 .087.04.087.088v8.397c0 .048-.04.087-.087.087zm2.518-8.572h21.076c.048 0 .087.04.087.088v8.397c0 .048-.04.087-.087.087H11.806a.087.087 0 0 1-.087-.087v-8.397c0-.049.039-.088.087-.088zm25.85-10v5.715c0 .787-.525 1.428-1.172 1.428H35.4a.087.087 0 0 1-.088-.087V17.23c0-.048.04-.087.088-.087h1.084c.647 0 1.172.64 1.172 1.428zm-21.163-10h7.014c.048 0 .087.04.087.088v9.12a.087.087 0 0 1-.154.056l-3.373-4.044a.087.087 0 0 0-.134 0l-3.373 4.044a.087.087 0 0 1-.154-.056v-9.12c0-.049.04-.088.087-.088zm-7.118 8.572h4.6c.048 0 .087.039.087.087v6.314c0 .438.549.636.83.3l5.041-6.046a.087.087 0 0 1 .134 0l5.042 6.046c.28.336.828.138.828-.3V17.23c0-.048.04-.087.088-.087h2.169c.048 0 .087.039.087.087v8.397c0 .048-.039.087-.087.087H7.118a.087.087 0 0 1-.087-.087V17.23c0-.048.04-.087.087-.087h2.257zM2.344 35.714V30c0-.788.525-1.429 1.172-1.429H4.6c.048 0 .087.04.087.088v8.397c0 .048-.039.087-.087.087H3.516c-.647 0-1.172-.641-1.172-1.429zM3.516 40h32.968C38.423 40 40 38.077 40 35.714V30c0-1.073-.326-2.055-.862-2.808a.085.085 0 0 1 0-.099c.536-.752.862-1.734.862-2.807V18.57c0-.46-.06-.902-.171-1.318a.087.087 0 0 1 .084-.11c.048 0 .087-.04.087-.087v-2.084a.687.687 0 0 0-.687-.686H37.04a.088.088 0 0 1-.071-.037c-2.312-3.248-2.312-8.107 0-11.355a.088.088 0 0 1 .071-.037h2.274c.38 0 .687-.307.687-.686V.686A.686.686 0 0 0 39.313 0H9.375C7.497 0 5.731.892 4.403 2.51c-1.328 1.62-2.06 3.772-2.06 6.061 0 2.069.598 4.025 1.693 5.577.04.058 0 .138-.07.138h-.45C1.577 14.286 0 16.208 0 18.57v5.715c0 1.073.326 2.055.862 2.807.021.03.021.07 0 .1C.326 27.944 0 28.926 0 30v5.714C0 38.077 1.577 40 3.516 40z"/></symbol><symbol viewBox="0 0 40 40" id="rss" xmlns="http://www.w3.org/2000/svg"><path d="M14.4 39.47c-.931 0-1.69-.757-1.69-1.686a10.452 10.452 0 0 0-3.073-7.417 10.443 10.443 0 0 0-7.418-3.074c-.45 0-.875-.176-1.193-.495a1.69 1.69 0 0 1 1.195-2.88 13.792 13.792 0 0 1 9.803 4.061 13.804 13.804 0 0 1 4.062 9.8c0 .451-.174.875-.493 1.195-.318.319-.742.495-1.193.496m11.956.265a1.69 1.69 0 0 1-1.688-1.687c-.002-6.069-2.365-11.771-6.653-16.059a22.575 22.575 0 0 0-16.06-6.655c-.452 0-.876-.175-1.195-.494a1.69 1.69 0 0 1 1.195-2.881c6.968 0 13.52 2.715 18.448 7.642 4.925 4.926 7.638 11.476 7.64 18.444 0 .452-.175.876-.494 1.195-.318.32-.742.495-1.193.495"/><path d="M38.313 40c-.451 0-.876-.176-1.194-.494a1.675 1.675 0 0 1-.494-1.194c.002-9.33-3.632-18.102-10.232-24.702C19.79 7.01 11.018 3.375 1.688 3.375A1.69 1.69 0 0 1 0 1.688C0 .758.757 0 1.688 0 11.92 0 21.542 3.985 28.78 11.222 36.018 18.46 40.003 28.081 40 38.312A1.69 1.69 0 0 1 38.313 40M3.61 38.992a2.601 2.601 0 0 1-2.599-2.598 2.601 2.601 0 0 1 2.599-2.599 2.601 2.601 0 0 1 2.598 2.599 2.601 2.601 0 0 1-2.598 2.598"/></symbol><symbol viewBox="0 0 40 40" id="short_messages" xmlns="http://www.w3.org/2000/svg"><path d="M3.536.11a1.26 1.26 0 0 0-1.654.612A20.417 20.417 0 0 0 0 9.32c0 2.83.57 5.579 1.692 8.171.27.624 1.004.914 1.64.65.635-.266.93-.987.66-1.61A18.04 18.04 0 0 1 2.5 9.319c0-2.64.559-5.193 1.66-7.586A1.218 1.218 0 0 0 3.536.109m33.133 18.03a1.259 1.259 0 0 0 1.64-.649A20.444 20.444 0 0 0 40 9.319c0-2.991-.633-5.884-1.882-8.597A1.26 1.26 0 0 0 36.464.11a1.218 1.218 0 0 0-.624 1.624 18.017 18.017 0 0 1 1.66 7.586c0 2.498-.502 4.924-1.492 7.21-.27.624.025 1.345.66 1.61m-4.41-2.296a1.258 1.258 0 0 0 1.62-.697c.74-1.86 1.115-3.82 1.115-5.827 0-2.317-.522-4.647-1.511-6.736a1.26 1.26 0 0 0-1.66-.596 1.218 1.218 0 0 0-.608 1.63 13.413 13.413 0 0 1 1.28 5.702c0 1.7-.318 3.36-.945 4.934a1.22 1.22 0 0 0 .709 1.59M8.178 1.987a1.26 1.26 0 0 0-1.66.596 15.846 15.846 0 0 0-1.511 6.736c0 2.006.375 3.967 1.116 5.827.251.632.977.943 1.62.696a1.22 1.22 0 0 0 .708-1.59 13.281 13.281 0 0 1-.944-4.933c0-1.963.442-3.934 1.279-5.702.29-.615.019-1.345-.607-1.63m4.208 1.7a1.258 1.258 0 0 0-1.633.665A9.586 9.586 0 0 0 10 8.092c0 1.599.403 3.188 1.164 4.595a1.262 1.262 0 0 0 1.69.507c.61-.318.842-1.061.518-1.66a7.253 7.253 0 0 1-.872-3.442c0-.97.19-1.913.564-2.802a1.22 1.22 0 0 0-.677-1.603m14.758 9.507c.61.318 1.367.09 1.69-.507A9.68 9.68 0 0 0 30 8.092a9.588 9.588 0 0 0-.754-3.74 1.258 1.258 0 0 0-1.633-.665 1.22 1.22 0 0 0-.677 1.603c.374.889.564 1.832.564 2.802 0 1.199-.302 2.39-.872 3.443a1.216 1.216 0 0 0 .517 1.66"/><path d="M9.177 35.77a1.246 1.246 0 0 1 1.118-.679h19.41c.476 0 .905.26 1.118.678l.904 1.776H8.273l.904-1.776zM20 13c.428 0 .844-.053 1.24-.153l1.496 5.063h-5.472l1.495-5.063c.397.1.813.154 1.241.154zm0-7.363c1.378 0 2.5 1.101 2.5 2.455 0 1.353-1.122 2.454-2.5 2.454s-2.5-1.101-2.5-2.454c0-1.354 1.122-2.455 2.5-2.455zm.007 23.97l4.62 3.03h-9.249l4.629-3.03zm-5.193-3.404l2.941 1.928-4.351 2.848 1.41-4.776zm9.645-2.46l-4.451 2.914-4.463-2.927.994-3.366h6.922l.998 3.38zm2.136 7.232l-4.335-2.842 2.93-1.918 1.405 4.76zM5.187 39.418c.227.362.63.582 1.063.582h27.5c.433 0 .836-.22 1.063-.582.228-.362.249-.814.055-1.194l-1.809-3.552a3.737 3.737 0 0 0-3.354-2.035h-.016l-6.21-21.024A4.85 4.85 0 0 0 25 8.092c0-2.707-2.243-4.91-5-4.91s-5 2.203-5 4.91c0 1.38.584 2.628 1.521 3.52l-6.21 21.025h-.016c-1.43 0-2.715.78-3.354 2.035l-1.809 3.552c-.194.38-.173.832.055 1.194z"/></symbol><symbol viewBox="0 0 40 40" id="tools" xmlns="http://www.w3.org/2000/svg"><path d="M28.43 24.163c-.31.316-.45.77-.378 1.217l1.755 10.733-9.197-5.066a1.258 1.258 0 0 0-1.22 0l-9.197 5.066 1.755-10.733c.073-.446-.068-.901-.378-1.217l-7.439-7.599 10.282-1.566c.427-.065.796-.347.988-.752L20 4.48l4.598 9.765c.192.405.56.687.988.752l10.282 1.566-7.44 7.6zm11.506-8.984a1.33 1.33 0 0 0-1.06-.935L26.648 12.38 21.177.766A1.307 1.307 0 0 0 20 0c-.5 0-.955.297-1.176.766l-5.471 11.615-12.23 1.863a1.33 1.33 0 0 0-1.059.935 1.42 1.42 0 0 0 .332 1.41l8.85 9.039-2.088 12.765a1.406 1.406 0 0 0 .522 1.344c.404.308.94.349 1.381.105L20 33.817l10.939 6.025c.444.245.98.201 1.381-.105.404-.307.607-.828.522-1.344l-2.087-12.765 8.849-9.04a1.42 1.42 0 0 0 .332-1.409z"/></symbol><symbol viewBox="0 0 40 40" id="top" xmlns="http://www.w3.org/2000/svg"><path d="M12.601 37.656l5.735-10.486 1.945 2.863a1.172 1.172 0 0 0 1.906.045l2.579-3.437 2.578 3.437a1.172 1.172 0 0 0 1.907-.045l1.922-2.83 5.684 10.453H12.6zm-1.97-12.968l3.293 5.664-3.994 7.304H3.195l7.437-12.968zM29.797 5.516l1.515 1.515h-5.374V2.344h5.374l-1.515 1.515a1.172 1.172 0 0 0 0 1.657zm-5.033 9.9l5.15 9.471-1.679 2.472-2.531-3.375a1.172 1.172 0 0 0-1.875 0l-2.53 3.375-1.699-2.5 5.164-9.443zm1.174-2.745V9.375h8.204a1.172 1.172 0 0 0 .828-2l-2.687-2.688L34.97 2a1.172 1.172 0 0 0-.828-2h-9.375c-.648 0-1.172.525-1.172 1.172v11.497l-8.356 15.28-3.6-6.194a1.172 1.172 0 0 0-1.013-.583h-.003a1.172 1.172 0 0 0-1.014.589L.155 38.245A1.172 1.172 0 0 0 1.172 40h37.656a1.172 1.172 0 0 0 1.03-1.732l-13.92-25.597z"/></symbol><symbol viewBox="0 0 40 40" id="twitter" xmlns="http://www.w3.org/2000/svg"><path d="M6.595 35.828c2.353.791 5.6 1.486 9.23 1.574 4.253.103 10.177-.627 14.244-4.694 6.997-6.997 5.92-14.42 5.566-16.86-.11-.765-.166-1.149.102-1.582l.8-1.29-1.737.151a1.192 1.192 0 0 1-1.172-1.718l1.29-2.6-2.464 1.206a1.193 1.193 0 0 1-1.167-.066c-2.297-1.468-5.338-1.183-7.396.691-1.984 1.808-2.866 4.772-2.248 7.553a1.193 1.193 0 0 1-1.192 1.452c-3.596-.085-7.069-1.115-10.045-2.98-2.326-1.457-4.357-3.429-5.96-5.77-.488 1.947.082 4.224 1.607 5.804a1.193 1.193 0 0 1-.597 1.993c-.908.203-1.759.17-2.542.033 1.226 2.884 3.884 4.176 6.087 4.754a1.193 1.193 0 0 1 .357 2.148c-.714.474-1.462.87-2.238 1.188 2.692 1.856 6.11 2.432 7.247 2.577a1.193 1.193 0 0 1 .728 1.988c-1.803 1.972-3.674 3.211-5.89 3.9-.804.25-1.655.43-2.61.548m9.972 3.969c-.272 0-.54-.004-.8-.01-6.616-.16-12.909-2.308-14.636-4.211a1.193 1.193 0 0 1 .925-1.994c4.143.142 6.994-.204 9.636-2.273-2.323-.571-5.594-1.762-7.858-4.182a1.193 1.193 0 0 1 .627-1.983c.425-.089.843-.204 1.252-.347C2.57 23.245.58 20.621.016 17.208a1.193 1.193 0 0 1 1.555-1.325c.463.154.88.288 1.272.388-1.423-2.766-1.295-6.128.52-8.58a1.193 1.193 0 0 1 2.007.143c2.927 5.406 7.875 8.753 13.721 9.338-.22-3.124.957-6.258 3.193-8.295 2.68-2.441 6.575-2.93 9.692-1.284l5.046-2.471a1.193 1.193 0 0 1 1.594 1.6l-1.907 3.844 1.995-.174a1.193 1.193 0 0 1 1.117 1.818l-1.866 3.007.041.29c.191 1.316.589 4.056-.04 7.478-.779 4.236-2.865 8.075-6.2 11.41-4.406 4.406-10.544 5.402-15.189 5.402"/></symbol><symbol viewBox="0 0 40 40" id="user" xmlns="http://www.w3.org/2000/svg"><path d="M16.406 23.516c0-2.585 2.138-4.688 4.766-4.688a4.693 4.693 0 0 1 4.687 4.688h-9.453zm2.344-9.375c0-1.27 1.11-2.344 2.422-2.344a2.346 2.346 0 0 1 2.344 2.344 2.346 2.346 0 0 1-2.344 2.343c-1.313 0-2.422-1.073-2.422-2.343zm5.822 3.222a4.67 4.67 0 0 0 1.287-3.222 4.693 4.693 0 0 0-4.687-4.688c-2.58 0-4.766 2.085-4.766 4.688 0 1.209.472 2.35 1.328 3.228a7.207 7.207 0 0 0-1.565 1.167 6.935 6.935 0 0 0-2.107 4.98v1.171c0 .648.525 1.172 1.172 1.172h11.797c.647 0 1.172-.524 1.172-1.172v-1.171a7.037 7.037 0 0 0-3.631-6.153z"/><path d="M35 4.687v31.797C35 38.423 33.437 40 31.515 40H3.485C1.563 40 0 38.423 0 36.484V3.516C0 1.577 1.563 0 3.485 0h28.03C33.437 0 35 1.577 35 3.516v1.171zm-2.031 31.797V3.516c0-.647-.526-1.172-1.172-1.172H9.375v2.343h1.172a1.172 1.172 0 0 1 0 2.344H9.375v7.11h1.172a1.172 1.172 0 0 1 0 2.343H9.375v7.032h1.172a1.172 1.172 0 0 1 0 2.343H9.375v7.11h1.172a1.172 1.172 0 0 1 0 2.343H9.375v2.344h22.422c.646 0 1.172-.525 1.172-1.172zm-30.625 0c0 .647.525 1.172 1.172 1.172H7.03v-2.344H5.86a1.172 1.172 0 0 1 0-2.343h1.172v-7.11H5.86a1.172 1.172 0 0 1 0-2.343h1.172v-7.032H5.86a1.172 1.172 0 0 1 0-2.343h1.172V7.03H5.86a1.172 1.172 0 0 1 0-2.344h1.172V2.344H3.516c-.647 0-1.172.525-1.172 1.172v32.968z"/><path d="M26.969 28H15.172a1.172 1.172 0 0 0 0 2.344h11.797a1.172 1.172 0 0 0 0-2.344m6.58-23C33.246 5 33 5.448 33 6s.246 1 .55 1h5.021c.929 0 .929-1.12.929-1 0 .12 0-1-.929-1H33.55zm.043 10c-.327 0-.592.448-.592 1s.265 1 .592 1H39c1 0 1-1.12 1-1 0 .12 0-1-1-1h-5.408zm0 9c-.327 0-.592.448-.592 1s.265 1 .592 1H39c1 0 1-1.12 1-1 0 .12 0-1-1-1h-5.408zm-.043 10c-.303 0-.549.448-.549 1s.246 1 .55 1h5.021c.929 0 .929-1.12.929-1 0 .12 0-1-.929-1H33.55z"/><path d="M38 6.069C38 5 39 5 39 5s1 0 1 1.41V35c0 .667-.333 1-1 1s-1-.333-1-1V6.069z"/></symbol><symbol viewBox="0 0 40 40" id="video" xmlns="http://www.w3.org/2000/svg"><path d="M38 35.604l-5.965-3.39v-8.22L38 20.603v15zm-.004-17.652l-5.946 3.471a.01.01 0 0 1-.015-.008v-1.02c0-2.173-1.787-3.933-3.992-3.933H21.25a.01.01 0 0 1-.01-.01v-3.817c0-.727.599-1.317 1.337-1.317h4.371a.01.01 0 0 1 .01.006c.549 1.519 2.023 2.522 3.751 2.522h5.226c2.32 0 4.194-1.87 4.06-4.152C39.871 7.637 38.134 6 36.017 6h-5.31a3.985 3.985 0 0 0-3.752 2.61.01.01 0 0 1-.009.005h-4.371c-2.205 0-3.992 1.761-3.992 3.933v3.904a.01.01 0 0 1-.01.01H15.94a.01.01 0 0 1-.01-.01v-1.289c0-2.172-1.787-3.932-3.992-3.932h-5.29c-2.205 0-3.992 1.76-3.992 3.932v1.517c0 .003-.003.006-.006.007C1.106 17.227 0 18.68 0 20.385v10.461c0 .082.003.162.008.242l-.008.3v4.68C0 38.238 1.787 40 3.992 40h24.051c2.205 0 3.992-1.76 3.992-3.933v-1.02c0-.008.009-.012.015-.009l5.946 3.472c.882.515 2.004-.111 2.004-1.125V19.077c0-1.011-1.12-1.641-2.004-1.125zm-8.341 18.69A1.35 1.35 0 0 1 28.314 38H3.996a1.35 1.35 0 0 1-1.341-1.357V20.357A1.35 1.35 0 0 1 3.996 19h24.318c.74 0 1.34.609 1.34 1.357v16.286zM6.5 13.054h6c.827 0 1.5.78 1.5 1.906V17H5v-2.041c0-1.126.673-1.906 1.5-1.906zM30.5 8h6c.827 0 1.5.78 1.5 1.905 0 1.126-.673 2.042-1.5 2.042h-6c-.827 0-1.5-.916-1.5-2.042C29 8.78 29.673 8 30.5 8z"/><path d="M25.849 23H16.15a1.151 1.151 0 1 0 0 2.3h9.698a1.151 1.151 0 1 0 0-2.3m0 10H16.15a1.151 1.151 0 1 0 0 2.3h9.698a1.151 1.151 0 1 0 0-2.3"/><path d="M17.15 24.357c0-.666-.515-1.207-1.15-1.207-.635 0-1.15.54-1.15 1.207v9.793c0 .666.515 1 1.15 1 .635 0 1.15-.334 1.15-1v-9.793zM27.15 24.357c0-.666-.515-1.207-1.15-1.207-.635 0-1.15.54-1.15 1.207v9.793c0 .666.515 1 1.15 1 .635 0 1.15-.334 1.15-1v-9.793zM6 28c-1 0-1 1.15-1 1.15s0 1.15 1 1.15h2.982C10 30.3 10 29.15 10 29.15S10 28 8.982 28H6zm0 5c-1 0-1 1.15-1 1.15s0 1.15 1 1.15h2.982C10 35.3 10 34.15 10 34.15S10 33 8.982 33H6z"/></symbol></svg>