<?xml version="1.0" encoding="utf-8"?><svg xmlns="http://www.w3.org/2000/svg" xmlns:xlink="http://www.w3.org/1999/xlink"><symbol viewBox="0 0 15 10" id="anchor" xmlns="http://www.w3.org/2000/svg"><path d="M6.917 9.735L.24 2.4a.97.97 0 0 1 0-1.28l.78-.856A.773.773 0 0 1 2.184.264L7.5 6.076 12.815.264a.773.773 0 0 1 1.165.002l.779.855a.97.97 0 0 1 0 1.28L8.083 9.736a.773.773 0 0 1-1.166 0"/></symbol><symbol viewBox="0 0 18 27" id="arrow" xmlns="http://www.w3.org/2000/svg"><path d="M17.402 12.45L4.292.435a1.725 1.725 0 0 0-2.289 0L.474 1.836a1.398 1.398 0 0 0-.003 2.096l10.39 9.568L.472 23.068c-.63.58-.629 1.517.003 2.096l1.529 1.401c.632.58 1.657.58 2.29 0L17.401 14.55c.632-.58.632-1.52 0-2.099"/></symbol><symbol viewBox="0 0 15 12" id="arrow-back" xmlns="http://www.w3.org/2000/svg"><defs><path id="ca" d="M5.364.17L.188 4.882a.545.545 0 0 0 0 .823l5.176 4.712a.684.684 0 0 0 .905 0l.603-.549a.545.545 0 0 0 0-.822L2.771 5.294l4.103-3.752A.546.546 0 0 0 6.872.72L6.27.17A.673.673 0 0 0 5.816 0a.677.677 0 0 0-.452.17z"/></defs><use xlink:href="#ca"/><path d="M14.999 7.016C14.993 5.352 13.814 4 12.365 4h-4.86A.505.505 0 0 0 7 4.505v.947c0 .279.226.505.505.505h4.86c.32 0 .678.459.678 1.072v4.466c0 .278.226.505.505.505h.947a.505.505 0 0 0 .505-.505V7.016h-.001z"/></symbol><symbol viewBox="0 0 17 17" id="close" xmlns="http://www.w3.org/2000/svg"><path d="M16.69.311a1.053 1.053 0 0 0-1.495 0L8.5 7.006 1.805.31a1.053 1.053 0 0 0-1.494 0 1.052 1.052 0 0 0 0 1.494l6.695 6.694-6.695 6.694a1.052 1.052 0 0 0 0 1.494c.203.204.477.313.743.313s.54-.102.743-.313l6.695-6.694 6.696 6.694c.203.204.477.313.742.313.274 0 .54-.102.744-.313a1.052 1.052 0 0 0 0-1.494L9.994 8.5l6.695-6.694a1.053 1.053 0 0 0 0-1.494"/></symbol><symbol viewBox="0 0 36 36" id="copyright" xmlns="http://www.w3.org/2000/svg"><path opacity=".85" style="mix-blend-mode:multiply" d="M0 0h36v36H0z"/><path d="M21.883 13.424l-1.285 1.696c-.763-.586-1.436-.803-2.263-.803-1.406 0-2.506 1.017-2.506 3.668 0 2.558 1.008 3.637 2.476 3.637 1.009 0 1.743-.34 2.509-.957l1.191 1.758c-.979.893-2.232 1.54-3.882 1.54-3.12 0-5.23-2.126-5.23-5.978 0-3.791 2.294-5.979 5.198-5.979 1.56 0 2.752.524 3.792 1.418m-11.497 4.591c0 4.716 3.27 7.889 7.645 7.889 4.34 0 7.613-3.173 7.613-7.889 0-4.715-3.272-7.95-7.613-7.95-4.374 0-7.645 3.235-7.645 7.95m17.614 0C28 23.87 23.566 28 18.03 28 12.497 28 8 23.87 8 18.015 8 12.129 12.496 8 18.03 8 23.567 8 28 12.13 28 18.015"/></symbol><symbol viewBox="0 0 10 20" id="facebook" xmlns="http://www.w3.org/2000/svg"><path d="M2.905 20v-8.945H0V7.5h2.905V4.7c0-3.044 1.803-4.7 4.436-4.7C8.602 0 9.686.098 10 .14v3.18H8.174c-1.432 0-1.708.703-1.708 1.73V7.5h3.231l-.443 3.555H6.466V20"/></symbol><symbol viewBox="0 0 25 25" id="feedback" xmlns="http://www.w3.org/2000/svg"><path d="M22.196 4.876l-2.072-2.072 1.036-1.036 2.072 2.072-1.036 1.036zm-4.52 13.434a.733.733 0 0 1-.733.733H8.105a.732.732 0 0 0-.523.22l-3.139 3.208v-2.696a.733.733 0 0 0-.732-.732H2.197a.733.733 0 0 1-.732-.733V8.057c0-.404.329-.733.732-.733h11.336L11.32 9.537a.75.75 0 0 0-.162.245l-2.027 4.866H5.176a.732.732 0 0 0 0 1.465h4.443c.095 0 .196-.02.288-.06l5.311-2.211a.742.742 0 0 0 .245-.162l2.213-2.213v6.843zm-5.582-6.964l1.56 1.56-2.675 1.115 1.115-2.675zm2.851.78l-2.071-2.071 6.215-6.215L21.16 5.91l-6.215 6.215zM21.678.215a.732.732 0 0 0-1.036 0l-5.644 5.644h-12.8A2.2 2.2 0 0 0 0 8.057V18.31a2.2 2.2 0 0 0 2.197 2.198h.782v3.76a.732.732 0 0 0 1.256.512l4.178-4.272h8.53a2.2 2.2 0 0 0 2.198-2.198v-8.307l5.645-5.645a.733.733 0 0 0 0-1.036L21.678.215z"/></symbol><symbol viewBox="0 0 21 40" id="follow_facebook" xmlns="http://www.w3.org/2000/svg"><path d="M2.088 20.01h4.176c.575 0 1.044.468 1.044 1.044v16.675h3.132V21.054c0-.576.468-1.044 1.044-1.044h5.71l.782-3.132h-6.492a1.045 1.045 0 0 1-1.044-1.044v-6.96a3.658 3.658 0 0 1 3.654-3.654h4.176V2.088h-4.176a6.793 6.793 0 0 0-6.786 6.786v6.96c0 .575-.469 1.044-1.044 1.044H2.088v3.132zm4.176 19.662a1.045 1.045 0 0 1-1.044-1.044v-16.54H1.044A1.045 1.045 0 0 1 0 21.046v-5.211c0-.576.468-1.044 1.044-1.044H5.22V8.874C5.22 3.98 9.2 0 14.094 0h5.22c.575 0 1.043.468 1.043 1.044v5.22c0 .576-.468 1.044-1.044 1.044h-5.22c-.863 0-1.565.702-1.565 1.566v5.916h6.785c.324 0 .624.146.823.402.2.255.269.581.19.895l-1.305 5.22c-.116.465-.533.79-1.012.79h-5.481v16.53c0 .576-.469 1.045-1.044 1.045h-5.22z"/></symbol><symbol viewBox="0 0 40 30" id="follow_youtube" xmlns="http://www.w3.org/2000/svg"><path d="M17.105 20.25l7.768-5.122-7.768-5.12v10.241zm-1.052 3.007A1.055 1.055 0 0 1 15 22.204V8.053a1.052 1.052 0 0 1 1.631-.88l10.732 7.075a1.05 1.05 0 0 1 0 1.758l-10.732 7.077a1.044 1.044 0 0 1-.578.174z"/><path d="M6.827 2.529c-2.43 0-4.406 2.065-4.406 4.603v15.736c0 2.538 1.977 4.603 4.406 4.603h26.346c2.43 0 4.406-2.065 4.406-4.603V7.132c0-2.538-1.977-4.603-4.406-4.603H6.827zm0 27.471C3.063 30 0 26.8 0 22.868V7.133C0 3.2 3.063 0 6.827 0h26.346C36.937 0 40 3.2 40 7.133v15.735C40 26.8 36.937 30 33.173 30H6.827z"/></symbol><symbol viewBox="0 0 30 20" id="google" xmlns="http://www.w3.org/2000/svg"><path d="M27.279 8.903V6h-2.735v2.903h-2.721v2.916h2.721v2.903h2.735V11.82H30V8.903h-2.721zm-9.053-.335c.09.504.153 1.01.153 1.664 0 5.716-3.594 9.768-9.004 9.768C4.195 20 0 15.525 0 10S4.195 0 9.375 0c2.532 0 4.643.982 6.28 2.62L13.11 5.224c-.691-.71-1.906-1.542-3.735-1.542-3.197 0-5.807 2.825-5.807 6.317s2.61 6.317 5.807 6.317c3.709 0 5.103-2.852 5.32-4.312h-5.32V8.567h8.85z"/></symbol><symbol viewBox="0 0 20 20" id="linkedin" xmlns="http://www.w3.org/2000/svg"><path d="M17.996 18h-3.724v-5.85c0-1.394-.028-3.182-1.94-3.182-1.94 0-2.237 1.515-2.237 3.082V18H6.367V5.983h3.579v1.639h.052c.498-.944 1.715-1.94 3.531-1.94 3.776 0 4.471 2.486 4.471 5.717V18h-.004zM2.161 4.343C.968 4.343 0 3.355 0 2.162a2.162 2.162 0 0 1 4.322 0c0 1.193-.968 2.181-2.16 2.181zM.297 18H4.03V5.983H.297V18z"/></symbol><symbol viewBox="0 0 20 20" id="lupe" xmlns="http://www.w3.org/2000/svg"><path d="M8.126 13.126c-2.762 0-5-2.235-5-5 0-2.762 2.234-5 5-5 2.762 0 5 2.234 5 5 0 2.762-2.235 5-5 5m11.602 4.168L15.833 13.4a.937.937 0 0 0-.664-.273h-.637a8.086 8.086 0 0 0 1.72-5A8.124 8.124 0 0 0 8.125 0 8.124 8.124 0 0 0 0 8.126a8.124 8.124 0 0 0 8.126 8.125c1.886 0 3.621-.64 5-1.719v.637c0 .25.098.488.273.664l3.895 3.895a.934.934 0 0 0 1.325 0l1.105-1.106a.942.942 0 0 0 .004-1.328"/></symbol><symbol viewBox="0 0 40 40" id="newsletter" xmlns="http://www.w3.org/2000/svg"><path d="M36.413 37.656H3.51c-.645 0-1.17-.525-1.17-1.172V17.73l16.922 12.663a1.166 1.166 0 0 0 1.4 0l16.922-12.663v18.755c0 .647-.525 1.172-1.17 1.172zM7.096 12.446v5.917l-3.968-2.97 3.968-2.947zM30.487 2.344v17.77L19.961 27.99 9.435 20.113V2.343h21.052zm6.307 13.05l-3.967 2.969v-5.917l3.967 2.948zm3.127-.015a1.174 1.174 0 0 0-.454-.914l-.018-.016-6.622-4.922V1.172A1.17 1.17 0 0 0 31.657 0H8.265a1.17 1.17 0 0 0-1.17 1.172v8.355L.474 14.45a1.179 1.179 0 0 0-.472.93l-.001.01v21.095A3.516 3.516 0 0 0 3.509 40h32.904a3.516 3.516 0 0 0 3.51-3.516V15.391l-.001-.001v-.001-.01z"/><path d="M12.944 9.531h14.035a1.17 1.17 0 0 0 1.17-1.172 1.17 1.17 0 0 0-1.17-1.171H12.944a1.17 1.17 0 0 0 0 2.343m0 4.688h14.035a1.17 1.17 0 0 0 1.17-1.172 1.17 1.17 0 0 0-1.17-1.172H12.944a1.17 1.17 0 0 0 0 2.344m0 4.687h7.017a1.17 1.17 0 0 0 1.17-1.172 1.17 1.17 0 0 0-1.17-1.171h-7.017a1.17 1.17 0 0 0 0 2.343"/></symbol><symbol viewBox="0 0 17 17" id="open" xmlns="http://www.w3.org/2000/svg"><defs><path id="na" d="M7.949.224a.752.752 0 0 0-.224.548v6.949H.772a.78.78 0 0 0-.548.224.751.751 0 0 0-.224.547c0 .431.345.776.776.776l6.944.008v6.949c0 .43.345.775.775.775a.773.773 0 0 0 .776-.775l.001-6.949h6.953c.43 0 .775-.347.775-.776a.773.773 0 0 0-.775-.776H9.272V.775A.777.777 0 1 0 7.949.224z"/></defs><use xlink:href="#na"/></symbol><symbol viewBox="0 0 17 17" id="plus" xmlns="http://www.w3.org/2000/svg"><path id="oa" d="M7.949.224a.752.752 0 0 0-.224.548v6.949H.772a.78.78 0 0 0-.548.224.751.751 0 0 0-.224.547c0 .431.345.776.776.776l6.944.008v6.949c0 .43.345.775.775.775a.773.773 0 0 0 .776-.775l.001-6.949h6.953c.43 0 .775-.347.775-.776a.773.773 0 0 0-.775-.776H9.272V.775A.777.777 0 1 0 7.949.224z"/><use xlink:href="#oa"/></symbol><symbol viewBox="0 0 25 25" id="print" xmlns="http://www.w3.org/2000/svg"><path d="M17.713 13.538c.482 0 .873.401.873.895 0 .495-.391.896-.873.896a.884.884 0 0 1-.873-.896c0-.494.39-.895.873-.895m2.446 0c.482 0 .873.401.873.895 0 .495-.39.896-.873.896a.884.884 0 0 1-.873-.896c0-.494.391-.895.873-.895"/><path d="M6.337 9.539h12.326v-8.03H6.337v8.03zM2.52 6.518c-.583 0-1.059.485-1.059 1.081v10.512c0 .596.476 1.081 1.06 1.081h19.958c.584 0 1.06-.485 1.06-1.08V7.598c0-.596-.476-1.081-1.06-1.081h-2.354v3.02h.694c.403 0 .73.34.73.756a.744.744 0 0 1-.73.754H4.18a.744.744 0 0 1-.73-.754c0-.416.327-.755.73-.755h.694V6.518H2.52zM6.336 23.49h12.328v-2.788H6.336v2.788zM5.606 25a.744.744 0 0 1-.731-.755v-3.543H2.52c-1.39 0-2.52-1.162-2.52-2.59V7.598c0-1.428 1.13-2.59 2.52-2.59h2.355V.754c0-.416.328-.755.731-.755h13.788c.403 0 .73.339.73.755v4.253h2.355C23.87 5.008 25 6.171 25 7.6v10.512c0 1.429-1.13 2.591-2.52 2.591h-2.355v3.543a.744.744 0 0 1-.73.755H5.604z"/></symbol><symbol viewBox="0 0 107 57" id="quote" xmlns="http://www.w3.org/2000/svg"><path d="M42.702 57v-8c2.522-1.37 4.414-3.837 5.677-7.405 1.26-3.568 1.892-8.27 1.892-14.108V25H39.999V1h24v17.945c0 10.882-1.783 19.496-5.35 25.838C55.08 51.124 49.765 55.197 42.702 57m-40 0v-8c2.523-1.37 4.415-3.837 5.677-7.405 1.26-3.568 1.89-8.27 1.89-14.108V25H0V1h24v17.945c0 10.882-1.782 19.496-5.35 25.838C15.08 51.124 9.765 55.197 2.703 57M79 13.39h28v-1H79z"/></symbol><symbol viewBox="0 0 40 40" id="rss" xmlns="http://www.w3.org/2000/svg"><path d="M14.4 39.47c-.931 0-1.69-.757-1.69-1.686a10.452 10.452 0 0 0-3.073-7.417 10.443 10.443 0 0 0-7.418-3.074c-.45 0-.875-.176-1.193-.495a1.69 1.69 0 0 1 1.195-2.88 13.792 13.792 0 0 1 9.803 4.061 13.804 13.804 0 0 1 4.062 9.8c0 .451-.174.875-.493 1.195-.318.319-.742.495-1.193.496m11.956.265a1.69 1.69 0 0 1-1.688-1.687c-.002-6.069-2.365-11.771-6.653-16.059a22.575 22.575 0 0 0-16.06-6.655c-.452 0-.876-.175-1.195-.494a1.69 1.69 0 0 1 1.195-2.881c6.968 0 13.52 2.715 18.448 7.642 4.925 4.926 7.638 11.476 7.64 18.444 0 .452-.175.876-.494 1.195-.318.32-.742.495-1.193.495"/><path d="M38.313 40c-.451 0-.876-.176-1.194-.494a1.675 1.675 0 0 1-.494-1.194c.002-9.33-3.632-18.102-10.232-24.702C19.79 7.01 11.018 3.375 1.688 3.375A1.69 1.69 0 0 1 0 1.688C0 .758.757 0 1.688 0 11.92 0 21.542 3.985 28.78 11.222 36.018 18.46 40.003 28.081 40 38.312A1.69 1.69 0 0 1 38.313 40M3.61 38.992a2.601 2.601 0 0 1-2.599-2.598 2.601 2.601 0 0 1 2.599-2.599 2.601 2.601 0 0 1 2.598 2.599 2.601 2.601 0 0 1-2.598 2.598"/></symbol><symbol viewBox="0 0 30 30" id="tools" xmlns="http://www.w3.org/2000/svg"><path d="M21.322 18.122a1.062 1.062 0 0 0-.283.913l1.316 8.05-6.897-3.8a.944.944 0 0 0-.916 0l-6.897 3.8 1.316-8.05a1.062 1.062 0 0 0-.283-.913l-5.58-5.699 7.712-1.175a.989.989 0 0 0 .74-.564L15 3.361l3.45 7.323c.143.305.42.515.74.564l7.712 1.175-5.58 5.7zm8.63-6.737a.998.998 0 0 0-.794-.702l-9.173-1.398-4.103-8.71A.98.98 0 0 0 15 0a.98.98 0 0 0-.882.575l-4.103 8.71-9.173 1.398a.998.998 0 0 0-.794.702c-.116.373-.019.783.25 1.057l6.636 6.779-1.566 9.574c-.063.387.089.777.392 1.008a.947.947 0 0 0 1.036.079L15 25.362l8.204 4.52a.946.946 0 0 0 1.036-.079c.303-.23.455-.621.391-1.008l-1.565-9.574 6.637-6.78c.268-.273.365-.683.249-1.056z"/></symbol><symbol viewBox="0 0 26 20" id="tooltip" xmlns="http://www.w3.org/2000/svg"><path d="M6 0h20v20H6zM0 10l6-3v6z"/><path stroke="#FFF" stroke-width=".25" d="M17.2 14.8c0 .639-.533 1.2-1.208 1.2a1.2 1.2 0 0 1 0-2.4c.659 0 1.208.545 1.208 1.2"/><path d="M19.6 6.465c0 1.405-1.327 2.421-1.748 2.735-.859.642-.874 1.09-.874 1.867 0 .284-.157.613-.921.613-.64 0-.859-.224-.859-1.001 0-1.285.593-1.898 1.046-2.271.515-.419 1.39-.882 1.39-1.689 0-.687-.625-1.016-1.406-1.016-1.592 0-1.249 1.15-2.091 1.15-.422 0-.937-.268-.937-.85 0-.808.968-2.003 3.075-2.003C18.273 4 19.6 5.06 19.6 6.465"/></symbol><symbol viewBox="0 0 24 20" id="twitter" xmlns="http://www.w3.org/2000/svg"><path d="M19.739 5.486c.014.197.014.394.014.59C19.753 12.082 15.216 19 6.923 19 4.37 19 1.997 18.255 0 16.961a9.27 9.27 0 0 0 1.089.056 8.988 8.988 0 0 0 5.598-1.94 4.521 4.521 0 0 1-4.216-3.15c.279.042.558.07.851.07.405 0 .81-.056 1.187-.155A4.535 4.535 0 0 1 .893 7.384v-.056c.6.338 1.299.549 2.038.577a4.548 4.548 0 0 1-2.01-3.783c0-.844.224-1.617.614-2.292a12.786 12.786 0 0 0 9.297 4.753 5.164 5.164 0 0 1-.111-1.04C10.72 3.038 12.73 1 15.23 1c1.298 0 2.47.548 3.294 1.434a8.838 8.838 0 0 0 2.862-1.096 4.524 4.524 0 0 1-1.982 2.503A8.987 8.987 0 0 0 22 3.138a9.732 9.732 0 0 1-2.261 2.348"/></symbol><symbol viewBox="0 0 20 20" id="xing" xmlns="http://www.w3.org/2000/svg"><path d="M18.075.63L11.648 11.92v.014l4.089 7.436c.174.317.009.629-.38.629h-2.91c-.339 0-.607-.179-.803-.545l-4.124-7.52c.147-.259 2.298-4.053 6.463-11.39.205-.362.464-.545.78-.545h2.933c.357 0 .549.299.38.63zM8.261 7.944c-.08.147-1.125 1.981-3.13 5.512-.218.37-.481.558-.79.558H1.437c-.343 0-.54-.335-.38-.643l3.08-5.414c.01 0 .01-.004 0-.013L2.178 4.57c-.192-.348.014-.629.38-.629h2.905c.326 0 .594.183.804.545L8.26 7.945z"/></symbol></svg>