<?xml version="1.0" encoding="utf-8"?><svg xmlns="http://www.w3.org/2000/svg" xmlns:xlink="http://www.w3.org/1999/xlink"><symbol viewBox="0 0 22 22" id="contact" xmlns="http://www.w3.org/2000/svg"><path d="M9.71 13.28h5.157c.356 0 .645.308.645.689 0 .38-.289.689-.645.689H9.711c-.356 0-.645-.308-.645-.69 0-.38.289-.688.645-.688m0-3.816h9.023c.357 0 .645.308.645.689 0 .38-.288.689-.645.689H9.711c-.356 0-.645-.309-.645-.69 0-.38.289-.688.645-.688m-3.223-1.88v9.593c0 1.14.868 2.067 1.934 2.067h6.25l3.705 2.64a.61.61 0 0 0 .661.035c.21-.12.34-.354.34-.608v-2.067h.645c1.067 0 1.977-.927 1.977-2.067V7.583c0-1.14-.91-2.066-1.977-2.066H8.422c-1.066 0-1.934.927-1.934 2.066"/><path d="M1.934 13.733h.644v2.066c0 .255.131.488.34.608a.61.61 0 0 0 .662-.034L5.2 15.25V7.579c0-1.9 1.445-3.445 3.222-3.445h7.09V2.067C15.512.927 14.644 0 13.578 0H1.934C.867 0 0 .927 0 2.067v9.599c0 1.14.867 2.067 1.934 2.067"/></symbol><symbol viewBox="0 0 22 22" id="easy-language" xmlns="http://www.w3.org/2000/svg"><path d="M1 3.797l9.412 6.842v11.158L1 14.955V3.797zm1.176 2.28v2.029l7.06 5.139v-2.029l-7.06-5.139zm0 3.584v2.029l7.06 5.139V14.8l-7.06-5.139zM21 3.797v11.158l-9.412 6.842V10.639L21 3.797zM19.914 6.24l-7.059 5.14v2.028l7.059-5.14V6.24zM11 9.854l5.385-4.249L10.474 2 5.615 5.605z"/><path d="M16.363 5.605H5.637a1.184 1.184 0 0 1-.022-.226A5.383 5.383 0 0 1 11 0a5.382 5.382 0 0 1 5.385 5.379c0 .077-.008.153-.022.226z"/></symbol><symbol viewBox="0 0 22 22" id="language" xmlns="http://www.w3.org/2000/svg"><path d="M1.778 14.874a10.025 10.025 0 0 0 6.373 5.711c-.985-1.363-1.663-3.416-2.017-5.711H1.778zm12.08 5.711a10.031 10.031 0 0 0 6.37-5.711h-4.354c-.355 2.295-1.033 4.348-2.016 5.711zm-6.425-5.711c.584 3.602 1.964 6.13 3.57 6.13 1.603 0 2.983-2.528 3.568-6.13H7.433zm-1.594-3.872c0-.866.048-1.734.134-2.58H1.346A10.092 10.092 0 0 0 1 11.001c0 .896.128 1.755.346 2.581h4.622a27.162 27.162 0 0 1-.13-2.58zm14.818-2.58H16.03c.085.846.133 1.714.133 2.58 0 .867-.048 1.735-.133 2.581h4.622a9.898 9.898 0 0 0 .347-2.58c0-.896-.125-1.755-.343-2.582zM8.147 1.42a10.013 10.013 0 0 0-6.37 5.71h4.357c.35-2.294 1.028-4.347 2.012-5.71zm12.078 5.71a10.021 10.021 0 0 0-6.371-5.71c.983 1.363 1.66 3.416 2.015 5.71h4.356zM7.13 11.003c0 .896.049 1.755.134 2.581h7.474a25.405 25.405 0 0 0 0-5.162H7.263a25.13 25.13 0 0 0-.134 2.581zm7.442-3.871C13.986 3.529 12.606 1 11.002 1c-1.605 0-2.985 2.53-3.57 6.13h7.139z"/></symbol><symbol viewBox="0 0 22 22" id="magnifier" xmlns="http://www.w3.org/2000/svg"><path d="M9.126 14.126c-2.762 0-5-2.235-5-5 0-2.762 2.234-5 5-5 2.762 0 5 2.234 5 5 0 2.762-2.235 5-5 5m11.602 4.168L16.833 14.4a.937.937 0 0 0-.664-.273h-.637a8.086 8.086 0 0 0 1.72-5A8.124 8.124 0 0 0 9.125 1 8.124 8.124 0 0 0 1 9.126a8.124 8.124 0 0 0 8.126 8.125c1.886 0 3.621-.64 5-1.719v.637c0 .25.098.488.273.664l3.895 3.895a.934.934 0 0 0 1.325 0l1.105-1.106a.942.942 0 0 0 .004-1.328"/></symbol><symbol viewBox="0 0 22 22" id="sign-language" xmlns="http://www.w3.org/2000/svg"><path d="M21 11.008l-.224-6.55c-.023-.678-.613-1.21-1.317-1.188-.704.023-1.256.59-1.233 1.268l.056 1.65L13.66.473a1.31 1.31 0 0 0-1.77-.228A1.216 1.216 0 0 0 11.662 2l3.432 4.243-.2.15-4.233-5.23a1.31 1.31 0 0 0-1.77-.229 1.216 1.216 0 0 0-.227 1.757l4.216 5.211-.2.151-3.47-4.285a1.31 1.31 0 0 0-1.77-.229 1.216 1.216 0 0 0-.227 1.757l2.324 2.872a1.682 1.682 0 0 1 1.861.039l5.507 3.855c.487.34.778.89.778 1.47v.73l2.726-2.043c.386-.29.605-.74.59-1.211zm-12.648.09h1.626l-.5-.35a1.535 1.535 0 0 1-.141-2.429l-.58-.717c-.44-.543-1.27-.652-1.826-.219a1.196 1.196 0 0 0-.203 1.708l1.624 2.007zm-3.27 9.698c-.014-.688.585-1.251 1.3-1.251h2.781v-.246H3.544c-.715 0-1.314-.563-1.3-1.252.013-.667.579-1.203 1.275-1.203h5.644v-.246H2.301c-.716 0-1.314-.563-1.3-1.251.013-.667.578-1.204 1.274-1.204h6.888v-.246H3.576c-.715 0-1.314-.563-1.3-1.251.013-.667.579-1.204 1.275-1.204h7.525l-1.387-.971a1.198 1.198 0 0 1-.282-1.715 1.308 1.308 0 0 1 1.782-.271l5.507 3.855c.396.277.63.72.63 1.191v6.065c0 .683-.488 1.277-1.18 1.434l-3.592.813a6.35 6.35 0 0 1-1.402.157H6.357c-.696 0-1.262-.537-1.275-1.204z"/></symbol><symbol viewBox="0 0 22 22" id="user" xmlns="http://www.w3.org/2000/svg"><path d="M15 12.375h-.745a8.035 8.035 0 0 1-6.51 0H7c-3.312 0-6 2.587-6 5.775v1.788C1 21.075 1.96 22 3.143 22h15.714C20.04 22 21 21.076 21 19.937V18.15c0-3.188-2.688-5.775-6-5.775M11 11c3.156 0 5.714-2.462 5.714-5.5S14.156 0 11 0C7.844 0 5.286 2.462 5.286 5.5S7.844 11 11 11"/></symbol></svg>