<svg xmlns="http://www.w3.org/2000/svg" width="50" height="50" viewBox="0 0 50 50">
  <g fill="none" fill-rule="evenodd">
    <path fill="#63666A" d="M38.0942285,42.7902148 L35.6910059,42.7902148 C35.0283105,42.7902148 34.4893457,42.2511523 34.4893457,41.5885547 C34.4893457,40.925957 35.0283105,40.3869922 35.6910059,40.3869922 L38.0942285,40.3869922 C38.7564355,40.3869922 39.2958887,40.925957 39.2958887,41.5885547 C39.2958887,42.2511523 38.7568262,42.7902148 38.0942285,42.7902148 Z M17.7576074,45.1934375 L15.2632715,45.1934375 L15.2632715,33.1772266 L17.4126855,33.1772266 C19.5488184,33.1772266 20.7030176,32.2227344 22.4389551,30.9835742 C24.8003809,29.2988086 26.1013574,28.3706836 29.1516504,28.3706836 L33.2880762,28.3706836 C33.9502832,28.3706836 34.4893457,28.9096484 34.4893457,29.5722461 L34.4893457,37.9836719 L33.2876855,37.9836719 C32.6250879,37.9836719 32.086123,37.444707 32.086123,36.7821094 L32.086123,31.9755664 C32.086123,31.3120898 31.5482324,30.7739062 30.8844629,30.7739062 C30.2205957,30.7739062 29.6828027,31.3120898 29.6828027,31.9755664 C29.6828027,35.2937305 26.9791895,37.9836719 23.6746973,37.9836719 C23.0108301,37.9836719 22.4730371,38.5219531 22.4730371,39.185332 C22.4730371,39.8487109 23.0108301,40.3869922 23.6746973,40.3869922 C24.9639551,40.3869922 26.1862207,40.0950977 27.2795801,39.5744922 L27.2795801,46.3950977 C27.2795801,46.7717578 27.3377832,47.1351367 27.445791,47.47625 C25.3037012,47.2872852 24.0790918,46.8735156 22.0806543,46.1967578 C20.3802637,45.6213672 19.3089746,45.1934375 17.7576074,45.1934375 Z M8.05350586,45.1935352 L12.8600488,45.1935352 L12.8600488,33.1772266 L8.05350586,33.1772266 L8.05350586,45.1935352 Z M24.998623,18.2767383 L36.770498,18.2767383 C36.3539941,20.3080859 34.8993066,22.0373828 32.8907129,22.7474414 C32.4090723,22.9175586 32.086123,23.3708789 32.086123,23.8817188 L32.086123,25.9673633 L29.6828027,25.9673633 L29.6828027,23.8817188 C29.6828027,23.3708789 29.3592676,22.9175586 28.8778223,22.7474414 C26.8696191,22.0373828 25.4149316,20.3080859 24.998623,18.2767383 Z M27.2795801,12.1533008 L27.2795801,15.8735156 L24.9799707,15.8735156 C25.252627,14.3312305 26.0560449,13.0381641 27.2795801,12.1533008 Z M34.4893457,12.2440234 C35.6667871,13.1624805 36.476748,14.4434375 36.770498,15.8735156 L34.4893457,15.8735156 L34.4893457,12.2440234 Z M39.2958887,31.9755664 C39.2958887,32.6381641 38.7564355,33.1772266 38.0942285,33.1772266 L36.8925684,33.1772266 L36.8925684,30.7739062 L38.0942285,30.7739062 C38.7568262,30.7739062 39.2958887,31.3129687 39.2958887,31.9755664 Z M36.8925684,35.5804492 L38.0942285,35.5804492 C38.7564355,35.5804492 39.2958887,36.1194141 39.2958887,36.7821094 C39.2958887,37.444707 38.7564355,37.9836719 38.0942285,37.9836719 L36.8925684,37.9836719 L36.8925684,35.5804492 Z M30.8844629,47.5967578 C30.2218652,47.5967578 29.6828027,47.0576953 29.6828027,46.3950977 L29.6828027,37.8561328 C29.7250879,37.8131641 29.7669824,37.769707 29.8083887,37.725957 C30.1415918,38.9552539 31.1116113,39.9252734 32.3407129,40.2602344 C32.1771387,40.6717578 32.086123,41.1191211 32.086123,41.5885547 C32.086123,42.5114063 32.4349512,43.3534961 33.0068262,43.991875 C32.4349512,44.6302539 32.086123,45.4723438 32.086123,46.3950977 C32.086123,46.8159961 32.1591699,47.2203906 32.292959,47.5967578 L30.8844629,47.5967578 Z M36.8925684,46.3950977 C36.8925684,47.0576953 36.3532129,47.5967578 35.6910059,47.5967578 C35.0283105,47.5967578 34.4893457,47.0576953 34.4893457,46.3950977 C34.4893457,45.7325 35.0283105,45.1934375 35.6910059,45.1934375 C36.3532129,45.1934375 36.8925684,45.7325 36.8925684,46.3950977 Z M40.7779199,34.3787891 C41.3505762,33.7404102 41.6991113,32.8982227 41.6991113,31.9755664 C41.6991113,29.9875781 40.0816309,28.3706836 38.0942285,28.3706836 L36.6860254,28.3706836 C36.3234277,27.348125 35.5119043,26.5367969 34.4893457,26.1739063 L34.4893457,24.6769336 C37.3959863,23.2977344 39.2958887,20.3425586 39.2958887,17.0751758 C39.2958887,13.5599414 37.112002,10.4173633 33.7328027,9.06941406 C33.3627832,8.92224609 32.9434473,8.96765625 32.6136621,9.19109375 C32.283584,9.41472656 32.086123,9.78757813 32.086123,10.1857227 L32.086123,15.8735156 L29.6828027,15.8735156 L29.6828027,10.1857227 C29.6828027,9.79539063 29.4930566,9.429375 29.173916,9.20398438 C28.855166,8.97878906 28.4467676,8.92273438 28.0786035,9.05378906 C26.4287988,9.64011719 25.0393457,10.6578906 24.0598535,11.9972461 C23.0217676,13.4175586 22.4730371,15.173418 22.4730371,17.0751758 C22.4730371,20.3425586 24.3727441,23.2977344 27.2795801,24.6769336 L27.2795801,26.0866016 C24.6662012,26.4433398 23.086709,27.5691211 21.043252,29.0277148 C19.4379785,30.173125 18.7534082,30.7739063 17.4126855,30.7739063 L6.8518457,30.7739063 C6.18797852,30.7739063 5.65008789,31.3120898 5.65008789,31.9755664 L5.65008789,46.3950977 C5.65008789,47.0584766 6.18797852,47.5967578 6.8518457,47.5967578 L17.7576074,47.5967578 C18.8418848,47.5967578 19.5544824,47.8786914 21.3101465,48.4729297 C23.579873,49.241582 25.1078027,49.7582813 28.0865137,49.9323047 C28.2105371,49.9753711 28.3427637,49.9999805 28.4811426,49.9999805 L36.4419824,49.9999805 C36.7959863,49.9999805 37.1127832,49.8458789 37.3326074,49.6026172 C38.4970605,49.0044727 39.2958887,47.7914844 39.2958887,46.3950977 C39.2958887,45.9256641 39.2047754,45.4778125 39.0412012,45.0662891 C40.5709863,44.6492969 41.6991113,43.2486133 41.6991113,41.5885547 C41.6991113,40.6658008 41.3501855,39.8237109 40.7779199,39.185332 C41.3505762,38.5469531 41.6991113,37.7048633 41.6991113,36.7821094 C41.6991113,35.8592578 41.3505762,35.017168 40.7779199,34.3787891 Z"/>
    <path fill="#60810E" d="M46.5820312 20.6109961C46.7771484 20.8706641 47.0082031 21.1017187 47.2676758 21.2966406 47.0080078 21.4918555 46.7771484 21.7229102 46.5820312 21.9824805 46.3871094 21.7227148 46.1560547 21.4918555 45.8963867 21.2966406 46.1560547 21.1017187 46.3871094 20.8706641 46.5820312 20.6109961M45.8984375 24.0310156C45.8984375 24.4086523 46.2044922 24.7146094 46.5820312 24.7146094 46.9595703 24.7146094 47.265625 24.4086523 47.265625 24.0310156 47.265625 22.9002539 48.1856445 21.9802344 49.3164062 21.9802344 49.6939453 21.9802344 50 21.6742773 50 21.2966406 50 20.9191016 49.6939453 20.6130469 49.3164062 20.6130469 48.1856445 20.6130469 47.265625 19.693125 47.265625 18.5622656 47.265625 18.1847266 46.9595703 17.8786719 46.5820312 17.8786719 46.2044922 17.8786719 45.8984375 18.1847266 45.8984375 18.5622656 45.8984375 19.693125 44.978418 20.6130469 43.8476562 20.6130469 43.4701172 20.6130469 43.1640625 20.9191016 43.1640625 21.2966406 43.1640625 21.6742773 43.4701172 21.9802344 43.8476562 21.9802344 44.978418 21.9802344 45.8984375 22.9002539 45.8984375 24.0310156M7.32421875 13.2867773C7.87988281 14.0265234 8.53818359 14.6847266 9.27734375 15.2399023 8.53759766 15.7955664 7.87988281 16.4538672 7.32421875 17.1930273 6.76904297 16.4532812 6.11083984 15.7955664 5.37109375 15.2399023 6.11083984 14.6847266 6.76904297 14.0265234 7.32421875 13.2867773M1.46484375 16.7047461C3.88789062 16.7047461 5.859375 18.6762305 5.859375 21.0992773 5.859375 21.9083594 6.51513672 22.5641211 7.32421875 22.5641211 8.13330078 22.5641211 8.7890625 21.9083594 8.7890625 21.0992773 8.7890625 18.6762305 10.7605469 16.7047461 13.1835938 16.7047461 13.9926758 16.7047461 14.6484375 16.0489844 14.6484375 15.2399023 14.6484375 14.4308203 13.9926758 13.7750586 13.1835938 13.7750586 10.7605469 13.7750586 8.7890625 11.8035742 8.7890625 9.38052734 8.7890625 8.57144531 8.13330078 7.91568359 7.32421875 7.91568359 6.51513672 7.91568359 5.859375 8.57144531 5.859375 9.38052734 5.859375 11.8035742 3.88789062 13.7750586 1.46484375 13.7750586.655761719 13.7750586 0 14.4308203 0 15.2399023 0 16.0489844.655761719 16.7047461 1.46484375 16.7047461M39.8891406 3.47328125C40.2485156 3.95160156 40.6741016 4.37738281 41.1522266 4.73636719 40.6738086 5.09564453 40.2485156 5.52132812 39.8891406 5.99935547 39.5301563 5.52103516 39.1044727 5.09564453 38.6260547 4.73636719 39.1044727 4.37738281 39.5301563 3.95160156 39.8891406 3.47328125M36.1000781 5.68363281C37.6669727 5.68363281 38.941875 6.9584375 38.941875 8.52533203 38.941875 9.04857422 39.3659961 9.47269531 39.8891406 9.47269531 40.4122852 9.47269531 40.8364063 9.04857422 40.8364063 8.52533203 40.8364063 6.9584375 42.1113086 5.68363281 43.6782031 5.68363281 44.2013477 5.68363281 44.6254688 5.25951172 44.6254688 4.73636719 44.6254688 4.213125 44.2013477 3.78900391 43.6782031 3.78900391 42.1113086 3.78900391 40.8364063 2.51419922 40.8364063.947304688 40.8364063.4240625 40.4122852.0000390625 39.8891406.0000390625 39.3659961.0000390625 38.941875.4240625 38.941875.947304688 38.941875 2.51419922 37.6669727 3.78900391 36.1000781 3.78900391 35.5769336 3.78900391 35.1528125 4.213125 35.1528125 4.73636719 35.1528125 5.25951172 35.5769336 5.68363281 36.1000781 5.68363281"/>
  </g>
</svg>
