<svg xmlns="http://www.w3.org/2000/svg" width="50" height="50" viewBox="0 0 50 50">
  <g fill="none" fill-rule="evenodd">
    <path fill="#63666A" d="M41.0156055,27.6758203 L41.0156055,27.4831445 C40.8628711,27.6346094 40.7116016,27.7874414 40.5628711,27.9427148 C40.4941211,28.0334375 40.4248828,28.1237695 40.3562305,28.2145898 C40.3450977,28.2428125 40.3285937,28.2708398 40.3041797,28.2975977 C40.2850391,28.3186914 40.2654102,28.3394922 40.2461719,28.3604883 C40.1450977,28.4945703 40.0450977,28.6293359 39.9442187,28.7636133 C40.2945117,28.3942773 40.6511523,28.0311914 41.0156055,27.6758203"/>
    <path fill="#63666A" d="M5.85939453,7.421875 L5.85939453,41.1132812 L2.92970703,41.1132812 L2.92970703,2.9296875 L32.226582,2.9296875 L32.226582,5.95703125 L7.32423828,5.95703125 C6.51525391,5.95703125 5.85939453,6.61289063 5.85939453,7.421875 Z M32.226582,8.88671875 L32.4779492,8.88671875 C32.8692578,8.88671875 33.2371289,9.0390625 33.5137891,9.31572266 L37.6569531,13.4589844 C37.9336133,13.7356445 38.085957,14.1035156 38.085957,14.4947266 L38.085957,14.7460938 L32.226582,14.7460938 L32.226582,8.88671875 Z M39.5610547,36.2560547 C39.4100781,36.4575195 39.0056836,36.3470703 39.1148633,36.0678711 C39.1931836,35.8674805 39.2764844,35.6695313 39.3616406,35.4723633 C39.3330273,35.4608398 39.3062695,35.4448242 39.2827344,35.425293 C38.8876172,35.9007813 38.4904492,36.3746094 38.085957,36.8420898 L38.085957,38.5259766 L38.085957,47.0703125 L8.78908203,47.0703125 L8.78908203,8.88671875 L29.2968945,8.88671875 L29.2968945,16.2109375 C29.2968945,17.0199219 29.9527539,17.6757812 30.7617383,17.6757812 L38.085957,17.6757812 L38.085957,26.0540039 L38.085957,29.4255859 C38.3332227,29.2024414 38.582832,28.981543 38.8332227,28.7616211 C39.4944531,28.09375 40.1739453,27.4425781 40.8378125,26.7804687 C40.889375,26.7291016 40.9530469,26.7119141 41.0156445,26.7167969 L41.0155469,23.1044922 L41.0155469,14.4947266 C41.0155469,13.3208984 40.558418,12.2173828 39.7283398,11.3874023 L35.5853711,7.24414063 C35.4495312,7.10839844 35.3058789,6.98369141 35.1562695,6.86816406 L35.1562695,1.46484375 C35.1562695,0.655859375 34.5004102,0 33.6914258,0 L1.46486328,0 C0.655878906,0 1.953125e-05,0.655859375 1.953125e-05,1.46484375 L1.953125e-05,42.578125 C1.953125e-05,43.3871094 0.655878906,44.0429688 1.46486328,44.0429688 L5.85939453,44.0429688 L5.85939453,48.5351562 C5.85939453,49.3441406 6.51525391,50 7.32423828,50 L39.5508008,50 C40.3597852,50 41.0156445,49.3441406 41.0156445,48.5351562 L41.0156445,35.5763672 L41.0156445,34.1928711 C40.5683789,34.9057617 40.0633984,35.5855469 39.5610547,36.2560547 Z"/>
    <path fill="#63666A" d="M35.1562305 25C35.1562305 24.1910156 34.5003711 23.5351562 33.6913867 23.5351562L13.1835742 23.5351562C12.3745898 23.5351562 11.7187305 24.1910156 11.7187305 25 11.7187305 25.8089844 12.3745898 26.4648438 13.1835742 26.4648438L33.6913867 26.4648438C34.5003711 26.4648438 35.1562305 25.8089844 35.1562305 25M13.1835742 14.7460938L24.9023242 14.7460938C25.7113086 14.7460938 26.367168 14.0902344 26.367168 13.28125 26.367168 12.4722656 25.7113086 11.8164062 24.9023242 11.8164062L13.1835742 11.8164062C12.3745898 11.8164062 11.7187305 12.4722656 11.7187305 13.28125 11.7187305 14.0902344 12.3745898 14.7460938 13.1835742 14.7460938M23.8666309 32.7532813L16.1133105 40.5066016 14.2193652 38.6126563C13.6472949 38.0406836 12.7198535 38.0406836 12.1477832 38.6126563 11.5757129 39.1847266 11.5757129 40.112168 12.1477832 40.6843359L15.0774707 43.6140234C15.6494434 44.1859961 16.5769824 44.1859961 17.1490527 43.6140234L25.9381152 34.8249609C26.5100879 34.252793 26.5100879 33.3253516 25.9381152 32.7532813 25.3660449 32.1812109 24.4386035 32.1812109 23.8666309 32.7532813M13.1835742 20.6054688L24.9023242 20.6054688C25.7113086 20.6054688 26.367168 19.9496094 26.367168 19.140625 26.367168 18.3316406 25.7113086 17.6757812 24.9023242 17.6757812L13.1835742 17.6757812C12.3745898 17.6757812 11.7187305 18.3316406 11.7187305 19.140625 11.7187305 19.9496094 12.3745898 20.6054688 13.1835742 20.6054688"/>
    <path fill="#60810E" d="M46.2669529,23.3561039 C46.8381443,23.9272953 46.8381443,24.8564945 46.2634372,25.4312992 L45.2346286,26.4669437 L43.1630466,24.3954593 L44.1953708,23.3562015 C44.7664646,22.7849124 45.6960544,22.7852054 46.2669529,23.3561039 Z M30.0856052,37.5615726 L30.6454685,36.9978031 C31.0944919,37.2121585 31.5075779,37.5017093 31.8633396,37.8572757 C32.2169529,38.210889 32.5052341,38.6212406 32.7191989,39.0672367 L32.1554294,39.6347171 L29.440195,40.273096 L30.0856052,37.5615726 Z M34.8579685,36.914014 C34.5895114,36.5099124 34.2806247,36.1314945 33.9349216,35.7856937 C33.5821872,35.433057 33.1952732,35.1188968 32.7820896,34.8468265 C33.3133396,34.3119632 40.5667575,27.0092289 41.0983982,26.4740726 L43.1699802,28.5456546 L34.8579685,36.914014 Z M40.64957,35.2403812 L48.3384372,27.4993656 C50.0519138,25.7859867 50.0519138,22.9979984 48.3384372,21.2845218 C46.6249607,19.5712406 43.8369724,19.5712406 42.1200779,21.2880374 L40.6494724,22.7685062 L37.7198825,25.7181156 L27.7166599,35.7892093 C27.5268161,35.9804203 27.3932224,36.220264 27.3309177,36.482471 L26.0409763,41.9030765 C25.7880466,42.9658695 26.7465427,43.9159671 27.8013279,43.6681156 L33.234531,42.3907718 C33.5013279,42.3278812 33.7452732,42.1915531 33.9385349,41.9971195 C34.3369724,41.5958499 37.3215427,38.5911624 37.7199802,38.1899906 L40.64957,35.2403812 Z"/>
  </g>
</svg>
