<svg xmlns="http://www.w3.org/2000/svg" width="50" height="50" viewBox="0 0 50 50">
  <g fill="none" fill-rule="evenodd">
    <path fill="#63666A" d="M45.9465592,45.944842 C44.648218,47.2434715 43.1957749,47.1403235 42.4451882,46.9631355 C42.029758,46.8650668 41.6322967,46.7001863 41.2639369,46.4843178 L46.48572,41.2612779 C46.7012475,41.6292311 46.8657009,42.0260969 46.9636502,42.4408378 C47.1407988,43.192275 47.2446075,44.6465056 45.9465592,45.944842 Z M37.9390309,41.5217852 L41.5237028,37.9363176 C43.2552477,39.1327758 43.5651113,39.062643 44.2644285,39.3389742 L39.3421574,44.2624355 C39.0674501,43.5661865 39.1392275,43.2564494 37.9390309,41.5217852 Z M36.157486,39.1594419 C34.5041638,37.0947236 32.5545523,34.9027308 31.3447854,33.5704024 C31.7405866,33.2344876 32.1262316,32.8806978 32.4997671,32.5072747 C32.8736933,32.1332655 33.2277953,31.7469488 33.5640261,31.350376 C34.8771135,32.5399968 37.0809245,34.4960971 39.1593447,36.1569168 L36.157486,39.1594419 Z M7.64036483,30.4350351 C1.3578384,24.1510164 1.3578384,13.9261773 7.64036483,7.64215857 C13.9227936,1.35843286 24.1453634,1.35794447 30.4282805,7.64215857 C36.7108069,13.9260796 36.7108069,24.1510164 30.4282805,30.4350351 C24.1454611,36.7190539 13.9230866,36.7189562 7.64036483,30.4350351 Z M49.8147275,41.7676408 C49.2341605,39.3071311 47.3811311,37.2812887 44.979273,36.4803288 L44.5112061,36.3242393 C43.3704822,35.9439787 39.0170594,32.3649578 35.2894186,28.962148 C39.7630563,21.63063 38.8339538,11.9057071 32.4996695,5.56991904 C25.0745637,-1.85673736 12.9933004,-1.856542 5.56868287,5.56991904 C-1.85622762,12.9964778 -1.85622762,25.0804229 5.56868287,32.5069816 C11.8971078,38.836909 21.6162591,39.7781346 28.9560132,35.2971547 C32.3690053,39.0360746 35.9549467,43.3894869 36.3280916,44.5093656 L36.4840488,44.9776341 C37.2849286,47.3804161 39.3112004,49.2340522 41.7720429,49.8151388 C44.0517329,50.3533448 46.330251,49.7051534 48.0180459,48.0168862 C49.7001766,46.334382 50.3552555,44.0566279 49.8147275,41.7676408 Z"/>
    <path fill="#60810E" stroke="#60810E" stroke-width=".5" d="M24.6484375,25.3919922 C24.6484375,21.9813477 21.9099609,19.2070313 18.5449219,19.2070313 C15.1797852,19.2070313 12.4414062,21.9813477 12.4414062,25.3919922 L12.4414062,26.6126953 L24.6484375,26.6126953 L24.6484375,25.3919922 Z M14.8828125,13.1035156 C14.8828125,15.1226563 16.5258789,16.765625 18.5449219,16.765625 C20.5639648,16.765625 22.2070312,15.1226563 22.2070312,13.1035156 C22.2070312,11.0844727 20.5639648,9.44140625 18.5449219,9.44140625 C16.5258789,9.44140625 14.8828125,11.0844727 14.8828125,13.1035156 Z M27.0898438,25.3919922 L27.0898438,27.8333984 C27.0898438,28.5071289 26.5428711,29.0541016 25.8691406,29.0541016 L18.5449219,29.0541016 L11.2207031,29.0541016 C10.546875,29.0541016 10,28.5071289 10,27.8333984 L10,25.3919922 C10,22.0749023 11.8644531,19.1899414 14.5898438,17.747168 C13.2763672,16.6264648 12.4414062,14.9614258 12.4414062,13.1035156 C12.4414062,9.73769531 15.1797852,7 18.5449219,7 C21.9099609,7 24.6484375,9.73769531 24.6484375,13.1035156 C24.6484375,14.9614258 23.8134766,16.6264648 22.5,17.747168 C25.2253906,19.1899414 27.0898438,22.0749023 27.0898438,25.3919922 Z"/>
  </g>
</svg>
