<svg xmlns="http://www.w3.org/2000/svg" width="50" height="50" viewBox="0 0 50 50">
  <g fill="none" fill-rule="evenodd">
    <path fill="#63666A" d="M45.6054883,38.1835937 L4.39455078,38.1835937 C3.58683594,38.1835937 2.92970703,37.5264648 2.92970703,36.71875 L2.92970703,35.2539062 L47.070332,35.2539062 L47.070332,36.71875 C47.070332,37.5264648 46.4132031,38.1835937 45.6054883,38.1835937 Z M20.507832,47.0703125 L29.3945508,47.0703125 L29.3945508,41.1132812 L20.507832,41.1132812 L20.507832,47.0703125 Z M20.507832,32.3242187 L8.78908203,32.3242187 L20.507832,32.3242187 Z M5.85939453,32.3242187 L2.92970703,32.3242187 L2.92970703,4.39453125 C2.92970703,3.58681641 3.58683594,2.9296875 4.39455078,2.9296875 L45.6054883,2.9296875 C46.4132031,2.9296875 47.070332,3.58681641 47.070332,4.39453125 L47.070332,32.3242187 L23.4375195,32.3242187 L5.85939453,32.3242187 Z M45.6054883,0 L4.39455078,0 C1.97140625,0 1.953125e-05,1.97138672 1.953125e-05,4.39453125 L1.953125e-05,36.71875 C1.953125e-05,39.1418945 1.97140625,41.1132812 4.39455078,41.1132812 L17.5781445,41.1132812 L17.5781445,47.0703125 L13.1836133,47.0703125 C12.3746289,47.0703125 11.7187695,47.7261719 11.7187695,48.5351562 C11.7187695,49.3441406 12.3746289,50 13.1836133,50 L36.7187695,50 C37.5277539,50 38.1836133,49.3441406 38.1836133,48.5351562 C38.1836133,47.7261719 37.5277539,47.0703125 36.7187695,47.0703125 L32.3242383,47.0703125 L32.3242383,41.1132812 L45.6054883,41.1132812 C48.0285352,41.1132812 50.0000195,39.1418945 50.0000195,36.71875 L50.0000195,4.39453125 C50.0000195,1.97138672 48.0285352,0 45.6054883,0 Z"/>
    <path fill="#60810E" d="M28.0536947,28.6851708 C29.0117324,27.6862349 29.8414326,26.5555279 30.5098779,25.3283908 C30.609034,25.1466376 30.7038483,24.9629658 30.7953304,24.7776785 L33.7990936,24.7776785 C32.3670857,26.6324701 30.3632642,28.024094 28.0536947,28.6851708 Z M16.2010074,24.7776785 L19.1932596,24.7776785 C19.9067392,26.2160533 20.8471065,27.5394187 21.9865938,28.6963789 C19.6600607,28.0400478 17.6412951,26.6431734 16.2010074,24.7776785 Z M22.0027496,7.29917823 C21.0343116,8.29831606 20.1954228,9.42690258 19.5191015,10.648991 C19.4143918,10.8381154 19.314226,11.0294611 19.2177962,11.2222205 L16.2010074,11.2222205 C17.6446272,9.35248474 19.6693502,7.95359079 22.0027496,7.29917823 Z M33.7990936,11.2222205 L30.8223913,11.2222205 C30.1163837,9.79040902 29.1861138,8.47128454 28.0587433,7.31634381 C30.3661925,7.97792553 32.3681964,9.36884253 33.7990936,11.2222205 Z M32.3666818,17.055893 C32.2848932,15.6973887 32.0243812,14.3724077 31.6007969,13.1103335 L34.976446,13.1103335 C35.5711806,14.3189924 35.9526589,15.6505367 36.0714039,17.055893 L32.3666818,17.055893 Z M25.9951455,22.8896665 L25.9951455,18.944006 L30.4692865,18.944006 C30.3683129,20.2993802 30.0569103,21.6307225 29.5599181,22.8896665 L25.9951455,22.8896665 Z M25.9951455,28.0527706 L25.9951455,24.7776785 L28.6442894,24.7776785 C27.9364643,25.9936076 27.0437565,27.1035139 25.9951455,28.0527706 Z M24.1070398,24.7776785 L24.1070398,28.0987137 C23.000268,27.1394606 22.0690893,26.0164277 21.3396558,24.7776785 L24.1070398,24.7776785 Z M19.5289969,18.944006 L24.1070398,18.944006 L24.1070398,22.8896665 L20.4213008,22.8896665 C19.9307709,21.6414258 19.6264364,20.3134156 19.5289969,18.944006 Z M13.9286971,18.944006 L17.6352367,18.944006 C17.7199536,20.3034191 17.9832927,21.6281982 18.4096034,22.8896665 L15.023655,22.8896665 C14.4288194,21.6810076 14.0474421,20.3493623 13.9286971,18.944006 Z M24.1070398,13.1103335 L24.1070398,17.055893 L19.5290979,17.055893 C19.6288598,15.7031442 19.9440995,14.3714989 20.4488666,13.1103335 L24.1070398,13.1103335 Z M24.1070398,7.89734827 L24.1070398,11.2222205 L21.3768141,11.2222205 C22.1042281,9.98841906 23.0244007,8.86094325 24.1070398,7.89734827 Z M29.59122,13.1103335 C30.0783167,14.359483 30.37942,15.6874932 30.4736284,17.055893 L25.9952465,17.055893 L25.9952465,13.1103335 L29.59122,13.1103335 Z M25.9951455,11.2222205 L25.9951455,7.95793267 C27.0663746,8.90597766 27.9695836,10.0088158 28.6792262,11.2222205 L25.9951455,11.2222205 Z M15.023655,13.1103335 L18.4256582,13.1103335 C17.9868268,14.3893713 17.7196506,15.7179874 17.6349338,17.055893 L13.9286971,17.055893 C14.0474421,15.6505367 14.4288194,14.3189924 15.023655,13.1103335 Z M34.976446,22.8896665 L31.5784817,22.8896665 C32.0122644,21.6116384 32.2775221,20.2830224 32.3637536,18.944006 L36.0713029,18.944006 C35.9526589,20.3493623 35.5711806,21.6810076 34.976446,22.8896665 Z M25.0000505,5 C17.8318323,5 12,10.831754 12,18 C12,25.168145 17.8318323,31 25.0000505,31 C32.1681677,31 38,25.168145 38,18 C38,10.831754 32.1682687,5 25.0000505,5 Z"/>
    <path stroke="#60810E" stroke-width=".553" d="M28.0536947,28.6851708 C29.0117324,27.6862349 29.8414326,26.5555279 30.5098779,25.3283908 C30.609034,25.1466376 30.7038483,24.9629658 30.7953304,24.7776785 L33.7990936,24.7776785 C32.3670857,26.6324701 30.3632642,28.024094 28.0536947,28.6851708 Z M16.2010074,24.7776785 L19.1932596,24.7776785 C19.9067392,26.2160533 20.8471065,27.5394187 21.9865938,28.6963789 C19.6600607,28.0400478 17.6412951,26.6431734 16.2010074,24.7776785 Z M22.0027496,7.29917823 C21.0343116,8.29831606 20.1954228,9.42690258 19.5191015,10.648991 C19.4143918,10.8381154 19.314226,11.0294611 19.2177962,11.2222205 L16.2010074,11.2222205 C17.6446272,9.35248474 19.6693502,7.95359079 22.0027496,7.29917823 Z M33.7990936,11.2222205 L30.8223913,11.2222205 C30.1163837,9.79040902 29.1861138,8.47128454 28.0587433,7.31634381 C30.3661925,7.97792553 32.3681964,9.36884253 33.7990936,11.2222205 Z M32.3666818,17.055893 C32.2848932,15.6973887 32.0243812,14.3724077 31.6007969,13.1103335 L34.976446,13.1103335 C35.5711806,14.3189924 35.9526589,15.6505367 36.0714039,17.055893 L32.3666818,17.055893 Z M25.9951455,22.8896665 L25.9951455,18.944006 L30.4692865,18.944006 C30.3683129,20.2993802 30.0569103,21.6307225 29.5599181,22.8896665 L25.9951455,22.8896665 Z M25.9951455,28.0527706 L25.9951455,24.7776785 L28.6442894,24.7776785 C27.9364643,25.9936076 27.0437565,27.1035139 25.9951455,28.0527706 Z M24.1070398,24.7776785 L24.1070398,28.0987137 C23.000268,27.1394606 22.0690893,26.0164277 21.3396558,24.7776785 L24.1070398,24.7776785 Z M19.5289969,18.944006 L24.1070398,18.944006 L24.1070398,22.8896665 L20.4213008,22.8896665 C19.9307709,21.6414258 19.6264364,20.3134156 19.5289969,18.944006 Z M13.9286971,18.944006 L17.6352367,18.944006 C17.7199536,20.3034191 17.9832927,21.6281982 18.4096034,22.8896665 L15.023655,22.8896665 C14.4288194,21.6810076 14.0474421,20.3493623 13.9286971,18.944006 Z M24.1070398,13.1103335 L24.1070398,17.055893 L19.5290979,17.055893 C19.6288598,15.7031442 19.9440995,14.3714989 20.4488666,13.1103335 L24.1070398,13.1103335 Z M24.1070398,7.89734827 L24.1070398,11.2222205 L21.3768141,11.2222205 C22.1042281,9.98841906 23.0244007,8.86094325 24.1070398,7.89734827 Z M29.59122,13.1103335 C30.0783167,14.359483 30.37942,15.6874932 30.4736284,17.055893 L25.9952465,17.055893 L25.9952465,13.1103335 L29.59122,13.1103335 Z M25.9951455,11.2222205 L25.9951455,7.95793267 C27.0663746,8.90597766 27.9695836,10.0088158 28.6792262,11.2222205 L25.9951455,11.2222205 Z M15.023655,13.1103335 L18.4256582,13.1103335 C17.9868268,14.3893713 17.7196506,15.7179874 17.6349338,17.055893 L13.9286971,17.055893 C14.0474421,15.6505367 14.4288194,14.3189924 15.023655,13.1103335 Z M34.976446,22.8896665 L31.5784817,22.8896665 C32.0122644,21.6116384 32.2775221,20.2830224 32.3637536,18.944006 L36.0713029,18.944006 C35.9526589,20.3493623 35.5711806,21.6810076 34.976446,22.8896665 Z M25.0000505,5 C17.8318323,5 12,10.831754 12,18 C12,25.168145 17.8318323,31 25.0000505,31 C32.1681677,31 38,25.168145 38,18 C38,10.831754 32.1682687,5 25.0000505,5 Z"/>
  </g>
</svg>
