<svg xmlns="http://www.w3.org/2000/svg" width="50" height="50" viewBox="0 0 50 50">
  <g fill="none" fill-rule="evenodd">
    <path fill="#63666A" d="M47.0703125,45.6054688 C47.0703125,46.4131836 46.4131836,47.0703125 45.6054688,47.0703125 L26.6191406,47.0703125 C27.2237305,45.3654297 28.8520508,44.140625 30.7617188,44.140625 L39.7459961,44.140625 C42.1691406,44.140625 44.140625,42.1691406 44.140625,39.7460938 L44.140625,5.859375 L45.6054688,5.859375 C46.4131836,5.859375 47.0703125,6.51650391 47.0703125,7.32421875 L47.0703125,45.6054688 Z M2.9296875,45.6054688 L2.9296875,7.32421875 C2.9296875,6.51650391 3.58681641,5.859375 4.39453125,5.859375 L5.859375,5.859375 L5.859375,39.7460938 C5.859375,42.1691406 7.83085938,44.140625 10.2541016,44.140625 L19.0429688,44.140625 C20.9526367,44.140625 22.5808594,45.3654297 23.1855469,47.0703125 L4.39453125,47.0703125 C3.58681641,47.0703125 2.9296875,46.4131836 2.9296875,45.6054688 Z M10.2539063,2.9296875 L21.9726563,2.9296875 C22.7803711,2.9296875 23.4375,3.58681641 23.4375,4.39453125 L23.4375,42.6757813 L23.4375,42.6792969 C22.2125977,41.7578125 20.690332,41.2109375 19.0429688,41.2109375 L10.2541016,41.2109375 C9.44619141,41.2109375 8.7890625,40.5538086 8.7890625,39.7460938 L8.7890625,4.39453125 C8.7890625,3.58681641 9.44619141,2.9296875 10.2539063,2.9296875 Z M38.0859375,2.9296875 L39.7460938,2.9296875 C40.5538086,2.9296875 41.2109375,3.58681641 41.2109375,4.39453125 L41.2109375,39.7460938 C41.2109375,40.5538086 40.5538086,41.2109375 39.7459961,41.2109375 L30.7617188,41.2109375 C29.1143555,41.2109375 27.5920898,41.7578125 26.3671875,42.6792969 L26.3671875,42.6757813 L26.3671875,4.39453125 C26.3671875,3.58681641 27.0243164,2.9296875 27.8320313,2.9296875 L29.296875,2.9296875 L38.0859375,2.9296875 Z M45.6054688,2.9296875 L43.8886719,2.9296875 C43.2839844,1.22480469 41.6557617,0 39.7460938,0 L27.8320313,0 C26.7073242,0 25.6804688,0.425195312 24.9023438,1.12255859 C24.1242188,0.425195312 23.0973633,0 21.9726563,0 L10.2539063,0 C8.34423828,0 6.71601563,1.22480469 6.11132813,2.9296875 L4.39453125,2.9296875 C1.97138672,2.9296875 0,4.90107422 0,7.32421875 L0,45.6054688 C0,48.0285156 1.97138672,50 4.39453125,50 L45.6054688,50 C48.0286133,50 50,48.0285156 50,45.6054688 L50,7.32421875 C50,4.90107422 48.0286133,2.9296875 45.6054688,2.9296875 Z"/>
    <path fill="#63666A" d="M31.25 38.4615385L37.0192308 38.4615385C37.8157692 38.4615385 38.4615385 37.8157692 38.4615385 37.0192308 38.4615385 36.2226923 37.8157692 35.5769231 37.0192308 35.5769231L31.25 35.5769231C30.4534615 35.5769231 29.8076923 36.2226923 29.8076923 37.0192308 29.8076923 37.8157692 30.4534615 38.4615385 31.25 38.4615385M31.25 32.1730769L37.0192308 32.1730769C37.8157692 32.1730769 38.4615385 31.5273077 38.4615385 30.7307692 38.4615385 29.9342308 37.8157692 29.2884615 37.0192308 29.2884615L31.25 29.2884615C30.4534615 29.2884615 29.8076923 29.9342308 29.8076923 30.7307692 29.8076923 31.5273077 30.4534615 32.1730769 31.25 32.1730769M31.4423077 25.8846154L37.2115385 25.8846154C38.0080769 25.8846154 38.6538462 25.2388462 38.6538462 24.4423077 38.6538462 23.6457692 38.0080769 23 37.2115385 23L31.4423077 23C30.6457692 23 30 23.6457692 30 24.4423077 30 25.2388462 30.6457692 25.8846154 31.4423077 25.8846154M19.2115385 25.8846154C20.0080769 25.8846154 20.6538462 25.2388462 20.6538462 24.4423077 20.6538462 23.6457692 20.0080769 23 19.2115385 23L13.4423077 23C12.6457692 23 12 23.6457692 12 24.4423077 12 25.2388462 12.6457692 25.8846154 13.4423077 25.8846154L19.2115385 25.8846154zM19.2115385 31.8846154C20.0080769 31.8846154 20.6538462 31.2388462 20.6538462 30.4423077 20.6538462 29.6457692 20.0080769 29 19.2115385 29L13.4423077 29C12.6457692 29 12 29.6457692 12 30.4423077 12 31.2388462 12.6457692 31.8846154 13.4423077 31.8846154L19.2115385 31.8846154zM19.2115385 38.8846154C20.0080769 38.8846154 20.6538462 38.2388462 20.6538462 37.4423077 20.6538462 36.6457692 20.0080769 36 19.2115385 36L13.4423077 36C12.6457692 36 12 36.6457692 12 37.4423077 12 38.2388462 12.6457692 38.8846154 13.4423077 38.8846154L19.2115385 38.8846154zM14.4230769 14.5384615L17.3076923 14.5384615 17.3076923 11.6538462 14.4230769 11.6538462 14.4230769 14.5384615zM12.9807692 17.4230769L18.75 17.4230769C19.5465385 17.4230769 20.1923077 16.7773077 20.1923077 15.9807692L20.1923077 10.2115385C20.1923077 9.415 19.5465385 8.76923077 18.75 8.76923077L12.9807692 8.76923077C12.1842308 8.76923077 11.5384615 9.415 11.5384615 10.2115385L11.5384615 15.9807692C11.5384615 16.7773077 12.1842308 17.4230769 12.9807692 17.4230769z"/>
    <path fill="#60810E" d="M35.5769231,2.88461538 L35.5769231,15.2669484 L35.1544231,14.8445797 C34.59125,14.2813575 33.6779808,14.2813575 33.1147115,14.8445797 L32.6923077,15.2669484 L32.6923077,2.88461538 L29.8076923,2.88461538 L29.8076923,18.7486773 C29.8076923,20.0278014 31.3618269,20.6764973 32.2698077,19.7684 L34.1346154,17.9038439 L35.9995192,19.7684 C36.9022115,20.6714978 38.4615385,20.0376083 38.4615385,18.7486773 L38.4615385,2.88461538 L35.5769231,2.88461538 Z"/>
    <path stroke="#60810E" stroke-width=".553" d="M35.5769231,2.88461538 L35.5769231,15.2669484 L35.1544231,14.8445797 C34.59125,14.2813575 33.6779808,14.2813575 33.1147115,14.8445797 L32.6923077,15.2669484 L32.6923077,2.88461538 L29.8076923,2.88461538 L29.8076923,18.7486773 C29.8076923,20.0278014 31.3618269,20.6764973 32.2698077,19.7684 L34.1346154,17.9038439 L35.9995192,19.7684 C36.9022115,20.6714978 38.4615385,20.0376083 38.4615385,18.7486773 L38.4615385,2.88461538 L35.5769231,2.88461538 Z"/>
  </g>
</svg>
