<svg xmlns="http://www.w3.org/2000/svg" width="50" height="50" viewBox="0 0 50 50">
  <g fill="none" fill-rule="evenodd">
    <path fill="#63666A" d="M47.0703125,33.6914063 C47.0703125,34.4991211 46.4131836,35.15625 45.6054688,35.15625 L43.6378906,35.15625 C43.9629883,34.2394531 44.140625,33.253418 44.140625,32.2265625 C44.140625,30.00625 43.3125977,27.9758789 41.9496094,26.4270508 C42.1875977,26.3876953 42.4301758,26.3671875 42.6757812,26.3671875 C43.4847656,26.3671875 44.140625,25.7113281 44.140625,24.9023438 L44.140625,13.1835938 C44.140625,12.3746094 43.4847656,11.71875 42.6757812,11.71875 C40.2526367,11.71875 38.28125,9.74736328 38.28125,7.32421875 C38.28125,6.51523438 37.6253906,5.859375 36.8164062,5.859375 L13.1835937,5.859375 C12.3746094,5.859375 11.71875,6.51523438 11.71875,7.32421875 C11.71875,9.74736328 9.74736328,11.71875 7.32421875,11.71875 C6.51523437,11.71875 5.859375,12.3746094 5.859375,13.1835938 L5.859375,24.9023438 C5.859375,25.7113281 6.51523437,26.3671875 7.32421875,26.3671875 C9.74736328,26.3671875 11.71875,28.3385742 11.71875,30.7617188 C11.71875,31.5707031 12.3746094,32.2265625 13.1835937,32.2265625 L26.5625,32.2265625 C26.5625,33.253418 26.7401367,34.2394531 27.0652344,35.15625 L4.39453125,35.15625 C3.58681641,35.15625 2.9296875,34.4991211 2.9296875,33.6914063 L2.9296875,4.39453125 C2.9296875,3.58681641 3.58681641,2.9296875 4.39453125,2.9296875 L45.6054688,2.9296875 C46.4131836,2.9296875 47.0703125,3.58681641 47.0703125,4.39453125 L47.0703125,33.6914063 Z M38.28125,45.7980469 L36.1640625,44.3866211 C35.6720703,44.0586914 35.030957,44.0586914 34.5389648,44.3866211 L32.421875,45.7980469 L32.421875,40.5128906 C33.3386719,40.8379883 34.324707,41.015625 35.3515625,41.015625 C36.378418,41.015625 37.3644531,40.8379883 38.28125,40.5128906 L38.28125,45.7980469 Z M41.2109375,23.5833984 C40.5042969,23.7264648 39.8255859,23.9757813 39.1899414,24.3211914 C38.0294922,23.7553711 36.7270508,23.4375 35.3515625,23.4375 C31.5321289,23.4375 28.2745117,25.8867188 27.0652344,29.296875 L14.5012695,29.296875 C13.9171875,26.4314453 11.6544922,24.16875 8.7890625,23.584668 L8.7890625,14.5012695 C11.6544922,13.9171875 13.9171875,11.6544922 14.5012695,8.7890625 L35.4987305,8.7890625 C36.0828125,11.6544922 38.3455078,13.9171875 41.2109375,14.5012695 L41.2109375,23.5833984 Z M29.4921875,32.2265625 C29.4921875,28.9957031 32.1207031,26.3671875 35.3515625,26.3671875 C38.5824219,26.3671875 41.2109375,28.9957031 41.2109375,32.2265625 C41.2109375,35.4574219 38.5824219,38.0859375 35.3515625,38.0859375 C32.1207031,38.0859375 29.4921875,35.4574219 29.4921875,32.2265625 Z M28.8066406,38.0859375 C29.0224609,38.3267578 29.2513672,38.5556641 29.4921875,38.7714844 L29.4921875,48.5351563 C29.4921875,49.0753906 29.7895508,49.5717773 30.2658203,49.8266602 C30.7420898,50.081543 31.3200195,50.0536133 31.7695313,49.7540039 L35.3515625,47.3660156 L38.9335938,49.7540039 C39.1787109,49.9173828 39.4620117,50 39.7461914,50 C39.9831055,50 40.2207031,49.9425781 40.4373047,49.8266602 C40.9135742,49.5717773 41.2109375,49.0753906 41.2109375,48.5351563 L41.2109375,38.7714844 C41.4517578,38.5556641 41.6806641,38.3267578 41.8964844,38.0859375 L45.6054688,38.0859375 C48.0286133,38.0859375 50,36.1144531 50,33.6914063 L50,4.39453125 C50,1.97138672 48.0286133,0 45.6054688,0 L4.39453125,0 C1.97138672,0 0,1.97138672 0,4.39453125 L0,33.6914063 C0,36.1144531 1.97138672,38.0859375 4.39453125,38.0859375 L28.8066406,38.0859375 Z"/>
    <path fill="#60810E" d="M35.2941176,38.2352941 C32.0505882,38.2352941 29.4117647,35.5964706 29.4117647,32.3529412 C29.4117647,29.1094118 32.0505882,26.4705882 35.2941176,26.4705882 C38.5376471,26.4705882 41.1764706,29.1094118 41.1764706,32.3529412 C41.1764706,35.5964706 38.5376471,38.2352941 35.2941176,38.2352941 M35.2941176,23.5294118 C30.4288235,23.5294118 26.4705882,27.4876471 26.4705882,32.3529412 C26.4705882,37.2182353 30.4288235,41.1764706 35.2941176,41.1764706 C40.1594118,41.1764706 44.1176471,37.2182353 44.1176471,32.3529412 C44.1176471,27.4876471 40.1594118,23.5294118 35.2941176,23.5294118"/>
    <path stroke="#60810E" stroke-width=".5" d="M35.2941176,38.2352941 C32.0505882,38.2352941 29.4117647,35.5964706 29.4117647,32.3529412 C29.4117647,29.1094118 32.0505882,26.4705882 35.2941176,26.4705882 C38.5376471,26.4705882 41.1764706,29.1094118 41.1764706,32.3529412 C41.1764706,35.5964706 38.5376471,38.2352941 35.2941176,38.2352941 Z M35.2941176,23.5294118 C30.4288235,23.5294118 26.4705882,27.4876471 26.4705882,32.3529412 C26.4705882,37.2182353 30.4288235,41.1764706 35.2941176,41.1764706 C40.1594118,41.1764706 44.1176471,37.2182353 44.1176471,32.3529412 C44.1176471,27.4876471 40.1594118,23.5294118 35.2941176,23.5294118 Z"/>
    <path fill="#60810E" d="M38.2352941,45.9642768 L36.1098039,44.6086873 C35.6158824,44.2937305 34.9722549,44.2937305 34.4783333,44.6086873 L32.3529412,45.9642768 L32.3529412,40.8882022 C33.2733333,41.200439 34.2632353,41.3710483 35.2941176,41.3710483 C36.325,41.3710483 37.314902,41.200439 38.2352941,40.8882022 L38.2352941,45.9642768 Z M29.4117647,39.2156863 L29.4117647,48.5931057 C29.4117647,49.1120621 29.7102941,49.5888117 30.1884314,49.8335175 C30.6665686,50.0783171 31.2467647,50.0514923 31.6980392,49.7638293 L35.2941176,47.4703103 L38.8901961,49.7638293 C39.1362745,49.920745 39.4206863,50 39.7059804,50 C39.9438235,50 40.1823529,49.9448497 40.3998039,49.8335175 C40.8779412,49.5888117 41.1764706,49.1120621 41.1764706,48.5931057 L41.1764706,39.2156863 L29.4117647,39.2156863 Z"/>
    <path stroke="#60810E" stroke-width=".5" d="M38.2352941,45.9642768 L36.1098039,44.6086873 C35.6158824,44.2937305 34.9722549,44.2937305 34.4783333,44.6086873 L32.3529412,45.9642768 L32.3529412,40.8882022 C33.2733333,41.200439 34.2632353,41.3710483 35.2941176,41.3710483 C36.325,41.3710483 37.314902,41.200439 38.2352941,40.8882022 L38.2352941,45.9642768 Z M29.4117647,39.2156863 L29.4117647,48.5931057 C29.4117647,49.1120621 29.7102941,49.5888117 30.1884314,49.8335175 C30.6665686,50.0783171 31.2467647,50.0514923 31.6980392,49.7638293 L35.2941176,47.4703103 L38.8901961,49.7638293 C39.1362745,49.920745 39.4206863,50 39.7059804,50 C39.9438235,50 40.1823529,49.9448497 40.3998039,49.8335175 C40.8779412,49.5888117 41.1764706,49.1120621 41.1764706,48.5931057 L41.1764706,39.2156863 L29.4117647,39.2156863 Z"/>
    <path fill="#63666A" d="M19.0982972 14.7058824L30.9017028 14.7058824C31.7031734 14.7058824 32.3529412 14.047451 32.3529412 13.2352941 32.3529412 12.4231373 31.7031734 11.7647059 30.9017028 11.7647059L19.0982972 11.7647059C18.2968266 11.7647059 17.6470588 12.4231373 17.6470588 13.2352941 17.6470588 14.047451 18.2968266 14.7058824 19.0982972 14.7058824M13.224481 17.6470588C12.4182958 17.6470588 11.7647059 18.3054902 11.7647059 19.1176471 11.7647059 19.9298039 12.4182958 20.5882353 13.224481 20.5882353L36.775519 20.5882353C37.5817042 20.5882353 38.2352941 19.9298039 38.2352941 19.1176471 38.2352941 18.3054902 37.5817042 17.6470588 36.775519 17.6470588L13.224481 17.6470588zM25.0319693 23.5294118L19.0856777 23.5294118C18.2911765 23.5294118 17.6470588 24.1878431 17.6470588 25 17.6470588 25.8121569 18.2911765 26.4705882 19.0856777 26.4705882L25.0319693 26.4705882C25.8264706 26.4705882 26.4705882 25.8121569 26.4705882 25 26.4705882 24.1878431 25.8264706 23.5294118 25.0319693 23.5294118"/>
  </g>
</svg>
