<svg xmlns="http://www.w3.org/2000/svg" width="50" height="50" viewBox="0 0 50 50">
  <g fill="none" fill-rule="evenodd">
    <path fill="#63666A" d="M48.5352539,0 L42.6758789,0 C41.8668945,0 41.2110352,0.655859375 41.2110352,1.46484375 C41.2110352,2.27382812 41.8668945,2.9296875 42.6758789,2.9296875 L46.0995117,2.9296875 L39.1058594,10.8279297 C29.5402344,21.6457031 15.8668945,27.1394531 1.59160156,25.9003906 C0.786132813,25.8306641 0.0755859375,26.4271484 0.00556640625,27.2331055 C-0.0643554687,28.0390625 0.532324219,28.7491211 1.33828125,28.8191406 C8.7640625,29.4636719 16.3352539,28.3432617 23.2304688,25.5664063 C30.0922852,22.8030273 36.3408203,18.3776367 41.2999023,12.7694336 L47.0704102,6.25244141 L47.0704102,7.32421875 C47.0704102,8.13320313 47.7262695,8.7890625 48.5352539,8.7890625 C49.3442383,8.7890625 50.0000977,8.13320313 50.0000977,7.32421875 L50.0000977,1.46484375 C50.0000977,0.655859375 49.3442383,0 48.5352539,0"/>
    <path fill="#000" d="M14.7461914 47.0703125L11.8165039 47.0703125M26.4649414 47.0703125L23.5352539 47.0703125M38.1835938 47.0703125L35.2539062 47.0703125"/>
    <path fill="#63666A" d="M3.02744141,47.0703125 L1.46494141,47.0703125 C0.655957031,47.0703125 9.765625e-05,47.7261719 9.765625e-05,48.5351562 C9.765625e-05,49.3441406 0.655957031,50 1.46494141,50 L48.5352539,50 C49.3442383,50 50.0000977,49.3441406 50.0000977,48.5351562 C50.0000977,47.7261719 49.3442383,47.0703125 48.5352539,47.0703125 L46.9727539,47.0703125 L3.02744141,47.0703125 Z"/>
    <path fill="#60810E" d="M5.95712891 47.0703125L5.95712891 35.3220703C6.93349609 35.2939453 7.91201172 35.2390625 8.88681641 35.1577148L8.88681641 47.0703125 5.95712891 47.0703125zM11.8165039 47.0703125L11.8165039 33.5411133C11.8165039 32.6670898 11.0547852 31.9866211 10.1851562 32.0857422 8.29941406 32.3014648 6.38339844 32.4120117 4.49052734 32.4142578 3.68222656 32.4152344 3.02744141 33.0708008 3.02744141 33.8791016L3.02744141 47.0703125 11.8165039 47.0703125zM17.6758789 47.0703125L17.6758789 33.6834961C18.6580078 33.4337891 19.6369141 33.1556641 20.6055664 32.8510742L20.6055664 47.0703125 17.6758789 47.0703125zM23.5352539 47.0703125L23.5352539 30.8147461C23.5352539 29.8006836 22.5285156 29.0957031 21.5780273 29.4351562 19.7186523 30.0987305 17.8019531 30.6604492 15.8811523 31.1044922 15.2167969 31.2581055 14.7461914 31.8498047 14.7461914 32.5317383L14.7461914 47.0703125 23.5352539 47.0703125zM29.3946289 47.0703125L29.3946289 29.2140625C30.3862305 28.6977539 31.3648437 28.1492187 32.3243164 27.5719727L32.3243164 47.0703125 29.3946289 47.0703125zM35.2539062 47.0703125L35.2539062 24.9046875C35.2539062 23.7354492 33.9443359 23.0353516 32.972168 23.6887695 31.1545898 24.9099609 29.2379883 26.0261719 27.275293 27.00625 26.7787109 27.2542969 26.4649414 27.7616211 26.4649414 28.3166992L26.4649414 47.0703125 35.2539062 47.0703125zM41.1133789 47.0703125L41.1133789 20.9804688C42.1256836 20.0452148 43.1049805 19.0675781 44.0430664 18.0558594L44.0430664 47.0703125 41.1133789 47.0703125zM46.9727539 47.0703125L46.9727539 14.1369141C46.9727539 12.7731445 45.2642578 12.1523438 44.3874023 13.1933594 43.2756836 14.5133789 41.5395508 16.6579102 38.6677734 19.2460938 38.3595703 19.5238281 38.1835938 19.9193359 38.1835938 20.3341797L38.1835938 47.0703125 46.9727539 47.0703125z"/>
    <path fill="#000" d="M11.8165039,47.0703125 L3.02744141,47.0703125"/>
  </g>
</svg>
