<svg xmlns="http://www.w3.org/2000/svg" width="50" height="50" viewBox="0 0 50 50">
  <g fill="none" fill-rule="evenodd">
    <path fill="#63666A" d="M2.95238095 45.5882353C2.95238095 41.4797059 6.26347619 38.1372549 10.3333333 38.1372549 14.4031905 38.1372549 17.7142857 41.4797059 17.7142857 45.5882353L17.7142857 47.0588235 2.95238095 47.0588235 2.95238095 45.5882353zM5.9047619 30.7843137C5.9047619 28.3397059 7.93275238 26.2745098 10.3333333 26.2745098 12.7339143 26.2745098 14.7619048 28.3397059 14.7619048 30.7843137 14.7619048 33.2168627 12.7752476 35.1960784 10.3333333 35.1960784 7.89141905 35.1960784 5.9047619 33.2168627 5.9047619 30.7843137zM1.47619048 50L19.1904762 50C20.005727 50 20.6666667 49.3415686 20.6666667 48.5294118L20.6666667 45.5882353C20.6666667 41.5923529 18.4122286 38.1166667 15.1156984 36.3783333 16.7041778 35.0286275 17.7142857 33.0223529 17.7142857 30.7843137 17.7142857 28.8205882 16.9507016 26.9608824 15.5642635 25.5478431 14.1630635 24.1198039 12.305327 23.3333333 10.3333333 23.3333333 8.36133968 23.3333333 6.50360317 24.1198039 5.10240317 25.5478431 3.71596508 26.9608824 2.95238095 28.8205882 2.95238095 30.7843137 2.95238095 33.0223529 3.96248889 35.0286275 5.55096825 36.3783333 2.2544381 38.1166667 0 41.5923529 0 45.5882353L0 48.5294118C0 49.3415686.660939683 50 1.47619048 50zM47.047619 47.0588235L32.2857143 47.0588235 32.2857143 45.5882353C32.2857143 41.4797059 35.5968095 38.1372549 39.6666667 38.1372549 43.7365238 38.1372549 47.047619 41.4797059 47.047619 45.5882353L47.047619 47.0588235zM35.2380952 30.7843137C35.2380952 28.3397059 37.2660857 26.2745098 39.6666667 26.2745098 42.0672476 26.2745098 44.0952381 28.3397059 44.0952381 30.7843137 44.0952381 33.2169608 42.1084825 35.1960784 39.6666667 35.1960784 37.2247524 35.1960784 35.2380952 33.2169608 35.2380952 30.7843137zM44.4490317 36.3783333C46.0375111 35.0286275 47.047619 33.0223529 47.047619 30.7843137 47.047619 28.8205882 46.2840349 26.9608824 44.8975968 25.5478431 43.4963968 24.1198039 41.6386603 23.3333333 39.6666667 23.3333333 37.694673 23.3333333 35.8369365 24.1198039 34.4357365 25.5478431 33.0492984 26.9608824 32.2857143 28.8205882 32.2857143 30.7843137 32.2857143 33.0223529 33.2958222 35.0286275 34.8843016 36.3783333 31.5877714 38.1166667 29.3333333 41.5923529 29.3333333 45.5882353L29.3333333 48.5294118C29.3333333 49.3415686 29.994273 50 30.8095238 50L48.5238095 50C49.3390603 50 50 49.3415686 50 48.5294118L50 45.5882353C50 41.5923529 47.7455619 38.1166667 44.4490317 36.3783333z"/>
    <path fill="#63666A" d="M47.0703125,16.2957723 C47.0703125,17.112635 46.4131836,17.7772062 45.6054687,17.7772062 L30.9570312,17.7772062 C30.6703125,17.7772062 30.3900391,17.8622405 30.1506836,18.0218403 L23.5351562,22.4331553 L23.5351562,19.25864 C23.5351562,18.4404935 22.8792969,17.7772062 22.0703125,17.7772062 L4.39453125,17.7772062 C3.58681641,17.7772062 2.9296875,17.112635 2.9296875,16.2957723 L2.9296875,4.44430155 C2.9296875,3.62743892 3.58681641,2.9628677 4.39453125,2.9628677 L45.6054687,2.9628677 C46.4131836,2.9628677 47.0703125,3.62743892 47.0703125,4.44430155 L47.0703125,16.2957723 Z M45.6054687,0 L4.39453125,0 C1.97138672,0 0,1.99371367 0,4.44430155 L0,16.2957723 C0,18.7463602 1.97138672,20.7400739 4.39453125,20.7400739 L20.6054687,20.7400739 L20.6054687,25.1843754 C20.6054687,26.3690287 21.9107422,27.0651051 22.8766602,26.4211752 L31.3964844,20.7400739 L45.6054687,20.7400739 C48.0286133,20.7400739 50,18.7463602 50,16.2957723 L50,4.44430155 C50,1.99371367 48.0286133,0 45.6054687,0 Z"/>
    <path fill="#60810E" d="M42.5459184 6L7.45408163 6C6.65104082 6 6 6.59697778 6 7.33333333 6 8.06968889 6.65104082 8.66666667 7.45408163 8.66666667L42.5459184 8.66666667C43.3489592 8.66666667 44 8.06968889 44 7.33333333 44 6.59697778 43.3489592 6 42.5459184 6M31.1960784 12L7.47058824 12C6.65843137 12 6 12.5969778 6 13.3333333 6 14.0696889 6.65843137 14.6666667 7.47058824 14.6666667L31.1960784 14.6666667C32.0082353 14.6666667 32.6666667 14.0696889 32.6666667 13.3333333 32.6666667 12.5969778 32.0082353 12 31.1960784 12"/>
  </g>
</svg>
