<svg xmlns="http://www.w3.org/2000/svg" width="280" height="49" viewBox="0 0 280 49">
  <g fill="none" fill-rule="evenodd">
    <polygon fill="#0069B3" points="73.475 38.723 79.433 38.723 79.433 40.139 74.887 40.139 74.887 43.075 78.767 43.075 78.767 44.409 74.887 44.409 74.887 48.652 73.475 48.652"/>
    <path fill="#0069B3" d="M83.5896296 40.1257662L84.9740741 40.1257662 84.9740741 38.7096841 83.5896296 38.7096841 83.5896296 40.1257662zM81.2503704 40.1257662L82.6362963 40.1257662 82.6362963 38.7096841 81.2503704 38.7096841 81.2503704 40.1257662zM80.5325926 41.1703202L81.84 41.1703202 81.84 45.1583495C81.84 45.6102278 81.9637037 45.9625897 82.2103704 46.2161724 82.4525926 46.4704922 82.7622222 46.5972835 83.1385185 46.5972835 83.5148148 46.5972835 83.8222222 46.4704922 84.0607407 46.2161724 84.3037037 45.9625897 84.4244444 45.6102278 84.4244444 45.1583495L84.4244444 41.1703202 85.7318519 41.1703202 85.7318519 47.8600365 84.4244444 47.8600365 84.4244444 47.1442553 84.4 47.1442553C83.9696296 47.6727982 83.4074074 47.9367011 82.7133333 47.9367011 82.1748148 47.9278551 81.6881481 47.7273479 81.2540741 47.332968 80.7814815 46.9466968 80.5414815 46.3761358 80.5325926 45.6212852L80.5325926 41.1703202zM87.5348889 41.1706151L88.8422963 41.1706151 88.8422963 41.8797619 88.8697037 41.8797619C89.3000741 41.351219 89.8652593 41.0873161 90.5637778 41.0873161 91.0867407 41.0954249 91.5422963 41.2671829 91.9319259 41.6003787L90.9763704 42.7628781C90.7000741 42.5387819 90.4141481 42.4267337 90.1163704 42.4267337 89.7815556 42.4267337 89.4948889 42.5380447 89.2563704 42.762141 88.988963 42.9818143 88.8504444 43.3363877 88.8422963 43.8273355L88.8422963 47.8595942 87.5348889 47.8595942 87.5348889 41.1706151zM98.4811111 42.4268074C98.1714815 42.4268074 97.9359259 42.48062 97.7722222 42.5882452 97.592963 42.7047163 97.4603704 42.8646798 97.3774074 43.0666613 97.2974074 43.2701171 97.2455556 43.4890533 97.2203704 43.7264184 97.1951852 43.9807382 97.1825926 44.2416925 97.1825926 44.508544 97.1825926 44.7628637 97.1951852 45.0112863 97.2203704 45.2523372 97.2455556 45.506657 97.2974074 45.7351762 97.3774074 45.9378949 97.4603704 46.1317677 97.592963 46.290994 97.7722222 46.416311 97.9359259 46.537205 98.1714815 46.5969149 98.4811111 46.5969149 98.7907407 46.5969149 99.0351852 46.5327821 99.2151852 46.4037793 99.3951852 46.2784623 99.5181481 46.114813 99.5855556 45.9120943 99.6692593 45.7093757 99.7255556 45.4830679 99.7551852 45.2331711 99.7633333 44.9876972 99.767037 44.7459091 99.767037 44.508544 99.767037 44.2505384 99.7633333 44.002853 99.7551852 43.7647507 99.7255556 43.5281227 99.6692593 43.3084494 99.5855556 43.1057307 99.5181481 42.903012 99.3951852 42.7393628 99.2151852 42.6140458 99.0351852 42.4894659 98.7907407 42.4268074 98.4811111 42.4268074zM99.767037 47.1615786C99.3366667 47.6621094 98.7751852 47.920115 98.0818519 47.9370696 97.6892593 47.9282237 97.352963 47.8449248 97.072963 47.6856985 96.7803704 47.5308951 96.5359259 47.3244907 96.3396296 47.0664851 96.1596296 46.8556576 96.0411111 46.56964 95.9825926 46.2091694 95.9114815 45.8649162 95.8751852 45.2973039 95.8751852 44.5063325 95.8751852 43.7020922 95.9114815 43.130057 95.9825926 42.7902267 96.0411111 42.4467107 96.1596296 42.1688018 96.3396296 41.9587116 96.707037 41.3984709 97.2885185 41.1087675 98.0818519 41.0873899 98.4159259 41.0873899 98.7248148 41.1574199 99.0092593 41.2989544 99.2722222 41.4485977 99.5248148 41.6409961 99.767037 41.8754126L99.767037 38.4645788 101.074444 38.4645788 101.074444 47.859668 99.767037 47.859668 99.767037 47.1615786zM102.785926 47.8592994L104.093333 47.8592994 104.093333 41.1703202 102.785926 41.1703202 102.785926 47.8592994zM102.785926 39.8036278L104.093333 39.8036278 104.093333 38.4642102 102.785926 38.4642102 102.785926 39.8036278zM109.634148 43.9162368C109.617111 43.3943284 109.480815 42.9992113 109.225259 42.7316226 108.973407 42.4765657 108.651185 42.3497743 108.257852 42.3497743 107.863037 42.3497743 107.540815 42.4765657 107.288963 42.7316226 107.041556 42.9992113 106.905259 43.3943284 106.880074 43.9162368L109.634148 43.9162368zM106.880074 45.0234494C106.880074 45.5608382 107.031185 45.9692242 107.332667 46.2493445 107.612667 46.5331507 107.981556 46.6746851 108.437111 46.6746851 108.968963 46.6746851 109.443037 46.4572233 109.862296 46.0230368L110.809704 46.8545519C110.144519 47.5850763 109.363037 47.945547 108.464519 47.9367011 108.121556 47.9367011 107.787481 47.8858371 107.460815 47.7826349 107.297852 47.7266108 107.139333 47.6514206 106.984519 47.5563271 106.821556 47.4752396 106.668963 47.3742489 106.526741 47.254092 106.251185 47.0049323 106.027481 46.6569933 105.85563 46.2095379 105.668222 45.7805115 105.574148 45.2217451 105.574148 44.5347131 105.574148 43.8727445 105.65563 43.322824 105.818593 42.8849516 105.980815 42.4382334 106.190444 42.0858715 106.445259 41.8278659 106.704519 41.5661745 106.994889 41.3774619 107.31637 41.2609908 107.634148 41.1445197 107.948222 41.0870213 108.257852 41.0870213 109.001556 41.0958672 109.630444 41.3472383 110.143778 41.8418719 110.667481 42.3438771 110.931926 43.0360692 110.940815 43.9162368L110.940815 45.0234494 106.880074 45.0234494z"/>
    <polygon fill="#0069B3" points="115.267 46.681 119.413 39.726 115.301 39.726 115.301 38.464 121.106 38.464 121.106 39.535 116.814 46.52 121.106 46.52 121.106 47.86 115.267 47.86"/>
    <path fill="#0069B3" d="M122.492222,41.1706151 L123.79963,41.1706151 L123.79963,45.1579072 C123.79963,45.6097855 123.923333,45.9628846 124.17,46.2164672 C124.412222,46.4700499 124.721852,46.5968412 125.098148,46.5968412 C125.474444,46.5968412 125.781852,46.4700499 126.02037,46.2164672 C126.263333,45.9628846 126.384074,45.6097855 126.384074,45.1579072 L126.384074,41.1706151 L127.691481,41.1706151 L127.691481,47.8595942 L126.384074,47.8595942 L126.384074,47.1445502 L126.35963,47.1445502 C125.929259,47.6723559 125.367037,47.9369959 124.672963,47.9369959 C124.134444,47.92815 123.647778,47.7276428 123.213704,47.3325257 C122.741111,46.9469916 122.501111,46.3764307 122.492222,45.6215801 L122.492222,41.1706151 Z"/>
    <polygon fill="#0069B3" points="129.495 38.465 130.802 38.465 130.802 44.309 130.829 44.309 133.333 41.171 134.901 41.171 132.655 43.781 135.209 47.86 133.564 47.86 131.831 44.735 130.802 45.933 130.802 47.86 129.495 47.86"/>
    <path fill="#0069B3" d="M136.238593 41.1706151L137.546 41.1706151 137.546 45.1579072C137.546 45.6097855 137.669704 45.9628846 137.91637 46.2164672 138.158593 46.4700499 138.468222 46.5968412 138.844519 46.5968412 139.220815 46.5968412 139.528222 46.4700499 139.766741 46.2164672 140.009704 45.9628846 140.130444 45.6097855 140.130444 45.1579072L140.130444 41.1706151 141.437852 41.1706151 141.437852 47.8595942 140.130444 47.8595942 140.130444 47.1445502 140.106 47.1445502C139.67563 47.6723559 139.113407 47.9369959 138.419333 47.9369959 137.880815 47.92815 137.394148 47.7276428 136.960074 47.3325257 136.487481 46.9469916 136.247481 46.3764307 136.238593 45.6215801L136.238593 41.1706151zM143.240889 41.1706151L144.548296 41.1706151 144.548296 41.8797619 144.573481 41.8797619C145.003852 41.351219 145.567556 41.0873161 146.265333 41.0873161 146.804593 41.0873161 147.297185 41.2826632 147.743852 41.6733574 148.186815 42.0692117 148.418667 42.6486185 148.440148 43.4130522L148.440148 47.8595942 147.132741 47.8595942 147.132741 43.8723022C147.132741 43.4034692 147.012 43.0466843 146.769037 42.8012104 146.530519 42.5513136 146.223111 42.4267337 145.846815 42.4267337 145.470519 42.4267337 145.160889 42.5513136 144.918667 42.8012104 144.672 43.0466843 144.548296 43.4034692 144.548296 43.8723022L144.548296 47.8595942 143.240889 47.8595942 143.240889 41.1706151zM150.360444 42.201458L149.699704 42.201458 149.699704 41.17091 150.360444 41.17091 150.360444 40.2877937C150.360444 39.6523628 150.531556 39.1835298 150.873778 38.882769 151.209333 38.6041229 151.628593 38.4647999 152.134519 38.4647999L152.980444 38.4647999 152.980444 39.7268158 152.232296 39.7268158C151.838222 39.713547 151.650074 39.899311 151.667111 40.2833707L151.667111 41.17091 152.980444 41.17091 152.980444 42.201458 151.667111 42.201458 151.667111 47.8598891 150.360444 47.8598891 150.360444 42.201458zM154.386 39.1348036L155.692667 39.1348036 155.692667 41.1708362 156.646741 41.1708362 156.646741 42.2013843 155.692667 42.2013843 155.692667 46.1009544C155.683778 46.4407847 155.838593 46.6059082 156.157111 46.5970623L156.646741 46.5970623 156.646741 47.8598154 155.963778 47.8598154C155.504519 47.8598154 155.128963 47.7138579 154.83637 47.421943 154.53637 47.1425599 154.386 46.739334 154.386 46.2122654L154.386 42.2013843 153.729704 42.2013843 153.729704 41.1708362 154.386 41.1708362 154.386 39.1348036zM161.172074 38.4645788L162.479481 38.4645788 162.479481 46.1391393C162.479481 46.444323 162.642444 46.5969149 162.969852 46.5969149L163.422444 46.5969149 163.422444 47.859668 162.839481 47.859668C162.363185 47.859668 161.970593 47.7380368 161.660963 47.4940372 161.335778 47.2456147 161.172074 46.8283828 161.172074 46.2423415L161.172074 38.4645788zM168.324074 43.9162368C168.307037 43.3943284 168.170741 42.9992113 167.915185 42.7316226 167.663333 42.4765657 167.341111 42.3497743 166.947778 42.3497743 166.552963 42.3497743 166.230741 42.4765657 165.978889 42.7316226 165.731481 42.9992113 165.595185 43.3943284 165.57 43.9162368L168.324074 43.9162368zM165.57 45.0234494C165.57 45.5608382 165.721111 45.9692242 166.022593 46.2493445 166.302593 46.5331507 166.671481 46.6746851 167.127037 46.6746851 167.658889 46.6746851 168.132963 46.4572233 168.552222 46.0230368L169.49963 46.8545519C168.834444 47.5850763 168.052963 47.945547 167.154444 47.9367011 166.811481 47.9367011 166.477407 47.8858371 166.150741 47.7826349 165.987778 47.7266108 165.829259 47.6514206 165.674444 47.5563271 165.511481 47.4752396 165.358889 47.3742489 165.216667 47.254092 164.941111 47.0049323 164.717407 46.6569933 164.545556 46.2095379 164.358148 45.7805115 164.264074 45.2217451 164.264074 44.5347131 164.264074 43.8727445 164.345556 43.322824 164.508519 42.8849516 164.670741 42.4382334 164.88037 42.0858715 165.135185 41.8278659 165.394444 41.5661745 165.684815 41.3774619 166.006296 41.2609908 166.324074 41.1445197 166.638148 41.0870213 166.947778 41.0870213 167.691481 41.0958672 168.32037 41.3472383 168.833704 41.8418719 169.357407 42.3438771 169.621852 43.0360692 169.630741 43.9162368L169.630741 45.0234494 165.57 45.0234494zM171.134444 41.1706151L172.441852 41.1706151 172.441852 41.8797619 172.469259 41.8797619C172.89963 41.351219 173.464815 41.0873161 174.163333 41.0873161 174.686296 41.0954249 175.141852 41.2671829 175.531481 41.6003787L174.575926 42.7628781C174.29963 42.5387819 174.013704 42.4267337 173.715926 42.4267337 173.381111 42.4267337 173.094444 42.5380447 172.855926 42.762141 172.588519 42.9818143 172.45 43.3363877 172.441852 43.8273355L172.441852 47.8595942 171.134444 47.8595942 171.134444 41.1706151zM176.51637 41.1706151L177.823778 41.1706151 177.823778 41.8797619 177.848963 41.8797619C178.279333 41.351219 178.843037 41.0873161 179.540815 41.0873161 180.080074 41.0873161 180.572667 41.2826632 181.019333 41.6733574 181.462296 42.0692117 181.694148 42.6486185 181.71563 43.4130522L181.71563 47.8595942 180.408222 47.8595942 180.408222 43.8723022C180.408222 43.4034692 180.287481 43.0466843 180.044519 42.8012104 179.806 42.5513136 179.498593 42.4267337 179.122296 42.4267337 178.746 42.4267337 178.43637 42.5513136 178.194148 42.8012104 177.947481 43.0466843 177.823778 43.4034692 177.823778 43.8723022L177.823778 47.8595942 176.51637 47.8595942 176.51637 41.1706151zM187.253481 43.9162368C187.236444 43.3943284 187.100148 42.9992113 186.844593 42.7316226 186.592741 42.4765657 186.270519 42.3497743 185.877185 42.3497743 185.48237 42.3497743 185.160148 42.4765657 184.908296 42.7316226 184.660889 42.9992113 184.524593 43.3943284 184.499407 43.9162368L187.253481 43.9162368zM184.499407 45.0234494C184.499407 45.5608382 184.650519 45.9692242 184.952 46.2493445 185.232 46.5331507 185.600889 46.6746851 186.056444 46.6746851 186.588296 46.6746851 187.06237 46.4572233 187.48163 46.0230368L188.429037 46.8545519C187.763852 47.5850763 186.98237 47.945547 186.083852 47.9367011 185.740889 47.9367011 185.406815 47.8858371 185.080148 47.7826349 184.917185 47.7266108 184.758667 47.6514206 184.603852 47.5563271 184.440889 47.4752396 184.288296 47.3742489 184.146074 47.254092 183.870519 47.0049323 183.646815 46.6569933 183.474963 46.2095379 183.287556 45.7805115 183.193481 45.2217451 183.193481 44.5347131 183.193481 43.8727445 183.274963 43.322824 183.437926 42.8849516 183.600148 42.4382334 183.809778 42.0858715 184.064593 41.8278659 184.323852 41.5661745 184.614222 41.3774619 184.935704 41.2609908 185.253481 41.1445197 185.567556 41.0870213 185.877185 41.0870213 186.620889 41.0958672 187.249778 41.3472383 187.763111 41.8418719 188.286815 42.3438771 188.551259 43.0360692 188.560148 43.9162368L188.560148 45.0234494 184.499407 45.0234494zM190.063852 41.1706151L191.371259 41.1706151 191.371259 41.8797619 191.396444 41.8797619C191.826815 41.351219 192.390519 41.0873161 193.088296 41.0873161 193.627556 41.0873161 194.120148 41.2826632 194.566815 41.6733574 195.009778 42.0692117 195.24163 42.6486185 195.263111 43.4130522L195.263111 47.8595942 193.955704 47.8595942 193.955704 43.8723022C193.955704 43.4034692 193.834963 43.0466843 193.592 42.8012104 193.353481 42.5513136 193.046074 42.4267337 192.669778 42.4267337 192.293481 42.4267337 191.983852 42.5513136 191.74163 42.8012104 191.494963 43.0466843 191.371259 43.4034692 191.371259 43.8723022L191.371259 47.8595942 190.063852 47.8595942 190.063852 41.1706151z"/>
    <polygon fill="#0069B3" points="139.618 17.488 144.569 11.228 141.335 11.228 135.502 18.727 135.502 11.228 132.812 11.228 132.812 26.933 135.502 26.933 135.502 22.151 137.845 19.623 141.81 26.933 144.992 26.933"/>
    <path fill="#0069B3" d="M149.992963,14.1437189 C150.34037,13.958692 150.767778,13.8577013 151.250741,13.8444324 C151.752963,13.8577013 152.191481,13.9594292 152.546296,14.1415074 C152.891481,14.334643 153.169259,14.5779054 153.387778,14.882352 C153.653704,15.1816385 153.838889,15.5745442 153.938148,16.047063 C154.037407,16.5741315 154.087778,17.5950965 154.087778,19.0804715 C154.087778,20.5658466 154.037407,21.5794399 153.938889,22.090291 C153.838889,22.5805016 153.652963,22.9807789 153.372963,23.29702 C153.170741,23.5823005 152.894444,23.8174541 152.542593,24.0010067 C152.184815,24.2103598 151.752222,24.3172478 151.256667,24.3172478 C150.768519,24.3172478 150.347037,24.2110969 149.988519,23.9943722 C149.632222,23.8145055 149.341852,23.5778775 149.114444,23.278591 C148.850741,22.9829903 148.672963,22.5849246 148.584074,22.0895538 C148.478889,21.5757541 148.425556,20.5628979 148.425556,19.0804715 C148.425556,17.5987823 148.478889,16.5785545 148.584815,16.0463258 C148.672222,15.5708584 148.850741,15.179427 149.126296,14.8690832 C149.343333,14.5815912 149.635926,14.3375917 149.992963,14.1437189 M156.644074,15.4868223 C156.544815,14.8587629 156.358889,14.339066 156.104815,13.9697494 C155.744074,13.2348021 155.151481,12.5728334 154.344074,12.0022725 C153.521852,11.419917 152.485556,11.1169448 151.258889,11.1029387 C150.05,11.1169448 149.024074,11.4184427 148.212963,11.9971124 C147.391481,12.5647247 146.784815,13.2230075 146.418148,13.9417374 C146.181111,14.3339059 146.002593,14.849917 145.89,15.4772392 C145.784815,16.0949783 145.734444,17.2744324 145.734444,19.0804715 C145.734444,20.85555 145.784815,22.0246839 145.89,22.6549547 C145.945556,22.9940477 146.018148,23.283014 146.107778,23.5218534 C146.196667,23.7341552 146.296667,23.9567771 146.41,24.1956166 C146.784815,24.9305639 147.391481,25.585161 148.21,26.1380301 C149.022593,26.7203856 150.047778,27.0299923 151.267037,27.0594786 C152.487778,27.0307294 153.523333,26.7203856 154.341111,26.1409787 C155.150741,25.5829495 155.744074,24.9276153 156.088519,24.2192057 C156.357407,23.8248257 156.544074,23.2977571 156.644074,22.6505317 C156.734444,22.0239467 156.778889,20.823115 156.778889,19.0804715 C156.778889,17.3105532 156.734444,16.1023499 156.644074,15.4868223"/>
    <polygon fill="#0069B3" points="168.505 11.228 168.505 21.591 162.144 11.333 162.079 11.228 159.615 11.228 159.615 26.933 162.306 26.933 162.306 16.571 168.656 26.829 168.721 26.933 171.196 26.933 171.196 11.228"/>
    <path fill="#0069B3" d="M179.372296 18.09806L179.372296 20.7127623 182.404148 20.7127623 182.404148 21.2884833C182.390815 22.1848685 182.116741 22.9153929 181.584148 23.4631019 181.051556 24.0380858 180.393778 24.3174689 179.573037 24.3174689 179.084148 24.3174689 178.662667 24.2113181 178.304889 23.9945934 177.947852 23.8147266 177.658222 23.5780986 177.430815 23.2788122 177.16637 22.9824743 176.988593 22.5844086 176.899704 22.089775 176.795259 21.5752381 176.741185 20.5631191 176.741185 19.0806927 176.741185 17.5982663 176.795259 16.5780385 176.900444 16.0458098 176.987111 15.5710795 177.16563 15.1796482 177.441926 14.8693043 177.658963 14.5810752 177.950815 14.3370757 178.307852 14.14394 178.654519 13.958176 179.081185 13.8579224 179.56637 13.8439164 180.232296 13.8579224 180.804889 14.0569553 181.258222 14.4292205 181.707852 14.835395 182.023407 15.3322401 182.194519 15.9072239L182.241185 16.0642388 185.058222 16.0642388 185.009333 15.8047589C184.764148 14.487456 184.167111 13.3669746 183.234519 12.472801 182.293037 11.5778902 181.063407 11.1171659 179.574519 11.1031599 178.36637 11.1171659 177.340444 11.419401 176.528593 12.0010193 175.70637 12.5708431 175.099704 13.2320746 174.733778 13.9522787 174.496741 14.3444472 174.318963 14.8582469 174.20563 15.4840948 174.101185 16.1010967 174.050074 17.2776022 174.050074 19.0806927 174.050074 20.8557711 174.101185 22.024905 174.20563 22.6551758 174.261926 22.9942689 174.333778 23.2832351 174.423407 23.5213374 174.512296 23.7343763 174.612296 23.9562611 174.72637 24.1951006 175.100444 24.9307851 175.707852 25.5853821 176.52563 26.1382512 177.338963 26.7206067 178.364148 27.0302134 179.581926 27.0596998 181.149333 27.0302134 182.470074 26.4766071 183.50637 25.4121498 184.532296 24.3440067 185.06637 23.0031148 185.095259 21.4233834L185.095259 18.09806 179.372296 18.09806zM190.563704 13.718968L193.877778 13.718968C194.542963 13.718968 195.053333 13.8605025 195.400741 14.1479944 195.82963 14.4649727 196.045185 14.9750866 196.058519 15.7033995 196.058519 16.3174528 195.873333 16.8187208 195.487407 17.2403757 195.11037 17.678248 194.526667 17.9067672 193.755556 17.9200361L190.563704 17.9200361 190.563704 13.718968zM195.836296 20.0504251C197.658519 19.2483963 198.595556 17.789559 198.622963 15.7033995 198.580741 14.234242 198.057778 13.0835371 197.073333 12.2866684 196.253333 11.584156 195.184444 11.2281083 193.898519 11.2281083L187.872593 11.2281083 187.872593 26.933277 190.563704 26.933277 190.563704 20.4094214 193.082963 20.4094214 196.159259 26.933277 199.331111 26.933277 195.836296 20.0504251z"/>
    <polygon fill="#0069B3" points="211.377 13.844 211.377 11.228 201.444 11.228 201.444 26.933 211.377 26.933 211.377 24.317 204.135 24.317 204.135 20.263 210.317 20.263 210.317 17.773 204.135 17.773 204.135 13.844"/>
    <path fill="#0069B3" d="M223.410222 19.4089495C222.711704 18.5361534 221.625037 17.9906559 220.17763 17.7872001 219.474667 17.6972667 218.919852 17.6169164 218.51837 17.5483606 217.836889 17.4186207 217.339111 17.1871528 217.03837 16.8598543 216.742074 16.542876 216.59837 16.2008343 216.59837 15.818986 216.610222 15.1496458 216.825778 14.6638582 217.256889 14.3328738 217.67837 14.008524 218.215407 13.8441375 218.850963 13.8441375 220.140593 13.8714124 221.339111 14.2539979 222.411704 14.9815736L222.59763 15.1076278 224.089481 12.8467617 223.922074 12.722919C222.526519 11.6901595 220.863556 11.1453991 218.972444 11.1026439 217.386519 11.1166499 216.140593 11.5537851 215.269481 12.4000434 214.365037 13.256622 213.907259 14.3955323 213.907259 15.786551 213.907259 16.946839 214.272444 17.9479007 214.992444 18.761724 215.688 19.550484 216.712444 20.0650208 218.040593 20.2898543 218.754667 20.395268 219.410963 20.4896243 220.001333 20.5721861 221.195407 20.7822764 221.768741 21.3830608 221.756148 22.4047629 221.730963 23.6660417 220.842074 24.2918895 219.042074 24.3169529 217.470222 24.3036841 216.09763 23.8097877 214.960593 22.8485326L214.790963 22.7055237 213.032444 24.7776772 213.194667 24.920686C214.810222 26.3397167 216.767259 27.0591838 219.015407 27.0591838 222.541333 27.0156914 224.369481 25.4484917 224.446519 22.395917 224.446519 21.2673269 224.09837 20.2618423 223.410222 19.4089495M236.416593 19.4089495C235.718074 18.5361534 234.631407 17.9906559 233.184 17.7872001 232.481037 17.6972667 231.926222 17.6169164 231.524741 17.5483606 230.843259 17.4186207 230.345481 17.1871528 230.044741 16.8598543 229.748444 16.542876 229.604741 16.2008343 229.604741 15.818986 229.616593 15.1496458 229.832148 14.6638582 230.263259 14.3328738 230.684741 14.008524 231.221778 13.8441375 231.857333 13.8441375 233.146963 13.8714124 234.345481 14.2539979 235.418074 14.9815736L235.604 15.1076278 237.095852 12.8467617 236.928444 12.722919C235.532889 11.6901595 233.869926 11.1453991 231.978815 11.1026439 230.392889 11.1166499 229.146963 11.5537851 228.275852 12.4000434 227.371407 13.256622 226.91363 14.3955323 226.91363 15.786551 226.91363 16.946839 227.278815 17.9479007 227.998815 18.761724 228.69437 19.550484 229.718815 20.0650208 231.046963 20.2898543 231.761037 20.395268 232.417333 20.4896243 233.007704 20.5721861 234.201778 20.7822764 234.775111 21.3830608 234.762519 22.4047629 234.737333 23.6660417 233.848444 24.2918895 232.048444 24.3169529 230.476593 24.3036841 229.104 23.8097877 227.966963 22.8485326L227.797333 22.7055237 226.038815 24.7776772 226.201037 24.920686C227.816593 26.3397167 229.77363 27.0591838 232.021778 27.0591838 235.547704 27.0156914 237.375852 25.4484917 237.452889 22.395917 237.452889 21.2673269 237.104741 20.2618423 236.416593 19.4089495"/>
    <path fill="#003369" d="M248.24163 15.6896884C248.226815 14.37902 247.790519 13.2806533 246.945333 12.4277606 246.110519 11.5630733 245.010519 11.1170922 243.671259 11.1030862 242.473481 11.1170922 241.449778 11.5549645 240.626074 12.4056458 239.817185 13.2710703 239.378667 14.3775457 239.32237 15.692637L239.312741 15.9218934 241.864593 15.9218934 241.885333 15.725072C241.954222 15.0830067 242.172741 14.5810015 242.537185 14.2315882 242.886074 13.8865979 243.312741 13.7192628 243.838667 13.7192628 244.437926 13.7317945 244.886074 13.9219815 245.204593 14.2986697 245.52237 14.6886267 245.676444 15.1346078 245.676444 15.660202 245.676444 15.8621835 245.650519 16.0796454 245.604593 16.2875242 245.531259 16.5204664 245.387556 16.7814206 245.18163 17.0578551L239.32237 24.5864582 239.32237 26.9335719 248.24163 26.9335719 248.24163 24.3173952 242.789778 24.3173952 247.299407 18.5085837C247.924593 17.6896003 248.24163 16.7423512 248.24163 15.6896884M252.932741 15.8430174C252.957926 14.4195637 253.553481 13.7450634 254.797926 13.7192628 256.043111 13.7450634 256.64237 14.4195637 256.68163 15.8422802L256.68163 22.3174833C256.643111 23.7542059 256.044593 24.4294434 254.803852 24.4434494 253.552741 24.4294434 252.957926 23.754943 252.932741 22.3233806L252.932741 15.8430174zM254.80163 11.1030862C253.627556 11.1030862 252.60237 11.5026263 251.758667 12.2869632 250.849778 13.0860434 250.383111 14.2345369 250.368296 15.7000086L250.368296 22.4501719C250.383111 23.9097464 250.849778 25.0552912 251.754222 25.8499484 252.600889 26.6379712 253.625333 27.0441457 254.804593 27.059626 256.012741 27.0441457 257.054222 26.637234 257.900148 25.8484741 258.764593 25.0493939 259.217185 23.9053234 259.245333 22.4420632L259.245333 15.7051687C259.217185 14.239697 258.764593 13.0919407 257.900889 12.2935977 257.052741 11.5033634 256.010519 11.1030862 254.80163 11.1030862z"/>
    <polygon fill="#003369" points="261.882 12.909 261.882 15.789 263.996 14.198 263.996 26.934 266.559 26.934 266.559 11.228 264.143 11.228"/>
    <path fill="#003369" d="M273.27637,20.6532736 C273.69637,20.2485734 274.19637,20.0458547 274.793407,20.0325859 C275.421556,20.0458547 275.930444,20.2485734 276.351185,20.6532736 C276.777852,21.0631339 276.991185,21.5828309 277.003778,22.2330049 C276.991185,22.8787561 276.777852,23.3918186 276.347481,23.8061019 C275.926741,24.2343911 275.420815,24.4430071 274.798593,24.4430071 C274.19637,24.4430071 273.700074,24.2343911 273.274148,23.7994674 C272.83563,23.3903443 272.61637,22.8802304 272.603778,22.2374279 C272.61637,21.5813565 272.83563,21.0638711 273.27637,20.6532736 M276.145259,17.1480834 C275.760815,17.4982338 275.320074,17.6692547 274.798593,17.6692547 C274.297111,17.6692547 273.866741,17.4982338 273.477111,17.1436604 C273.094148,16.811939 272.900815,16.3357344 272.887481,15.6885089 C272.900815,15.0199059 273.094148,14.533381 273.47637,14.2031339 C273.860815,13.8773097 274.293407,13.7188205 274.798593,13.7188205 C275.323778,13.7188205 275.766,13.8773097 276.146741,14.1994481 C276.519333,14.5319067 276.706741,15.020643 276.719333,15.684086 C276.706741,16.3349972 276.519333,16.8134133 276.145259,17.1480834 M277.885259,18.7993191 C278.268222,18.4292654 278.591185,18.0120335 278.846,17.5549951 C279.13637,17.0426697 279.283778,16.4286164 279.283778,15.7275783 C279.269704,14.4058526 278.840815,13.2956914 278.009704,12.4273183 C277.180815,11.562631 276.100815,11.1166499 274.79637,11.1026439 C273.514148,11.1166499 272.451926,11.5633681 271.641556,12.4251068 C270.780815,13.2949542 270.337111,14.4065897 270.323037,15.7327384 C270.323037,16.4352508 270.486,17.0522527 270.797852,17.5483606 C271.030444,18.0098221 271.340074,18.4307397 271.721556,18.8022678 C270.617111,19.647789 270.051185,20.8080769 270.037111,22.2558569 L270.037111,22.2602798 C270.051185,23.6903679 270.531926,24.8521302 271.462296,25.7087088 C272.351926,26.5903507 273.473407,27.0444406 274.800815,27.0591838 C276.128963,27.0444406 277.266741,26.5903507 278.183037,25.7101831 C279.089704,24.8484444 279.55637,23.685945 279.570444,22.2506968 C279.55637,20.803654 278.989704,19.643366 277.885259,18.7993191"/>
    <path fill="#94C01F" d="M29.1462222,12.7133359 C29.1462222,12.7133359 24.4573333,14.347617 20.9247407,17.0411954 C16.9736296,20.0539635 16.3921481,25.6025579 22.7025185,29.9208343 C31.8099259,36.152775 42.3736296,36.8412813 54.6936296,36.8471786 C64.3965926,36.8294868 81.4217778,34.1978298 88.7728889,31.9834047 C72.6158519,33.6493836 59.3528889,32.8134455 52.1817778,31.7298221 C45.0077037,30.6498844 38.2432593,29.4225149 30.8714074,24.7909461 C23.0447407,20.0436432 29.1462222,12.7133359 29.1462222,12.7133359"/>
    <path fill="#F49C00" d="M31.6274074,11.6479203 C31.6274074,11.6479203 65.222963,14.2663084 47.2348148,24.4258313 C54.7644444,25.250712 62.6414815,19.7352897 60.4481481,16.7239959 C56.04,10.6778193 39.9755556,9.50573673 31.6274074,11.6479203"/>
    <path fill="#003369" d="M11.7474815,8.02471094 C22.988963,2.07952504 31.6156296,1.14701913 40.9600741,0.477678917 C59.1126667,-0.821932087 79.1200741,4.11776918 79.1200741,4.11776918 C79.1200741,4.11776918 56.6697037,1.22147217 42.1719259,3.06363207 C27.8008148,4.88957447 21.6134074,8.14118203 15.8985926,12.2213561 C9.89859259,16.630303 6.57933333,25.2034601 14.0719259,32.0833634 C30.2045185,45.7208016 53.1193333,42.2008683 53.1193333,42.2008683 C53.1193333,42.2008683 47.1119259,45.2040533 33.2452593,44.5708339 C22.2445185,44.0695659 8.6697037,40.6565205 2.63933333,32.2816591 C-3.40362963,23.6768042 1.64303704,13.4826349 11.7474815,8.02471094"/>
    <polygon fill="#003369" points="92.904 13.918 92.904 11.234 88.243 11.234"/>
    <polygon fill="#003369" points="92.904 26.829 92.904 14.436 88.563 17.105 88.563 26.829"/>
    <polygon fill="#94C01F" points="125.739 19.944 125.739 25.808 130.678 22.876"/>
    <path fill="#003369" d="M99.9036296 14.2578311L102.268815 14.2578311C103.288815 14.2578311 104.048815 14.8844161 104.048815 15.7697438 104.048815 16.9580438 103.288815 17.4224539 102.116963 17.4224539L99.9036296 17.4327741 99.9036296 14.2578311zM99.9036296 23.7944548L99.9036296 20.4241646 102.746593 20.4241646C103.722889 20.4890346 104.331778 21.3094924 104.331778 22.1741797 104.331778 23.145755 103.528074 23.7944548 102.442889 23.7944548L99.9036296 23.7944548zM102.920667 26.8293376C103.085111 26.8050114 108.890296 27.1323099 108.890296 22.5958345 108.890296 20.370352 107.196222 19.0537864 105.111778 18.7721917L105.111778 18.7286993C106.870296 18.4043495 108.499185 17.2381642 108.499185 15.3163911 108.499185 12.572686 106.02437 11.254646 103.071778 11.2332684L95.5621481 11.2332684 95.5621481 26.8293376 102.920667 26.8293376zM114.901407 14.2578311L117.267333 14.2578311C118.287333 14.2578311 119.047333 14.8844161 119.047333 15.7697438 119.047333 16.9580438 118.287333 17.4224539 117.114741 17.4224539L114.901407 17.4327741 114.901407 14.2578311zM114.901407 23.7944548L114.901407 20.4241646 117.745852 20.4241646C118.721407 20.4890346 119.330296 21.3094924 119.330296 22.1741797 119.330296 23.145755 118.526593 23.7944548 117.441407 23.7944548L114.901407 23.7944548zM117.918444 26.8293376C118.074 26.7843709 123.888074 27.1323099 123.888074 22.5958345 123.888074 20.370352 122.194741 19.0537864 120.110296 18.7721917L120.110296 18.7286993C121.868815 18.4043495 123.496963 17.2381642 123.496963 15.3163911 123.496963 12.572686 121.022889 11.254646 118.071037 11.2332684L110.560667 11.2332684 110.560667 26.8293376 117.918444 26.8293376zM77.8597037 14.2578311L80.2256296 14.2578311C81.2456296 14.2578311 82.0056296 14.8844161 82.0056296 15.7697438 82.0056296 16.9580438 81.2456296 17.4224539 80.0737778 17.4224539L77.8597037 17.4327741 77.8597037 14.2578311zM77.8597037 23.7944548L77.8597037 20.4241646 80.7034074 20.4241646C81.6804444 20.4890346 82.2878519 21.3094924 82.2878519 22.1741797 82.2878519 23.145755 81.4848889 23.7944548 80.398963 23.7944548L77.8597037 23.7944548zM80.8767407 26.8293376C81.0404444 26.7843709 86.8456296 27.1323099 86.8456296 22.5958345 86.8456296 20.370352 85.153037 19.0537864 83.0693333 18.7721917L83.0693333 18.7286993C84.8271111 18.4043495 86.4552593 17.2381642 86.4552593 15.3163911 86.4552593 12.572686 83.9811852 11.254646 81.0285926 11.2332684L73.5182222 11.2332684 73.5182222 26.8293376 80.8767407 26.8293376z"/>
  </g>
</svg>
