<svg xmlns="http://www.w3.org/2000/svg" xmlns:xlink="http://www.w3.org/1999/xlink" width="15" height="12" viewBox="0 0 15 12">
    <defs>
        <path id="a" d="M5.364.17L.188 4.882a.545.545 0 0 0 0 .823l5.176 4.712a.684.684 0 0 0 .905 0l.603-.549a.545.545 0 0 0 0-.822L2.771 5.294l4.103-3.752A.546.546 0 0 0 6.872.72L6.27.17A.673.673 0 0 0 5.816 0a.677.677 0 0 0-.452.17z"/>
    </defs>
    <g fill="none" fill-rule="evenodd">
        <use fill="#FFF" xlink:href="#a"/>
        <path fill="#FEFEFE" d="M14.999 7.016C14.993 5.352 13.814 4 12.365 4h-4.86A.505.505 0 0 0 7 4.505v.947c0 .279.226.505.505.505h4.86c.32 0 .678.459.678 1.072v4.466c0 .278.226.505.505.505h.947a.505.505 0 0 0 .505-.505V7.016h-.001z"/>
    </g>
</svg>
