<svg xmlns="http://www.w3.org/2000/svg" width="17" height="17" viewBox="0 0 17 17">
  <path fill="#63666A" fill-rule="evenodd" d="M16.6892426,0.311014057 C16.2748994,-0.103671352 15.6099753,-0.103671352 15.195241,0.311014057 L8.49995112,7.00551465 L1.8051501,0.311014057 C1.39031804,-0.103671352 0.725491718,-0.103671352 0.311050725,0.311014057 C-0.103683575,0.725406195 -0.103683575,1.39015414 0.311050725,1.80493731 L7.00634058,8.49894911 L0.311050725,15.1934497 C-0.103683575,15.6081351 -0.103683575,16.2729808 0.311050725,16.6872752 C0.514213826,16.8908054 0.788063607,17 1.05428744,17 C1.3201202,17 1.59387221,16.8984304 1.79713308,16.6872752 L8.49232517,9.99287236 L15.187615,16.6872752 C15.3907781,16.8908054 15.6646279,17 15.9303629,17 C16.2042127,17 16.4704365,16.8984304 16.6735996,16.6872752 C17.0883339,16.2729808 17.0883339,15.6081351 16.6735996,15.1934497 L9.99405049,8.49894911 L16.6892426,1.80493731 C17.1035858,1.39015414 17.1035858,0.725406195 16.6892426,0.311014057"/>
</svg>
