<svg xmlns="http://www.w3.org/2000/svg" width="36" height="36" viewBox="0 0 36 36">
  <g fill="none" fill-rule="evenodd">
    <rect width="36" height="36" fill="#63666A" fill-rule="nonzero" opacity=".85" style="mix-blend-mode:multiply"/>
    <path fill="#FFF" d="M13.8826756,5.42360741 L12.5983475,7.11960741 C11.8350425,6.53412593 11.1622992,6.31723704 10.3354836,6.31723704 C8.92883849,6.31723704 7.82916192,7.33412593 7.82916192,9.98538519 C7.82916192,12.5430148 8.83710076,13.6215333 10.3049044,13.6215333 C11.3140193,13.6215333 12.0479211,13.2825704 12.8135783,12.6650889 L14.0049926,14.4227185 C13.0264568,15.3163481 11.7727079,15.9634593 10.122605,15.9634593 C7.00234628,15.9634593 4.89237862,13.837237 4.89237862,9.98538519 C4.89237862,6.19397778 7.18699785,4.00612593 10.0908497,4.00612593 C11.6515671,4.00612593 12.8429814,4.52997778 13.8826756,5.42360741 M2.38605695,10.0150148 C2.38605695,14.7308667 5.65685966,17.9036074 10.0308673,17.9036074 C14.3719435,17.9036074 17.6439223,14.7308667 17.6439223,10.0150148 C17.6439223,5.30034815 14.3719435,2.06479259 10.0308673,2.06479259 C5.65685966,2.06479259 2.38605695,5.30034815 2.38605695,10.0150148 M19.9997,10.0150148 C19.9997,15.8698296 15.56571,20.0002 10.0308673,20.0002 C4.49602461,20.0002 -0.0003,15.8698296 -0.0003,10.0150148 C-0.0003,4.12938519 4.49602461,0.0002 10.0308673,0.0002 C15.56571,0.0002 19.9997,4.12938519 19.9997,10.0150148" transform="translate(8 8)"/>
  </g>
</svg>
