<svg xmlns="http://www.w3.org/2000/svg" width="25" height="25" viewBox="0 0 25 25">
  <path fill="#63666A" fill-rule="evenodd" d="M22.1958496,4.87550239 L20.1242187,2.80387072 L21.1602539,1.76827461 L23.2318359,3.83985745 L22.1958496,4.87550239 Z M17.6759766,18.3104686 C17.6759766,18.7143261 17.3472168,19.0427931 16.9434082,19.0427931 L8.10546875,19.0427931 C7.90844727,19.0427931 7.71958008,19.1222365 7.58203125,19.2631056 L4.4434082,22.4714565 L4.4434082,19.7753129 C4.4434082,19.3709182 4.11547852,19.0427931 3.7109375,19.0427931 L2.19731445,19.0427931 C1.79350586,19.0427931 1.46484375,18.7143261 1.46484375,18.3104686 L1.46484375,8.0567048 C1.46484375,7.65270073 1.79350586,7.32418498 2.19731445,7.32418498 L13.5325195,7.32418498 L11.3200684,9.53668584 C11.2589355,9.59781868 11.1985352,9.68190074 11.1581543,9.78151016 L9.13095703,14.6484066 L5.17578125,14.6484066 C4.77133789,14.6484066 4.4434082,14.9763852 4.4434082,15.3809752 C4.4434082,15.7851258 4.77133789,16.1127626 5.17578125,16.1127626 L9.61938477,16.1127626 C9.71362305,16.1127626 9.81469727,16.0933778 9.90717773,16.0538759 L15.218457,13.8415703 C15.3069336,13.8071953 15.3961914,13.7469414 15.4632812,13.6798515 L17.6759766,11.4674483 L17.6759766,18.3104686 Z M12.0935059,11.3459151 L13.6540527,12.9065114 L10.9791016,14.0206231 L12.0935059,11.3459151 Z M14.9452148,12.12614 L12.8737793,10.0545571 L19.088623,3.83985745 L21.1602539,5.91134263 L14.9452148,12.12614 Z M21.678125,0.214563072 C21.392041,-0.0715210239 20.9282227,-0.0715210239 20.642334,0.214563072 L14.9975586,5.85934066 L2.19731445,5.85934066 C0.985693359,5.85934066 0,6.84508323 0,8.0567048 L0,18.3104686 C0,19.5220901 0.985693359,20.5076374 2.19731445,20.5076374 L2.97861328,20.5076374 L2.97861328,24.2675021 C2.97861328,24.5652561 3.15874023,24.8333715 3.434375,24.9457739 C3.71396484,25.0596899 4.02924805,24.9893286 4.23452148,24.7797094 L8.41347656,20.5076374 L16.9434082,20.5076374 C18.1550293,20.5076374 19.1407715,19.5220901 19.1407715,18.3104686 L19.1407715,10.0025552 L24.7855469,4.35763109 C25.0714844,4.071547 25.0714844,3.60787494 24.7855469,3.32179084 L21.678125,0.214563072 Z"/>
</svg>
