<svg xmlns="http://www.w3.org/2000/svg" width="40" height="30" viewBox="0 0 40 30">
  <g fill="#63666A" fill-rule="evenodd">
    <path d="M17.1049802,20.2493281 L24.8728063,15.1275099 L17.1049802,10.0071937 L17.1049802,20.2493281 Z M16.0525692,23.2567589 C15.8791304,23.2567589 15.7067194,23.2132016 15.5536759,23.130751 C15.2121739,22.9468775 15,22.5918577 15,22.2041897 L15,8.05280632 C15,7.66466403 15.2121739,7.30940711 15.5535968,7.1255336 C15.7064822,7.04347826 15.8792885,7 16.0531225,7 C16.2597628,7 16.4596047,7.05992095 16.6311462,7.17320158 L27.3633202,14.2484585 C27.6598419,14.4439526 27.8368379,14.7726482 27.8368379,15.1275889 C27.8368379,15.4827668 27.66,15.8109881 27.3637154,16.0056126 L16.6313834,23.0826877 C16.4592885,23.1966798 16.2593676,23.2567589 16.0525692,23.2567589 Z"/>
    <path d="M6.82719368,2.52871001 C4.39778656,2.52871001 2.42126482,4.59393189 2.42126482,7.13246646 L2.42126482,22.8676987 C2.42126482,25.4062332 4.39778656,27.47129 6.82719368,27.47129 L33.1727273,27.47129 C35.6022134,27.47129 37.5787352,25.4062332 37.5787352,22.8676987 L37.5787352,7.13246646 C37.5787352,4.59393189 35.6022134,2.52871001 33.1727273,2.52871001 L6.82719368,2.52871001 Z M6.82719368,30 C3.06268775,30 0,26.8004954 0,22.8676987 L0,7.13320949 C0,3.2 3.06268775,0 6.82719368,0 L33.1727273,0 C36.9373123,0 40,3.2 40,7.13320949 L40,22.8676987 C40,26.8004954 36.9373123,30 33.1727273,30 L6.82719368,30 Z"/>
  </g>
</svg>
