<svg xmlns="http://www.w3.org/2000/svg" width="21" height="40" viewBox="0 0 21 40">
  <path fill="#63666A" fill-rule="evenodd" d="M2.08794326,20.009639 L6.26382979,20.009639 C6.83949314,20.009639 7.30780142,20.4779472 7.30780142,21.0536106 L7.30780142,37.7285345 L10.4397163,37.7285345 L10.4397163,21.0536106 C10.4397163,20.4779472 10.9080246,20.009639 11.4836879,20.009639 L17.1934298,20.009639 L17.9764085,16.8777241 L11.4836879,16.8777241 C10.9080246,16.8777241 10.4397163,16.4094158 10.4397163,15.8337524 L10.4397163,8.87376757 C10.4397163,6.85898931 12.0788388,5.21986686 14.093617,5.21986686 L18.2695035,5.21986686 L18.2695035,2.08795196 L14.093617,2.08795196 C10.3518487,2.08795196 7.30780142,5.13208624 7.30780142,8.87376757 L7.30780142,15.8337524 C7.30780142,16.4094158 6.83949314,16.8777241 6.26382979,16.8777241 L2.08794326,16.8777241 L2.08794326,20.009639 Z M6.26382979,39.6715397 C5.68816643,39.6715397 5.21985816,39.2032314 5.21985816,38.627568 L5.21985816,22.0888825 L1.04397163,22.0888825 C0.468308274,22.0888825 0,21.6206612 0,21.0449108 L0,15.8337524 C0,15.2580891 0.468308274,14.7897808 1.04397163,14.7897808 L5.21985816,14.7897808 L5.21985816,8.87376757 C5.21985816,3.98075953 9.20060898,8.69976359e-06 14.093617,8.69976359e-06 L19.3134752,8.69976359e-06 C19.8891385,8.69976359e-06 20.3574468,0.468316974 20.3574468,1.04398033 L20.3574468,6.26383849 C20.3574468,6.83950184 19.8891385,7.30781012 19.3134752,7.30781012 L14.093617,7.30781012 C13.2301655,7.30781012 12.5276596,8.01031603 12.5276596,8.87376757 L12.5276596,14.7897808 L19.3134752,14.7897808 C19.6369324,14.7897808 19.9367262,14.9362848 20.1362118,15.1917099 C20.3354364,15.4469609 20.4046865,15.7732891 20.3263017,16.0869156 L19.0213371,21.3067737 C18.9049343,21.7723851 18.4884766,22.0975822 18.0085106,22.0975822 L12.5276596,22.0975822 L12.5276596,38.627568 C12.5276596,39.2032314 12.0593513,39.6715397 11.4836879,39.6715397 L6.26382979,39.6715397 Z"/>
</svg>
