<svg xmlns="http://www.w3.org/2000/svg" width="30" height="20" viewBox="0 0 30 20">
  <path fill="#FFF" fill-rule="evenodd" d="M27.2786621,8.90276042 L27.2786621,6 L24.5442383,6 L24.5442383,8.90276042 L21.8229492,8.90276042 L21.8229492,11.8194271 L24.5442383,11.8194271 L24.5442383,14.7222396 L27.2786621,14.7222396 L27.2786621,11.8194271 L30,11.8194271 L30,8.90276042 L27.2786621,8.90276042 Z M18.2256348,8.5675 C18.3151855,9.07229167 18.3791016,9.57708333 18.3791016,10.231875 C18.3791016,15.9481771 14.7851074,20 9.375,20 C4.19511719,20 0,15.5252604 0,10 C0,4.47473958 4.19511719,0 9.375,0 C11.9074219,0 14.0177246,0.982239583 15.654834,2.619375 L13.1096191,5.22510417 C12.4189453,4.51567708 11.2039551,3.68348958 9.375,3.68348958 C6.17753906,3.68348958 3.56835938,6.5075 3.56835938,10 C3.56835938,13.4925 6.17753906,16.3165104 9.375,16.3165104 C13.0840332,16.3165104 14.4781738,13.4652083 14.6955566,12.0054167 L9.375,12.0054167 L9.375,8.56744792 L18.2256348,8.56744792 L18.2256348,8.5675 Z"/>
</svg>
