<svg xmlns="http://www.w3.org/2000/svg" xmlns:xlink="http://www.w3.org/1999/xlink" width="17" height="17" viewBox="0 0 17 17">
  <defs>
    <path id="open-a" d="M7.94904092,0.223998987 C7.81004155,0.360998368 7.72104195,0.556997482 7.72504193,0.77199651 L7.72504193,7.72096509 L0.772073368,7.72096509 C0.561074322,7.72096509 0.362075222,7.8069647 0.224075846,7.94496408 C0.0820764877,8.08696344 -0.00292312802,8.27796257 7.68584215e-05,8.49196161 C7.68584215e-05,8.92295966 0.345075299,9.2679581 0.77607335,9.2679581 L7.72004196,9.27595806 L7.72004196,16.2249266 C7.72004196,16.6549247 8.0650404,16.9999231 8.49503845,16.9999231 C8.9260365,16.9999231 9.27103494,16.6549247 9.27103494,16.2249266 L9.27203494,9.27595806 L16.2250035,9.27595806 C16.6550016,9.27595806 17,8.92895963 17,8.49996157 C17,8.06896352 16.6550016,7.72396508 16.2250035,7.72396508 L9.27203494,7.72396508 L9.27203494,0.774996496 C9.27203494,0.34499844 8.9270365,0 8.49703844,0 C8.2860394,0 8.0870403,0.0849996157 7.94904092,0.223998987 Z"/>
  </defs>
  <use fill="#63666A" fill-rule="evenodd" xlink:href="#open-a"/>
</svg>
