<svg xmlns="http://www.w3.org/2000/svg" xmlns:xlink="http://www.w3.org/1999/xlink" width="17" height="17" viewBox="0 0 17 17">
    <path id="a" d="M7.949.224a.752.752 0 0 0-.224.548v6.949H.772a.78.78 0 0 0-.548.224.751.751 0 0 0-.224.547c0 .431.345.776.776.776l6.944.008v6.949c0 .43.345.775.775.775a.773.773 0 0 0 .776-.775l.001-6.949h6.953c.43 0 .775-.347.775-.776a.773.773 0 0 0-.775-.776H9.272V.775A.777.777 0 1 0 7.949.224z"/>
    <use fill="#63666A" fill-rule="evenodd" xlink:href="#a"/>
</svg>
