<svg xmlns="http://www.w3.org/2000/svg" width="25" height="25" viewBox="0 0 25 25">
  <g fill="none" fill-rule="evenodd">
    <path fill="#63666A" d="M17.7127881 13.5381201C18.1948193 13.5381201 18.585542 13.9389502 18.585542 14.4334326 18.585542 14.9278662 18.1948193 15.3286963 17.7127881 15.3286963 17.2308057 15.3286963 16.840083 14.9278662 16.840083 14.4334326 16.840083 13.9389502 17.2308057 13.5381201 17.7127881 13.5381201M20.1591504 13.5381201C20.6411328 13.5381201 21.0319043 13.9389502 21.0319043 14.4334326 21.0319043 14.9278662 20.6411328 15.3286963 20.1591504 15.3286963 19.677168 15.3286963 19.2863965 14.9278662 19.2863965 14.4334326 19.2863965 13.9389502 19.677168 13.5381201 20.1591504 13.5381201"/>
    <path fill="#63666A" d="M6.33666992,9.53891602 L18.6632813,9.53891602 L18.6632813,1.50952148 L6.33666992,1.50952148 L6.33666992,9.53891602 Z M2.52045898,6.51791992 C1.93652344,6.51791992 1.46147461,7.00302734 1.46147461,7.59921875 L1.46147461,18.1112793 C1.46147461,18.7074707 1.93652344,19.1924805 2.52045898,19.1924805 L22.4794922,19.1924805 C23.0634277,19.1924805 23.5384766,18.7074707 23.5384766,18.1112793 L23.5384277,7.59921875 C23.5384277,7.00302734 23.0633789,6.51791992 22.4794434,6.51791992 L20.1246582,6.51791992 L20.1246582,9.53891602 L20.8186035,9.53891602 C21.2215332,9.53891602 21.5493164,9.87753906 21.5493164,10.2936523 C21.5493164,10.7098145 21.2215332,11.0483887 20.8186035,11.0483887 L4.18134766,11.0483887 C3.77841797,11.0483887 3.45063477,10.7098145 3.45063477,10.2936523 C3.45063477,9.87753906 3.77841797,9.53891602 4.18134766,9.53891602 L4.87514648,9.53891602 L4.87514648,6.51791992 L2.52045898,6.51791992 Z M6.33642578,23.4904297 L18.6635742,23.4904297 L18.6635742,20.7019531 L6.33642578,20.7019531 L6.33642578,23.4904297 Z M5.60571289,25 C5.2027832,25 4.87490234,24.661377 4.87490234,24.2452637 L4.87490234,20.702002 L2.52045898,20.702002 C1.13061523,20.702002 0,19.5397949 0,18.1112793 L0,7.59921875 C0,6.1706543 1.13061523,5.00844727 2.52045898,5.00844727 L4.87524414,5.00844727 L4.87524414,0.754736328 C4.87524414,0.338623047 5.20307617,0 5.60600586,0 L19.394043,0 C19.7969238,0 20.1247559,0.338623047 20.1247559,0.754736328 L20.1247559,5.00844727 L22.4794922,5.00844727 C23.8692871,5.00844727 25,6.1706543 25,7.59921875 L25,18.1112793 C25,19.5397949 23.8692871,20.702002 22.4794922,20.702002 L20.1250488,20.702002 L20.1250488,24.2452637 C20.1250488,24.661377 19.7972168,25 19.3942871,25 L5.60571289,25 Z"/>
  </g>
</svg>
