<svg xmlns="http://www.w3.org/2000/svg" width="107" height="57" viewBox="0 0 107 57">
  <g fill="#60810E" fill-opacity=".35" fill-rule="evenodd">
    <path d="M42.7024965,56.9997516 L42.7024965,49.0000032 C45.2244954,47.6293078 47.1164978,45.16266 48.3785037,41.5950279 C49.6384968,38.0273957 50.2705061,33.3245621 50.2705061,27.4865271 L50.2705061,24.9997516 L39.9993484,24.9997516 L39.9993484,0.9995 L63.9996,0.9995 L63.9996,18.9453439 C63.9996,29.8273768 62.2162871,38.4410196 58.6486549,44.7832532 C55.0810228,51.1244803 49.7653012,55.1973174 42.7024965,56.9997516 M2.7027481,56.9997516 L2.7027481,49.0000032 C5.22474703,47.6293078 7.11674942,45.16266 8.37875527,41.5950279 C9.63874835,38.0273957 10.2697513,33.3245621 10.2697513,27.4865271 L10.2697513,24.9997516 L-0.0004,24.9997516 L-0.0004,0.9995 L23.9998516,0.9995 L23.9998516,18.9453439 C23.9998516,29.8273768 22.2165387,38.4410196 18.6489065,44.7832532 C15.0812744,51.1244803 9.76454638,55.1973174 2.7027481,56.9997516"/>
    <polygon points="79 13.39 107 13.39 107 12.39 79 12.39"/>
  </g>
</svg>
