<svg xmlns="http://www.w3.org/2000/svg" width="40" height="40" viewBox="0 0 40 40">
  <g fill="#63666A" fill-rule="evenodd">
    <path d="M14.4004488 39.4695827C13.4689528 39.4694252 12.7103701 38.7133622 12.7094252 37.7843071 12.7039921 34.9783228 11.6127323 32.3441496 9.63674803 30.3669055 7.65533071 28.3876142 5.02115748 27.2960394 2.21934646 27.2932047 1.76816535 27.292811 1.34438583 27.1168268 1.02611811 26.7976929.707771654 26.4786378.532732283 26.0544646.533125984 25.6032835.533992126 24.6734409 1.29131496 23.9169055 2.22115748 23.9169055 5.92493701 23.9198189 9.40651181 25.3624961 12.0243071 27.9792677 14.6368268 30.592811 16.079189 34.0729685 16.0857244 37.7787165 16.0865906 38.2299764 15.9117087 38.6543071 15.5934409 38.9735984 15.2751732 39.2930472 14.8514724 39.4691102 14.4004488 39.4695827M26.3555748 39.7348661C25.4248661 39.7348661 24.667622 38.9780157 24.667622 38.047622 24.6657323 31.9794331 22.3031339 26.2765197 18.0150236 21.9893543 13.7252598 17.6995906 8.02140157 15.3360472 1.95423622 15.3341575 1.50313386 15.3341575 1.07911811 15.1585669.760377953 14.8395118.441795276 14.5204567.266519685 14.0963622.266913386 13.6452598.266913386 12.7148661 1.02423622 11.9580157 1.95502362 11.9580157 8.9228189 11.9599055 15.474315 14.6741575 20.4027402 19.6007717 25.327622 24.5265984 28.0409291 31.0768346 28.0428189 38.0449449 28.0432126 38.4965197 27.867937 38.9209291 27.5492756 39.2399843 27.2306929 39.5591181 26.8067559 39.7348661 26.3555748 39.7348661"/>
    <path d="M38.3127795 40C37.8615984 40 37.4374252 39.8244882 37.1186063 39.505748 36.7996299 39.1867717 36.6242756 38.7627559 36.6246693 38.3118898 36.6265591 28.9825984 32.9928583 20.21 26.3927008 13.6099213 19.7910472 7.01 11.0175039 3.37527559 1.68813386 3.37527559.757346457 3.37527559.0000236220472 2.6184252.0000236220472 1.68811024.0000236220472.757244094.757346457 0 1.68813386 0 11.9201811 0 21.5418346 3.98543307 28.7804173 11.2222835 36.0181339 18.4599213 40.0027008 28.0805512 40.0000236 38.311811 40.0000236 39.2426772 39.2430945 40 38.3127795 40M3.60966929 38.9922913C2.17699213 38.9922913 1.01132283 37.826622 1.01132283 36.3938661 1.01132283 34.9611102 2.17699213 33.7954409 3.60966929 33.7954409 5.04250394 33.7954409 6.20817323 34.9611102 6.20817323 36.3938661 6.20817323 37.826622 5.04250394 38.9922913 3.60966929 38.9922913"/>
  </g>
</svg>
