<svg xmlns="http://www.w3.org/2000/svg" width="26" height="20" viewBox="0 0 26 20">
  <g fill="none" fill-rule="evenodd">
    <rect width="20" height="20" x="6" fill="#848485" fill-rule="nonzero"/>
    <polygon fill="#848485" fill-rule="nonzero" points="0 10 6 7 6 13"/>
    <g fill="#FFF" transform="translate(13.2 4)">
      <path stroke="#FFF" stroke-width=".25" d="M4,10.7999776 C4,11.4389523 3.46663667,12 2.79214716,12 C2.11765765,12 1.6,11.4389076 1.6,10.7999776 C1.6,10.1454444 2.13336333,9.6 2.79214716,9.6 C3.45102098,9.6 4,10.1454444 4,10.7999776"/>
      <path d="M6.4,2.46539634 C6.4,3.86991996 5.07314889,4.88595559 4.6517486,5.19972941 C3.79318471,5.84219417 3.77751095,6.29043636 3.77751095,7.06741234 C3.77751095,7.35130907 3.62144506,7.68 2.85661027,7.68 C2.2165834,7.68 1.99809116,7.45585747 1.99809116,6.67892435 C1.99809116,5.39395198 2.59123109,4.78132146 3.04393411,4.40779344 C3.55906349,3.98942835 4.4331668,3.52626905 4.4331668,2.7193731 C4.4331668,2.03207126 3.80881369,1.70333746 3.02826035,1.70333746 C1.43607484,1.70333746 1.77946457,2.85384147 0.936574443,2.85384147 C0.515084596,2.85384147 0,2.58490473 0,2.0021513 C0,1.19529822 0.967787621,0 3.07510251,0 C5.07314889,0 6.4,1.06087271 6.4,2.46539634"/>
    </g>
  </g>
</svg>
