<svg xmlns="http://www.w3.org/2000/svg" width="30" height="30" viewBox="0 0 30 30">
    <path fill="#63666A" fill-rule="evenodd" d="M21.322 18.122a1.062 1.062 0 0 0-.283.913l1.316 8.05-6.897-3.8a.944.944 0 0 0-.916 0l-6.897 3.8 1.316-8.05a1.062 1.062 0 0 0-.283-.913l-5.58-5.699 7.712-1.175a.989.989 0 0 0 .74-.564L15 3.361l3.45 7.323c.143.305.42.515.74.564l7.712 1.175-5.58 5.7zm8.63-6.737a.998.998 0 0 0-.794-.702l-9.173-1.398-4.103-8.71A.98.98 0 0 0 15 0a.98.98 0 0 0-.882.575l-4.103 8.71-9.173 1.398a.998.998 0 0 0-.794.702c-.116.373-.019.783.25 1.057l6.636 6.779-1.566 9.574c-.063.387.089.777.392 1.008a.947.947 0 0 0 1.036.079L15 25.362l8.204 4.52a.946.946 0 0 0 1.036-.079c.303-.23.455-.621.391-1.008l-1.565-9.574 6.637-6.78c.268-.273.365-.683.249-1.056z"/>
</svg>
