<svg xmlns="http://www.w3.org/2000/svg" width="24" height="20" viewBox="0 0 24 20">
  <path fill="#FFF" fill-rule="evenodd" d="M19.7386318,4.48592117 C19.7525967,4.68278677 19.7525967,4.87969565 19.7525967,5.07656125 C19.7525967,11.0812217 15.2158094,18 6.92388252,18 C4.36929441,18 1.99620702,17.2546551 0,15.961004 C0.362958449,16.0031214 0.711909031,16.0171894 1.08883238,16.0171894 C3.19667264,16.0171894 5.13706304,15.3000238 6.68656518,14.0765829 C4.70432306,14.0343789 3.0431447,12.7265732 2.47079871,10.9265602 C2.75001074,10.9687642 3.0291798,10.9968569 3.32235673,10.9968569 C3.7271669,10.9968569 4.13202005,10.9405849 4.50890043,10.8421954 C2.44291189,10.4203282 0.893366771,8.59217915 0.893366771,6.38436695 L0.893366771,6.32813819 C1.49359958,6.66564062 2.19162965,6.87657423 2.93142551,6.90466697 C1.71695202,6.08902527 0.921296568,4.69685478 0.921296568,3.12184341 C0.921296568,2.27810897 1.14460603,1.5046713 1.53549428,0.829666432 C3.75505373,3.58591467 7.09137536,5.38588437 10.8324642,5.58279326 C10.7626827,5.24529082 10.720788,4.89376366 10.720788,4.54219322 C10.720788,2.03903934 12.7309599,0 15.2296454,0 C16.5279083,0 17.7004871,0.548436046 18.5241153,1.43437453 C19.5431232,1.23750893 20.5202364,0.857802456 21.3858023,0.337502435 C21.0507307,1.39221378 20.3388216,2.27815226 19.4035602,2.84061303 C20.3109348,2.74222352 21.1903796,2.48904258 22,2.13751542 C21.3858882,3.03747863 20.6180766,3.83900903 19.7386318,4.48592117" transform="translate(0 1)"/>
</svg>
