<svg xmlns="http://www.w3.org/2000/svg" width="20" height="20" viewBox="0 0 20 20">
  <path fill="#FFF" fill-rule="evenodd" d="M17.0753983,0.629328266 L10.6482615,11.9214506 L10.6482615,11.9348404 L14.7366793,19.3706806 C14.910703,19.6875742 14.7456059,20.0000045 14.3572997,20.0000045 L11.4471904,20.0000045 C11.108025,20.0000045 10.8402276,19.8214729 10.6437983,19.4554831 L6.51971881,11.9348404 C6.66700736,11.6759696 8.81831287,7.88217361 12.9826066,0.544525767 C13.1878732,0.182999322 13.446744,4.45434298e-06 13.7636822,4.45434298e-06 L16.6960187,4.45434298e-06 C17.0530819,4.45434298e-06 17.245048,0.299044847 17.0753983,0.629328266 Z M7.26066949,7.94465967 C7.18028565,8.09194822 6.13587592,9.92636018 4.13185896,13.4568221 C3.91320241,13.8272752 3.6498237,14.0147333 3.34185672,14.0147333 L0.436255296,14.0147333 C0.0925820092,14.0147333 -0.103758093,13.6799866 0.0568756937,13.3720196 L3.13654541,7.95804953 C3.14547199,7.95804953 3.14547199,7.95358624 3.13654541,7.94465967 L1.17716134,4.57041285 C0.985239898,4.22227627 1.19059585,3.94108903 1.55654095,3.94108903 L4.46214238,3.94108903 C4.7879625,3.94108903 5.05575987,4.1240839 5.26553448,4.48561035 L7.26066949,7.94465967 Z" transform="translate(1)"/>
</svg>
